<svg xmlns="http://www.w3.org/2000/svg" width="24" height="24" viewBox="0 0 24 24">
  <path fill-rule="evenodd" d="M4,3 C3.447,3 3,3.447 3,4 C3,13.388 10.612,21 20,21 C20.553,21 21,20.553 21,20 L21,16.5 C21,15.948 20.553,15.501 20,15.501 C18.752,15.501 17.552,15.3 16.428,14.932 C16.328,14.9 16.223,14.884 16.119,14.884 C15.864,14.884 15.608,14.982 15.413,15.177 L13.212,17.38 C10.38,15.94 8.065,13.625 6.623,10.794 L8.823,8.587 C9.098,8.313 9.179,7.918 9.068,7.572 C8.7,6.447 8.499,5.247 8.499,4 C8.499,3.447 8.052,3 7.5,3 L4,3 Z"/>
</svg>
