<svg xmlns="http://www.w3.org/2000/svg" width="24" height="24" viewBox="0 0 24 24">
  <path fill-rule="evenodd" d="M19.4,14.0001 C18.7,17.4001 15.7,20.0001 12,20.0001 C9.1,20.0001 6.6,18.4001 5.4,16.0001 C2.3,15.6001 0,13.1001 0,10.0001 C0,6.7001 2.7,4.0001 6,4.0001 L19,4.0001 C21.8,4.0001 24,6.2001 24,9.0001 C24,11.6001 21.9,13.8001 19.4,14.0001 L19.4,14.0001 Z M14,11.0001 L14,7.0001 L10,7.0001 L10,11.0001 L7,11.0001 L12,16.0001 L17,11.0001 L14,11.0001 L14,11.0001 Z" transform="matrix(1 0 0 -1 0 24)"/>
</svg>
