<svg xmlns="http://www.w3.org/2000/svg" width="24" height="24" viewBox="0 0 24 24">
  <path fill-rule="evenodd" d="M22,4 L18,4 L13,9 L15,11 L22,4 Z M12,11.5 C12.276,11.5 12.5,11.723 12.5,12 C12.5,12.275 12.276,12.5 12,12.5 C11.724,12.5 11.5,12.275 11.5,12 C11.5,11.723 11.724,11.5 12,11.5 L12,11.5 Z M6,20 C4.896,20 4,19.105 4,18 C4,16.895 4.896,16 6,16 C7.104,16 8,16.895 8,18 C8,19.105 7.104,20 6,20 L6,20 Z M6,8 C4.896,8 4,7.105 4,6 C4,4.895 4.896,4 6,4 C7.104,4 8,4.895 8,6 C8,7.105 7.104,8 6,8 L6,8 Z M10,6 C10,3.791 8.209,2 6,2 C3.791,2 2,3.791 2,6 C2,8.209 3.791,10 6,10 C6.586,10 7.139,9.867 7.64,9.641 L10,12 L7.64,14.359 C7.139,14.133 6.586,14 6,14 C3.791,14 2,15.791 2,18 C2,20.209 3.791,22 6,22 C8.209,22 10,20.209 10,18 C10,17.414 9.867,16.861 9.64,16.359 L12,14 L18,20 L22,20 L9.64,7.641 C9.867,7.139 10,6.586 10,6 L10,6 Z"/>
</svg>
