<svg xmlns="http://www.w3.org/2000/svg" width="24" height="24" viewBox="0 0 24 24">
  <path fill-rule="evenodd" d="M13,2 L13,5.02158273 C16.1757111,5.52517986 18.8221371,8.44604317 18.8221371,11.971223 C18.8221371,12.8776978 18.2928519,13.6834532 17.9752808,14.4892086 L20.6217067,16 C21.2568489,14.7913669 21.9978482,13.381295 21.9978482,11.8705036 C22.1037052,6.73381295 18.2928519,2.50359712 13,2 L13,2 Z M11.6067416,18.9849246 C7.66292135,18.9849246 5.03370787,15.8693467 5.03370787,11.9497487 C5.03370787,8.4321608 7.56179775,5.51758794 11.6067416,5.01507538 L11.6067416,2 C6.5505618,2.40201005 2,6.72361809 2,11.9497487 C2,17.4773869 6.24719101,22 11.9101124,22 C15.247191,22 18.0786517,20.3919598 20,17.879397 L17.2696629,16.3718593 C15.9550562,17.9798995 13.8314607,18.9849246 11.6067416,18.9849246 L11.6067416,18.9849246 Z"/>
</svg>
