<svg xmlns="http://www.w3.org/2000/svg" width="24" height="24" viewBox="0 0 24 24">
  <path fill-rule="evenodd" d="M5.5,7 C4.672,7 4.001,6.327 4.001,5.5 C4.001,4.672 4.672,4 5.5,4 C6.328,4 7,4.672 7,5.5 C7,6.327 6.328,7 5.5,7 M10.999,2 L2,2 L2,11 C2,11.552 2.225,12.051 2.587,12.415 L11.59,21.413 C11.951,21.775 12.451,22 13.004,22 C13.557,22 14.057,21.776 14.418,21.415 L21.412,14.42 C21.775,14.058 22,13.556 22,13.004 C22,12.451 21.777,11.95 21.413,11.59 L12.415,2.585 C12.051,2.225 11.552,2 10.999,2"/>
</svg>
