<svg xmlns="http://www.w3.org/2000/svg" width="24" height="24" viewBox="0 0 24 24">
  <path fill-rule="evenodd" d="M8,13 C5.667,13 0.999,14.167 0.999,16.5 L0.999,18.999 L15,18.999 L15,16.5 C15,14.167 10.334,13 8,13 M16.001,13 C15.71,13 15.384,13.018 15.035,13.054 C16.193,13.892 17,15.017 17,16.5 L17,18.999 L22.999,18.999 L22.999,16.5 C22.999,14.167 18.334,13 16.001,13 M8,4.999 C6.344,4.999 5,6.344 5,8 C5,9.656 6.344,11 8,11 C9.657,11 10.991,9.656 10.991,8 C10.991,6.344 9.657,4.999 8,4.999 M16.001,4.999 C14.343,4.999 13,6.344 13,8 C13,9.656 14.343,11 16.001,11 C17.657,11 18.99,9.656 18.99,8 C18.99,6.344 17.657,4.999 16.001,4.999"/>
</svg>
