<svg xmlns="http://www.w3.org/2000/svg" width="24" height="24" viewBox="0 0 24 24">
  <path fill-rule="evenodd" d="M19,16.0001 L5,16.0001 C3.3,16.0001 2,14.7001 2,13.0001 L2,7.0001 L6,7.0001 L6,3.0001 L18,3.0001 L18,7.0001 L22,7.0001 L22,13.0001 C22,14.7001 20.7,16.0001 19,16.0001 L19,16.0001 Z M16,5.0001 L8,5.0001 L8,10.0001 L16,10.0001 L16,5.0001 L16,5.0001 Z M19,12.0001 C18.4,12.0001 18,12.4001 18,13.0001 C18,13.6001 18.4,14.0001 19,14.0001 C19.6,14.0001 20,13.6001 20,13.0001 C20,12.4001 19.6,12.0001 19,12.0001 L19,12.0001 Z M18,21.0001 L6,21.0001 L6,17.0001 L18,17.0001 L18,21.0001 L18,21.0001 Z" transform="matrix(1 0 0 -1 0 24)"/>
</svg>
