<svg xmlns="http://www.w3.org/2000/svg" width="24" height="24" viewBox="0 0 24 24">
  <path fill-rule="evenodd" d="M13,17 L17,17 L17,13 L13,13 L13,17 Z M13,11 L17,11 L17,7 L13,7 L13,11 Z M11,21 L13,21 L13,19 L11,19 L11,21 Z M15,21 L17,21 L17,19 L15,19 L15,21 Z M19,13 L21,13 L21,11 L19,11 L19,13 Z M15,5 L17,5 L17,3 L15,3 L15,5 Z M19,9 L21,9 L21,7 L19,7 L19,9 Z M7,21 L9,21 L9,19 L7,19 L7,21 Z M19,17 L21,17 L21,15 L19,15 L19,17 Z M19,21 C20.105,21 21,20.105 21,19 L19,19 L19,21 Z M9,3 L7,3 L7,5 L9,5 L9,3 Z M13,3 L11,3 L11,5 L13,5 L13,3 Z M19,3 L19,5 L21,5 C21,3.896 20.105,3 19,3 L19,3 Z M11,7 L7,7 L7,11 L11,11 L11,7 Z M3,13 L5,13 L5,11 L3,11 L3,13 Z M3,5 L5,5 L5,3 C3.896,3 3,3.896 3,5 L3,5 Z M3,9 L5,9 L5,7 L3,7 L3,9 Z M11,13 L7,13 L7,17 L11,17 L11,13 Z M5,21 L5,19 L3,19 C3,20.105 3.896,21 5,21 L5,21 Z M3,17 L5,17 L5,15 L3,15 L3,17 Z"/>
</svg>
