<svg xmlns="http://www.w3.org/2000/svg" width="24" height="24" viewBox="0 0 24 24">
  <path fill-rule="evenodd" d="M18,16.1364462 C17.24,16.1364462 16.56,16.437651 16.04,16.9095386 L8.91,12.7428719 C8.96,12.5119482 9,12.2810245 9,12.0400606 C9,11.7990968 8.96,11.5681731 8.91,11.3372494 L15.96,7.21074337 C16.5,7.71275141 17.21,8.02399639 18,8.02399639 C19.66,8.02399639 21,6.67861486 21,5.01194819 C21,3.34528153 19.66,1.9999 18,1.9999 C16.34,1.9999 15,3.34528153 15,5.01194819 C15,5.25291205 15.04,5.48383574 15.09,5.71475944 L8.04,9.84126546 C7.5,9.33925743 6.79,9.02801245 6,9.02801245 C4.34,9.02801245 3,10.373394 3,12.0400606 C3,13.7067273 4.34,15.0521088 6,15.0521088 C6.79,15.0521088 7.5,14.7408639 8.04,14.2388558 L15.16,18.4155627 C15.11,18.626406 15.08,18.8472896 15.08,19.0681731 C15.08,20.684639 16.39,21.9999 18,21.9999 C19.61,21.9999 20.92,20.684639 20.92,19.0681731 C20.92,17.4517072 19.61,16.1364462 18,16.1364462 L18,16.1364462 Z"/>
</svg>
