<svg xmlns="http://www.w3.org/2000/svg" width="24" height="24" viewBox="0 0 24 24">
  <path fill-rule="evenodd" d="M8,18 C6.896,18 6.01,18.895 6.01,20 C6.01,21.104 6.896,22 8,22 C9.105,22 10,21.104 10,20 C10,18.895 9.105,18 8,18 M18,18 C16.896,18 16.01,18.895 16.01,20 C16.01,21.104 16.896,22 18,22 C19.105,22 20,21.104 20,20 C20,18.895 19.105,18 18,18 M4,2 L1.999,2 L1.999,3.999 L4,3.999 L7.598,11.587 L6.245,14.038 C6.089,14.325 6,14.653 6,15 C6,16.104 6.896,17 8,17 L20,17 L20,15 L8.423,15 C8.285,15 8.174,14.889 8.174,14.75 L8.204,14.629 L9.102,13 L16.551,13 C17.303,13 17.959,12.585 18.301,11.971 L21.875,5.482 C21.955,5.34 22.001,5.175 22.001,5 C22.001,4.447 21.553,3.999 21,3.999 L6.213,3.999 L5.807,3.145 C5.488,2.468 4.798,2 4,2"/>
</svg>
