<svg width="512" height="512" viewBox="0 0 512 512" fill="none" xmlns="http://www.w3.org/2000/svg">
<path d="M482.214 29.786C440.966 -11.46 350.628 7.88397 256 70.758C161.372 7.88397 71.032 -11.46 29.786 29.786C-11.46 71.034 7.88397 161.374 70.758 256C7.88397 350.628 -11.46 440.966 29.786 482.214C71.032 523.46 161.372 504.116 256 441.244C350.628 504.118 440.966 523.46 482.214 482.214C523.46 440.966 504.116 350.628 441.242 256C504.116 161.374 523.46 71.034 482.214 29.786Z" fill="#F4EFED"/>
<path d="M49.786 482.214C9.33797 441.764 27.158 354.102 87.16 261.482C89.324 258.142 89.324 253.858 87.16 250.516C27.158 157.898 9.33797 70.2361 49.786 29.7861C62.634 16.9381 80.248 9.97406 101.27 8.37006C71.354 6.29006 46.526 13.0481 29.786 29.7861C-11.46 71.0341 7.88397 161.374 70.758 256C7.88397 350.628 -11.46 440.966 29.786 482.214C46.526 498.954 71.354 505.712 101.27 503.632C80.25 502.026 62.634 495.062 49.786 482.214Z" fill="white"/>
<path d="M482.214 29.7861C465.474 13.0461 440.646 6.28807 410.73 8.37007C431.75 9.97607 449.366 16.9401 462.214 29.7861C502.664 70.2361 484.842 157.898 424.84 250.518C422.676 253.858 422.676 258.142 424.84 261.484C484.842 354.102 502.662 441.766 462.214 482.216C449.366 495.064 431.75 502.028 410.73 503.634C440.646 505.714 465.474 498.956 482.214 482.216C523.46 440.968 504.116 350.63 441.242 256.002C504.116 161.374 523.46 71.0341 482.214 29.7861Z" fill="#D6D1CF"/>
<path d="M90.9939 508.052C64.1119 508.052 42.2779 500.36 26.9579 485.04C-1.33206 456.752 -3.61406 406.224 20.5359 342.766C44.2899 280.354 90.8619 212.49 151.676 151.676C212.49 90.862 280.354 44.29 342.766 20.536C406.22 -3.61199 456.748 -1.33599 485.04 26.958C513.33 55.248 515.612 105.774 491.462 169.232C467.708 231.644 421.136 299.508 360.322 360.322C299.508 421.136 231.644 467.708 169.232 491.462C140.138 502.536 113.756 508.052 90.9939 508.052ZM421.016 11.906C399.29 11.906 373.858 17.264 345.614 28.014C284.234 51.376 217.368 97.302 157.334 157.334C97.2999 217.37 51.3739 284.234 28.0139 345.614C5.05394 405.948 6.68594 453.456 32.6159 479.386C58.5459 505.318 106.058 506.948 166.388 483.988C227.768 460.626 294.634 414.7 354.668 354.668C414.702 294.636 460.628 227.77 483.988 166.388C506.95 106.054 505.316 58.546 479.386 32.616C465.594 18.824 445.698 11.906 421.016 11.906Z" fill="#690589"/>
<path d="M421.006 508.052C398.242 508.052 371.866 502.536 342.768 491.462C280.356 467.708 212.492 421.136 151.678 360.322C90.864 299.508 44.292 231.644 20.538 169.232C-3.61401 105.776 -1.33201 55.248 26.958 26.958C55.246 -1.33196 105.78 -3.61196 169.232 20.538C231.644 44.292 299.508 90.864 360.322 151.678C421.136 212.492 467.708 280.356 491.462 342.768C515.612 406.226 513.332 456.752 485.04 485.042C469.724 500.36 447.882 508.052 421.006 508.052ZM90.984 11.906C66.298 11.906 46.408 18.822 32.614 32.614C6.68599 58.544 5.04999 106.052 28.014 166.386C51.376 227.766 97.302 294.632 157.334 354.666C217.368 414.7 284.232 460.626 345.614 483.986C405.944 506.946 453.454 505.316 479.386 479.384C505.316 453.454 506.948 405.946 483.988 345.612C460.626 284.234 414.7 217.368 354.668 157.332C294.634 97.298 227.77 51.374 166.388 28.012C138.146 17.266 112.708 11.906 90.984 11.906Z" fill="#690589"/>
<path d="M36.17 160.78C34.558 160.78 33.038 159.798 32.432 158.202C29.23 149.794 26.624 141.566 24.678 133.744C24.144 131.602 25.45 129.432 27.594 128.898C29.728 128.352 31.906 129.668 32.44 131.814C34.31 139.326 36.822 147.246 39.908 155.356C40.694 157.422 39.658 159.732 37.594 160.518C37.124 160.694 36.644 160.78 36.17 160.78Z" fill="#690589"/>
<path d="M256 341.018C302.954 341.018 341.018 302.954 341.018 256C341.018 209.046 302.954 170.982 256 170.982C209.046 170.982 170.982 209.046 170.982 256C170.982 302.954 209.046 341.018 256 341.018Z" fill="#8852A8"/>
<path d="M256 170.982C253.3 170.982 250.636 171.122 248 171.368C291.2 175.402 325.016 211.744 325.016 255.998C325.016 300.252 291.2 336.598 248 340.63C250.636 340.876 253.3 341.016 256 341.016C302.954 341.016 341.016 302.952 341.016 255.998C341.016 209.044 302.954 170.982 256 170.982Z" fill="#6A348A"/>
<path d="M256 341.018C258.7 341.018 261.364 340.878 264 340.632C220.8 336.598 186.984 300.256 186.984 256.002C186.984 211.748 220.8 175.402 264 171.37C261.364 171.124 258.7 170.984 256 170.984C209.046 170.984 170.984 209.048 170.984 256.002C170.984 302.956 209.046 341.018 256 341.018Z" fill="#A670C6"/>
<path d="M256 345.018C206.916 345.018 166.982 305.084 166.982 256C166.982 206.916 206.916 166.982 256 166.982C305.084 166.982 345.018 206.916 345.018 256C345.018 305.084 305.084 345.018 256 345.018ZM256 174.982C211.326 174.982 174.982 211.326 174.982 256C174.982 300.674 211.326 337.018 256 337.018C300.674 337.018 337.018 300.674 337.018 256C337.018 211.326 300.674 174.982 256 174.982Z" fill="#690589"/>
</svg>
