<?xml version="1.0" encoding="utf-8"?><svg version="1.1" id="Lager_1" xmlns="http://www.w3.org/2000/svg" xmlns:xlink="http://www.w3.org/1999/xlink" x="0px" y="0px" viewBox="0 0 311.8 340.2" style="enable-background:new 0 0 311.8 340.2;" xml:space="preserve"><style type="text/css">.st0{fill:#E20613;}</style><g><polygon class="st0" points="31.8,320.2 31.8,308.5 18.4,308.5 18.4,320.2 14.2,320.2 14.2,293.6 18.4,293.6 18.4,304.8 31.8,304.8 31.8,293.6 36.1,293.6 36.1,320.2 "/><polygon class="st0" points="46,320.2 46,293.6 60.2,293.6 58.9,297.2 50.3,297.2 50.3,304.8 58.9,304.8 58.9,308.4 50.3,308.4 50.3,316.6 60.3,316.6 60.3,320.2 "/><polygon class="st0" points="69.1,320.2 69.1,293.6 73.3,293.6 73.3,316.6 83,316.6 83,320.2 "/><g><path class="st0" d="M96.9,320.6c-3.7,0-6.2-1.2-7.9-2.3l1.8-3.2c1.3,0.9,3.4,2,5.9,2c2.2,0,4.7-1,4.7-3.4c0-4.1-6.4-4.9-9.6-8.5c-1.1-1.2-1.8-2.7-1.8-4.8c0-3.9,3-7.1,8.4-7.1c2.8,0,4.9,0.7,6.3,1.5l0,3.9c-1.8-1.1-3.9-1.8-6.1-1.8c-2.3,0-4.2,1-4.2,3.1c0,5.3,11.6,5.1,11.6,13.2C106,317.7,102,320.6,96.9,320.6"/></g><rect x="114.4" y="293.6" class="st0" width="4.2" height="26.6"/><g><path class="st0" d="M148,320.2l-12.5-16.3c-1.3-1.7-2-2.8-2.7-3.8h-0.1c0.1,0.9,0.1,2.2,0.1,3.5v16.7h-4.2v-26.6h4.3l12,15.7c1.5,1.9,2.2,2.9,2.8,4h0.1c0-1.1-0.1-2.4-0.1-3.7v-16h4.2v26.6H148z"/><path class="st0" d="M173,320.6c-8.1,0-13.3-5.7-13.3-13.4c0-8,5.8-13.9,14.4-13.9c3.4,0,6,0.8,7.7,1.5l0,4.1c-1.9-1-4.5-2-7.4-2c-6.9,0-10.2,4.4-10.2,9.9c0,6,3.7,10.2,9.8,10.2c2,0,3.5-0.3,4.5-0.9V307h4.2v11.3C180.6,319.4,177.1,320.6,173,320.6"/><path class="st0" d="M200.2,320.2h-7.8v-26.6h8.1c5.1,0,7.4,3.4,7.4,6.5c0,2.5-1.2,4.6-3.4,5.7v0c2.8,0.6,5.1,3.2,5.1,6.5C209.5,316,207,320.2,200.2,320.2 M196.6,297.3v7.5h3c2,0,3.9-1.4,3.9-3.9c0-2.2-1.3-3.7-4.2-3.7H196.6z M200.2,308.5h-3.6v8.1h3.4c3.4,0,5.2-1.7,5.2-4.2C205.1,310.1,203.3,308.5,200.2,308.5"/><path class="st0" d="M219.6,297.2c2.4-2.4,5.7-3.9,9.6-3.9c4.2,0,7.7,1.5,10.1,4.2c2.2,2.4,3.3,5.7,3.3,9.4c0,4-1.4,7.5-3.8,9.9c-2.4,2.4-5.7,3.7-9.6,3.7c-3.8,0-6.9-1.2-9.2-3.3c-2.7-2.5-4.2-6-4.2-10.2C215.8,303.2,217.1,299.7,219.6,297.2 M229.2,297c-5.4,0-9,3.8-9,10c0,6.2,3.6,10,9,10c5.3,0,8.9-3.8,8.9-10C238.1,301.1,234.8,297,229.2,297"/><path class="st0" d="M264.4,320.2c-4.2-6.9-6.2-10.5-7.3-10.8h-2.5v10.8h-4.2v-26.6h6.6c6.7,0,9.2,3.3,9.2,7.4c0,3.6-2.4,6-5,7v0c1.1,0.6,3.9,5.3,8.1,12.1H264.4z M257.1,297.3h-2.4v8.8h2.5c2.7,0,4.8-2.1,4.8-4.6C261.9,299.2,260.5,297.3,257.1,297.3"/><path class="st0" d="M287.8,320.6c-8.1,0-13.3-5.7-13.3-13.4c0-8,5.8-13.9,14.4-13.9c3.4,0,6,0.8,7.7,1.5l0,4.1c-1.9-1-4.5-2-7.4-2c-6.9,0-10.2,4.4-10.2,9.9c0,6,3.8,10.2,9.9,10.2c2,0,3.5-0.3,4.5-0.9V307h4.2v11.3C295.5,319.4,292,320.6,287.8,320.6"/><path class="st0" d="M155.9,101.4L155.9,101.4c0.9,0,1.6,0.7,1.6,1.6c0,0.9-0.7,1.6-1.6,1.6c-0.9,0-1.6-0.7-1.6-1.6C154.3,102.1,155,101.4,155.9,101.4"/><path class="st0" d="M159,99.4c0,0,0.1-0.8,0.1-1.8c0-1-0.1-1.8-0.1-1.8s-1,0.6-1.9,0.5c-0.1-1.4,0.9-3,0.9-3s-1.3,0.4-2.1,0.4c-0.7,0-2.1-0.4-2.1-0.4s1,1.5,0.9,3c-1,0.1-1.9-0.5-1.9-0.5s-0.1,0.8-0.1,1.8c0,1,0.1,1.8,0.1,1.8s1-0.6,1.9-0.5c0.1,1.1-0.5,2.1-0.8,2.6l0.2,0.1c0.4-0.5,1.1-0.9,1.8-0.9c0.7,0,1.4,0.4,1.8,0.9l0.2-0.1c-0.3-0.5-0.9-1.5-0.8-2.6C158.1,98.8,159,99.4,159,99.4"/></g><polygon class="st0" points="155.9,105.1 140.6,117 140.6,122 144.9,122 144.9,117 153.8,117 153.8,122 158.1,122 158.1,117 166.9,117 166.9,122 171.2,122 171.2,117 "/><polygon class="st0" points="173.5,119.3 173.5,124.2 164.6,124.2 164.6,119.3 160.3,119.3 160.3,124.2 151.5,124.2 151.5,119.3 147.2,119.3 147.2,124.2 138.3,124.2 138.3,119.3 134,119.3 134,124.2 134,128.5 177.8,128.5 177.8,124.2 177.8,119.3 "/><g><path class="st0" d="M106.3,125.7c0-1,0.8-1.8,1.8-1.8c1,0,1.8,0.8,1.8,1.8c0,1-0.8,1.8-1.8,1.8C107.1,127.5,106.3,126.7,106.3,125.7"/></g><polygon class="st0" points="109.1,135.2 109.1,128.6 107.2,128.6 107.2,135.2 95.2,150.6 135.5,150.6 135.5,135.2 "/><g><path class="st0" d="M129.6,162.2h-4.6v-5c0-1,1-1.8,2.3-1.8c1.3,0,2.3,0.8,2.3,1.8V162.2z M121.3,162.2h-4.6v-5c0-1,1-1.8,2.3-1.8c1.3,0,2.3,0.8,2.3,1.8V162.2z M112.9,162.2h-4.6v-5c0-1,1-1.8,2.3-1.8c1.3,0,2.3,0.8,2.3,1.8V162.2z M102.5,165.9h33v-13.1h-33V165.9z"/><path class="st0" d="M205.5,125.7c0-1-0.8-1.8-1.8-1.8c-1,0-1.8,0.8-1.8,1.8c0,1,0.8,1.8,1.8,1.8C204.7,127.5,205.5,126.7,205.5,125.7"/></g><polygon class="st0" points="202.8,135.2 202.8,128.6 204.6,128.6 204.6,135.2 216.6,150.6 176.3,150.6 176.3,135.2 "/><g><path class="st0" d="M182.2,157.1c0-1,1-1.8,2.3-1.8c1.3,0,2.3,0.8,2.3,1.8v5h-4.6V157.1z M190.5,157.1c0-1,1-1.8,2.3-1.8c1.3,0,2.3,0.8,2.3,1.8v5h-4.6V157.1z M198.9,157.1c0-1,1-1.8,2.3-1.8c1.3,0,2.3,0.8,2.3,1.8v5h-4.6V157.1z M176.3,165.9h33v-13.1h-33V165.9z"/><path class="st0" d="M116,186.3l18.7-18.1h-33.9c0,0-11.5,4-11.5,12.7c0,2.4,1.2,4.4,2.1,5.4H116z"/><path class="st0" d="M195.8,186.3l-18.7-18.1H211c0,0,11.5,4,11.5,12.7c0,2.4-1.2,4.4-2.1,5.4H195.8z"/><path class="st0" d="M185.3,186.3l-22.3-29.4l30.2,29.9c-0.7,0.3-1.9,0.6-3.4,0.6C187.2,187.4,185.7,186.6,185.3,186.3 M174.4,186.3l-14.5-30.7l22.8,31.1c-0.8,0.4-2.1,0.8-3.8,0.8C176.8,187.4,175.1,186.6,174.4,186.3 M163.2,186.2l-5.5-31.6l14.4,32c-0.7,0.4-1.9,0.8-3.8,0.8C166.4,187.4,164.2,186.6,163.2,186.2 M155.9,187.4c-2.8,0-4.3-0.5-5-0.9l5-32.7l5,32.8C160.2,186.8,158.7,187.4,155.9,187.4 M139.8,186.6l14.4-32l-5.5,31.6c-1,0.4-3.2,1.2-5,1.2C141.7,187.4,140.4,186.9,139.8,186.6 M129.1,186.6l22.8-31.1l-14.5,30.7c-0.7,0.4-2.4,1.1-4.6,1.1C131.2,187.4,129.9,187,129.1,186.6 M118.7,186.8l30.2-29.9l-22.3,29.4c-0.5,0.3-2,1.1-4.5,1.1C120.6,187.4,119.4,187,118.7,186.8"/><path class="st0" d="M117.6,200.7H113v-5c0-1,1-1.8,2.3-1.8s2.3,0.8,2.3,1.8V200.7z M96.3,195.7c0-1,1-1.8,2.3-1.8c1.3,0,2.3,0.8,2.3,1.8v5h-4.6V195.7z M104.6,195.7c0-1,1-1.8,2.3-1.8c1.3,0,2.3,0.8,2.3,1.8v5h-4.6V195.7z M117.1,188.5H92.9v22.5h3.1v8.9h14.4v-8.9h10.4v-21.5C119,189.4,117.6,188.8,117.1,188.5"/><path class="st0" d="M194.2,195.7c0-1,1-1.8,2.3-1.8c1.3,0,2.3,0.8,2.3,1.8v5h-4.6V195.7z M215.5,200.7H211v-5c0-1,1-1.8,2.3-1.8c1.3,0,2.3,0.8,2.3,1.8V200.7z M207.2,200.7h-4.6v-5c0-1,1-1.8,2.3-1.8c1.3,0,2.3,0.8,2.3,1.8V200.7z M190.9,189.6v21.5h10.4v8.9h14.4v-8.9h3.1v-22.5h-24.1C194.2,188.8,192.8,189.4,190.9,189.6"/><path class="st0" d="M182.6,205.7h-6.1v-8.6c0-1.3,1.4-2.4,3-2.4c1.7,0,3,1.1,3,2.4V205.7z M172,205.7h-7.5v-9.2c0-1.7,1.7-3,3.8-3c2.1,0,3.8,1.3,3.8,3V205.7z M159.7,205.7h-7.5v-9.2c0-1.7,1.7-3,3.8-3c2.1,0,3.8,1.3,3.8,3V205.7z M147.4,205.7h-7.5v-9.2c0-1.7,1.7-3,3.8-3c2.1,0,3.8,1.3,3.8,3V205.7z M135.3,205.7h-6.1v-8.6c0-1.3,1.4-2.4,3-2.4c1.7,0,3,1.1,3,2.4V205.7z M184.3,188.4c-0.9,0.5-2.8,1.3-5.4,1.3c-2.5,0-4.5-0.8-5.5-1.3c-0.9,0.5-2.6,1.3-5.3,1.3c-2.2,0-4.7-0.9-5.9-1.4c-0.9,0.6-2.9,1.3-6.4,1.4h0c-3.6,0-5.5-0.8-6.4-1.4c-1.1,0.5-3.7,1.4-5.9,1.4c-2.6,0-4.4-0.8-5.3-1.3c-1,0.5-3,1.3-5.5,1.3c-2.6,0-4.4-0.8-5.4-1.3c-0.8,0.5-2.2,1.1-4.3,1.3v21.5h8v8.9h14.4v-8.9h20.7v8.9h14.4v-8.9h8v-21.5C186.6,189.4,185.1,188.8,184.3,188.4"/><path class="st0" d="M149.8,139.8h-4.6v-5c0-1,1-1.8,2.3-1.8c1.3,0,2.3,0.8,2.3,1.8V139.8z M153.6,134.8c0-1,1-1.8,2.3-1.8c1.3,0,2.3,0.8,2.3,1.8v5h-4.6V134.8z M162,134.8c0-1,1-1.8,2.3-1.8c1.3,0,2.3,0.8,2.3,1.8v5H162V134.8z M152.2,145.9l3.8-3.7l3.8,3.7l-2.8,2.8l17.2,16.6v-34.5h-36.3v34.5l17.2-16.6L152.2,145.9z"/><path class="st0" d="M234.2,214.2h-15.4v8.9h-20.7v-8.9h-14.4v8.9h-20.7v-8.9h-14.4v8.9H128v-8.9h-14.4v8.9H92.9v-8.9H77.6V87h156.7V214.2z M233.5,20v2.4h-3.8V20h-5.6v2.4h-3.8V20h-5.6v6.6h2.5v10h-4.1v6.7h-7.3v-6.7h-4.1v-10h2.5V20h-5.6v2.4h-3.8V20h-5.6v2.4h-3.8V20h-5.6v6.6h2.5v10h-4.1v6.7h-8.6v-6.7h-4.1v-10h2.5V20h-5.6v2.4h-3.8V20h-5.6v2.4h-3.8V20h-5.6v6.6h2.5v10h-4.1v6.7h-8v-6.7H130v-10h2.5V20h-5.6v2.4h-3.8V20h-5.6v2.4h-3.8V20h-5.6v6.6h2.5v10h-4.1v6.7h-8v-6.7h-4.1v-10H97V20h-5.6v2.4h-3.8V20h-5.6v2.4h-3.8V20h-5.6v6.6h2.5v16.8l9.7,10.3v16.2h-4.8v15.6h-4v150.6c0,9.5,4.7,15,14.9,17.4c15.7,3.8,37.7,9,53.5,12.8c5.5,1.3,8.9,4.3,10.7,9.5l0.7,2l0.7-2c1.8-5.2,5.2-8.2,10.7-9.5c15.7-3.8,37.7-9.1,53.5-12.8c10.2-2.4,14.9-8,14.9-17.4V85.5h-4V69.9h-4.8V53.7l9.7-10.3V26.6h2.5V20H233.5z"/></g></g></svg>