<?xml version="1.0" encoding="utf-8"?>
<!-- Generator: Adobe Illustrator 27.0.1, SVG Export Plug-In . SVG Version: 6.00 Build 0)  -->
<svg version="1.1" id="Lag_1" xmlns="http://www.w3.org/2000/svg" xmlns:xlink="http://www.w3.org/1999/xlink" x="0px" y="0px"
	 viewBox="0 0 240 240" style="enable-background:new 0 0 240 240;" xml:space="preserve">
<style type="text/css">
	.st0{fill:#76232F;}
	.st1{fill:#FFFFFF;}
	.st2{fill:#DA291C;}
	.st3{fill:#1B365D;}
	.st4{fill:#0072CE;}
	.st5{fill:#E35205;}
	.st6{fill:#F0B323;}
	.st7{fill:#00843D;}
	.st8{fill:#00BFB3;}
	.st9{fill:#FCDDE5;}
	.st10{fill:#E1EBF6;}
	.st11{fill:#FAF5B0;}
	.st12{fill:#E9F5C6;}
</style>
<g>
	<rect x="0" class="st0" width="240" height="240"/>
	<g>
		<g>
			<polygon class="st9" points="54.35,198.3 54.35,192.13 47.24,192.13 47.24,198.3 45,198.3 45,184.22 47.24,184.22 47.24,190.16 
				54.35,190.16 54.35,184.22 56.6,184.22 56.6,198.3 			"/>
			<polygon class="st9" points="61.85,198.3 61.85,184.22 69.37,184.22 68.69,186.15 64.1,186.15 64.1,190.14 68.67,190.14 
				68.67,192.07 64.1,192.07 64.1,196.37 69.39,196.37 69.39,198.3 			"/>
			<polygon class="st9" points="74.07,198.3 74.07,184.22 76.29,184.22 76.29,196.37 81.44,196.37 81.44,198.3 			"/>
			<path class="st9" d="M88.77,198.51c-1.94,0-3.27-0.64-4.16-1.21l0.94-1.69c0.7,0.49,1.81,1.05,3.14,1.05c1.15,0,2.5-0.52,2.5-1.8
				c0-2.16-3.4-2.58-5.11-4.49c-0.58-0.64-0.96-1.43-0.96-2.51c0-2.06,1.58-3.77,4.42-3.77c1.5,0,2.61,0.39,3.33,0.77l-0.02,2.09
				c-0.96-0.57-2.05-0.98-3.2-0.98c-1.22,0-2.22,0.51-2.22,1.62c0,2.78,6.15,2.7,6.15,7.01C93.57,196.97,91.48,198.51,88.77,198.51"
				/>
			<rect x="98.04" y="184.22" class="st9" width="2.24" height="14.07"/>
			<path class="st9" d="M115.79,198.3l-6.63-8.65c-0.68-0.89-1.06-1.46-1.41-2.03h-0.04c0.04,0.47,0.04,1.16,0.04,1.84v8.84h-2.22
				v-14.07h2.26l6.36,8.33c0.77,1.01,1.15,1.54,1.48,2.12h0.04c-0.02-0.58-0.04-1.28-0.04-1.97v-8.47h2.24v14.07H115.79z"/>
			<path class="st9" d="M129.03,198.51c-4.29,0-7.04-3.01-7.04-7.07c0-4.25,3.05-7.35,7.64-7.35c1.79,0,3.16,0.41,4.08,0.8
				l-0.02,2.16c-1.03-0.53-2.37-1.05-3.91-1.05c-3.65,0-5.38,2.31-5.38,5.23c0,3.16,1.98,5.38,5.21,5.38c1.05,0,1.86-0.19,2.37-0.47
				v-4.85h2.24v5.98C133.09,197.87,131.24,198.51,129.03,198.51"/>
			<path class="st9" d="M143.41,198.3h-4.15v-14.07h4.27c2.69,0,3.93,1.79,3.93,3.46c0,1.3-0.62,2.45-1.79,2.99v0.01
				c1.47,0.32,2.69,1.67,2.69,3.42C148.36,196.08,147.02,198.3,143.41,198.3 M141.51,186.17v3.99h1.6c1.05,0,2.07-0.77,2.07-2.05
				c0-1.18-0.7-1.95-2.25-1.95H141.51z M143.41,192.08h-1.9v4.29h1.79c1.82,0,2.74-0.9,2.74-2.24
				C146.04,192.94,145.06,192.08,143.41,192.08"/>
			<path class="st9" d="M153.69,186.15c1.26-1.28,3.03-2.06,5.1-2.06c2.22,0,4.08,0.82,5.34,2.2c1.16,1.28,1.77,3.01,1.77,5
				c0,2.12-0.72,3.97-2.02,5.25c-1.29,1.26-3.01,1.97-5.08,1.97c-1.99,0-3.65-0.62-4.89-1.73c-1.41-1.3-2.22-3.2-2.22-5.41
				C151.68,189.29,152.41,187.45,153.69,186.15 M158.79,186.04c-2.84,0-4.74,2.01-4.74,5.3c0,3.26,1.9,5.27,4.74,5.27
				c2.82,0,4.72-2.01,4.72-5.27C163.51,188.17,161.74,186.04,158.79,186.04"/>
			<path class="st9" d="M177.39,198.3c-2.2-3.63-3.29-5.55-3.84-5.7h-1.3v5.7h-2.24v-14.07h3.5c3.52,0,4.87,1.77,4.87,3.93
				c0,1.92-1.26,3.16-2.65,3.72v0.02c0.57,0.3,2.07,2.8,4.27,6.41H177.39z M173.53,186.17h-1.28v4.68h1.33
				c1.45,0,2.52-1.11,2.52-2.45C176.09,187.18,175.35,186.17,173.53,186.17"/>
			<path class="st9" d="M189.81,198.51c-4.3,0-7.05-3.01-7.05-7.07c0-4.25,3.05-7.35,7.64-7.35c1.79,0,3.16,0.41,4.08,0.8
				l-0.02,2.16c-1.03-0.53-2.37-1.05-3.91-1.05c-3.65,0-5.39,2.31-5.39,5.23c0,3.16,1.99,5.38,5.21,5.38c1.04,0,1.86-0.19,2.37-0.47
				v-4.85H195v5.98C193.87,197.87,192.01,198.51,189.81,198.51"/>
		</g>
		<g>
			<path class="st9" d="M120,82.53L120,82.53c0.45,0,0.83,0.37,0.83,0.83c0,0.45-0.37,0.83-0.83,0.83c-0.45,0-0.83-0.37-0.83-0.83
				C119.17,82.9,119.55,82.53,120,82.53"/>
			<path class="st9" d="M121.66,81.45c0,0,0.07-0.4,0.07-0.95s-0.07-0.95-0.07-0.95s-0.5,0.29-1.02,0.26
				c-0.06-0.76,0.46-1.58,0.46-1.58s-0.7,0.22-1.09,0.22c-0.39,0-1.09-0.22-1.09-0.22s0.52,0.82,0.46,1.58
				c-0.52,0.03-1.03-0.26-1.03-0.26s-0.07,0.4-0.07,0.95s0.07,0.95,0.07,0.95s0.5-0.29,1.03-0.26c0.05,0.56-0.25,1.12-0.41,1.38
				l0.09,0.07c0.22-0.29,0.57-0.47,0.95-0.47c0.39,0,0.73,0.19,0.95,0.47l0.09-0.07c-0.16-0.26-0.46-0.82-0.41-1.38
				C121.15,81.15,121.66,81.45,121.66,81.45"/>
			<polygon class="st9" points="120,84.5 111.9,90.8 111.9,93.41 114.18,93.41 114.18,90.8 118.86,90.8 118.86,93.41 121.14,93.41 
				121.14,90.8 125.82,90.8 125.82,93.41 128.1,93.41 128.1,90.8 			"/>
			<polygon class="st9" points="129.3,92 129.3,94.61 124.62,94.61 124.62,92 122.34,92 122.34,94.61 117.66,94.61 117.66,92 
				115.38,92 115.38,94.61 110.7,94.61 110.7,92 108.42,92 108.42,94.61 108.42,96.85 131.58,96.85 131.58,94.61 131.58,92 			"/>
			<path class="st9" d="M93.76,95.38c0-0.53,0.43-0.97,0.97-0.97c0.53,0,0.97,0.43,0.97,0.97c0,0.53-0.43,0.97-0.97,0.97
				C94.19,96.34,93.76,95.91,93.76,95.38"/>
			<polygon class="st9" points="95.21,100.39 95.21,96.93 94.24,96.93 94.24,100.39 87.86,108.54 109.2,108.54 109.2,100.39 			"/>
			<path class="st9" d="M106.1,114.68h-2.42v-2.66c0-0.53,0.54-0.96,1.21-0.96c0.67,0,1.21,0.43,1.21,0.96V114.68z M101.67,114.68
				h-2.42v-2.66c0-0.53,0.54-0.96,1.21-0.96s1.21,0.43,1.21,0.96V114.68z M97.24,114.68h-2.42v-2.66c0-0.53,0.54-0.96,1.21-0.96
				s1.21,0.43,1.21,0.96V114.68z M91.72,116.66h17.48v-6.92H91.72V116.66z"/>
			<path class="st9" d="M146.24,95.38c0-0.53-0.43-0.97-0.97-0.97c-0.53,0-0.97,0.43-0.97,0.97c0,0.53,0.43,0.97,0.97,0.97
				C145.81,96.34,146.24,95.91,146.24,95.38"/>
			<polygon class="st9" points="144.79,100.39 144.79,96.93 145.76,96.93 145.76,100.39 152.14,108.54 130.8,108.54 130.8,100.39 
							"/>
			<path class="st9" d="M133.9,112.02c0-0.53,0.54-0.96,1.21-0.96c0.67,0,1.21,0.43,1.21,0.96v2.66h-2.42V112.02z M138.33,112.02
				c0-0.53,0.54-0.96,1.21-0.96c0.67,0,1.21,0.43,1.21,0.96v2.66h-2.42V112.02z M142.76,112.02c0-0.53,0.54-0.96,1.21-0.96
				c0.67,0,1.21,0.43,1.21,0.96v2.66h-2.42V112.02z M130.8,116.66h17.48v-6.92H130.8V116.66z"/>
			<path class="st9" d="M98.87,127.43l9.92-9.56H90.84c0,0-6.06,2.09-6.06,6.71c0,1.3,0.65,2.32,1.09,2.85H98.87z"/>
			<path class="st9" d="M141.13,127.43l-9.92-9.56h17.95c0,0,6.06,2.09,6.06,6.71c0,1.3-0.65,2.32-1.09,2.85H141.13z"/>
			<path class="st9" d="M135.53,127.44l-11.81-15.58l15.98,15.84c-0.37,0.15-0.99,0.33-1.81,0.33
				C136.56,128.03,135.78,127.6,135.53,127.44 M129.78,127.43l-7.66-16.26l12.06,16.46c-0.42,0.19-1.1,0.4-1.99,0.4
				C131.04,128.03,130.14,127.62,129.78,127.43 M123.85,127.39l-2.91-16.73l7.61,16.93c-0.36,0.19-1.03,0.44-2.03,0.44
				C125.55,128.03,124.37,127.6,123.85,127.39 M120,128.03c-1.49,0-2.3-0.29-2.67-0.48l2.67-17.33l2.67,17.33
				C122.3,127.74,121.49,128.03,120,128.03 M111.46,127.59l7.61-16.93l-2.91,16.73c-0.52,0.21-1.7,0.64-2.67,0.64
				C112.48,128.03,111.82,127.78,111.46,127.59 M105.82,127.63l12.06-16.46l-7.66,16.26c-0.36,0.19-1.25,0.6-2.41,0.6
				C106.91,128.03,106.24,127.81,105.82,127.63 M100.3,127.7l15.98-15.84l-11.81,15.58c-0.26,0.17-1.03,0.59-2.36,0.59
				C101.3,128.03,100.67,127.84,100.3,127.7"/>
			<path class="st9" d="M99.72,135.09H97.3v-2.66c0-0.53,0.54-0.96,1.21-0.96s1.21,0.43,1.21,0.96V135.09z M88.44,132.43
				c0-0.53,0.54-0.96,1.21-0.96c0.67,0,1.21,0.43,1.21,0.96v2.66h-2.42V132.43z M92.87,132.43c0-0.53,0.54-0.96,1.21-0.96
				c0.67,0,1.21,0.43,1.21,0.96v2.66h-2.42V132.43z M99.45,128.63H86.68v11.93h1.65v4.7h7.63v-4.7h5.51V129.2
				C100.47,129.1,99.75,128.79,99.45,128.63"/>
			<path class="st9" d="M140.28,132.43c0-0.53,0.54-0.96,1.21-0.96c0.67,0,1.21,0.43,1.21,0.96v2.66h-2.42V132.43z M151.56,135.09
				h-2.42v-2.66c0-0.53,0.54-0.96,1.21-0.96c0.67,0,1.21,0.43,1.21,0.96V135.09z M147.13,135.09h-2.42v-2.66
				c0-0.53,0.54-0.96,1.21-0.96c0.67,0,1.21,0.43,1.21,0.96V135.09z M138.52,129.2v11.36h5.51v4.7h7.63v-4.7h1.65v-11.93h-12.77
				C140.25,128.79,139.53,129.1,138.52,129.2"/>
			<path class="st9" d="M134.1,137.74h-3.21v-4.57c0-0.7,0.72-1.28,1.6-1.28c0.89,0,1.6,0.57,1.6,1.28V137.74z M128.5,137.74h-3.98
				v-4.89c0-0.87,0.89-1.58,1.99-1.58c1.1,0,1.99,0.71,1.99,1.58V137.74z M121.99,137.74h-3.98v-4.89c0-0.87,0.89-1.58,1.99-1.58
				c1.1,0,1.99,0.71,1.99,1.58V137.74z M115.47,137.74h-3.98v-4.89c0-0.87,0.89-1.58,1.99-1.58c1.1,0,1.99,0.71,1.99,1.58V137.74z
				 M109.11,137.74h-3.21v-4.57c0-0.7,0.72-1.28,1.6-1.28c0.89,0,1.6,0.57,1.6,1.28V137.74z M135.04,128.54
				c-0.5,0.27-1.48,0.69-2.85,0.69c-1.32,0-2.37-0.43-2.89-0.69c-0.47,0.28-1.4,0.69-2.79,0.69c-1.16,0-2.5-0.48-3.1-0.72
				c-0.49,0.29-1.51,0.71-3.4,0.72h-0.02c-1.89,0-2.92-0.43-3.4-0.72c-0.6,0.24-1.94,0.72-3.1,0.72c-1.39,0-2.32-0.41-2.79-0.69
				c-0.52,0.27-1.57,0.69-2.89,0.69c-1.37,0-2.35-0.41-2.85-0.69c-0.42,0.24-1.18,0.57-2.28,0.66v11.35h4.22v4.7h7.63v-4.7h10.93
				v4.7h7.63v-4.7h4.22V129.2C136.22,129.11,135.46,128.78,135.04,128.54"/>
			<path class="st9" d="M116.78,102.83h-2.42v-2.66c0-0.53,0.54-0.96,1.21-0.96c0.67,0,1.21,0.43,1.21,0.96V102.83z M118.79,100.18
				c0-0.53,0.54-0.96,1.21-0.96c0.67,0,1.21,0.43,1.21,0.96v2.66h-2.42V100.18z M123.22,100.18c0-0.53,0.54-0.96,1.21-0.96
				c0.67,0,1.21,0.43,1.21,0.96v2.66h-2.42V100.18z M118.02,106.08l1.98-1.98l1.98,1.98l-1.47,1.47l9.09,8.76V98.05H110.4v18.27
				l9.09-8.76L118.02,106.08z"/>
			<path class="st9" d="M161.45,142.21h-8.13v4.7h-10.93v-4.7h-7.63v4.7h-10.93v-4.7h-7.63v4.7h-10.93v-4.7h-7.63v4.7H86.68v-4.7
				h-8.13v-67.3h82.9V142.21z M161.08,39.48v1.29h-2v-1.29h-2.96v1.29h-2v-1.29h-2.96v3.48h1.33v5.3h-2.19v3.56h-3.89v-3.56h-2.19
				v-5.3h1.33v-3.48h-2.96v1.29h-2v-1.29h-2.96v1.29h-2v-1.29h-2.96v3.48h1.33v5.3h-2.19v3.56h-4.53v-3.56h-2.19v-5.3h1.33v-3.48
				h-2.96v1.29h-2v-1.29h-2.96v1.29h-2v-1.29h-2.96v3.48h1.33v5.3h-2.19v3.56h-4.21v-3.56h-2.19v-5.3h1.33v-3.48h-2.96v1.29h-2
				v-1.29h-2.96v1.29h-2v-1.29h-2.96v3.48h1.33v5.3h-2.19v3.56H89.7v-3.56H87.5v-5.3h1.33v-3.48h-2.96v1.29h-2v-1.29h-2.96v1.29h-2
				v-1.29h-2.96v3.48h1.33v8.87l5.14,5.47v8.57h-2.56v8.27h-2.12v79.68c0,5,2.51,7.93,7.89,9.22c8.32,1.99,19.97,4.78,28.29,6.79
				c2.9,0.7,4.71,2.3,5.68,5.04l0.37,1.04l0.37-1.04c0.97-2.74,2.77-4.34,5.68-5.04c8.31-2,19.97-4.79,28.29-6.79
				c5.39-1.29,7.9-4.22,7.9-9.22V74.13h-2.12v-8.27h-2.56v-8.57l5.14-5.47v-8.87h1.33v-3.48H161.08z"/>
		</g>
	</g>
</g>
</svg>
