<svg width="512" height="512" viewBox="0 0 512 512" fill="none" xmlns="http://www.w3.org/2000/svg">
<path d="M171.672 186.666C179.22 186.132 186.298 188.102 192.142 191.814C197.824 195.404 205.146 191.732 205.884 185.292V146.494C205.884 139.59 200.286 133.992 193.382 133.992H161.612C152.622 133.992 146.324 124.676 150.136 116.534C152.16 112.206 153.294 107.378 153.294 102.282C153.294 82.378 136.068 66.4721 115.688 68.7081C101.692 70.2441 87.99 83.526 86.062 97.474C85.132 104.202 86.19 110.606 88.73 116.194C92.518 124.528 86.572 133.992 77.418 133.992H45.638C38.734 133.992 33.136 139.59 33.136 146.494V294.24C33.136 301.144 38.734 306.742 45.638 306.742H193.384C200.29 306.742 205.886 301.144 205.886 294.24V255.176C205.148 248.778 197.824 245.33 192.122 248.94C186.912 252.244 180.738 254.15 174.112 254.15C154.872 254.15 139.386 238.048 140.37 218.624C141.232 201.782 154.852 187.856 171.672 186.666Z" fill="#F16C7A"/>
<path d="M171.882 189.658C178.516 189.192 184.966 190.812 190.54 194.35C194.054 196.572 198.388 196.828 202.128 195.036C205.876 193.242 208.396 189.726 208.866 185.634C208.88 185.52 208.886 185.406 208.886 185.292V146.494C208.886 137.946 201.93 130.992 193.382 130.992H161.614C158.304 130.992 155.26 129.312 153.47 126.496C151.756 123.8 151.53 120.632 152.854 117.804C155.138 112.926 156.296 107.702 156.296 102.28C156.296 91.842 151.834 81.854 144.052 74.88C136.166 67.812 125.988 64.564 115.36 65.724C99.984 67.412 85.204 81.764 83.088 97.062C82.122 104.07 83.126 111.114 85.998 117.436C87.374 120.458 87.13 123.914 85.352 126.676C83.586 129.418 80.696 130.992 77.418 130.992H45.636C37.09 130.992 30.134 137.946 30.134 146.494V204.142C30.134 205.8 31.478 207.142 33.134 207.142C34.79 207.142 36.134 205.8 36.134 204.142V146.494C36.134 141.254 40.396 136.992 45.636 136.992H77.418C82.696 136.992 87.546 134.35 90.396 129.924C93.284 125.438 93.682 119.84 91.458 114.952C89.058 109.668 88.218 103.766 89.032 97.884C90.768 85.316 103.376 73.076 116.014 71.688C124.9 70.706 133.444 73.432 140.046 79.348C146.56 85.186 150.294 93.544 150.294 102.28C150.294 106.816 149.328 111.184 147.418 115.26C145.238 119.914 145.608 125.318 148.404 129.716C151.3 134.272 156.238 136.992 161.612 136.992H193.382C198.622 136.992 202.886 141.254 202.886 146.494V185.104C202.608 187.068 201.366 188.75 199.536 189.626C197.64 190.534 195.53 190.408 193.75 189.284C187.09 185.056 179.382 183.114 171.458 183.676C153.276 184.962 138.304 200.246 137.372 218.474C136.856 228.656 140.432 238.326 147.444 245.702C154.464 253.084 163.932 257.152 174.11 257.152C181.082 257.152 187.866 255.19 193.726 251.476C195.558 250.314 197.794 250.162 199.692 251.07C201.458 251.914 202.614 253.474 202.884 255.366V294.24C202.884 299.48 198.62 303.742 193.38 303.742H45.636C40.396 303.742 36.134 299.48 36.134 294.24V230.526C36.134 228.868 34.79 227.526 33.134 227.526C31.478 227.526 30.134 228.868 30.134 230.526V294.24C30.134 302.788 37.09 309.742 45.636 309.742H193.382C201.93 309.742 208.886 302.788 208.886 294.24V255.176C208.886 255.06 208.88 254.946 208.866 254.832C208.404 250.834 205.942 247.406 202.28 245.656C198.506 243.854 194.108 244.132 190.516 246.406C185.618 249.51 179.946 251.152 174.112 251.152C165.594 251.152 157.668 247.748 151.796 241.568C145.928 235.396 142.934 227.302 143.366 218.778C144.146 203.524 156.674 190.734 171.882 189.658Z" fill="#3A312A"/>
<path d="M342.048 359.568C350.504 358.38 358.48 360.34 364.964 364.444C370.924 368.216 378.696 363.848 378.696 356.796V315.638C378.696 310.666 374.664 306.634 369.692 306.634H328.38C321.262 306.634 317.204 298.812 320.984 292.78C324.228 287.604 326.106 281.486 326.106 274.922C326.106 255.018 308.88 239.112 288.5 241.35C273.352 243.012 260.96 255.02 258.874 270.116C257.71 278.536 259.66 286.45 263.734 292.89C267.506 298.856 263.15 306.632 256.092 306.632H214.954C209.98 306.632 205.95 310.664 205.95 315.636V356.844C205.95 363.934 198.134 368.246 192.148 364.448C186.3 360.736 179.23 358.776 171.668 359.31C154.852 360.496 141.228 374.42 140.378 391.258C139.398 410.696 154.87 426.79 174.116 426.79C180.744 426.79 186.918 424.874 192.126 421.572C198.126 417.768 205.95 421.8 205.95 428.904V470.378C205.95 475.352 209.982 479.382 214.954 479.382H369.696C374.67 479.382 378.7 475.35 378.7 470.378V429.058C378.7 421.934 370.87 417.87 364.832 421.654C359.638 424.908 353.498 426.79 346.926 426.79C327.01 426.79 311.134 409.558 313.35 389.218C314.998 374.084 326.972 361.684 342.048 359.568Z" fill="#8AC6DD"/>
<path d="M342.466 362.538C349.9 361.5 357.124 363.03 363.36 366.978C367.076 369.328 371.6 369.462 375.462 367.334C379.366 365.184 381.696 361.244 381.696 356.794V315.636C381.696 309.016 376.312 303.632 369.692 303.632H328.38C326.196 303.632 324.344 302.55 323.302 300.668C322.21 298.692 322.292 296.338 323.524 294.372C327.174 288.55 329.104 281.824 329.104 274.922C329.104 264.482 324.642 254.496 316.86 247.522C308.97 240.452 298.778 237.196 288.17 238.368C271.73 240.172 258.16 253.352 255.898 269.706C254.682 278.516 256.512 287.088 261.194 294.496C262.36 296.34 262.422 298.588 261.364 300.512C260.286 302.468 258.314 303.636 256.086 303.636H214.948C208.328 303.636 202.944 309.022 202.944 315.64V356.848C202.944 359.072 201.782 361.038 199.832 362.11C197.89 363.176 195.616 363.104 193.748 361.92C187.098 357.698 179.388 355.758 171.45 356.322C153.262 357.606 138.296 372.886 137.376 391.112C136.862 401.304 140.44 410.98 147.452 418.354C154.468 425.732 163.934 429.794 174.11 429.794C181.078 429.794 187.862 427.83 193.728 424.11C195.678 422.872 198.018 422.778 199.992 423.862C201.868 424.896 202.946 426.734 202.946 428.908V470.38C202.946 477 208.33 482.384 214.95 482.384H369.692C376.312 482.384 381.696 476.998 381.696 470.38V429.06C381.696 424.69 379.43 420.828 375.634 418.726C371.774 416.59 367.024 416.738 363.236 419.112C358.354 422.172 352.712 423.79 346.926 423.79C338.196 423.79 329.84 420.06 324.006 413.554C318.09 406.96 315.364 398.432 316.332 389.544C317.828 375.81 328.818 364.454 342.466 362.538ZM319.54 417.56C326.51 425.332 336.494 429.79 346.926 429.79C353.842 429.79 360.584 427.856 366.422 424.196C368.394 422.96 370.75 422.878 372.73 423.974C374.614 425.018 375.696 426.872 375.696 429.058V470.378C375.696 473.69 373.002 476.382 369.692 476.382H214.95C211.64 476.382 208.946 473.688 208.946 470.378V428.906C208.946 424.542 206.68 420.692 202.884 418.604C201.086 417.614 199.092 417.122 197.096 417.122C194.814 417.122 192.526 417.764 190.514 419.04C185.614 422.148 179.942 423.79 174.112 423.79C165.596 423.79 157.672 420.39 151.802 414.214C145.934 408.042 142.94 399.944 143.37 391.41C144.14 376.162 156.66 363.376 171.874 362.302C178.516 361.83 184.976 363.452 190.536 366.982C194.278 369.358 198.836 369.5 202.726 367.364C206.62 365.222 208.946 361.29 208.946 356.844V315.636C208.946 312.324 211.64 309.632 214.95 309.632H256.088C260.536 309.632 264.472 307.304 266.622 303.404C268.75 299.538 268.62 295.008 266.266 291.286C262.352 285.094 260.82 277.914 261.844 270.526C263.732 256.856 275.08 245.84 288.826 244.332C297.718 243.35 306.254 246.074 312.856 251.99C319.368 257.826 323.104 266.186 323.104 274.922C323.104 280.696 321.49 286.32 318.442 291.186C316.066 294.972 315.918 299.718 318.052 303.572C320.152 307.366 324.012 309.632 328.38 309.632H369.692C373.002 309.632 375.696 312.326 375.696 315.636V356.794C375.696 359.024 374.526 361 372.568 362.078C370.65 363.136 368.408 363.072 366.568 361.908C359.216 357.256 350.356 355.368 341.632 356.596C325.304 358.888 312.156 372.47 310.366 388.892C309.228 399.346 312.572 409.794 319.54 417.56Z" fill="#3A312A"/>
<path d="M471.952 73.052L322.45 33.132C317.646 31.848 312.71 34.704 311.428 39.508L300.816 79.252C298.994 86.072 290.358 88.274 285.568 83.09C280.394 77.494 273.252 73.568 264.818 72.52C249.694 70.642 234.896 79.516 229.382 93.722C221.962 112.834 232.886 133.582 252.116 138.716C258.456 140.41 264.852 140.174 270.69 138.374C277.492 136.278 284.002 142.218 282.166 149.094L271.508 189.008C270.226 193.812 273.08 198.748 277.884 200.03L317.648 210.648C324.462 212.468 330.688 206.084 328.58 199.354C326.288 192.03 326.452 183.818 329.782 175.956C335.716 161.936 350.786 153.566 365.834 155.878C386.056 158.984 398.61 178.768 393.472 198.01C391.776 204.36 388.374 209.806 383.89 213.986C378.678 218.842 380.584 227.456 387.466 229.294L427.386 239.954C432.19 241.238 437.126 238.382 438.408 233.578L478.328 84.076C479.612 79.27 476.756 74.334 471.952 73.052Z" fill="#FAE6CA"/>
<path d="M480.02 75.7401C478.414 72.9641 475.822 70.9801 472.726 70.1541L323.224 30.2341C320.124 29.4081 316.892 29.8361 314.116 31.4421C311.34 33.0481 309.356 35.6381 308.528 38.7361L297.914 78.4821C297.34 80.6341 295.704 82.2381 293.538 82.7741C291.4 83.3001 289.25 82.6581 287.768 81.0581C281.82 74.6241 274.01 70.6421 265.184 69.5461C248.802 67.5161 232.566 77.2261 226.58 92.6401C222.716 102.594 223.23 113.276 228.026 122.72C232.756 132.038 241.252 138.926 251.338 141.618C258.006 143.398 265.006 143.268 271.57 141.244C273.79 140.558 276.084 141.086 277.71 142.654C279.26 144.148 279.828 146.214 279.264 148.324L268.606 188.238C267.778 191.336 268.208 194.572 269.814 197.346C271.42 200.122 274.01 202.106 277.108 202.932L316.872 213.55C321.168 214.696 325.578 213.462 328.664 210.246C331.716 207.062 332.754 202.656 331.442 198.462C329.236 191.416 329.618 184.038 332.542 177.128C337.918 164.434 351.718 156.746 365.378 158.844C374.214 160.202 381.75 165.034 386.594 172.452C391.376 179.768 392.822 188.802 390.57 197.238C389.078 202.83 386.058 207.862 381.842 211.792C378.57 214.84 377.202 219.392 378.27 223.67C379.32 227.88 382.47 231.066 386.69 232.192L426.612 242.852C427.644 243.128 428.688 243.264 429.73 243.264C431.812 243.264 433.868 242.716 435.72 241.644C438.496 240.038 440.48 237.448 441.308 234.35L481.228 84.8481C482.054 81.7501 481.626 78.5161 480.02 75.7401ZM475.43 83.3001L435.51 232.802C435.096 234.352 434.104 235.648 432.716 236.452C431.328 237.256 429.704 237.466 428.16 237.056L388.238 226.396C386.126 225.832 384.614 224.31 384.094 222.218C383.546 220.022 384.234 217.766 385.934 216.182C390.976 211.484 394.586 205.468 396.37 198.786C399.062 188.706 397.33 177.91 391.62 169.17C385.914 160.436 376.682 154.51 366.29 152.916C349.968 150.404 333.448 159.604 327.018 174.79C323.582 182.91 323.122 191.952 325.718 200.254C326.368 202.33 325.85 204.512 324.336 206.094C322.788 207.71 320.578 208.33 318.424 207.754L278.66 197.136C277.11 196.722 275.814 195.73 275.012 194.342C274.21 192.954 273.994 191.336 274.408 189.786L285.066 149.87C286.192 145.652 285 141.338 281.874 138.33C278.704 135.276 274.08 134.194 269.808 135.508C264.318 137.202 258.468 137.308 252.888 135.818C244.448 133.564 237.338 127.8 233.378 120C229.364 112.096 228.938 103.15 232.176 94.8081C237.18 81.9181 250.746 73.7861 264.448 75.4961C271.848 76.4141 278.392 79.7461 283.364 85.1241C286.352 88.3561 290.692 89.6521 294.982 88.5921C299.302 87.5221 302.568 84.3181 303.714 80.0221L314.328 40.2781C314.742 38.7281 315.734 37.4321 317.122 36.6281C318.508 35.8261 320.126 35.6101 321.678 36.0241L471.18 75.9441C472.728 76.3581 474.026 77.3501 474.828 78.7381C475.628 80.1321 475.844 81.7501 475.43 83.3001Z" fill="#3A312A"/>
<path d="M171.672 359.306C179.22 358.774 186.298 360.742 192.142 364.454C197.824 368.044 205.146 364.372 205.884 357.932V319.134C205.884 312.23 200.286 306.632 193.382 306.632H161.612C152.622 306.632 146.324 297.316 150.136 289.174C152.16 284.846 153.294 280.018 153.294 274.922C153.294 255.018 136.068 239.112 115.688 241.35C101.692 242.886 87.99 256.168 86.062 270.116C85.132 276.844 86.19 283.248 88.73 288.836C92.518 297.17 86.572 306.634 77.418 306.634H45.638C38.734 306.634 33.136 312.23 33.136 319.136V466.884C33.136 473.788 38.734 479.386 45.638 479.386H102.544H128.062H193.384C200.29 479.386 205.886 473.788 205.886 466.884V427.82C205.148 421.42 197.824 417.974 192.122 421.584C186.912 424.888 180.738 426.794 174.112 426.794C154.872 426.794 139.386 410.692 140.37 391.268C141.232 374.424 154.852 360.496 171.672 359.306Z" fill="#D7E057"/>
<path d="M171.882 362.298C178.516 361.83 184.966 363.45 190.54 366.99C194.054 369.21 198.388 369.468 202.128 367.676C205.876 365.882 208.396 362.366 208.866 358.274C208.88 358.16 208.886 358.046 208.886 357.932V319.134C208.886 310.588 201.93 303.634 193.382 303.634H161.614C158.304 303.634 155.26 301.954 153.47 299.138C151.756 296.442 151.53 293.274 152.854 290.446C155.138 285.568 156.296 280.344 156.296 274.922C156.296 264.482 151.834 254.496 144.052 247.522C136.166 240.454 125.994 237.212 115.36 238.366C99.984 240.054 85.204 254.406 83.088 269.704C82.122 276.712 83.128 283.756 85.998 290.078C87.374 293.1 87.13 296.556 85.352 299.318C83.586 302.06 80.696 303.634 77.418 303.634H45.636C37.09 303.634 30.134 310.588 30.134 319.134V466.882C30.134 475.43 37.09 482.384 45.636 482.384H102.544C104.2 482.384 105.544 481.042 105.544 479.384C105.544 477.726 104.2 476.384 102.544 476.384H45.636C40.396 476.384 36.134 472.122 36.134 466.882V319.134C36.134 313.894 40.396 309.634 45.636 309.634H77.418C82.696 309.634 87.546 306.992 90.396 302.566C93.284 298.08 93.682 292.482 91.458 287.594C89.058 282.31 88.218 276.408 89.032 270.526C90.768 257.958 103.376 245.718 116.014 244.33C124.9 243.35 133.444 246.074 140.046 251.988C146.558 257.824 150.294 266.184 150.294 274.92C150.294 279.456 149.328 283.824 147.418 287.9C145.238 292.554 145.608 297.958 148.404 302.356C151.3 306.912 156.238 309.632 161.612 309.632H193.382C198.622 309.632 202.886 313.894 202.886 319.132V357.742C202.608 359.706 201.366 361.388 199.536 362.264C197.64 363.172 195.53 363.046 193.75 361.922C187.092 357.694 179.384 355.756 171.458 356.314C153.276 357.6 138.304 372.884 137.372 391.112C136.856 401.294 140.432 410.964 147.444 418.34C154.464 425.722 163.932 429.79 174.11 429.79C181.086 429.79 187.87 427.828 193.726 424.114C195.564 422.952 197.796 422.804 199.692 423.708C201.458 424.552 202.614 426.112 202.884 428.006V466.88C202.884 472.12 198.62 476.382 193.38 476.382H128.06C126.404 476.382 125.06 477.724 125.06 479.382C125.06 481.04 126.404 482.382 128.06 482.382H193.38C201.928 482.382 208.884 475.428 208.884 466.88V427.816C208.884 427.7 208.878 427.586 208.864 427.472C208.402 423.474 205.94 420.044 202.278 418.296C198.498 416.492 194.102 416.772 190.514 419.046C185.618 422.15 179.946 423.79 174.11 423.79C165.594 423.79 157.668 420.386 151.794 414.206C145.926 408.034 142.932 399.94 143.364 391.416C144.146 376.166 156.674 363.376 171.882 362.298Z" fill="#3A312A"/>
<path d="M452.192 269.97C450.244 293.098 426.144 296.75 426.144 296.75C446.836 297.724 451.994 324.868 451.994 324.868C452.436 305.514 478.636 296.464 478.636 296.464C459.008 295.29 452.192 269.97 452.192 269.97Z" fill="#D7E057"/>
<path d="M478.814 293.468C461.606 292.438 455.15 269.42 455.088 269.186C454.708 267.782 453.392 266.858 451.92 266.982C450.47 267.114 449.324 268.266 449.202 269.716C447.484 290.146 426.576 293.644 425.694 293.782C424.168 294.012 423.068 295.362 423.148 296.904C423.228 298.444 424.462 299.672 426.004 299.746C444.06 300.596 449.002 325.182 449.048 325.43C449.324 326.852 450.568 327.864 451.994 327.864C452.078 327.864 452.162 327.862 452.246 327.854C453.776 327.726 454.96 326.468 454.996 324.936C455.382 307.918 479.376 299.382 479.62 299.298C480.972 298.828 481.804 297.47 481.608 296.052C481.412 294.634 480.242 293.554 478.814 293.468ZM451.684 314.16C448.97 307.9 444.266 300.346 436.51 296.408C442.372 293.598 449.326 288.582 452.912 279.864C456.014 286.006 461.312 293.624 469.58 297.308C463.566 300.586 455.736 306.118 451.684 314.16Z" fill="#3A312A"/>
<path d="M408.794 303.932C407.416 320.29 390.37 322.874 390.37 322.874C405.006 323.562 408.654 342.762 408.654 342.762C408.966 329.072 427.498 322.67 427.498 322.67C413.616 321.84 408.794 303.932 408.794 303.932Z" fill="#D7E057"/>
<path d="M427.678 319.676C416.144 318.986 411.734 303.304 411.692 303.146C411.312 301.742 409.978 300.83 408.528 300.942C407.076 301.072 405.928 302.228 405.806 303.678C404.65 317.42 390.514 319.812 389.922 319.906C388.396 320.136 387.296 321.486 387.376 323.028C387.456 324.568 388.69 325.796 390.232 325.87C402.302 326.438 405.68 343.158 405.71 343.322C405.982 344.748 407.228 345.762 408.656 345.762C408.738 345.762 408.822 345.76 408.906 345.752C410.436 345.626 411.622 344.364 411.658 342.83C411.918 331.412 428.32 325.562 428.482 325.506C429.834 325.038 430.668 323.68 430.474 322.262C430.276 320.844 429.106 319.762 427.678 319.676ZM408.508 333.266C406.66 329.496 403.828 325.372 399.614 322.706C403.326 320.624 407.008 317.448 409.356 312.874C411.47 316.622 414.664 320.782 419.238 323.322C415.54 325.522 411.26 328.8 408.508 333.266Z" fill="#3A312A"/>
<path d="M408.794 250.618C407.416 266.976 390.37 269.558 390.37 269.558C405.006 270.246 408.654 289.446 408.654 289.446C408.966 275.758 427.498 269.356 427.498 269.356C413.616 268.524 408.794 250.618 408.794 250.618Z" fill="#D7E057"/>
<path d="M427.678 266.36C416.144 265.67 411.734 249.99 411.692 249.832C411.312 248.428 409.978 247.502 408.528 247.628C407.076 247.758 405.928 248.914 405.806 250.364C404.65 264.106 390.514 266.496 389.922 266.59C388.396 266.82 387.296 268.17 387.376 269.712C387.456 271.252 388.69 272.48 390.232 272.554C402.302 273.122 405.68 289.842 405.71 290.006C405.982 291.43 407.228 292.446 408.656 292.446C408.738 292.446 408.822 292.444 408.906 292.436C410.436 292.31 411.622 291.048 411.658 289.514C411.918 278.096 428.32 272.246 428.482 272.19C429.834 271.722 430.668 270.364 430.474 268.946C430.276 267.53 429.106 266.446 427.678 266.36ZM408.508 279.952C406.66 276.18 403.828 272.058 399.614 269.392C403.326 267.31 407.008 264.134 409.356 259.56C411.47 263.308 414.664 267.468 419.236 270.006C415.54 272.208 411.26 275.486 408.508 279.952Z" fill="#3A312A"/>
<path d="M310.376 388.9C311.796 375.88 320.336 364.64 331.956 359.42C325.656 356.62 318.616 355.62 311.636 356.6C295.296 358.88 282.156 372.48 280.376 388.9C279.236 399.34 282.576 409.8 289.536 417.56C296.516 425.34 306.496 429.8 316.916 429.8C322.136 429.8 327.236 428.7 331.936 426.6C327.276 424.52 323.036 421.44 319.536 417.56C312.576 409.8 309.236 399.34 310.376 388.9Z" fill="#6CA8BF"/>
<path d="M318.056 303.58C315.916 299.72 316.076 294.98 318.436 291.18C321.496 286.32 323.116 280.7 323.116 274.92C323.116 266.18 319.376 257.82 312.856 251.98C306.256 246.08 297.716 243.36 288.836 244.34C284.736 244.78 280.836 246.08 277.356 248.04C279.296 249.14 281.136 250.44 282.856 251.98C289.376 257.82 293.116 266.18 293.116 274.92C293.116 280.7 291.496 286.32 288.436 291.18C286.076 294.98 285.916 299.72 288.056 303.58C290.156 307.36 294.016 309.64 298.376 309.64H328.376C324.016 309.64 320.156 307.36 318.056 303.58Z" fill="#6CA8BF"/>
<path d="M369.696 309.64H339.696C342.996 309.64 345.696 312.32 345.696 315.64V356.26C353.076 356.02 360.356 357.98 366.576 361.9C368.396 363.08 370.656 363.14 372.576 362.08C374.536 361 375.696 359.02 375.696 356.8V315.64C375.696 312.32 372.996 309.64 369.696 309.64Z" fill="#6CA8BF"/>
<path d="M372.736 423.98C370.756 422.88 368.396 422.96 366.416 424.2C360.576 427.86 353.836 429.8 346.916 429.8C346.516 429.8 346.096 429.8 345.696 429.76V470.38C345.696 473.68 342.996 476.38 339.696 476.38H369.696C372.996 476.38 375.696 473.68 375.696 470.38V429.06C375.696 426.88 374.616 425.02 372.736 423.98Z" fill="#6CA8BF"/>
<path d="M474.836 78.74C474.016 77.36 472.736 76.36 471.176 75.96L321.676 36.02C320.116 35.62 318.516 35.84 317.116 36.64C315.736 37.44 314.736 38.74 314.316 40.28L313.876 41.94L441.176 75.96C442.736 76.36 444.016 77.36 444.836 78.74C445.636 80.14 445.836 81.76 445.436 83.3L405.956 231.14L428.156 237.06C431.356 237.9 434.656 236 435.516 232.8L475.436 83.3C475.836 81.76 475.636 80.14 474.836 78.74Z" fill="#DECAAD"/>
</svg>
