<svg width="210" height="76" viewBox="0 0 210 76" fill="none" xmlns="http://www.w3.org/2000/svg">
<path d="M27.8677 27.9962C28.0477 27.9962 28.1944 28.1437 28.1944 28.3246C28.1944 28.5056 28.0477 28.6531 27.8677 28.6531C27.6877 28.6531 27.541 28.5056 27.541 28.3246C27.541 28.1437 27.6877 27.9962 27.8677 27.9962Z" fill="#3D3D3D"/>
<path d="M28.521 27.5673C28.521 27.5673 28.5477 27.4064 28.5477 27.192C28.5477 26.9775 28.521 26.8166 28.521 26.8166C28.521 26.8166 28.321 26.9306 28.1143 26.9171C28.0877 26.6155 28.2944 26.2871 28.2944 26.2871C28.2944 26.2871 28.021 26.3742 27.861 26.3742C27.7077 26.3742 27.4277 26.2871 27.4277 26.2871C27.4277 26.2871 27.6343 26.6088 27.6077 26.9171C27.401 26.9306 27.201 26.8166 27.201 26.8166C27.201 26.8166 27.1743 26.9775 27.1743 27.192C27.1743 27.4064 27.201 27.5673 27.201 27.5673C27.201 27.5673 27.401 27.4533 27.6077 27.4601C27.6277 27.6812 27.5077 27.9024 27.441 28.0097L27.4743 28.0365C27.561 27.9225 27.6943 27.8488 27.8477 27.8488C28.001 27.8488 28.1343 27.9225 28.221 28.0365L28.2544 28.0097C28.1877 27.9091 28.0743 27.6879 28.0943 27.4601C28.3277 27.4466 28.521 27.5673 28.521 27.5673Z" fill="#3D3D3D"/>
<path d="M27.8674 28.7808L24.6606 31.2875V32.3264H25.5673V31.2875H27.4141V32.3264H28.3208V31.2875H30.1675V32.3264H31.0742V31.2875L27.8674 28.7808Z" fill="#3D3D3D"/>
<path d="M31.5479 31.7632V32.8021H29.6945V31.7632H28.7944V32.8021H26.941V31.7632H26.041V32.8021H24.1876V31.7632H23.2876V32.8021V33.6935H32.4479V32.8021V31.7632H31.5479Z" fill="#3D3D3D"/>
<path d="M17.4868 33.1037C17.4868 32.8892 17.6602 32.7217 17.8668 32.7217C18.0735 32.7217 18.2468 32.8959 18.2468 33.1037C18.2468 33.3182 18.0735 33.4858 17.8668 33.4858C17.6602 33.4858 17.4868 33.3182 17.4868 33.1037Z" fill="#3D3D3D"/>
<path d="M18.0606 35.1014V33.7207H17.6806V35.1014L15.1538 38.3454H23.5941V35.1014H18.0606Z" fill="#3D3D3D"/>
<path d="M22.367 40.7848H21.4137V39.7258C21.4137 39.518 21.627 39.3437 21.8937 39.3437C22.1604 39.3437 22.3737 39.518 22.3737 39.7258V40.7848H22.367ZM20.6136 40.7848H19.6536V39.7258C19.6536 39.518 19.8669 39.3437 20.1336 39.3437C20.4003 39.3437 20.6136 39.518 20.6136 39.7258V40.7848ZM18.8669 40.7848H17.9069V39.7258C17.9069 39.518 18.1202 39.3437 18.3869 39.3437C18.6536 39.3437 18.8669 39.518 18.8669 39.7258V40.7848ZM16.6802 41.569H23.5937V38.8209H16.6802V41.569Z" fill="#3D3D3D"/>
<path d="M38.2476 33.1037C38.2476 32.8892 38.0742 32.7217 37.8676 32.7217C37.6542 32.7217 37.4875 32.8959 37.4875 33.1037C37.4875 33.3182 37.6609 33.4858 37.8676 33.4858C38.0742 33.4925 38.2476 33.3182 38.2476 33.1037Z" fill="#3D3D3D"/>
<path d="M37.6741 35.1014V33.7207H38.0541V35.1014L40.5809 38.3454H32.1406V35.1014H37.6741Z" fill="#3D3D3D"/>
<path d="M33.3676 39.7261C33.3676 39.5184 33.5809 39.3441 33.8476 39.3441C34.1143 39.3441 34.3276 39.5184 34.3276 39.7261V40.7851H33.3676V39.7261ZM35.121 39.7261C35.121 39.5184 35.3343 39.3441 35.601 39.3441C35.8677 39.3441 36.081 39.5184 36.081 39.7261V40.7851H35.121V39.7261ZM36.8744 39.7261C36.8744 39.5184 37.0877 39.3441 37.3544 39.3441C37.621 39.3441 37.8344 39.5184 37.8344 39.7261V40.7851H36.8744V39.7261ZM32.1409 41.5693H39.0544V38.8213H32.1409V41.5693Z" fill="#3D3D3D"/>
<path d="M19.514 45.8522L23.4341 42.0452H16.3339C16.3339 42.0452 13.9338 42.8763 13.9338 44.7128C13.9338 45.2289 14.1938 45.6377 14.3605 45.8455H19.514V45.8522Z" fill="#3D3D3D"/>
<path d="M36.228 45.8522L32.3079 42.0452H39.4014C39.4014 42.0452 41.8015 42.8763 41.8015 44.7128C41.8015 45.2289 41.5415 45.6377 41.3748 45.8455H36.228V45.8522Z" fill="#3D3D3D"/>
<path d="M34.0144 45.8589L29.3409 39.6591L35.6611 45.9594C35.5145 46.0198 35.2678 46.0935 34.9478 46.0935C34.4144 46.0935 34.1144 45.9259 34.0144 45.8589ZM31.7343 45.8522L28.7076 39.3843L33.4811 45.9259C33.3144 45.9996 33.0477 46.0868 32.6944 46.0868C32.2344 46.0935 31.881 45.9326 31.7343 45.8522ZM29.3876 45.8388L28.2342 39.1832L31.241 45.9125C31.0943 45.9862 30.8343 46.0868 30.4343 46.0868C30.061 46.0935 29.5943 45.9192 29.3876 45.8388ZM27.8676 46.0935C27.2809 46.0935 26.9609 45.9795 26.8142 45.9058L27.8676 39.0089L28.9209 45.8991C28.7743 45.9795 28.4542 46.0935 27.8676 46.0935ZM24.4874 45.9192L27.5009 39.1899L26.3475 45.8455C26.1408 45.9259 25.6742 46.1002 25.2941 46.1002C24.8941 46.0935 24.6341 45.9929 24.4874 45.9192ZM22.254 45.9326L27.0275 39.391L24.0008 45.8589C23.8608 45.9393 23.5074 46.0935 23.0474 46.0935C22.6941 46.0935 22.4207 46.0063 22.254 45.9326ZM20.074 45.9594L26.3942 39.6591L21.7207 45.8522C21.6207 45.9192 21.314 46.0868 20.7873 46.0868C20.4673 46.0935 20.2206 46.0198 20.074 45.9594Z" fill="#3D3D3D"/>
<path d="M19.8476 48.9019H18.8876V47.8429C18.8876 47.6284 19.1009 47.4608 19.3676 47.4608C19.6342 47.4608 19.8476 47.6351 19.8476 47.8429V48.9019ZM15.3874 47.8429C15.3874 47.6284 15.6008 47.4608 15.8675 47.4608C16.1341 47.4608 16.3475 47.6351 16.3475 47.8429V48.9019H15.3874V47.8429ZM17.1408 47.8429C17.1408 47.6284 17.3542 47.4608 17.6209 47.4608C17.8875 47.4608 18.1009 47.6351 18.1009 47.8429V48.9019H17.1408V47.8429ZM19.7409 46.3281H14.6941V51.0735H15.3474V52.9435H18.3675V51.0735H20.5476V46.556C20.1409 46.5158 19.8609 46.3952 19.7409 46.3281Z" fill="#3D3D3D"/>
<path d="M35.8879 47.8429C35.8879 47.6351 36.1013 47.4608 36.368 47.4608C36.6346 47.4608 36.848 47.6351 36.848 47.8429V48.9019H35.8879V47.8429ZM40.3547 48.9019H39.3947V47.8429C39.3947 47.6351 39.6081 47.4608 39.8747 47.4608C40.1414 47.4608 40.3547 47.6351 40.3547 47.8429V48.9019ZM38.6014 48.9019H37.6413V47.8429C37.6413 47.6351 37.8547 47.4608 38.1213 47.4608C38.388 47.4608 38.6014 47.6351 38.6014 47.8429V48.9019ZM35.1946 46.556V51.0735H37.3747V52.9435H40.3947V51.0735H41.0481V46.3281H36.0013C35.8746 46.3952 35.5946 46.5158 35.1946 46.556Z" fill="#3D3D3D"/>
<path d="M33.4478 49.9542H32.1811V48.1379C32.1811 47.8564 32.4678 47.6285 32.8145 47.6285C33.1611 47.6285 33.4478 47.8564 33.4478 48.1379V49.9542ZM31.2344 49.9542H29.661V48.0105C29.661 47.662 30.0144 47.3805 30.4477 47.3805C30.8811 47.3805 31.2344 47.662 31.2344 48.0105V49.9542ZM28.6543 49.9542H27.0809V48.0105C27.0809 47.662 27.4343 47.3805 27.8676 47.3805C28.301 47.3805 28.6543 47.662 28.6543 48.0105V49.9542ZM26.0809 49.9542H24.5075V48.0105C24.5075 47.662 24.8609 47.3805 25.2942 47.3805C25.7276 47.3805 26.0809 47.662 26.0809 48.0105V49.9542ZM23.5608 49.9542H22.2941V48.1379C22.2941 47.8564 22.5808 47.6285 22.9275 47.6285C23.2742 47.6285 23.5608 47.8564 23.5608 48.1379V49.9542ZM33.8145 46.2947C33.6145 46.4019 33.2278 46.5695 32.6878 46.5695C32.1678 46.5695 31.7544 46.4019 31.5478 46.2947C31.3611 46.4086 30.9944 46.5695 30.4477 46.5695C29.9877 46.5695 29.461 46.3818 29.221 46.288C29.0277 46.4019 28.621 46.5695 27.8743 46.5695H27.8676C27.1209 46.5695 26.7143 46.4019 26.5209 46.288C26.2809 46.3818 25.7542 46.5695 25.2942 46.5695C24.7409 46.5695 24.3742 46.4086 24.1875 46.2947C23.9808 46.4019 23.5675 46.5695 23.0475 46.5695C22.5075 46.5695 22.1208 46.4086 21.9208 46.2947C21.7541 46.3885 21.4541 46.5226 21.0208 46.5561V51.0736H22.6875V52.9436H25.7076V51.0736H30.0344V52.9436H33.0545V51.0736H34.7212V46.5561C34.2878 46.5226 33.9812 46.3885 33.8145 46.2947Z" fill="#3D3D3D"/>
<path d="M26.5944 36.0732H25.641V35.0142C25.641 34.7997 25.8544 34.6322 26.121 34.6322C26.3877 34.6322 26.601 34.8064 26.601 35.0142V36.0732H26.5944ZM27.3877 35.0142C27.3877 34.7997 27.6011 34.6322 27.8678 34.6322C28.1344 34.6322 28.3478 34.8064 28.3478 35.0142V36.0732H27.3877V35.0142ZM29.1411 35.0142C29.1411 34.7997 29.3545 34.6322 29.6211 34.6322C29.8878 34.6322 30.1012 34.8064 30.1012 35.0142V36.0732H29.1411V35.0142ZM27.0811 37.3668L27.8678 36.5759L28.6544 37.3668L28.0744 37.9499L31.6679 41.4352V34.1697H24.0676V41.4352L27.6611 37.9499L27.0811 37.3668Z" fill="#3D3D3D"/>
<path d="M44.2615 51.7303H41.0481V53.6004H36.7213V51.7303H33.7012V53.6004H29.3744V51.7303H26.3543V53.6004H22.0275V51.7303H19.0074V53.6004H14.6806V51.7303H11.4605V24.9671H44.2548V51.7303H44.2615ZM44.1148 10.8784V11.3945H43.3215V10.8784H42.1481V11.3945H41.3547V10.8784H40.188V12.2591H40.7147V14.3704H39.848V15.7847H38.308V14.3704H37.4413V12.2591H37.968V10.8784H36.7946V11.3945H36.0012V10.8784H34.8345V11.3945H34.0412V10.8784H32.8745V12.2591H33.4012V14.3704H32.5345V15.7847H30.7411V14.3704H29.8744V12.2591H30.4011V10.8784H29.2344V11.3945H28.441V10.8784H27.2743V11.3945H26.4809V10.8784H25.3076V12.2591H25.8343V14.3704H24.9676V15.7847H23.3008V14.3704H22.4341V12.2591H22.9608V10.8784H21.7875V11.3945H21.0008V10.8784H19.8274V11.3945H19.034V10.8784H17.8673V12.2591H18.394V14.3704H17.5273V15.7847H15.8606V14.3704H14.9939V12.2591H15.5206V10.8784H14.3539V11.3945H13.5605V10.8784H12.3938V11.3945H11.6071V10.8784H10.4404V12.2591H10.9671V15.7847L13.0005 17.9563V21.3612H12.0005V24.6521H11.1605V56.3417C11.1605 58.3323 12.1538 59.4986 14.2872 60.008C17.574 60.7989 22.1875 61.9115 25.4742 62.7091C26.6209 62.9906 27.3343 63.6273 27.721 64.7132L27.8677 65.1287L28.0143 64.7132C28.401 63.6273 29.1144 62.9906 30.2611 62.7091C33.5478 61.9115 38.1613 60.8056 41.4481 60.008C43.5815 59.4986 44.5682 58.3323 44.5682 56.3417V24.6588H43.7348V21.3679H42.7215V17.963L44.7549 15.7914V12.2658H45.2815V10.8851H44.1148V10.8784Z" fill="#3D3D3D"/>
<path d="M70.4487 44.1697V38.439H63.8752V44.1697H61.8018V31.093H63.8752V36.6092H70.4487V31.093H72.5221V44.1697H70.4487Z" fill="#3D3D3D"/>
<path d="M77.376 44.1697V31.093H84.3229L83.6962 32.8826H79.456V36.5891H83.6762V38.3787H79.456V42.3801H84.3495V44.1697H77.376Z" fill="#3D3D3D"/>
<path d="M88.6694 44.1697V31.093H90.7228V42.3801H95.483V44.1697H88.6694Z" fill="#3D3D3D"/>
<path d="M102.257 44.3708C100.463 44.3708 99.2299 43.7742 98.4099 43.2447L99.2766 41.6764C99.93 42.1321 100.95 42.6549 102.177 42.6549C103.243 42.6549 104.483 42.1723 104.483 40.9793C104.483 38.9752 101.343 38.5798 99.7633 36.8103C99.2299 36.2138 98.8766 35.4765 98.8766 34.4711C98.8766 32.5609 100.337 30.9724 102.963 30.9724C104.343 30.9724 105.37 31.3343 106.043 31.6896L106.023 33.6333C105.137 33.1038 104.13 32.7218 103.063 32.7218C101.937 32.7218 101.01 33.1977 101.01 34.2231C101.01 36.8036 106.697 36.7299 106.697 40.738C106.69 42.9431 104.763 44.3708 102.257 44.3708Z" fill="#3D3D3D"/>
<path d="M112.897 31.093H110.823V44.1697H112.897V31.093Z" fill="#3D3D3D"/>
<path d="M127.224 44.1697L121.097 36.1333C120.464 35.3022 120.117 34.7794 119.797 34.2432H119.757C119.797 34.6856 119.797 35.3156 119.797 35.9524V44.1697H117.744V31.093H119.837L125.717 38.8344C126.431 39.7728 126.784 40.2621 127.078 40.805H127.118C127.098 40.2688 127.078 39.6119 127.078 38.9752V31.093H129.151V44.1697H127.224Z" fill="#3D3D3D"/>
<path d="M139.465 44.3708C135.498 44.3708 132.958 41.5691 132.958 37.8023C132.958 33.8478 135.771 30.9724 140.018 30.9724C141.678 30.9724 142.938 31.3545 143.791 31.7097L143.771 33.7137C142.818 33.2178 141.578 32.7419 140.158 32.7419C136.778 32.7419 135.185 34.8867 135.185 37.6012C135.185 40.5369 137.018 42.6013 139.991 42.6013C140.965 42.6013 141.711 42.427 142.185 42.1656V37.6615H144.251V43.2179C143.218 43.7743 141.498 44.3708 139.465 44.3708Z" fill="#3D3D3D"/>
<path d="M152.752 44.1697H148.918V31.093H152.865C155.352 31.093 156.498 32.7552 156.498 34.3102C156.498 35.5234 155.925 36.5891 154.845 37.0918V37.1052C156.205 37.4068 157.325 38.6535 157.325 40.2822C157.332 42.1053 156.085 44.1697 152.752 44.1697ZM150.998 32.9027V36.6159H152.478C153.452 36.6159 154.392 35.9054 154.392 34.7124C154.392 33.6132 153.738 32.9027 152.318 32.9027H150.998ZM152.752 38.3988H150.998V42.3868H152.658C154.338 42.3868 155.185 41.5557 155.185 40.3023C155.185 39.1897 154.272 38.3988 152.752 38.3988Z" fill="#3D3D3D"/>
<path d="M162.252 32.8826C163.412 31.6896 165.052 30.9724 166.966 30.9724C169.019 30.9724 170.739 31.7298 171.899 33.0167C172.966 34.2097 173.532 35.8183 173.532 37.6615C173.532 39.6254 172.866 41.3479 171.666 42.541C170.479 43.7139 168.886 44.3708 166.966 44.3708C165.132 44.3708 163.592 43.7944 162.445 42.7622C161.145 41.549 160.399 39.7862 160.399 37.7353C160.399 35.7982 161.065 34.0958 162.252 32.8826ZM166.966 32.7821C164.339 32.7821 162.585 34.6454 162.585 37.7085C162.585 40.738 164.339 42.6013 166.966 42.6013C169.572 42.6013 171.332 40.738 171.332 37.7085C171.332 34.766 169.692 32.7821 166.966 32.7821Z" fill="#3D3D3D"/>
<path d="M184.16 44.1697C182.126 40.7983 181.12 39.0154 180.606 38.8747H179.406V44.1697H177.333V31.093H180.573C183.826 31.093 185.073 32.7351 185.073 34.7459C185.073 36.5355 183.906 37.6816 182.626 38.1977V38.2178C183.16 38.4926 184.54 40.8184 186.573 44.1697H184.16ZM180.593 32.9027H179.406V37.2459H180.633C181.973 37.2459 182.96 36.2137 182.96 34.9671C182.96 33.8344 182.266 32.9027 180.593 32.9027Z" fill="#3D3D3D"/>
<path d="M195.633 44.3708C191.659 44.3708 189.119 41.5691 189.119 37.8023C189.119 33.8478 191.939 30.9724 196.186 30.9724C197.846 30.9724 199.113 31.3545 199.96 31.7097L199.946 33.7137C198.993 33.2178 197.753 32.7419 196.333 32.7419C192.953 32.7419 191.353 34.8867 191.353 37.6012C191.353 40.5369 193.186 42.6013 196.173 42.6013C197.14 42.6013 197.893 42.427 198.36 42.1656V37.6615H200.433V43.2179C199.386 43.7743 197.666 44.3708 195.633 44.3708Z" fill="#3D3D3D"/>
</svg>
