
<svg xmlns="http://www.w3.org/2000/svg" xml:space="preserve" viewBox="21.62 53.42 1228.53 328.59">
  <path fill="#999" d="M310.228 354c-18.061 23.898-41.57 32.8-70.833 25.568-5.966-1.474-11.776-3.578-17.737-5.075-3.55-.892-4.576-2.7-4.557-6.323.117-23.158-.016-46.318-.082-69.477-.007-2.498-.05-5-.175-7.494-.304-6.135-3.347-9.993-9.387-10.132a985.856 985.856 0 0 0-44.466-.022c-6.265.138-9.478 3.963-9.58 10.478-.23 14.825-.207 29.655-.308 44.482-.008 1.266-.174 2.53-.339 4.766-7.112-4.24-13.683-8.029-20.066-12.111-.914-.585-1.283-2.59-1.289-3.942-.082-18.327-.107-36.655.035-54.981.012-1.586.884-3.632 2.058-4.673 32.28-28.622 64.69-57.098 96.954-85.74 3.658-3.247 5.979-3.409 9.84.035 31.829 28.38 63.91 56.477 95.796 84.793 1.486 1.32 2.236 3.84 2.622 5.93.446 2.418-.178 5.018.155 7.473 2.523 18.6-3.684 35.034-12.464 50.833-3.07 5.525-6.296 10.963-9.83 16.905-.806 1.196-1.235 1.926-1.663 2.657 0 0 .077.027-.319-.21-.44-4.562-.507-8.886-.523-13.21-.053-14.142.002-28.285-.17-42.426-.079-6.56-3.116-10.737-8.652-10.851a1761.392 1761.392 0 0 0-54.392-.278c-5.787.06-9.8 4.376-9.844 9.908-.143 17.8-.147 35.603.004 53.404.047 5.654 3.784 9.556 9.383 9.607 17.964.162 35.932.018 53.899.002 1.976-.001 3.953.068 5.93.104zM236.05 87.965c4.789 8.81 7.343 17.815 7.274 27.55-.086 12.121-.02 24.244-.02 37.195-9.074-7.274-14.89-.477-21.063 4.89-8.651 7.521-17.274 15.075-26.86 23.445-.157-2.604-.308-4.139-.333-5.675-.278-17.163-.469-34.328-.84-51.488-.112-5.135-3.155-8.777-7.663-9.83-4.8-1.12-8.693.558-11.183 4.611-1.142 1.86-1.567 4.383-1.652 6.63-.314 8.325-.342 16.66-.499 24.992-.03 1.607-.156 3.212-.29 5.837-2.68-2.354-4.642-4.23-6.76-5.908-5.4-4.276-11.425-4.329-15.399-.243-3.766 3.872-3.814 10.597.559 15.422 6.149 6.785 12.72 13.188 19.118 19.747 4.27 4.38 4.048 14.598-.523 18.67-10.053 8.953-20.163 17.843-31.41 27.784-2.88-5.823-6.446-10.678-7.723-16.075-3.253-13.748-5.56-27.653-5.135-41.991.585-19.65.119-39.33.383-58.992.42-31.196 24.821-51.09 45.278-55.271 26.796-5.477 50.006 5.052 64.742 28.7zM440.494 213v-53.725c8.413 0 16.219-.207 23.994.188 1.419.072 3.26 2.36 3.982 4.025 11.06 25.485 21.964 51.037 32.919 76.568.625 1.457 1.378 2.86 2.52 5.212 4.288-10.006 8.191-19.109 12.09-28.215 7.658-17.89 15.407-35.743 22.884-53.709 1.309-3.144 2.87-4.273 6.24-4.15 7.112.258 14.24.078 21.597.078v115.581h-22.957V202.68l-1.035-.336c-.774 1.68-1.608 3.334-2.312 5.043-8.745 21.22-17.542 42.421-26.124 63.708-1.244 3.087-2.643 4.472-6.105 4.193-4.288-.345-8.626-.082-13.145-.082l-30.212-72.85-.9.082v72.485h-23.436V213zM265.402 156.994c-.131-14.83.122-29.176-.482-43.487-.934-22.134-9.65-40.915-25.875-56.114-1.08-1.012-2.2-1.98-4.421-3.973 19.125.76 36.713 2.79 54.386 7.24-9.088 22.001-7.099 41.827 10.893 58.092 15.542 14.05 33.499 14.525 52.88 7.465 10.787 41.25 10.153 82.54 1.094 124.457-6.045-4.468-11.352-8.036-10.86-17.126.847-15.612.15-31.316-.134-46.977-.125-6.873-3.382-10.518-9.074-11.134-6.425-.695-11.357 3.605-11.646 10.685-.43 10.488-.515 20.99-.757 31.485-.026 1.13-.12 2.26-.24 4.419-5.46-4.776-10.289-8.958-15.071-13.192-12.103-10.713-24.095-21.554-36.337-32.105-3.172-2.733-4.957-5.44-4.431-9.746.38-3.12.074-6.324.075-9.989zM105.29 199.665c5.223 18.189 5.198 36.258 2.46 54.357-.479 3.168-2.587 6.34-4.649 8.953-2.452 3.108-5.841 5.456-8.506 8.42-3.35 3.725-4.042 9.269-.54 12.22 5.414 4.563 3.09 8.461.443 12.795-.512.837-1.123 1.613-2.09 2.988-2.988-2.663-5.844-5.08-8.559-7.647-18.406-17.395-34.025-36.925-46.378-59.131-3.916-7.039-4.687-13.821-3.15-21.472 5.017-24.97 15.65-47.638 28.045-69.608 2.604-4.616 5.438-9.103 8.715-14.566 14.96 22.989 26.799 46.546 34.209 72.69zM1060.476 276.422c-13.75 1.152-24.93-3.188-34.554-14.042v56.316h-23.04v-135.27h22.735v11.708c.919-.335 1.415-.363 1.659-.626 11.386-12.306 25.515-15.503 41.074-10.972 16.042 4.67 25.094 16.543 28.478 32.483 2.909 13.707 1.856 27.208-5.253 39.716-6.786 11.939-16.954 18.946-31.099 20.687m4.786-25.585c9.422-8.831 11.39-19.705 7.886-31.585-2.7-9.157-9.092-15.184-18.622-16.846-9.65-1.683-17.728 1.568-23.664 9.543-4.41 5.922-5.425 12.716-4.982 19.886.6 9.694 4.707 17.382 13.448 21.851 8.782 4.491 17.383 3.44 25.934-2.849zM1214.242 275.259c-24.605 4.97-45.947-4.694-54.668-24.832-9.574-22.106-4.724-56.846 28.57-66.725 22.514-6.68 45.853 2.479 56.257 21.923 10.645 19.895 6.224 46.36-10.87 59.94-5.422 4.306-12.538 6.478-19.289 9.694m-4.194-72.178c-14.998-4.248-27.821 3.313-30.609 18.496-.827 4.509-.794 9.342-.216 13.909 1.188 9.38 5.745 16.75 15.206 19.74 8.876 2.805 17.13 1.178 24.101-5.261 11.034-10.192 11.715-39.334-8.482-46.884zM676.958 200.002v74.83H653.85l-.42-8.681c-6.111 3.071-11.757 7.15-18.044 8.836-18.476 4.955-43.998-2.834-45.74-33.697-1.077-19.08-.2-38.272-.2-57.795h23.018v5.144c.007 15.499-.167 31 .073 46.497.238 15.287 9.88 23.305 24.86 21.127 8.998-1.308 15.443-7.922 15.785-17.87.562-16.313.346-32.652.453-48.98.013-1.962.002-3.925.002-6.092h23.321v16.681zM720.843 275.211c-7.12.01-13.754.01-20.651.01v-91.81h22.697v10.536c1.879-1.517 2.957-2.325 3.965-3.211 13.484-11.856 35.113-11.989 48.683-.26 8.263 7.143 11.612 16.717 11.903 27.127.49 17.478.201 34.978.239 52.469.003 1.475 0 2.95 0 4.787h-23.404c0-3.896.005-7.687-.001-11.477-.022-13.827.123-27.657-.12-41.48-.221-12.498-7.859-20.164-19.828-20.463-12.105-.303-20.667 7.339-21.023 19.852-.469 16.48-.16 32.98-.327 49.47-.015 1.486-1.073 2.961-2.133 4.45zM919.25 214.187h-4.794c-5.51-10.12-12.457-14.151-21.7-12.764-9.583 1.438-16.12 7.303-17.729 18.239-1.04 7.075-.832 14.696.643 21.687 1.86 8.811 8.09 14.514 17.507 15.355 8.812.787 16.096-1.809 20.208-10.493.47-.993 2.157-1.965 3.304-1.994 7.136-.182 14.279-.092 22.108-.092-2.554 11.362-8.418 19.871-17.725 25.76-22.626 14.312-66.706 8.115-70.43-35.024-1.214-14.067 1.098-27.314 10.741-38.309 11.967-13.643 27.525-16.723 44.56-13.898 16.245 2.694 26.847 12.375 32.054 27.969.31.928.435 1.917.796 3.564H919.25z" />
  <path fill="#999" d="M115.534 75.677c-6.918 11.347-10.672 23.286-10.862 36.241-.124 8.422-.023 16.846-.023 25.27l-1.928.4c-.865-1.462-1.698-2.943-2.6-4.381-6.19-9.866-12.116-19.914-18.677-29.527-6.355-9.31-13.752-9.33-20.34-.088-14.537 20.396-26.711 42.146-36.217 65.353-.801 1.957-1.635 3.901-2.598 6.194-7.801-46.254 53.82-113.654 107.663-118.314a6397.807 6397.807 0 0 0-14.418 18.852zM809.73 232v-48.618h22.874v91.593H809.73V232zM956.009 251v-67.594h22.838v91.542h-22.838V251zM1115.163 190.132v-6.693h22.582v91.412h-22.582v-84.719zM195.645 346.995v16.495c-7.06-3.666-13.461-6.933-19.778-10.354-.659-.357-1.161-1.628-1.165-2.477-.068-16.086-.05-32.172-.05-48.448h20.993v44.784zM319.52 74.495c11.65 8.791 21.04 20.471 24.604 30.457-8.447 6.861-22.708 5.36-31.165-3.28-9.272-9.473-10.434-23.327-2.442-32.819 2.866 1.786 5.791 3.608 9.004 5.642zM827.508 146.193c7.534 4.557 9.93 11.063 6.882 17.891-2.833 6.348-9.951 9.392-17.197 7.355-6.972-1.96-10.92-8.087-9.815-15.234 1.328-8.601 9.615-12.865 20.13-10.012zM953.936 162.003c-2.272-11.725 7.383-19.195 18.213-16.43 5.722 1.46 9.611 6.596 9.761 12.468.156 6.096-3.26 11.157-8.85 13.11-6.474 2.263-13.398.362-17.023-4.788-.85-1.207-1.36-2.652-2.101-4.36zM1118.544 147.391c5.897-3.258 11.49-3.353 16.834.22 4.427 2.96 6.103 7.397 5.533 12.58-.691 6.28-5.25 10.694-11.817 11.763-6.129.997-12.468-2.117-15.107-7.42-2.873-5.777-1.336-11.885 4.557-17.143z" />
  <path fill="#999" d="M262.003 317.007V302.57h30.393v29.998h-30.392v-15.561z" />
</svg>