<svg width="191" height="56" viewBox="0 0 191 56" fill="none" xmlns="http://www.w3.org/2000/svg">
<path d="M17.8677 17.9963C18.0477 17.9963 18.1944 18.1437 18.1944 18.3247C18.1944 18.5057 18.0477 18.6531 17.8677 18.6531C17.6877 18.6531 17.541 18.5057 17.541 18.3247C17.541 18.1437 17.6877 17.9963 17.8677 17.9963Z" fill="#3D3D3D"/>
<path d="M18.521 17.5673C18.521 17.5673 18.5477 17.4064 18.5477 17.192C18.5477 16.9775 18.521 16.8166 18.521 16.8166C18.521 16.8166 18.321 16.9306 18.1143 16.9171C18.0877 16.6155 18.2944 16.2871 18.2944 16.2871C18.2944 16.2871 18.021 16.3742 17.861 16.3742C17.7077 16.3742 17.4277 16.2871 17.4277 16.2871C17.4277 16.2871 17.6343 16.6088 17.6077 16.9171C17.401 16.9306 17.201 16.8166 17.201 16.8166C17.201 16.8166 17.1743 16.9775 17.1743 17.192C17.1743 17.4064 17.201 17.5673 17.201 17.5673C17.201 17.5673 17.401 17.4533 17.6077 17.4601C17.6277 17.6812 17.5077 17.9024 17.441 18.0097L17.4743 18.0365C17.561 17.9225 17.6943 17.8488 17.8477 17.8488C18.001 17.8488 18.1343 17.9225 18.221 18.0365L18.2544 18.0097C18.1877 17.9091 18.0743 17.6879 18.0943 17.4601C18.3277 17.4466 18.521 17.5673 18.521 17.5673Z" fill="#3D3D3D"/>
<path d="M17.8674 18.7808L14.6606 21.2875V22.3264H15.5673V21.2875H17.4141V22.3264H18.3208V21.2875H20.1675V22.3264H21.0742V21.2875L17.8674 18.7808Z" fill="#3D3D3D"/>
<path d="M21.5479 21.7632V22.8021H19.6945V21.7632H18.7944V22.8021H16.941V21.7632H16.041V22.8021H14.1876V21.7632H13.2876V22.8021V23.6935H22.4479V22.8021V21.7632H21.5479Z" fill="#3D3D3D"/>
<path d="M7.48682 23.1037C7.48682 22.8892 7.66016 22.7217 7.86683 22.7217C8.0735 22.7217 8.24684 22.8959 8.24684 23.1037C8.24684 23.3182 8.0735 23.4858 7.86683 23.4858C7.66016 23.4858 7.48682 23.3182 7.48682 23.1037Z" fill="#3D3D3D"/>
<path d="M8.06057 25.1014V23.7207H7.68056V25.1014L5.15381 28.3454H13.5941V25.1014H8.06057Z" fill="#3D3D3D"/>
<path d="M12.367 30.7848H11.4137V29.7258C11.4137 29.518 11.627 29.3438 11.8937 29.3438C12.1604 29.3438 12.3737 29.518 12.3737 29.7258V30.7848H12.367ZM10.6136 30.7848H9.6536V29.7258C9.6536 29.518 9.86694 29.3438 10.1336 29.3438C10.4003 29.3438 10.6136 29.518 10.6136 29.7258V30.7848ZM8.86691 30.7848H7.90688V29.7258C7.90688 29.518 8.12022 29.3438 8.3869 29.3438C8.65357 29.3438 8.86691 29.518 8.86691 29.7258V30.7848ZM6.68018 31.569H13.5937V28.821H6.68018V31.569Z" fill="#3D3D3D"/>
<path d="M28.2473 23.1037C28.2473 22.8892 28.074 22.7217 27.8673 22.7217C27.654 22.7217 27.4873 22.8959 27.4873 23.1037C27.4873 23.3182 27.6606 23.4858 27.8673 23.4858C28.074 23.4925 28.2473 23.3182 28.2473 23.1037Z" fill="#3D3D3D"/>
<path d="M27.6741 25.1014V23.7207H28.0541V25.1014L30.5809 28.3454H22.1406V25.1014H27.6741Z" fill="#3D3D3D"/>
<path d="M23.3678 29.7261C23.3678 29.5184 23.5812 29.3441 23.8478 29.3441C24.1145 29.3441 24.3279 29.5184 24.3279 29.7261V30.7851H23.3678V29.7261ZM25.1212 29.7261C25.1212 29.5184 25.3346 29.3441 25.6012 29.3441C25.8679 29.3441 26.0812 29.5184 26.0812 29.7261V30.7851H25.1212V29.7261ZM26.8746 29.7261C26.8746 29.5184 27.0879 29.3441 27.3546 29.3441C27.6213 29.3441 27.8346 29.5184 27.8346 29.7261V30.7851H26.8746V29.7261ZM22.1411 31.5693H29.0547V28.8213H22.1411V31.5693Z" fill="#3D3D3D"/>
<path d="M9.51377 35.8522L13.4339 32.0452H6.33367C6.33367 32.0452 3.93359 32.8763 3.93359 34.7128C3.93359 35.2289 4.1936 35.6377 4.36027 35.8455H9.51377V35.8522Z" fill="#3D3D3D"/>
<path d="M26.2277 35.8522L22.3076 32.0452H29.4012C29.4012 32.0452 31.8013 32.8763 31.8013 34.7128C31.8013 35.2289 31.5412 35.6377 31.3746 35.8455H26.2277V35.8522Z" fill="#3D3D3D"/>
<path d="M24.0147 35.8589L19.3412 29.6591L25.6614 35.9594C25.5147 36.0198 25.268 36.0935 24.948 36.0935C24.4147 36.0935 24.1147 35.9259 24.0147 35.8589ZM21.7346 35.8522L18.7078 29.3843L23.4813 35.9259C23.3146 35.9996 23.048 36.0868 22.6946 36.0868C22.2346 36.0935 21.8813 35.9326 21.7346 35.8522ZM19.3879 35.8388L18.2345 29.1832L21.2412 35.9125C21.0946 35.9862 20.8346 36.0868 20.4346 36.0868C20.0612 36.0935 19.5945 35.9192 19.3879 35.8388ZM17.8678 36.0935C17.2811 36.0935 16.9611 35.9795 16.8144 35.9058L17.8678 29.0089L18.9212 35.8991C18.7745 35.9795 18.4545 36.0935 17.8678 36.0935ZM14.4877 35.9192L17.5011 29.1899L16.3478 35.8455C16.1411 35.9259 15.6744 36.1002 15.2944 36.1002C14.8944 36.0935 14.6344 35.9929 14.4877 35.9192ZM12.2543 35.9326L17.0278 29.391L14.001 35.8589C13.861 35.9393 13.5077 36.0935 13.0476 36.0935C12.6943 36.0935 12.421 36.0063 12.2543 35.9326ZM10.0742 35.9594L16.3944 29.6591L11.7209 35.8522C11.6209 35.9192 11.3143 36.0868 10.7876 36.0868C10.4676 36.0935 10.2209 36.0198 10.0742 35.9594Z" fill="#3D3D3D"/>
<path d="M9.84735 38.9019H8.88732V37.8429C8.88732 37.6284 9.10066 37.4608 9.36733 37.4608C9.63401 37.4608 9.84735 37.6351 9.84735 37.8429V38.9019ZM5.3872 37.8429C5.3872 37.6284 5.60054 37.4608 5.86722 37.4608C6.13389 37.4608 6.34723 37.6351 6.34723 37.8429V38.9019H5.3872V37.8429ZM7.14059 37.8429C7.14059 37.6284 7.35393 37.4608 7.62061 37.4608C7.88728 37.4608 8.10062 37.6351 8.10062 37.8429V38.9019H7.14059V37.8429ZM9.74068 36.3281H4.69385V41.0735H5.3472V42.9435H8.3673V41.0735H10.5474V36.556C10.1407 36.5158 9.86068 36.3952 9.74068 36.3281Z" fill="#3D3D3D"/>
<path d="M25.8882 37.8429C25.8882 37.6351 26.1015 37.4608 26.3682 37.4608C26.6349 37.4608 26.8482 37.6351 26.8482 37.8429V38.9019H25.8882V37.8429ZM30.355 38.9019H29.395V37.8429C29.395 37.6351 29.6083 37.4608 29.875 37.4608C30.1417 37.4608 30.355 37.6351 30.355 37.8429V38.9019ZM28.6016 38.9019H27.6416V37.8429C27.6416 37.6351 27.8549 37.4608 28.1216 37.4608C28.3883 37.4608 28.6016 37.6351 28.6016 37.8429V38.9019ZM25.1948 36.556V41.0735H27.3749V42.9435H30.395V41.0735H31.0483V36.3281H26.0015C25.8748 36.3952 25.5948 36.5158 25.1948 36.556Z" fill="#3D3D3D"/>
<path d="M23.4476 39.9542H22.1809V38.1378C22.1809 37.8563 22.4675 37.6284 22.8142 37.6284C23.1609 37.6284 23.4476 37.8563 23.4476 38.1378V39.9542ZM21.2342 39.9542H19.6608V38.0105C19.6608 37.6619 20.0141 37.3804 20.4475 37.3804C20.8808 37.3804 21.2342 37.6619 21.2342 38.0105V39.9542ZM18.6541 39.9542H17.0807V38.0105C17.0807 37.6619 17.434 37.3804 17.8674 37.3804C18.3007 37.3804 18.6541 37.6619 18.6541 38.0105V39.9542ZM16.0807 39.9542H14.5073V38.0105C14.5073 37.6619 14.8606 37.3804 15.294 37.3804C15.7273 37.3804 16.0807 37.6619 16.0807 38.0105V39.9542ZM13.5606 39.9542H12.2939V38.1378C12.2939 37.8563 12.5806 37.6284 12.9272 37.6284C13.2739 37.6284 13.5606 37.8563 13.5606 38.1378V39.9542ZM23.8143 36.2946C23.6142 36.4018 23.2276 36.5694 22.6876 36.5694C22.1675 36.5694 21.7542 36.4018 21.5475 36.2946C21.3608 36.4085 20.9942 36.5694 20.4475 36.5694C19.9875 36.5694 19.4608 36.3817 19.2208 36.2879C19.0274 36.4018 18.6208 36.5694 17.8741 36.5694H17.8674C17.1207 36.5694 16.714 36.4018 16.5207 36.2879C16.2807 36.3817 15.754 36.5694 15.294 36.5694C14.7406 36.5694 14.3739 36.4085 14.1873 36.2946C13.9806 36.4018 13.5673 36.5694 13.0472 36.5694C12.5072 36.5694 12.1205 36.4085 11.9205 36.2946C11.7539 36.3884 11.4539 36.5225 11.0205 36.556V41.0735H12.6872V42.9435H15.7073V41.0735H20.0341V42.9435H23.0542V41.0735H24.721V36.556C24.2876 36.5225 23.9809 36.3884 23.8143 36.2946Z" fill="#3D3D3D"/>
<path d="M16.5946 26.0733H15.6413V25.0143C15.6413 24.7998 15.8546 24.6322 16.1213 24.6322C16.3879 24.6322 16.6013 24.8065 16.6013 25.0143V26.0733H16.5946ZM17.388 25.0143C17.388 24.7998 17.6013 24.6322 17.868 24.6322C18.1347 24.6322 18.348 24.8065 18.348 25.0143V26.0733H17.388V25.0143ZM19.1414 25.0143C19.1414 24.7998 19.3547 24.6322 19.6214 24.6322C19.8881 24.6322 20.1014 24.8065 20.1014 25.0143V26.0733H19.1414V25.0143ZM17.0813 27.3668L17.868 26.5759L18.6547 27.3668L18.0747 27.95L21.6681 31.4353V24.1697H14.0679V31.4353L17.6613 27.95L17.0813 27.3668Z" fill="#3D3D3D"/>
<path d="M34.2615 41.7303H31.0481V43.6004H26.7213V41.7303H23.7012V43.6004H19.3744V41.7303H16.3543V43.6004H12.0275V41.7303H9.00737V43.6004H4.68057V41.7303H1.46046V14.9671H34.2548V41.7303H34.2615ZM34.1148 0.878418V1.39451H33.3215V0.878418H32.1481V1.39451H31.3547V0.878418H30.188V2.25914H30.7147V4.37044H29.848V5.78467H28.308V4.37044H27.4413V2.25914H27.968V0.878418H26.7946V1.39451H26.0012V0.878418H24.8345V1.39451H24.0412V0.878418H22.8745V2.25914H23.4012V4.37044H22.5345V5.78467H20.7411V4.37044H19.8744V2.25914H20.4011V0.878418H19.2344V1.39451H18.441V0.878418H17.2743V1.39451H16.4809V0.878418H15.3076V2.25914H15.8343V4.37044H14.9676V5.78467H13.3008V4.37044H12.4341V2.25914H12.9608V0.878418H11.7875V1.39451H11.0008V0.878418H9.8274V1.39451H9.03404V0.878418H7.86733V2.25914H8.39402V4.37044H7.52732V5.78467H5.8606V4.37044H4.99391V2.25914H5.52059V0.878418H4.35389V1.39451H3.56053V0.878418H2.39383V1.39451H1.60713V0.878418H0.44043V2.25914H0.967113V5.78467L3.00051 7.95629V11.3612H2.00048V14.6521H1.16045V46.3417C1.16045 48.3323 2.15382 49.4986 4.28722 50.008C7.57399 50.7989 12.1875 51.9115 15.4742 52.7091C16.6209 52.9906 17.3343 53.6273 17.721 54.7132L17.8677 55.1287L18.0143 54.7132C18.401 53.6273 19.1144 52.9906 20.2611 52.7091C23.5478 51.9115 28.1613 50.8056 31.4481 50.008C33.5815 49.4986 34.5682 48.3323 34.5682 46.3417V14.6588H33.7348V11.3679H32.7215V7.96299L34.7549 5.79137V2.26584H35.2815V0.885121H34.1148V0.878418Z" fill="#3D3D3D"/>
<path d="M60.4487 34.1697V28.439H53.8752V34.1697H51.8018V21.093H53.8752V26.6092H60.4487V21.093H62.5221V34.1697H60.4487Z" fill="#3D3D3D"/>
<path d="M67.376 34.1697V21.093H74.3229L73.6962 22.8826H69.456V26.5891H73.6762V28.3787H69.456V32.3801H74.3495V34.1697H67.376Z" fill="#3D3D3D"/>
<path d="M78.6694 34.1697V21.093H80.7228V32.3801H85.483V34.1697H78.6694Z" fill="#3D3D3D"/>
<path d="M92.2565 34.3707C90.4631 34.3707 89.2297 33.7742 88.4097 33.2447L89.2764 31.6763C89.9297 32.1321 90.9497 32.6549 92.1765 32.6549C93.2432 32.6549 94.4832 32.1723 94.4832 30.9792C94.4832 28.9752 91.3431 28.5797 89.763 26.8103C89.2297 26.2137 88.8763 25.4765 88.8763 24.4711C88.8763 22.5609 90.3364 20.9724 92.9632 20.9724C94.3432 20.9724 95.3699 21.3343 96.0433 21.6895L96.0233 23.6333C95.1366 23.1038 94.1299 22.7217 93.0632 22.7217C91.9364 22.7217 91.0097 23.1976 91.0097 24.2231C91.0097 26.8036 96.6966 26.7298 96.6966 30.7379C96.6899 32.9431 94.7632 34.3707 92.2565 34.3707Z" fill="#3D3D3D"/>
<path d="M102.897 21.093H100.823V34.1697H102.897V21.093Z" fill="#3D3D3D"/>
<path d="M117.224 34.1697L111.098 26.1333C110.464 25.3022 110.118 24.7794 109.798 24.2432H109.758C109.798 24.6856 109.798 25.3156 109.798 25.9524V34.1697H107.744V21.093H109.838L115.718 28.8344C116.431 29.7728 116.784 30.2621 117.078 30.805H117.118C117.098 30.2688 117.078 29.6119 117.078 28.9752V21.093H119.151V34.1697H117.224Z" fill="#3D3D3D"/>
<path d="M129.465 34.3707C125.498 34.3707 122.958 31.5691 122.958 27.8022C122.958 23.8477 125.771 20.9724 130.018 20.9724C131.678 20.9724 132.938 21.3544 133.792 21.7096L133.772 23.7137C132.818 23.2177 131.578 22.7418 130.158 22.7418C126.778 22.7418 125.185 24.8866 125.185 27.6012C125.185 30.5369 127.018 32.6012 129.992 32.6012C130.965 32.6012 131.712 32.427 132.185 32.1656V27.6615H134.252V33.2179C133.218 33.7742 131.498 34.3707 129.465 34.3707Z" fill="#3D3D3D"/>
<path d="M142.752 34.1697H138.918V21.093H142.865C145.352 21.093 146.499 22.7552 146.499 24.3102C146.499 25.5234 145.925 26.5891 144.845 27.0918V27.1052C146.205 27.4068 147.325 28.6535 147.325 30.2822C147.332 32.1053 146.085 34.1697 142.752 34.1697ZM140.999 22.9027V26.6159H142.479C143.452 26.6159 144.392 25.9054 144.392 24.7124C144.392 23.6132 143.739 22.9027 142.319 22.9027H140.999ZM142.752 28.3988H140.999V32.3868H142.659C144.339 32.3868 145.185 31.5557 145.185 30.3023C145.185 29.1897 144.272 28.3988 142.752 28.3988Z" fill="#3D3D3D"/>
<path d="M152.252 22.8826C153.412 21.6895 155.052 20.9724 156.966 20.9724C159.019 20.9724 160.739 21.7297 161.899 23.0166C162.966 24.2097 163.533 25.8183 163.533 27.6615C163.533 29.6253 162.866 31.3479 161.666 32.5409C160.479 33.7139 158.886 34.3707 156.966 34.3707C155.132 34.3707 153.592 33.7943 152.446 32.7621C151.146 31.5489 150.399 29.7862 150.399 27.7352C150.399 25.7982 151.066 24.0957 152.252 22.8826ZM156.966 22.782C154.339 22.782 152.586 24.6453 152.586 27.7084C152.586 30.7379 154.339 32.6012 156.966 32.6012C159.573 32.6012 161.333 30.7379 161.333 27.7084C161.333 24.766 159.693 22.782 156.966 22.782Z" fill="#3D3D3D"/>
<path d="M174.16 34.1697C172.126 30.7983 171.12 29.0154 170.606 28.8747H169.406V34.1697H167.333V21.093H170.573C173.827 21.093 175.073 22.7351 175.073 24.7459C175.073 26.5355 173.907 27.6816 172.626 28.1977V28.2178C173.16 28.4926 174.54 30.8184 176.573 34.1697H174.16ZM170.593 22.9027H169.406V27.2459H170.633C171.973 27.2459 172.96 26.2137 172.96 24.9671C172.96 23.8344 172.266 22.9027 170.593 22.9027Z" fill="#3D3D3D"/>
<path d="M185.633 34.3707C181.66 34.3707 179.12 31.5691 179.12 27.8022C179.12 23.8477 181.94 20.9724 186.187 20.9724C187.847 20.9724 189.113 21.3544 189.96 21.7096L189.947 23.7137C188.993 23.2177 187.753 22.7418 186.333 22.7418C182.953 22.7418 181.353 24.8866 181.353 27.6012C181.353 30.5369 183.186 32.6012 186.173 32.6012C187.14 32.6012 187.893 32.427 188.36 32.1656V27.6615H190.433V33.2179C189.387 33.7742 187.667 34.3707 185.633 34.3707Z" fill="#3D3D3D"/>
</svg>
