<svg xmlns="http://www.w3.org/2000/svg" xmlns:xlink="http://www.w3.org/1999/xlink" shape-rendering="geometricPrecision" style="enable-background:new 0 0 798.7 57.7; color: #fff;" version="1.1" viewBox="-359 247.1 239.4 66.9" x="0px" y="0px" xml:space="preserve">

  <style>
  .st0{fill:#fff;} .st1{fill:#fff;} .st2{fill:none;stroke:#fff;stroke-width:0.2;}
  .site-header.header-jumbo a.logotype svg {width: auto !important;}
  a.logotype svg {transform: scale(1.00001, 1.00001);}
  </style>


  <path class="st0" d="M-284.5 288.7v-7.2h-8.3v7.2h-2.6v-16.5h2.6v7h8.3v-7h2.7v16.5z"></path>
  <path class="st0" d="M-275.7 288.7v-16.5h8.8l-.8 2.3h-5.4v4.7h5.4v2.2h-5.4v5.1h6.3v2.2z"></path>
  <path class="st0" d="M-261.4 288.7v-16.5h2.6v14.3h6.1v2.2z"></path>
  <path class="st0" d="M-244.1 289c-2.3 0-3.8-.8-4.9-1.4l1.1-2c.8.6 2.1 1.2 3.7 1.2 1.3 0 2.9-.6 2.9-2.1 0-2.5-4-3-6-5.3-.7-.8-1.1-1.7-1.1-2.9 0-2.4 1.9-4.4 5.2-4.4 1.8 0 3.1.5 3.9.9v2.5c-1.1-.7-2.4-1.1-3.8-1.1s-2.6.6-2.6 1.9c0 3.3 7.2 3.2 7.2 8.2 0 2.7-2.5 4.5-5.6 4.5z"></path>
  <path class="st0" d="M-233.3 288.7v-16.5h2.7v16.5z"></path>
  <path class="st0" d="M-212.5 288.7l-7.8-10.1c-.8-1-1.2-1.7-1.6-2.4v12.6h-2.6v-16.6h2.7l7.5 9.8c.9 1.2 1.4 1.8 1.7 2.5v-12.2h2.6v16.5h-2.5v-.1z"></path>
  <path class="st0" d="M-196.9 289c-5 0-8.3-3.5-8.3-8.3 0-5 3.6-8.6 9-8.6 2.1 0 3.7.5 4.8.9v2.5c-1.2-.6-2.8-1.2-4.6-1.2-4.3 0-6.3 2.7-6.3 6.1 0 3.7 2.3 6.3 6.1 6.3 1.2 0 2.2-.2 2.8-.6v-5.7h2.6v7c-1.4.8-3.6 1.6-6.1 1.6z"></path>
  <path class="st0" d="M-180.1 281.5h-2.2v5h2.1c2.1 0 3.2-1 3.2-2.6 0-1.4-1.2-2.4-3.1-2.4zm-2.2-7v4.7h1.9c1.2 0 2.4-.9 2.4-2.4 0-1.4-.8-2.3-2.6-2.3h-1.7zm2.2 14.2h-4.9v-16.5h5c3.2 0 4.6 2.1 4.6 4.1 0 1.5-.7 2.9-2.1 3.5 1.7.4 3.2 2 3.2 4 0 2.3-1.5 4.9-5.8 4.9z"></path>
  <path class="st0" d="M-162.1 274.4c-3.3 0-5.6 2.4-5.6 6.2s2.2 6.2 5.6 6.2c3.3 0 5.5-2.4 5.5-6.2.1-3.7-2-6.2-5.5-6.2zm-5.9.1c1.5-1.5 3.6-2.4 6-2.4 2.6 0 4.8 1 6.3 2.6 1.4 1.5 2.1 3.5 2.1 5.9 0 2.5-.8 4.7-2.4 6.2-1.5 1.5-3.5 2.3-6 2.3-2.3 0-4.3-.7-5.7-2-1.7-1.5-2.6-3.8-2.6-6.3-.1-2.6.8-4.8 2.3-6.3z"></path>
  <path class="st0" d="M-144.8 274.5h-1.5v5.5h1.6c1.7 0 3-1.3 3-2.9-.1-1.4-.9-2.6-3.1-2.6zm4.6 14.2c-2.6-4.3-3.9-6.5-4.5-6.7h-1.5v6.7h-2.6v-16.5h4.1c4.1 0 5.7 2.1 5.7 4.6 0 2.3-1.5 3.7-3.1 4.4.7.3 2.4 3.3 5 7.5h-3.1z"></path>
  <path class="st0" d="M-125.7 289c-5 0-8.3-3.5-8.3-8.3 0-5 3.6-8.6 9-8.6 2.1 0 3.7.5 4.8.9v2.5c-1.2-.6-2.8-1.2-4.6-1.2-4.3 0-6.3 2.7-6.3 6.1 0 3.7 2.3 6.3 6.1 6.3 1.2 0 2.2-.2 2.8-.6v-5.7h2.6v7c-1.3.8-3.5 1.6-6.1 1.6z"></path>


  <path class="st1" d="M-342.7 286.2h-8.9c-.9.3-3 1.4-3 3.4 0 .7.3 1.2.6 1.4h6.5l4.8-4.8zm19.9 0h-8.9l4.9 4.8h6.5c.3-.3.6-.8.6-1.4 0-2.1-2.2-3.1-3.1-3.4zm2 12v2.4h-5.1v-2.4h-4v2.4h-5.2v-2.2h-4.2v2.2h-5.2v-2.4h-4v2.4h-5.1v-2.4h-4.2v5.8c0 1.7.7 3.5 3.4 4.1 2.7.7 12.6 3 14.4 3.4 2.4.6 2.9 2.5 2.9 2.5s.5-1.9 2.9-2.5c1.8-.4 11.7-2.8 14.4-3.4 2.7-.7 3.4-2.5 3.4-4.1v-5.8h-4.4zM-341 273v1.3h.9v-1.5h2.3v1.5h1.2v-1.5h2.3v1.5h.9V273h.5l-4.3-3.4-4.3 3.4z"></path>
  <path class="st0" d="M-337.2 269.5c.2 0 .4-.2.4-.4s-.2-.4-.4-.4-.4.2-.4.4.2.4.4.4m.7-2.2s-.2.1-.3.1h-.1v-.2c0-.1.1-.3.1-.3l.1-.2-.2.1s-.2.1-.3.1c-.1 0-.3-.1-.3-.1l-.2-.1.1.2s.1.2.1.3v.2h-.1c-.1 0-.3-.1-.3-.1h-.1v1l.1-.1s.1-.1.2-.1h.1v.1c0 .1-.1.4-.1.4v.1c.1-.1.3-.2.5-.2s.4.1.5.2v-.1s-.1-.3-.1-.4v-.1h.1c.1 0 .2.1.2.1l.1.1v-1h-.1zm-13.2 7.1c.3 0 .5.2.5.5s-.2.5-.5.5-.5-.2-.5-.5.2-.5.5-.5m.2 1.2h-.5v1.6h.5v-1.6zm24.8-1.2c.3 0 .5.2.5.5s-.2.5-.5.5-.5-.2-.5-.5.2-.5.5-.5m.2 1.2h-.4v1.6h.4v-1.6zm7.6-28.2v.7h-1v-.7h-1.4v.7h-1v-.7h-1.5v1.7h.7v2.7h-1.1v1.6h-2.1v-1.6h-1.1v-2.7h.7v-1.7h-1.5v.7h-1v-.7h-1.4v.7h-1v-.7h-1.5v1.7h.7v2.7h-1.1v1.6h-2.1v-1.6h-1.1v-2.7h.7v-1.7h-1.5v.7h-1v-.7h-1.4v.7h-1v-.7h-1.5v1.7h.7v2.7h-1.1v1.6h-2.1v-1.6h-1.1v-2.7h.7v-1.7h-1.5v.7h-1v-.7h-1.4v.7h-1v-.7h-1.5v1.7h.7v2.7h-1.1v1.6h-2.1v-1.6h-1.1v-2.7h.7v-1.7h-1.5v.7h-1v-.7h-1.4v.7h-1v-.7h-1.5v1.7h.7v4.4l2.5 2.7v4.3h-1.3v4.4h39.7v-4.4h-1.2v-4.3l2.5-2.7v-4.4h.7v-1.7h-1.5z"></path>


  <path class="st1" d="M-331.9 277.6v4h10.6l-3-4zm-10.6 0h-7.6l-3 4h10.6zm12.7 13.8c-.2.1-.7.4-1.4.4s-1.1-.2-1.4-.3c-.2.1-.7.3-1.4.3s-1.2-.2-1.5-.4c-.2.2-.7.4-1.7.3-1 0-1.5-.2-1.7-.3-.3.1-.8.4-1.5.4s-1.2-.2-1.4-.3c-.2.1-.7.3-1.4.3s-1.2-.3-1.4-.4c-.2.1-.7.2-1.2.3v5.7h2.1v2.4h3.7v-2.2h5.6v2.2h3.7v-2.4h2.1v-5.7c-.5 0-1-.2-1.2-.3zm-12.8 4.6h-1.6v-2.3c.2-.8 1.3-.8 1.6 0v2.3zm3.1 0h-2v-2.5c.3-.9 1.6-.9 2 0v2.5zm3.3 0h-2v-2.5c.3-.9 1.6-.9 2 0v2.5zm3.2 0h-2v-2.5c.3-.9 1.6-.9 2 0v2.5zm2.8 0h-1.6v-2.3c.2-.8 1.3-.8 1.6 0v2.3zm-17-4.5h-6.6v6h.8v2.4h3.7v-2.4h2.9v-5.7c-.3-.1-.6-.2-.8-.3zm-4.4 3.2h-1.1v-1.3c.2-.5.9-.5 1.1 0v1.3zm2.1 0h-1.1v-1.3c.2-.5.9-.5 1.1 0v1.3zm2.2 0h-1.1v-1.3c.2-.5.9-.5 1.1 0v1.3zm20-3.2c-.2.1-.5.2-.8.2v5.7h2.9v2.4h3.7v-2.4h.9v-6h-6.7zm1.2 3.2h-1.1v-1.3c.2-.5.9-.5 1.1 0v1.3zm2.2 0h-1.1v-1.3c.2-.5.9-.5 1.1 0v1.3zm2.2 0h-1.1v-1.3c.2-.5.9-.5 1.1 0v1.3zm-29.5-12.5v3.5h8.7v-3.5h-8.7zm2.7 2.4h-1.1v-1.3c.2-.5.9-.5 1.1 0v1.3zm2.2 0h-1.1v-1.3c.2-.5.9-.5 1.1 0v1.3zm2.2 0h-1.1v-1.3c.2-.5.9-.5 1.1 0v1.3zm12.2-2.4v3.5h8.7v-3.5h-8.7zm2.7 2.4h-1.1v-1.3c.2-.5.9-.5 1.1 0v1.3zm2.2 0h-1.1v-1.3c.2-.5.9-.5 1.1 0v1.3zm2.2 0h-1.1v-1.3c.2-.5.9-.5 1.1 0v1.3zm-19.3 6.5c.2.1.5.2.9.2.8 0 1.2-.3 1.2-.3h.1l3.9-8.4-6.1 8.5zm2.7 0c.2.1.5.1 1 .1.7 0 1.2-.3 1.3-.4l1.5-8.6-3.8 8.9zm2.9 0c.2.1.6.2 1.3.2.8 0 1.2-.1 1.4-.2l-1.4-8.9-1.3 8.9c-.1 0 0 0 0 0zm-8.4-.1c.2.1.4.2.7.2.5 0 1.1-.2 1.4-.3h.1l5.9-8-8.1 8.1zm16.6.1l-6.1-8.5 3.9 8.4h.1s.4.3 1.2.3c.4 0 .7-.1.9-.2zm-2.7 0l-3.8-8.8 1.5 8.6c.1.1.6.4 1.3.4.4 0 .8-.1 1-.2zm5.5-.1l-8.2-8.1 5.9 8h.1c.3.1.9.3 1.4.3.4 0 .6-.1.8-.2z"></path>
  <path class="st1" d="M-342 276.4v9.1l4.5-4.4-.7-.7 1-1 1 1-.7.7 4.5 4.4v-9.1h-9.6zm3.2 2.3h-1.1v-1.3c.2-.5.9-.5 1.1 0v1.3zm2.1 0h-1.1v-1.3c.2-.5.9-.5 1.1 0v1.3zm2.2 0h-1.1v-1.3c.2-.5.9-.5 1.1 0v1.3z"></path>
  <path class="st0" d="M-342.9 275.8h11.4v-2.3h-1.4v1.3h-1.9v-1.4h-1.3v1.4h-2.2v-1.4h-1.3v1.4h-2v-1.3h-1.3v2.3z"></path>
  <path class="st2" d="M-316.6 264.9h-41.2v39.2c0 1.7.7 3.5 3.4 4.1 2.7.7 12.6 3 14.4 3.4 2.4.6 2.9 2.5 2.9 2.5s.5-1.9 2.9-2.5c1.8-.4 11.7-2.8 14.4-3.4 2.7-.7 3.4-2.5 3.4-4.1-.2-1.8-.2-1.8-.2-39.2z"></path>

</svg>
