<svg width="36" height="56" viewBox="0 0 36 56" fill="none" xmlns="http://www.w3.org/2000/svg">
<path d="M17.8677 17.9961C18.0477 17.9961 18.1944 18.1435 18.1944 18.3245C18.1944 18.5055 18.0477 18.6529 17.8677 18.6529C17.6877 18.6529 17.541 18.5055 17.541 18.3245C17.541 18.1435 17.6877 17.9961 17.8677 17.9961Z" fill="#3D3D3D"/>
<path d="M18.521 17.5673C18.521 17.5673 18.5477 17.4064 18.5477 17.192C18.5477 16.9775 18.521 16.8166 18.521 16.8166C18.521 16.8166 18.321 16.9306 18.1143 16.9171C18.0877 16.6155 18.2944 16.2871 18.2944 16.2871C18.2944 16.2871 18.021 16.3742 17.861 16.3742C17.7077 16.3742 17.4277 16.2871 17.4277 16.2871C17.4277 16.2871 17.6343 16.6088 17.6077 16.9171C17.401 16.9306 17.201 16.8166 17.201 16.8166C17.201 16.8166 17.1743 16.9775 17.1743 17.192C17.1743 17.4064 17.201 17.5673 17.201 17.5673C17.201 17.5673 17.401 17.4533 17.6077 17.4601C17.6277 17.6812 17.5077 17.9024 17.441 18.0097L17.4743 18.0365C17.561 17.9225 17.6943 17.8488 17.8477 17.8488C18.001 17.8488 18.1343 17.9225 18.221 18.0365L18.2544 18.0097C18.1877 17.9091 18.0743 17.6879 18.0943 17.4601C18.3277 17.4466 18.521 17.5673 18.521 17.5673Z" fill="#3D3D3D"/>
<path d="M17.8674 18.7812L14.6606 21.288V22.3269H15.5673V21.288H17.4141V22.3269H18.3208V21.288H20.1675V22.3269H21.0742V21.288L17.8674 18.7812Z" fill="#3D3D3D"/>
<path d="M21.5479 21.7637V22.8026H19.6945V21.7637H18.7944V22.8026H16.941V21.7637H16.041V22.8026H14.1876V21.7637H13.2876V22.8026V23.694H22.4479V22.8026V21.7637H21.5479Z" fill="#3D3D3D"/>
<path d="M7.48682 23.1037C7.48682 22.8892 7.66016 22.7217 7.86683 22.7217C8.0735 22.7217 8.24684 22.8959 8.24684 23.1037C8.24684 23.3182 8.0735 23.4858 7.86683 23.4858C7.66016 23.4858 7.48682 23.3182 7.48682 23.1037Z" fill="#3D3D3D"/>
<path d="M8.06057 25.1014V23.7207H7.68056V25.1014L5.15381 28.3454H13.5941V25.1014H8.06057Z" fill="#3D3D3D"/>
<path d="M12.367 30.7851H11.4137V29.7261C11.4137 29.5184 11.627 29.3441 11.8937 29.3441C12.1604 29.3441 12.3737 29.5184 12.3737 29.7261V30.7851H12.367ZM10.6136 30.7851H9.6536V29.7261C9.6536 29.5184 9.86694 29.3441 10.1336 29.3441C10.4003 29.3441 10.6136 29.5184 10.6136 29.7261V30.7851ZM8.86691 30.7851H7.90688V29.7261C7.90688 29.5184 8.12022 29.3441 8.3869 29.3441C8.65357 29.3441 8.86691 29.5184 8.86691 29.7261V30.7851ZM6.68018 31.5693H13.5937V28.8213H6.68018V31.5693Z" fill="#3D3D3D"/>
<path d="M28.2473 23.1037C28.2473 22.8892 28.074 22.7217 27.8673 22.7217C27.654 22.7217 27.4873 22.8959 27.4873 23.1037C27.4873 23.3182 27.6606 23.4858 27.8673 23.4858C28.074 23.4925 28.2473 23.3182 28.2473 23.1037Z" fill="#3D3D3D"/>
<path d="M27.6741 25.1014V23.7207H28.0541V25.1014L30.5809 28.3454H22.1406V25.1014H27.6741Z" fill="#3D3D3D"/>
<path d="M23.3678 29.7261C23.3678 29.5184 23.5812 29.3441 23.8478 29.3441C24.1145 29.3441 24.3279 29.5184 24.3279 29.7261V30.7851H23.3678V29.7261ZM25.1212 29.7261C25.1212 29.5184 25.3346 29.3441 25.6012 29.3441C25.8679 29.3441 26.0812 29.5184 26.0812 29.7261V30.7851H25.1212V29.7261ZM26.8746 29.7261C26.8746 29.5184 27.0879 29.3441 27.3546 29.3441C27.6213 29.3441 27.8346 29.5184 27.8346 29.7261V30.7851H26.8746V29.7261ZM22.1411 31.5693H29.0547V28.8213H22.1411V31.5693Z" fill="#3D3D3D"/>
<path d="M9.51377 35.8529L13.4339 32.0459H6.33367C6.33367 32.0459 3.93359 32.877 3.93359 34.7135C3.93359 35.2296 4.1936 35.6384 4.36027 35.8462H9.51377V35.8529Z" fill="#3D3D3D"/>
<path d="M26.2277 35.8529L22.3076 32.0459H29.4012C29.4012 32.0459 31.8013 32.877 31.8013 34.7135C31.8013 35.2296 31.5412 35.6384 31.3746 35.8462H26.2277V35.8529Z" fill="#3D3D3D"/>
<path d="M24.0147 35.8597L19.3412 29.6599L25.6614 35.9603C25.5147 36.0206 25.268 36.0943 24.948 36.0943C24.4147 36.0943 24.1147 35.9268 24.0147 35.8597ZM21.7346 35.853L18.7078 29.3851L23.4813 35.9268C23.3146 36.0005 23.048 36.0876 22.6946 36.0876C22.2346 36.0943 21.8813 35.9335 21.7346 35.853ZM19.3879 35.8396L18.2345 29.184L21.2412 35.9134C21.0946 35.9871 20.8346 36.0876 20.4346 36.0876C20.0612 36.0943 19.5945 35.9201 19.3879 35.8396ZM17.8678 36.0943C17.2811 36.0943 16.9611 35.9804 16.8144 35.9067L17.8678 29.0098L18.9212 35.9C18.7745 35.9804 18.4545 36.0943 17.8678 36.0943ZM14.4877 35.9201L17.5011 29.1907L16.3478 35.8463C16.1411 35.9268 15.6744 36.101 15.2944 36.101C14.8944 36.0943 14.6344 35.9938 14.4877 35.9201ZM12.2543 35.9335L17.0278 29.3918L14.001 35.8597C13.861 35.9402 13.5077 36.0943 13.0476 36.0943C12.6943 36.0943 12.421 36.0072 12.2543 35.9335ZM10.0742 35.9603L16.3944 29.6599L11.7209 35.853C11.6209 35.9201 11.3143 36.0876 10.7876 36.0876C10.4676 36.0943 10.2209 36.0206 10.0742 35.9603Z" fill="#3D3D3D"/>
<path d="M9.84735 38.9019H8.88732V37.8429C8.88732 37.6284 9.10066 37.4608 9.36733 37.4608C9.63401 37.4608 9.84735 37.6351 9.84735 37.8429V38.9019ZM5.3872 37.8429C5.3872 37.6284 5.60054 37.4608 5.86722 37.4608C6.13389 37.4608 6.34723 37.6351 6.34723 37.8429V38.9019H5.3872V37.8429ZM7.14059 37.8429C7.14059 37.6284 7.35393 37.4608 7.62061 37.4608C7.88728 37.4608 8.10062 37.6351 8.10062 37.8429V38.9019H7.14059V37.8429ZM9.74068 36.3281H4.69385V41.0735H5.3472V42.9435H8.3673V41.0735H10.5474V36.556C10.1407 36.5158 9.86068 36.3952 9.74068 36.3281Z" fill="#3D3D3D"/>
<path d="M25.8882 37.8429C25.8882 37.6351 26.1015 37.4608 26.3682 37.4608C26.6349 37.4608 26.8482 37.6351 26.8482 37.8429V38.9019H25.8882V37.8429ZM30.355 38.9019H29.395V37.8429C29.395 37.6351 29.6083 37.4608 29.875 37.4608C30.1417 37.4608 30.355 37.6351 30.355 37.8429V38.9019ZM28.6016 38.9019H27.6416V37.8429C27.6416 37.6351 27.8549 37.4608 28.1216 37.4608C28.3883 37.4608 28.6016 37.6351 28.6016 37.8429V38.9019ZM25.1948 36.556V41.0735H27.3749V42.9435H30.395V41.0735H31.0483V36.3281H26.0015C25.8748 36.3952 25.5948 36.5158 25.1948 36.556Z" fill="#3D3D3D"/>
<path d="M23.4476 39.9544H22.1809V38.138C22.1809 37.8565 22.4675 37.6286 22.8142 37.6286C23.1609 37.6286 23.4476 37.8565 23.4476 38.138V39.9544ZM21.2342 39.9544H19.6608V38.0106C19.6608 37.6621 20.0141 37.3806 20.4475 37.3806C20.8808 37.3806 21.2342 37.6621 21.2342 38.0106V39.9544ZM18.6541 39.9544H17.0807V38.0106C17.0807 37.6621 17.434 37.3806 17.8674 37.3806C18.3007 37.3806 18.6541 37.6621 18.6541 38.0106V39.9544ZM16.0807 39.9544H14.5073V38.0106C14.5073 37.6621 14.8606 37.3806 15.294 37.3806C15.7273 37.3806 16.0807 37.6621 16.0807 38.0106V39.9544ZM13.5606 39.9544H12.2939V38.138C12.2939 37.8565 12.5806 37.6286 12.9272 37.6286C13.2739 37.6286 13.5606 37.8565 13.5606 38.138V39.9544ZM23.8143 36.2948C23.6142 36.402 23.2276 36.5696 22.6876 36.5696C22.1675 36.5696 21.7542 36.402 21.5475 36.2948C21.3608 36.4087 20.9942 36.5696 20.4475 36.5696C19.9875 36.5696 19.4608 36.3819 19.2208 36.2881C19.0274 36.402 18.6208 36.5696 17.8741 36.5696H17.8674C17.1207 36.5696 16.714 36.402 16.5207 36.2881C16.2807 36.3819 15.754 36.5696 15.294 36.5696C14.7406 36.5696 14.3739 36.4087 14.1873 36.2948C13.9806 36.402 13.5673 36.5696 13.0472 36.5696C12.5072 36.5696 12.1205 36.4087 11.9205 36.2948C11.7539 36.3886 11.4539 36.5227 11.0205 36.5562V41.0737H12.6872V42.9437H15.7073V41.0737H20.0341V42.9437H23.0542V41.0737H24.721V36.5562C24.2876 36.5227 23.9809 36.3886 23.8143 36.2948Z" fill="#3D3D3D"/>
<path d="M16.5946 26.0734H15.6413V25.0144C15.6413 24.8 15.8546 24.6324 16.1213 24.6324C16.3879 24.6324 16.6013 24.8067 16.6013 25.0144V26.0734H16.5946ZM17.388 25.0144C17.388 24.8 17.6013 24.6324 17.868 24.6324C18.1347 24.6324 18.348 24.8067 18.348 25.0144V26.0734H17.388V25.0144ZM19.1414 25.0144C19.1414 24.8 19.3547 24.6324 19.6214 24.6324C19.8881 24.6324 20.1014 24.8067 20.1014 25.0144V26.0734H19.1414V25.0144ZM17.0813 27.367L17.868 26.5761L18.6547 27.367L18.0747 27.9501L21.6681 31.4355V24.1699H14.0679V31.4355L17.6613 27.9501L17.0813 27.367Z" fill="#3D3D3D"/>
<path d="M34.2615 41.7308H31.0481V43.6008H26.7213V41.7308H23.7012V43.6008H19.3744V41.7308H16.3543V43.6008H12.0275V41.7308H9.00737V43.6008H4.68057V41.7308H1.46046V14.9676H34.2548V41.7308H34.2615ZM34.1148 0.878906V1.395H33.3215V0.878906H32.1481V1.395H31.3547V0.878906H30.188V2.25963H30.7147V4.37093H29.848V5.78516H28.308V4.37093H27.4413V2.25963H27.968V0.878906H26.7946V1.395H26.0012V0.878906H24.8345V1.395H24.0412V0.878906H22.8745V2.25963H23.4012V4.37093H22.5345V5.78516H20.7411V4.37093H19.8744V2.25963H20.4011V0.878906H19.2344V1.395H18.441V0.878906H17.2743V1.395H16.4809V0.878906H15.3076V2.25963H15.8343V4.37093H14.9676V5.78516H13.3008V4.37093H12.4341V2.25963H12.9608V0.878906H11.7875V1.395H11.0008V0.878906H9.8274V1.395H9.03404V0.878906H7.86733V2.25963H8.39402V4.37093H7.52732V5.78516H5.8606V4.37093H4.99391V2.25963H5.52059V0.878906H4.35389V1.395H3.56053V0.878906H2.39383V1.395H1.60713V0.878906H0.44043V2.25963H0.967113V5.78516L3.00051 7.95678V11.3617H2.00048V14.6526H1.16045V46.3422C1.16045 48.3328 2.15382 49.4991 4.28722 50.0085C7.57399 50.7994 12.1875 51.912 15.4742 52.7096C16.6209 52.9911 17.3343 53.6278 17.721 54.7136L17.8677 55.1292L18.0143 54.7136C18.401 53.6278 19.1144 52.9911 20.2611 52.7096C23.5478 51.912 28.1613 50.8061 31.4481 50.0085C33.5815 49.4991 34.5682 48.3328 34.5682 46.3422V14.6593H33.7348V11.3684H32.7215V7.96348L34.7549 5.79186V2.26633H35.2815V0.885609H34.1148V0.878906Z" fill="#3D3D3D"/>
</svg>
