<?xml version="1.0" encoding="utf-8"?>
<!-- Generator: Adobe Illustrator 27.0.1, SVG Export Plug-In . SVG Version: 6.00 Build 0)  -->
<svg version="1.1" id="Lag_1" xmlns="http://www.w3.org/2000/svg" xmlns:xlink="http://www.w3.org/1999/xlink" x="0px" y="0px"
	 viewBox="0 0 800 200" style="enable-background:new 0 0 800 200;" xml:space="preserve">
<style type="text/css">
	.st0{fill:#76232F;}
	.st1{fill:#FFFFFF;}
	.st2{fill:#DA291C;}
	.st3{fill:#1B365D;}
	.st4{fill:#0072CE;}
	.st5{fill:#E35205;}
	.st6{fill:#F0B323;}
	.st7{fill:#00843D;}
	.st8{fill:#00BFB3;}
	.st9{fill:#FCDDE5;}
	.st10{fill:#E1EBF6;}
	.st11{fill:#FAF5B0;}
	.st12{fill:#E9F5C6;}
</style>
<g>
	<g>
		<g>
			<polygon class="st0" points="281.18,122.48 281.18,101.91 257.47,101.91 257.47,122.48 250,122.48 250,75.57 257.47,75.57 
				257.47,95.36 281.18,95.36 281.18,75.57 288.66,75.57 288.66,122.48 			"/>
			<polygon class="st0" points="306.17,122.48 306.17,75.57 331.23,75.57 328.95,81.98 313.66,81.98 313.66,95.29 328.88,95.29 
				328.88,101.7 313.66,101.7 313.66,116.07 331.31,116.07 331.31,122.48 			"/>
			<polygon class="st0" points="346.9,122.48 346.9,75.57 354.31,75.57 354.31,116.07 371.47,116.07 371.47,122.48 			"/>
			<path class="st0" d="M395.9,123.19c-6.47,0-10.91-2.14-13.88-4.05l3.14-5.63c2.34,1.64,6.04,3.5,10.46,3.5
				c3.84,0,8.33-1.73,8.33-6c0-7.2-11.32-8.61-17.02-14.95c-1.93-2.13-3.19-4.77-3.19-8.38c0-6.85,5.26-12.56,14.73-12.56
				c4.99,0,8.69,1.3,11.1,2.58l-0.07,6.97c-3.21-1.91-6.82-3.26-10.67-3.26c-4.06,0-7.41,1.7-7.41,5.39c0,9.26,20.5,9,20.5,23.36
				C411.91,118.07,404.94,123.19,395.9,123.19"/>
			<rect x="426.8" y="75.57" class="st0" width="7.47" height="46.91"/>
			<path class="st0" d="M485.97,122.48l-22.09-28.82c-2.27-2.98-3.54-4.85-4.69-6.77h-0.14c0.14,1.58,0.14,3.86,0.14,6.13v29.47
				h-7.4V75.57h7.55l21.21,27.76c2.57,3.36,3.85,5.13,4.92,7.06h0.14c-0.07-1.93-0.14-4.28-0.14-6.58V75.57h7.48v46.91H485.97z"/>
			<path class="st0" d="M530.12,123.19c-14.31,0-23.47-10.05-23.47-23.56c0-14.18,10.15-24.51,25.47-24.51
				c5.98,0,10.54,1.36,13.61,2.65l-0.08,7.19c-3.43-1.77-7.91-3.49-13.03-3.49c-12.18,0-17.93,7.7-17.93,17.44
				c0,10.53,6.6,17.93,17.35,17.93c3.5,0,6.2-0.62,7.91-1.56V99.13h7.47v19.93C543.64,121.05,537.45,123.19,530.12,123.19"/>
			<path class="st0" d="M578.04,122.48h-13.82V75.57h14.24c8.98,0,13.1,5.97,13.1,11.54c0,4.34-2.07,8.18-5.97,9.97v0.04
				c4.91,1.08,8.96,5.56,8.96,11.4C594.55,115.08,590.07,122.48,578.04,122.48 M571.7,82.05v13.31h5.33c3.5,0,6.91-2.56,6.91-6.82
				c0-3.93-2.35-6.49-7.49-6.49H571.7z M578.04,101.77h-6.34v14.3h5.98c6.07,0,9.12-2.99,9.12-7.48
				C586.81,104.62,583.52,101.77,578.04,101.77"/>
			<path class="st0" d="M612.3,81.98c4.19-4.28,10.1-6.85,17.01-6.85c7.4,0,13.61,2.72,17.8,7.34c3.85,4.27,5.89,10.04,5.89,16.66
				c0,7.05-2.41,13.23-6.75,17.51c-4.29,4.21-10.04,6.55-16.95,6.55c-6.62,0-12.17-2.07-16.31-5.77c-4.7-4.34-7.39-10.67-7.39-18.02
				C605.61,92.44,608.02,86.32,612.3,81.98 M629.31,81.61c-9.46,0-15.8,6.69-15.8,17.67c0,10.87,6.34,17.56,15.8,17.56
				c9.4,0,15.74-6.69,15.74-17.56C645.05,88.73,639.12,81.61,629.31,81.61"/>
			<path class="st0" d="M691.32,122.48c-7.33-12.09-10.96-18.5-12.8-19.01h-4.35v19.01h-7.47V75.57h11.67
				c11.74,0,16.24,5.91,16.24,13.1c0,6.41-4.21,10.52-8.83,12.39v0.07c1.91,0.99,6.9,9.33,14.24,21.35H691.32z M678.44,82.05h-4.27
				v15.59h4.42c4.83,0,8.39-3.7,8.39-8.18C686.98,85.4,684.5,82.05,678.44,82.05"/>
			<path class="st0" d="M732.71,123.19c-14.33,0-23.5-10.05-23.5-23.56c0-14.18,10.18-24.51,25.48-24.51
				c5.98,0,10.55,1.36,13.6,2.65l-0.06,7.19c-3.43-1.77-7.91-3.49-13.04-3.49c-12.18,0-17.95,7.7-17.95,17.44
				c0,10.53,6.62,17.93,17.38,17.93c3.48,0,6.2-0.62,7.89-1.56V99.13H750v19.93C746.23,121.05,740.03,123.19,732.71,123.19"/>
		</g>
		<rect class="st0" width="200" height="200"/>
	</g>
	<g>
		<path class="st1" d="M100,75.56L100,75.56c0.44,0,0.8,0.36,0.8,0.8c0,0.44-0.36,0.8-0.8,0.8c-0.44,0-0.8-0.36-0.8-0.8
			C99.2,75.92,99.56,75.56,100,75.56"/>
		<path class="st1" d="M101.61,74.51c0,0,0.06-0.39,0.06-0.92c0-0.53-0.06-0.92-0.06-0.92s-0.49,0.28-1,0.25
			c-0.06-0.74,0.45-1.53,0.45-1.53s-0.68,0.21-1.06,0.21c-0.38,0-1.06-0.21-1.06-0.21s0.51,0.79,0.45,1.53c-0.51,0.03-1-0.25-1-0.25
			s-0.06,0.39-0.06,0.92c0,0.53,0.06,0.92,0.06,0.92s0.49-0.28,1-0.26c0.04,0.54-0.24,1.09-0.4,1.34l0.09,0.07
			c0.21-0.28,0.55-0.46,0.93-0.46c0.38,0,0.71,0.18,0.93,0.46l0.09-0.07c-0.16-0.25-0.45-0.79-0.4-1.34
			C101.12,74.22,101.61,74.51,101.61,74.51"/>
		<polygon class="st1" points="100,77.47 92.13,83.6 92.13,86.13 94.34,86.13 94.34,83.6 98.89,83.6 98.89,86.13 101.11,86.13 
			101.11,83.6 105.66,83.6 105.66,86.13 107.87,86.13 107.87,83.6 		"/>
		<polygon class="st1" points="109.04,84.76 109.04,87.3 104.49,87.3 104.49,84.76 102.27,84.76 102.27,87.3 97.73,87.3 
			97.73,84.76 95.51,84.76 95.51,87.3 90.96,87.3 90.96,84.76 88.75,84.76 88.75,87.3 88.75,89.47 111.26,89.47 111.26,87.3 
			111.26,84.76 		"/>
		<path class="st1" d="M74.5,88.04c0-0.52,0.42-0.94,0.94-0.94c0.52,0,0.94,0.42,0.94,0.94c0,0.52-0.42,0.94-0.94,0.94
			C74.92,88.98,74.5,88.56,74.5,88.04"/>
		<polygon class="st1" points="75.91,92.91 75.91,89.55 74.97,89.55 74.97,92.91 68.77,100.84 89.5,100.84 89.5,92.91 		"/>
		<path class="st1" d="M86.49,106.8h-2.35v-2.58c0-0.52,0.53-0.94,1.18-0.94c0.65,0,1.18,0.42,1.18,0.94V106.8z M82.19,106.8h-2.35
			v-2.58c0-0.52,0.53-0.94,1.18-0.94s1.18,0.42,1.18,0.94V106.8z M77.88,106.8h-2.35v-2.58c0-0.52,0.53-0.94,1.18-0.94
			s1.18,0.42,1.18,0.94V106.8z M72.52,108.73H89.5V102H72.52V108.73z"/>
		<path class="st1" d="M125.5,88.04c0-0.52-0.42-0.94-0.94-0.94c-0.52,0-0.94,0.42-0.94,0.94c0,0.52,0.42,0.94,0.94,0.94
			C125.08,88.98,125.5,88.56,125.5,88.04"/>
		<polygon class="st1" points="124.09,92.91 124.09,89.55 125.03,89.55 125.03,92.91 131.23,100.84 110.5,100.84 110.5,92.91 		"/>
		<path class="st1" d="M113.51,104.22c0-0.52,0.53-0.94,1.18-0.94c0.65,0,1.18,0.42,1.18,0.94v2.58h-2.35V104.22z M117.81,104.22
			c0-0.52,0.53-0.94,1.18-0.94c0.65,0,1.17,0.42,1.17,0.94v2.58h-2.35V104.22z M122.12,104.22c0-0.52,0.53-0.94,1.18-0.94
			c0.65,0,1.17,0.42,1.17,0.94v2.58h-2.35V104.22z M110.5,108.73h16.98V102H110.5V108.73z"/>
		<path class="st1" d="M79.47,119.18l9.64-9.29H71.67c0,0-5.89,2.03-5.89,6.52c0,1.26,0.63,2.25,1.05,2.77H79.47z"/>
		<path class="st1" d="M120.53,119.18l-9.64-9.29h17.44c0,0,5.89,2.03,5.89,6.52c0,1.26-0.63,2.25-1.05,2.77H120.53z"/>
		<path class="st1" d="M115.09,119.19l-11.47-15.14l15.52,15.39c-0.36,0.14-0.97,0.32-1.76,0.32
			C116.09,119.77,115.34,119.36,115.09,119.19 M109.5,119.19l-7.44-15.8l11.72,15.99c-0.41,0.18-1.07,0.39-1.93,0.39
			C110.73,119.77,109.85,119.37,109.5,119.19 M103.74,119.15l-2.83-16.26l7.39,16.45c-0.35,0.19-1,0.43-1.97,0.43
			C105.39,119.77,104.24,119.35,103.74,119.15 M100,119.77c-1.44,0-2.23-0.28-2.59-0.46l2.59-16.84l2.59,16.84
			C102.23,119.49,101.44,119.77,100,119.77 M91.7,119.34l7.39-16.45l-2.83,16.26c-0.5,0.2-1.66,0.62-2.59,0.62
			C92.7,119.77,92.05,119.52,91.7,119.34 M86.22,119.38l11.72-15.99l-7.44,15.8c-0.35,0.19-1.22,0.58-2.35,0.58
			C87.29,119.77,86.63,119.56,86.22,119.38 M80.86,119.45l15.52-15.39l-11.47,15.14c-0.25,0.16-1,0.57-2.29,0.57
			C81.83,119.77,81.22,119.59,80.86,119.45"/>
		<path class="st1" d="M80.3,126.63h-2.35v-2.58c0-0.52,0.53-0.93,1.17-0.93s1.18,0.42,1.18,0.93V126.63z M69.34,124.05
			c0-0.52,0.53-0.93,1.17-0.93c0.65,0,1.18,0.42,1.18,0.93v2.58h-2.35V124.05z M73.64,124.05c0-0.52,0.53-0.93,1.17-0.93
			c0.65,0,1.18,0.42,1.18,0.93v2.58h-2.35V124.05z M80.03,120.35h-12.4v11.59h1.6v4.56h7.42v-4.56h5.36V120.9
			C81.02,120.81,80.33,120.5,80.03,120.35"/>
		<path class="st1" d="M119.7,124.05c0-0.52,0.53-0.93,1.18-0.93c0.65,0,1.18,0.42,1.18,0.93v2.58h-2.35V124.05z M130.66,126.63
			h-2.35v-2.58c0-0.52,0.53-0.93,1.18-0.93c0.65,0,1.18,0.42,1.18,0.93V126.63z M126.36,126.63h-2.35v-2.58
			c0-0.52,0.53-0.93,1.18-0.93c0.65,0,1.18,0.42,1.18,0.93V126.63z M117.99,120.9v11.04h5.36v4.56h7.42v-4.56h1.6v-11.59h-12.4
			C119.67,120.5,118.98,120.81,117.99,120.9"/>
		<path class="st1" d="M113.7,129.2h-3.12v-4.44c0-0.68,0.7-1.24,1.56-1.24c0.86,0,1.56,0.56,1.56,1.24V129.2z M108.26,129.2h-3.86
			v-4.75c0-0.85,0.86-1.54,1.93-1.54c1.07,0,1.93,0.69,1.93,1.54V129.2z M101.93,129.2h-3.87v-4.75c0-0.85,0.87-1.54,1.93-1.54
			c1.07,0,1.93,0.69,1.93,1.54V129.2z M95.6,129.2h-3.87v-4.75c0-0.85,0.87-1.54,1.93-1.54s1.93,0.69,1.93,1.54V129.2z M89.41,129.2
			H86.3v-4.44c0-0.68,0.7-1.24,1.56-1.24c0.86,0,1.56,0.56,1.56,1.24V129.2z M114.61,120.27c-0.48,0.27-1.43,0.67-2.76,0.67
			c-1.28,0-2.3-0.42-2.81-0.67c-0.46,0.27-1.36,0.67-2.71,0.67c-1.13,0-2.43-0.46-3.01-0.7c-0.47,0.28-1.47,0.69-3.3,0.7h-0.02
			c-1.83,0-2.83-0.41-3.3-0.7c-0.59,0.24-1.88,0.7-3.01,0.7c-1.35,0-2.25-0.4-2.71-0.67c-0.51,0.26-1.52,0.67-2.81,0.67
			c-1.33,0-2.28-0.4-2.76-0.67c-0.41,0.23-1.15,0.56-2.22,0.64v11.03h4.1v4.56h7.42v-4.56h10.62v4.56h7.42v-4.56h4.1v-11.03
			C115.76,120.82,115.02,120.5,114.61,120.27"/>
		<path class="st1" d="M96.87,95.29h-2.35v-2.58c0-0.52,0.53-0.94,1.18-0.94c0.65,0,1.17,0.42,1.17,0.94V95.29z M98.82,92.71
			c0-0.52,0.53-0.94,1.18-0.94c0.65,0,1.17,0.42,1.17,0.94v2.58h-2.35V92.71z M103.13,92.71c0-0.52,0.53-0.94,1.18-0.94
			c0.65,0,1.17,0.42,1.17,0.94v2.58h-2.35V92.71z M98.07,98.44l1.93-1.93l1.93,1.93l-1.43,1.43l8.83,8.51V90.64H90.67v17.75
			l8.83-8.51L98.07,98.44z"/>
		<path class="st1" d="M140.27,133.55h-7.9v4.56h-10.62v-4.56h-7.42v4.56h-10.62v-4.56h-7.42v4.56H85.67v-4.56h-7.42v4.56H67.63
			v-4.56h-7.9V68.16h80.54V133.55z M139.91,33.73v1.26h-1.94v-1.26h-2.87v1.26h-1.94v-1.26h-2.87v3.38h1.29v5.15h-2.13v3.46h-3.78
			v-3.46h-2.13v-5.15h1.3v-3.38h-2.87v1.26h-1.94v-1.26h-2.87v1.26h-1.94v-1.26h-2.87v3.38h1.29v5.15h-2.13v3.46h-4.4v-3.46h-2.13
			v-5.15h1.29v-3.38h-2.87v1.26h-1.94v-1.26h-2.87v1.26h-1.94v-1.26h-2.87v3.38h1.29v5.15h-2.13v3.46h-4.09v-3.46h-2.13v-5.15h1.29
			v-3.38h-2.87v1.26h-1.94v-1.26H80.3v1.26h-1.94v-1.26h-2.87v3.38h1.29v5.15h-2.13v3.46h-4.09v-3.46h-2.13v-5.15h1.3v-3.38h-2.87
			v1.26h-1.94v-1.26h-2.87v1.26h-1.94v-1.26h-2.87v3.38h1.3v8.61l5,5.31v8.32h-2.48v8.04h-2.06v77.42c0,4.86,2.44,7.71,7.67,8.96
			c8.08,1.93,19.41,4.65,27.49,6.59c2.82,0.68,4.57,2.23,5.52,4.89l0.36,1.01l0.36-1.01c0.94-2.66,2.7-4.21,5.52-4.89
			c8.07-1.94,19.4-4.66,27.49-6.59c5.23-1.25,7.67-4.1,7.67-8.96V67.4h-2.06v-8.04h-2.48v-8.32l5-5.31v-8.61h1.3v-3.38H139.91z"/>
	</g>
</g>
</svg>
