<svg width="113" height="112" viewBox="0 0 113 112" fill="none" xmlns="http://www.w3.org/2000/svg">
<path d="M56.5 63.1794V91.8934L81.3671 106.25L106.234 91.8934V63.1794L81.3671 48.8224L56.5 63.1794Z" fill="#526FAA"/>
<path d="M6.7666 63.1794V91.8934L31.6332 106.25L56.5003 91.8934V63.1794L31.6332 48.8224L6.7666 63.1794Z" fill="#526FAA"/>
<path d="M102.224 60.8641V94.2086L106.234 91.893V63.1794L102.224 60.8641Z" fill="#34518C"/>
<path d="M10.7767 94.2086V60.8641L6.7666 63.1794V91.8934L10.7767 94.2086Z" fill="#708DC8"/>
<path d="M31.6328 20.1066V48.8206L56.4999 63.1776L81.3669 48.8206V20.1066L56.4999 5.74963L31.6328 20.1066Z" fill="#526FAA"/>
<path d="M31.6337 107.125C31.4827 107.125 31.3318 107.086 31.1962 107.008L6.3291 92.6512C6.05829 92.495 5.8916 92.2058 5.8916 91.8934V63.1794C5.8916 62.8666 6.05829 62.5778 6.3291 62.4216L31.1962 48.0647C31.467 47.9085 31.8004 47.9085 32.0712 48.0647L56.9378 62.4216C57.2086 62.5778 57.3753 62.867 57.3753 63.1794V91.8934C57.3753 92.2062 57.2086 92.495 56.9378 92.6512L32.0712 107.008C31.9355 107.086 31.7846 107.125 31.6337 107.125ZM7.6416 91.3885L31.6337 105.24L55.6253 91.3885V63.6847L31.6337 49.833L7.6416 63.6847V91.3885Z" fill="#690589"/>
<path d="M81.3671 107.125C81.2157 107.125 81.0648 107.086 80.9296 107.008L56.0625 92.6512C55.7917 92.495 55.625 92.2058 55.625 91.8934V63.1794C55.625 62.8666 55.7917 62.5778 56.0625 62.4216L80.9296 48.0647C81.2004 47.9085 81.5338 47.9085 81.8046 48.0647L106.672 62.4216C106.942 62.5778 107.109 62.867 107.109 63.1794V91.8934C107.109 92.2062 106.942 92.495 106.672 92.6512L81.8046 107.008C81.6689 107.086 81.5184 107.125 81.3671 107.125ZM57.375 91.3885L81.3671 105.24L105.359 91.3885V63.6847L81.3671 49.833L57.375 63.6843V91.3885Z" fill="#690589"/>
<path d="M10.7769 77.5224C10.2939 77.5224 9.90186 77.1304 9.90186 76.6474V71.3974C9.90186 70.9139 10.2939 70.5224 10.7769 70.5224C11.2599 70.5224 11.6519 70.9139 11.6519 71.3974V76.6474C11.6519 77.1308 11.2599 77.5224 10.7769 77.5224Z" fill="#690589"/>
<path d="M77.3564 17.7914V51.1359L81.367 48.8202V20.1066L77.3564 17.7914Z" fill="#34518C"/>
<path d="M35.6434 51.1359V17.7914L31.6328 20.1066V48.8206L35.6434 51.1359Z" fill="#708DC8"/>
<path d="M56.4999 64.0522C56.349 64.0522 56.198 64.0133 56.0624 63.9349L31.1958 49.5784C30.925 49.4218 30.7583 49.133 30.7583 48.8202V20.1066C30.7583 19.7938 30.925 19.5051 31.1958 19.3489L56.0624 4.99189C56.3332 4.83526 56.6666 4.83526 56.9374 4.99189L81.8045 19.3485C82.0753 19.5046 82.242 19.7938 82.242 20.1062V48.8202C82.242 49.133 82.0753 49.4218 81.8045 49.5784L56.9374 63.9354C56.8018 64.0133 56.6509 64.0522 56.4999 64.0522ZM32.5083 48.3158L56.4999 62.167L80.492 48.3158V20.6115L56.4999 6.76026L32.5083 20.6115V48.3158Z" fill="#690589"/>
<path d="M59.3283 66.0056C57.7664 67.5675 55.2338 67.5675 53.6719 66.0056C52.11 64.4437 52.11 61.911 53.6719 60.3492C55.2338 58.7873 57.7664 58.7873 59.3283 60.3492C60.8902 61.911 60.8902 64.4437 59.3283 66.0056Z" fill="#FCC24C"/>
<path d="M56.5002 68.0501C55.252 68.0501 54.0034 67.5745 53.0531 66.6243C51.1522 64.7233 51.1522 61.6311 53.0531 59.7301C54.9532 57.8296 58.0463 57.8296 59.9468 59.7301C61.8478 61.6311 61.8478 64.7233 59.9468 66.6243C58.997 67.5745 57.7484 68.0501 56.5002 68.0501ZM56.5002 60.0543C55.6996 60.0543 54.8998 60.3588 54.2904 60.9678C53.072 62.1863 53.072 64.1686 54.2904 65.3874C55.5088 66.6054 57.4907 66.6063 58.7096 65.3874C59.928 64.169 59.928 62.1867 58.7096 60.9678C58.1006 60.3588 57.3004 60.0543 56.5002 60.0543Z" fill="#690589"/>
<path d="M59.3283 8.57809C57.7664 10.14 55.2338 10.14 53.6719 8.57809C52.11 7.01621 52.11 4.48353 53.6719 2.92165C55.2338 1.35978 57.7664 1.35978 59.3283 2.92165C60.8902 4.48353 60.8902 7.01621 59.3283 8.57809Z" fill="#FCC24C"/>
<path d="M56.5004 10.6221C55.2522 10.6221 54.0036 10.1465 53.0533 9.19626C51.1528 7.29576 51.1528 4.20307 53.0533 2.30257C54.9534 0.402072 58.0465 0.402072 59.947 2.30257C61.8479 4.20307 61.8479 7.29576 59.947 9.19626C58.9972 10.1465 57.7485 10.6221 56.5004 10.6221ZM56.5004 2.62632C55.7002 2.62632 54.9 2.93082 54.2906 3.54026C53.0721 4.7587 53.0721 6.74057 54.2906 7.95945C55.509 9.17745 57.4909 9.17832 58.7097 7.95945C59.9277 6.74101 59.9277 4.75914 58.7097 3.54026C58.1007 2.93082 57.3005 2.62632 56.5004 2.62632Z" fill="#690589"/>
<path d="M59.3283 95.0674C57.7664 96.6293 55.2338 96.6293 53.6719 95.0674C52.11 93.5056 52.11 90.9729 53.6719 89.411C55.2338 87.8491 57.7664 87.8491 59.3283 89.411C60.8902 90.9729 60.8902 93.5051 59.3283 95.0674Z" fill="#FCC24C"/>
<path d="M56.5002 97.1119C55.252 97.1119 54.0034 96.6363 53.0531 95.6861C51.1522 93.7851 51.1522 90.6929 53.0531 88.792C54.9532 86.8919 58.0463 86.891 59.9468 88.792C61.8478 90.6929 61.8478 93.7851 59.9468 95.6861C58.997 96.6363 57.7484 97.1119 56.5002 97.1119ZM56.5002 89.1153C55.7 89.1153 54.8998 89.4198 54.2904 90.0292C53.072 91.2476 53.072 93.23 54.2904 94.4488C55.5088 95.6668 57.4907 95.6677 58.7096 94.4488C59.928 93.2304 59.928 91.2481 58.7096 90.0292C58.1006 89.4202 57.3004 89.1153 56.5002 89.1153Z" fill="#690589"/>
<path d="M34.4616 109.078C32.8998 110.64 30.3671 110.64 28.8052 109.078C27.2433 107.517 27.2433 104.984 28.8052 103.422C30.3671 101.86 32.8998 101.86 34.4616 103.422C36.0235 104.984 36.0235 107.517 34.4616 109.078Z" fill="#FCC24C"/>
<path d="M31.6332 111.123C30.3846 111.123 29.1364 110.647 28.1861 109.697C26.2856 107.796 26.2856 104.704 28.1861 102.803C30.0862 100.903 33.1793 100.902 35.0798 102.803C36.9803 104.704 36.9803 107.796 35.0798 109.697C34.1296 110.647 32.8814 111.123 31.6332 111.123ZM31.6332 103.127C30.833 103.127 30.0328 103.432 29.4234 104.041C28.2049 105.259 28.2049 107.241 29.4234 108.46C30.6418 109.679 32.6237 109.679 33.8426 108.46C35.061 107.242 35.061 105.26 33.8426 104.041C33.2331 103.432 32.4329 103.127 31.6332 103.127Z" fill="#690589"/>
<path d="M84.195 109.078C82.6332 110.64 80.1005 110.64 78.5386 109.078C76.9767 107.517 76.9767 104.984 78.5386 103.422C80.1005 101.86 82.6332 101.86 84.195 103.422C85.7569 104.984 85.7569 107.517 84.195 109.078Z" fill="#FCC24C"/>
<path d="M81.3674 111.123C80.1188 111.123 78.8706 110.647 77.9203 109.697C76.0194 107.796 76.0194 104.704 77.9203 102.803C79.8204 100.903 82.9131 100.902 84.814 102.803C86.7149 104.704 86.7149 107.796 84.814 109.697C83.8638 110.647 82.6151 111.123 81.3674 111.123ZM81.3669 103.127C80.5672 103.127 79.767 103.432 79.1576 104.041C77.9396 105.259 77.9396 107.241 79.1576 108.46C80.3764 109.679 82.3583 109.678 83.5768 108.46C84.7948 107.242 84.7948 105.26 83.5768 104.041C82.9673 103.432 82.1671 103.127 81.3669 103.127Z" fill="#690589"/>
<path d="M106.234 95.893C108.442 95.893 110.233 94.1023 110.233 91.8934C110.233 89.6844 108.442 87.8937 106.234 87.8937C104.025 87.8937 102.234 89.6844 102.234 91.8934C102.234 94.1023 104.025 95.893 106.234 95.893Z" fill="#DEA42E"/>
<path d="M106.234 96.7658C104.985 96.7658 103.737 96.2903 102.787 95.34C100.886 93.4395 100.886 90.3468 102.787 88.4464C104.688 86.5454 107.781 86.5459 109.681 88.4464C111.582 90.3468 111.582 93.4395 109.681 95.34C108.73 96.2903 107.482 96.7658 106.234 96.7658ZM106.234 88.7701C105.434 88.7701 104.634 89.0742 104.024 89.6836C102.806 90.902 102.806 92.8839 104.024 94.1028C105.242 95.3208 107.224 95.3217 108.443 94.1028C109.661 92.8843 109.661 90.9025 108.443 89.6836C107.834 89.0746 107.034 88.7701 106.234 88.7701Z" fill="#690589"/>
<path d="M106.234 67.1768C108.442 67.1768 110.233 65.3861 110.233 63.1772C110.233 60.9682 108.442 59.1776 106.234 59.1776C104.025 59.1776 102.234 60.9682 102.234 63.1772C102.234 65.3861 104.025 67.1768 106.234 67.1768Z" fill="#DEA42E"/>
<path d="M106.234 68.0501C104.985 68.0501 103.737 67.5745 102.787 66.6243C100.886 64.7233 100.886 61.6311 102.787 59.7301C104.687 57.8301 107.78 57.8292 109.681 59.7301C111.582 61.6311 111.582 64.7233 109.681 66.6243C108.73 67.5745 107.482 68.0501 106.234 68.0501ZM106.234 60.0543C105.434 60.0543 104.634 60.3588 104.024 60.9678C102.806 62.1863 102.806 64.1686 104.024 65.3874C105.242 66.6054 107.224 66.6059 108.443 65.3874C109.661 64.169 109.661 62.1867 108.443 60.9678C107.834 60.3588 107.034 60.0543 106.234 60.0543Z" fill="#690589"/>
<path d="M6.76623 95.893C8.97516 95.893 10.7659 94.1023 10.7659 91.8934C10.7659 89.6844 8.97516 87.8937 6.76623 87.8937C4.55729 87.8937 2.7666 89.6844 2.7666 91.8934C2.7666 94.1023 4.55729 95.893 6.76623 95.893Z" fill="#FCE06A"/>
<path d="M6.76604 96.7658C5.51786 96.7658 4.26923 96.2903 3.31942 95.34C1.41892 93.4395 1.41892 90.3468 3.31942 88.4463C5.21992 86.5462 8.31304 86.5454 10.2131 88.4463C12.1136 90.3468 12.1136 93.4395 10.2131 95.34C9.26286 96.2903 8.01467 96.7658 6.76604 96.7658ZM6.76604 88.7696C5.96586 88.7696 5.16567 89.0741 4.55667 89.6836C3.33867 90.902 3.33867 92.8839 4.55667 94.1028C5.77467 95.3212 7.75698 95.3203 8.97586 94.1028C10.1943 92.8843 10.1943 90.9024 8.97586 89.6836C8.36642 89.0746 7.56623 88.7696 6.76604 88.7696Z" fill="#690589"/>
<path d="M6.76623 67.1768C8.97516 67.1768 10.7659 65.3861 10.7659 63.1772C10.7659 60.9682 8.97516 59.1776 6.76623 59.1776C4.55729 59.1776 2.7666 60.9682 2.7666 63.1772C2.7666 65.3861 4.55729 67.1768 6.76623 67.1768Z" fill="#FCE06A"/>
<path d="M6.76604 68.0501C5.51786 68.0501 4.26923 67.5745 3.31942 66.6243C1.41892 64.7233 1.41892 61.6311 3.31942 59.7301C5.21992 57.8296 8.31261 57.8296 10.2131 59.7301C12.114 61.6311 12.114 64.7233 10.2131 66.6243C9.26286 67.5745 8.01467 68.0501 6.76604 68.0501ZM6.76648 60.0543C5.96586 60.0543 5.16611 60.3588 4.55667 60.9678C3.33867 62.1863 3.33867 64.1686 4.55667 65.3874C5.77467 66.6059 7.75698 66.6054 8.97586 65.3874C10.1943 64.169 10.1943 62.1867 8.97586 60.9678C8.36686 60.3588 7.56623 60.0543 6.76648 60.0543Z" fill="#690589"/>
<path d="M81.3673 52.822C83.5762 52.822 85.3669 51.0313 85.3669 48.8224C85.3669 46.6135 83.5762 44.8228 81.3673 44.8228C79.1584 44.8228 77.3677 46.6135 77.3677 48.8224C77.3677 51.0313 79.1584 52.822 81.3673 52.822Z" fill="#FCC24C"/>
<path d="M81.3674 53.697C80.065 53.697 78.8413 53.19 77.9203 52.269C76.0194 50.3685 76.0194 47.2758 77.9203 45.3753C78.8408 44.4548 80.065 43.9473 81.3674 43.9473C82.6698 43.9473 83.8935 44.4544 84.814 45.3753C86.7149 47.2758 86.7149 50.3685 84.814 52.269C83.8935 53.19 82.6694 53.697 81.3674 53.697ZM81.3674 45.6978C80.5326 45.6978 79.7482 46.0228 79.1576 46.613C77.9396 47.8315 77.9396 49.8133 79.1576 51.0322C79.7482 51.6224 80.5326 51.9475 81.3674 51.9475C82.2017 51.9475 82.9866 51.6224 83.5768 51.0322C84.7948 49.8138 84.7948 47.8319 83.5768 46.613C82.9866 46.0228 82.2017 45.6978 81.3674 45.6978Z" fill="#690589"/>
<path d="M84.195 22.8148C82.6332 24.3766 80.1005 24.3766 78.5386 22.8148C76.9767 21.2529 76.9767 18.7202 78.5386 17.1583C80.1005 15.5964 82.6332 15.5964 84.195 17.1583C85.7569 18.7202 85.7569 21.2524 84.195 22.8148Z" fill="#FCC24C"/>
<path d="M81.3674 24.861C80.065 24.861 78.8413 24.3539 77.9203 23.433C76.0194 21.5325 76.0194 18.4398 77.9203 16.5393C78.8408 15.6188 80.065 15.1113 81.3674 15.1113C82.6698 15.1113 83.8935 15.6183 84.814 16.5393C86.7149 18.4398 86.7149 21.5325 84.814 23.433C83.8935 24.3539 82.6694 24.861 81.3674 24.861ZM81.3674 16.8617C80.5326 16.8617 79.7482 17.1868 79.1576 17.777C77.9396 18.9954 77.9396 20.9773 79.1576 22.1961C79.7482 22.7863 80.5326 23.1114 81.3674 23.1114C82.2017 23.1114 82.9866 22.7863 83.5768 22.1961C84.7948 20.9777 84.7948 18.9958 83.5768 17.777C82.9866 17.1868 82.2017 16.8617 81.3674 16.8617Z" fill="#690589"/>
<path d="M34.4616 22.8148C32.8998 24.3766 30.3671 24.3766 28.8052 22.8148C27.2433 21.2529 27.2433 18.7202 28.8052 17.1583C30.3671 15.5964 32.8998 15.5964 34.4616 17.1583C36.0235 18.7202 36.0235 21.2524 34.4616 22.8148Z" fill="#FCC24C"/>
<path d="M31.6332 24.8588C30.3846 24.8588 29.1364 24.3832 28.1861 23.433C26.2856 21.5325 26.2856 18.4398 28.1861 16.5393C30.0862 14.6388 33.1793 14.6388 35.0798 16.5393C36.9803 18.4398 36.9803 21.5325 35.0798 23.433C34.1296 24.3832 32.8814 24.8588 31.6332 24.8588ZM31.6332 16.863C30.833 16.863 30.0328 17.1675 29.4234 17.777C28.2049 18.9954 28.2049 20.9773 29.4234 22.1961C30.6418 23.4146 32.6237 23.4146 33.8426 22.1961C35.061 20.9777 35.061 18.9958 33.8426 17.777C33.2331 17.1675 32.4329 16.863 31.6332 16.863Z" fill="#690589"/>
<path d="M31.6329 52.822C33.8419 52.822 35.6326 51.0313 35.6326 48.8224C35.6326 46.6135 33.8419 44.8228 31.6329 44.8228C29.424 44.8228 27.6333 46.6135 27.6333 48.8224C27.6333 51.0313 29.424 52.822 31.6329 52.822Z" fill="#FCC24C"/>
<path d="M31.6332 53.6948C30.3846 53.6948 29.1364 53.2192 28.1861 52.269C26.2856 50.3685 26.2856 47.2758 28.1861 45.3753C30.0862 43.4748 33.1793 43.4748 35.0798 45.3753C36.9803 47.2758 36.9803 50.3685 35.0798 52.269C34.1296 53.2197 32.8814 53.6948 31.6332 53.6948ZM31.6332 45.699C30.833 45.699 30.0328 46.0035 29.4234 46.613C28.2049 47.8314 28.2049 49.8133 29.4234 51.0322C30.6418 52.2506 32.6237 52.2506 33.8426 51.0322C35.061 49.8137 35.061 47.8319 33.8426 46.613C33.2331 46.0035 32.4329 45.699 31.6332 45.699Z" fill="#690589"/>
</svg>
