<svg width="113" height="112" viewBox="0 0 113 112" fill="none" xmlns="http://www.w3.org/2000/svg">
<path d="M56.5 110.25C86.4614 110.25 110.75 85.9614 110.75 56C110.75 26.0386 86.4614 1.75 56.5 1.75C26.5386 1.75 2.25 26.0386 2.25 56C2.25 85.9614 26.5386 110.25 56.5 110.25Z" fill="#526FAA"/>
<path d="M56.5 1.75C55.8407 1.75 55.1849 1.76619 54.5312 1.78938C83.5804 2.82625 106.812 26.698 106.812 56C106.812 85.302 83.5804 109.174 54.5312 110.211C55.1849 110.234 55.8407 110.25 56.5 110.25C86.4613 110.25 110.75 85.9613 110.75 56C110.75 26.0387 86.4613 1.75 56.5 1.75Z" fill="#34518C"/>
<path d="M56.5 110.25C57.1593 110.25 57.8151 110.234 58.4688 110.211C29.4196 109.174 6.1875 85.302 6.1875 56C6.1875 26.698 29.4196 2.82625 58.4688 1.78938C57.8151 1.76619 57.1593 1.75 56.5 1.75C26.5387 1.75 2.25 26.0387 2.25 56C2.25 85.9613 26.5387 110.25 56.5 110.25Z" fill="#708DC8"/>
<path d="M56.5001 103.418C82.6881 103.418 103.918 82.188 103.918 56C103.918 29.812 82.6881 8.58246 56.5001 8.58246C30.3121 8.58246 9.08252 29.812 9.08252 56C9.08252 82.188 30.3121 103.418 56.5001 103.418Z" fill="#F4EFED"/>
<path d="M74.1074 32.3875C75.8314 30.6635 75.8314 27.8684 74.1074 26.1444C72.3834 24.4203 69.5883 24.4203 67.8643 26.1443C66.1403 27.8684 66.1403 30.6635 67.8643 32.3875C69.5883 34.1115 72.3834 34.1115 74.1074 32.3875Z" fill="#FCC24C"/>
<path d="M83.2056 47.5953C84.9296 45.8713 84.9296 43.0762 83.2056 41.3522C81.4816 39.6282 78.6864 39.6282 76.9624 41.3522C75.2384 43.0762 75.2384 45.8713 76.9624 47.5953C78.6864 49.3193 81.4816 49.3193 83.2056 47.5953Z" fill="#FCC24C"/>
<path d="M56.5001 104.293C29.8712 104.293 8.20752 82.6284 8.20752 56C8.20752 29.3716 29.8712 7.70746 56.5001 7.70746C83.129 7.70746 104.793 29.3711 104.793 56C104.793 82.6289 83.129 104.293 56.5001 104.293ZM56.5001 9.45746C30.8363 9.45746 9.95752 30.3363 9.95752 56C9.95752 81.6638 30.8363 102.543 56.5001 102.543C82.1638 102.543 103.043 81.6638 103.043 56C103.043 30.3363 82.1638 9.45746 56.5001 9.45746Z" fill="#690589"/>
<path d="M56.5 111.125C26.1038 111.125 1.375 86.3962 1.375 56C1.375 25.6038 26.1038 0.875 56.5 0.875C86.8962 0.875 111.625 25.6038 111.625 56C111.625 86.3962 86.8962 111.125 56.5 111.125ZM56.5 2.625C27.0689 2.625 3.125 26.5689 3.125 56C3.125 85.4311 27.0689 109.375 56.5 109.375C85.9311 109.375 109.875 85.4311 109.875 56C109.875 26.5689 85.9311 2.625 56.5 2.625Z" fill="#690589"/>
<path d="M6.3118 48.6946C6.26542 48.6946 6.21861 48.6907 6.17136 48.6833C5.69405 48.6063 5.36986 48.157 5.44686 47.6801C5.73517 45.8942 6.1053 44.1026 6.54805 42.3548C6.66661 41.8863 7.14349 41.6032 7.61117 41.7213C8.07974 41.8399 8.36324 42.3159 8.24467 42.7845C7.81461 44.4828 7.45455 46.2236 7.17499 47.9592C7.10542 48.3888 6.73355 48.6946 6.3118 48.6946Z" fill="#690589"/>
<path d="M70.9963 34.5516C68.0795 34.5516 65.7061 32.1786 65.7061 29.2613C65.7061 26.3445 68.0791 23.9715 70.9963 23.9715C73.9131 23.9715 76.2861 26.3445 76.2861 29.2613C76.2866 32.1781 73.9131 34.5516 70.9963 34.5516ZM70.9963 25.7215C69.0442 25.7215 67.4561 27.3096 67.4561 29.2613C67.4561 31.2134 69.0442 32.8016 70.9963 32.8016C72.948 32.8016 74.5361 31.2134 74.5361 29.2613C74.5366 27.3092 72.9484 25.7215 70.9963 25.7215Z" fill="#690589"/>
<path d="M80.0974 49.7599C77.1801 49.7599 74.8071 47.3869 74.8071 44.4701C74.8071 41.5529 77.1801 39.1799 80.0974 39.1799C83.0142 39.1799 85.3872 41.5529 85.3872 44.4701C85.3872 47.3869 83.0142 49.7599 80.0974 49.7599ZM80.0974 40.9299C78.1453 40.9299 76.5571 42.518 76.5571 44.4701C76.5571 46.4218 78.1453 48.0099 80.0974 48.0099C82.0491 48.0099 83.6372 46.4218 83.6372 44.4701C83.6372 42.518 82.0491 40.9299 80.0974 40.9299Z" fill="#690589"/>
<path d="M48.4118 50.1722C52.3755 46.2085 52.3755 39.782 48.4118 35.8183C44.4481 31.8545 38.0216 31.8545 34.0578 35.8183C30.0941 39.782 30.0941 46.2085 34.0578 50.1722C38.0216 54.136 44.4481 54.136 48.4118 50.1722Z" fill="#8852A8"/>
<path d="M41.2441 32.8444C40.7992 32.8444 40.3617 32.8764 39.9316 32.9319C44.9174 33.5759 48.7705 37.8345 48.7705 42.9962C48.7705 48.1574 44.9174 52.416 39.9316 53.0604C40.3617 53.116 40.7992 53.1475 41.2441 53.1475C46.8507 53.1475 51.3955 48.6027 51.3955 42.9962C51.3955 37.3892 46.8503 32.8444 41.2441 32.8444Z" fill="#6A348A"/>
<path d="M41.2441 53.1471C41.689 53.1471 42.1265 53.1151 42.5566 53.0596C37.5708 52.4156 33.7178 48.1569 33.7178 42.9953C33.7178 37.8341 37.5708 33.5755 42.5566 32.9311C42.1265 32.8755 41.689 32.8436 41.2441 32.8436C35.6375 32.8436 31.0928 37.3883 31.0928 42.9949C31.0923 48.6023 35.6375 53.1471 41.2441 53.1471Z" fill="#A670C6"/>
<path d="M41.244 54.022C35.1641 54.022 30.2173 49.0757 30.2173 42.9957C30.2173 36.9158 35.1637 31.9694 41.244 31.9694C47.324 31.9694 52.2703 36.9158 52.2703 42.9957C52.2703 49.0757 47.324 54.022 41.244 54.022ZM41.244 33.7194C36.1288 33.7194 31.9673 37.8809 31.9673 42.9957C31.9673 48.1105 36.1288 52.272 41.244 52.272C46.3588 52.272 50.5203 48.1105 50.5203 42.9957C50.5203 37.8809 46.3588 33.7194 41.244 33.7194Z" fill="#690589"/>
<path d="M41.2441 33.7195C40.7611 33.7195 40.3691 33.3275 40.3691 32.8445V29.9915C40.3691 29.5085 40.7611 29.1165 41.2441 29.1165C41.7271 29.1165 42.1191 29.5085 42.1191 29.9915V32.8445C42.1191 33.3275 41.7271 33.7195 41.2441 33.7195Z" fill="#690589"/>
<path d="M41.2441 56.875C40.7611 56.875 40.3691 56.4834 40.3691 56V53.147C40.3691 52.664 40.7611 52.272 41.2441 52.272C41.7271 52.272 42.1191 52.664 42.1191 53.147V56C42.1191 56.4834 41.7271 56.875 41.2441 56.875Z" fill="#690589"/>
<path d="M54.248 43.8707H51.395C50.9116 43.8707 50.52 43.4787 50.52 42.9957C50.52 42.5127 50.9116 42.1207 51.395 42.1207H54.248C54.731 42.1207 55.123 42.5127 55.123 42.9957C55.123 43.4787 54.731 43.8707 54.248 43.8707Z" fill="#690589"/>
<path d="M31.0922 43.8707H28.2393C27.7563 43.8707 27.3643 43.4787 27.3643 42.9957C27.3643 42.5127 27.7563 42.1207 28.2393 42.1207H31.0922C31.5752 42.1207 31.9672 42.5127 31.9672 42.9957C31.9672 43.4787 31.5756 43.8707 31.0922 43.8707Z" fill="#690589"/>
<path d="M34.0655 36.6927C33.8415 36.6927 33.618 36.6074 33.4469 36.4364L31.4296 34.4191C31.0879 34.0774 31.0879 33.5235 31.4296 33.1818C31.7709 32.8401 32.3252 32.8401 32.6669 33.1818L34.6842 35.1991C35.0259 35.5408 35.0259 36.0947 34.6842 36.4364C34.5135 36.607 34.2891 36.6927 34.0655 36.6927Z" fill="#690589"/>
<path d="M50.4396 53.0661C50.2156 53.0661 49.9916 52.9808 49.8209 52.8097L47.8036 50.7924C47.4619 50.4507 47.4619 49.8968 47.8036 49.5552C48.1449 49.2135 48.6992 49.2135 49.0409 49.5552L51.0582 51.5725C51.3999 51.9142 51.3999 52.468 51.0582 52.8097C50.8876 52.9808 50.6636 53.0661 50.4396 53.0661Z" fill="#690589"/>
<path d="M48.4223 36.6927C48.1983 36.6927 47.9743 36.6074 47.8036 36.4364C47.4619 36.0947 47.4619 35.5408 47.8036 35.1991L49.8209 33.1818C50.1626 32.8401 50.7169 32.8401 51.0582 33.1818C51.3999 33.5235 51.3999 34.0774 51.0582 34.4191L49.0409 36.4364C48.8698 36.607 48.6458 36.6927 48.4223 36.6927Z" fill="#690589"/>
<path d="M32.0477 53.0661C31.8237 53.0661 31.5997 52.9808 31.4291 52.8097C31.0874 52.468 31.0874 51.9142 31.4291 51.5725L33.4464 49.5552C33.7881 49.2135 34.3424 49.2135 34.6837 49.5552C35.0254 49.8968 35.0254 50.4507 34.6837 50.7924L32.6664 52.8097C32.4957 52.9808 32.2717 53.0661 32.0477 53.0661Z" fill="#690589"/>
<path d="M80.2236 77.4871C83.2995 74.4111 83.2995 69.4241 80.2236 66.3481C77.1476 63.2722 72.1606 63.2722 69.0846 66.3481C66.0087 69.4241 66.0087 74.4111 69.0846 77.4871C72.1606 80.563 77.1476 80.563 80.2236 77.4871Z" fill="#526FAA"/>
<path d="M74.6694 64.0399C74.2971 64.0399 73.934 64.0745 73.5757 64.1244C77.4073 64.6581 80.3596 67.9385 80.3596 71.9171C80.3596 75.8957 77.4073 79.1761 73.5757 79.7098C73.934 79.7597 74.2971 79.7947 74.6694 79.7947C79.0199 79.7947 82.5471 76.268 82.5471 71.9171C82.5466 67.567 79.0199 64.0399 74.6694 64.0399Z" fill="#34518C"/>
<path d="M74.6697 79.7947C75.042 79.7947 75.4051 79.7602 75.7634 79.7103C71.9318 79.1765 68.98 75.8962 68.98 71.9175C68.98 67.9389 71.9322 64.6585 75.7634 64.1248C75.4051 64.0749 75.042 64.0399 74.6697 64.0399C70.3192 64.0399 66.7925 67.5666 66.7925 71.9175C66.792 76.268 70.3192 79.7947 74.6697 79.7947Z" fill="#708DC8"/>
<path d="M74.6697 80.6697C69.8436 80.6697 65.9175 76.7432 65.9175 71.9175C65.9175 67.0915 69.844 63.1649 74.6697 63.1649C79.4957 63.1649 83.4219 67.0915 83.4219 71.9175C83.4219 76.7436 79.4953 80.6697 74.6697 80.6697ZM74.6697 64.9149C70.8087 64.9149 67.6675 68.0562 67.6675 71.9175C67.6675 75.7785 70.8087 78.9197 74.6697 78.9197C78.5306 78.9197 81.6719 75.7785 81.6719 71.9175C81.6719 68.0562 78.5306 64.9149 74.6697 64.9149Z" fill="#690589"/>
<path d="M74.6694 64.9149C74.1864 64.9149 73.7944 64.5229 73.7944 64.0399V61.8262C73.7944 61.3432 74.1864 60.9512 74.6694 60.9512C75.1529 60.9512 75.5444 61.3432 75.5444 61.8262V64.0399C75.5444 64.5229 75.1524 64.9149 74.6694 64.9149Z" fill="#690589"/>
<path d="M74.6694 82.8835C74.1864 82.8835 73.7944 82.4919 73.7944 82.0085V79.7947C73.7944 79.3117 74.1864 78.9197 74.6694 78.9197C75.1529 78.9197 75.5444 79.3117 75.5444 79.7947V82.0085C75.5444 82.4919 75.1524 82.8835 74.6694 82.8835Z" fill="#690589"/>
<path d="M84.7611 72.7925H82.5469C82.0639 72.7925 81.6719 72.401 81.6719 71.9175C81.6719 71.4345 82.0639 71.0425 82.5469 71.0425H84.7611C85.2445 71.0425 85.6361 71.4345 85.6361 71.9175C85.6361 72.4005 85.2441 72.7925 84.7611 72.7925Z" fill="#690589"/>
<path d="M66.7914 72.7925H64.5776C64.0946 72.7925 63.7026 72.401 63.7026 71.9175C63.7026 71.4345 64.0946 71.0425 64.5776 71.0425H66.7914C67.2748 71.0425 67.6664 71.4345 67.6664 71.9175C67.6664 72.4005 67.2748 72.7925 66.7914 72.7925Z" fill="#690589"/>
<path d="M69.099 67.2223C68.875 67.2223 68.651 67.137 68.4803 66.9659L66.915 65.4006C66.5733 65.0589 66.5733 64.505 66.915 64.1633C67.2562 63.8216 67.811 63.8216 68.1522 64.1633L69.7176 65.7287C70.0593 66.0704 70.0593 66.6242 69.7176 66.9659C69.547 67.137 69.323 67.2223 69.099 67.2223Z" fill="#690589"/>
<path d="M81.805 79.9277C81.581 79.9277 81.357 79.8424 81.1864 79.6713L79.621 78.1059C79.2793 77.7643 79.2793 77.2104 79.621 76.8687C79.9623 76.527 80.517 76.527 80.8583 76.8687L82.4236 78.4341C82.7653 78.7758 82.7653 79.3296 82.4236 79.6713C82.253 79.8424 82.029 79.9277 81.805 79.9277Z" fill="#690589"/>
<path d="M80.2396 67.2223C80.0156 67.2223 79.7916 67.137 79.621 66.9659C79.2793 66.6242 79.2793 66.0704 79.621 65.7287L81.1864 64.1633C81.5276 63.8216 82.0824 63.8216 82.4236 64.1633C82.7653 64.505 82.7653 65.0589 82.4236 65.4006L80.8583 66.9659C80.6876 67.137 80.4632 67.2223 80.2396 67.2223Z" fill="#690589"/>
<path d="M67.5336 79.9277C67.3096 79.9277 67.0856 79.8424 66.915 79.6713C66.5733 79.3296 66.5733 78.7758 66.915 78.4341L68.4803 76.8687C68.8216 76.527 69.3763 76.527 69.7176 76.8687C70.0593 77.2104 70.0593 77.7643 69.7176 78.1059L68.1522 79.6713C67.9816 79.8424 67.7571 79.9277 67.5336 79.9277Z" fill="#690589"/>
<path d="M47.3583 85.4061C45.0282 87.7362 41.2504 87.7362 38.9202 85.4061L30.2359 76.7213C27.9057 74.3912 27.9057 70.6134 30.2359 68.2832C32.566 65.9531 36.3438 65.9531 38.6739 68.2832L47.3583 76.9681C49.6884 79.2982 49.6884 83.076 47.3583 85.4061Z" fill="#FCC24C"/>
<path d="M41.5452 84.9686L32.8604 76.2838C30.5303 73.9537 30.5303 70.1759 32.8604 67.8457C33.4331 67.2735 34.0933 66.843 34.7976 66.5521C33.1583 66.458 31.4879 67.0307 30.2354 68.2832C27.9053 70.6134 27.9053 74.3912 30.2354 76.7213L38.9202 85.4061C40.6781 87.164 43.2589 87.5941 45.421 86.6998C44.0105 86.6189 42.6228 86.0462 41.5452 84.9686Z" fill="#FCE06A"/>
<path d="M43.1387 88.0285C41.3113 88.0285 39.5932 87.3167 38.3008 86.0243L29.616 77.3395C28.3236 76.0475 27.6118 74.3295 27.6118 72.5016C27.6118 70.6742 28.3232 68.9561 29.616 67.6637C32.2834 64.9963 36.6239 64.9963 39.2913 67.6637L47.9761 76.3485C49.2685 77.6409 49.9803 79.359 49.9803 81.1864C49.9803 83.0138 49.2685 84.7323 47.9761 86.0243C46.6842 87.3171 44.9661 88.0285 43.1387 88.0285ZM34.4543 67.413C33.1506 67.413 31.8464 67.9092 30.8541 68.9019C29.8925 69.8635 29.3627 71.1423 29.3627 72.502C29.3627 73.8622 29.8921 75.1406 30.8541 76.1027L39.5385 84.7875C40.5001 85.7491 41.7789 86.2789 43.1387 86.2789C44.4984 86.2789 45.7773 85.7495 46.7389 84.7875C47.7005 83.8258 48.2303 82.547 48.2303 81.1868C48.2303 79.8271 47.7009 78.5483 46.7389 77.5867L38.0545 68.9019C37.0618 67.9096 35.7581 67.413 34.4543 67.413Z" fill="#690589"/>
</svg>
