<svg width="512" height="512" viewBox="0 0 512 512" fill="none" xmlns="http://www.w3.org/2000/svg">
<path d="M454 504H58C30.386 504 8 481.614 8 454V58C8 30.386 30.386 8 58 8H454C481.614 8 504 30.386 504 58V454C504 481.614 481.614 504 454 504Z" fill="#FCC24C"/>
<path d="M454 8H434C461.614 8 484 30.386 484 58V454C484 481.614 461.614 504 434 504H454C481.614 504 504 481.614 504 454V58C504 30.386 481.614 8 454 8Z" fill="#DEA42E"/>
<path d="M58 504H78C50.386 504 28 481.614 28 454V58C28 30.386 50.386 8 78 8H58C30.386 8 8 30.386 8 58V454C8 481.614 30.386 504 58 504Z" fill="#FCE06A"/>
<path d="M228.53 137.906C250.593 137.906 268.478 120.021 268.478 97.958C268.478 75.8953 250.593 58.01 228.53 58.01C206.467 58.01 188.582 75.8953 188.582 97.958C188.582 120.021 206.467 137.906 228.53 137.906Z" fill="#F4EFED"/>
<path d="M301.122 333.696C294.646 385.562 250.312 425.836 196.72 425.836C138.688 425.836 91.476 378.624 91.476 320.59C91.476 263.404 137.33 216.756 194.198 215.406V178.784C117.136 180.14 54.854 243.21 54.854 320.59C54.854 398.816 118.494 462.456 196.72 462.456C270.526 462.456 331.322 405.796 337.96 333.694H301.122V333.696Z" fill="#FF4397"/>
<path d="M452.188 385.236L381.84 296.58C377.498 291.108 370.894 287.918 363.91 287.918H262.862V255.898H337.32C349.96 255.898 360.208 245.65 360.208 233.01C360.208 220.37 349.96 210.122 337.32 210.122H262.862V172.238C262.862 153.276 247.49 137.906 228.53 137.906C209.568 137.906 194.196 153.278 194.196 172.238V299.362C194.196 318.324 209.568 333.694 228.53 333.694H352.852L416.326 413.69C420.846 419.386 427.526 422.352 434.272 422.352C439.256 422.352 444.274 420.732 448.484 417.394C458.386 409.536 460.044 395.14 452.188 385.236Z" fill="#F4EFED"/>
<path d="M454 508H58C28.224 508 4 483.776 4 454V58C4 28.224 28.224 4 58 4H454C483.776 4 508 28.224 508 58V454C508 483.776 483.776 508 454 508ZM58 12C32.634 12 12 32.634 12 58V454C12 479.366 32.634 500 58 500H454C479.366 500 500 479.366 500 454V58C500 32.634 479.366 12 454 12H58Z" fill="#690589"/>
<path d="M24 124.804C21.792 124.804 20 123.012 20 120.804V96.804C20 94.596 21.792 92.804 24 92.804C26.208 92.804 28 94.596 28 96.804V120.804C28 123.014 26.208 124.804 24 124.804Z" fill="#690589"/>
<path d="M366.476 159.37L302.214 98.452L321.338 78.278L367.068 121.628L438.664 58.01L457.146 78.774L366.476 159.37Z" fill="#7BAC51"/>
<path d="M366.476 163.372C365.484 163.372 364.494 163.004 363.724 162.274L299.46 101.354C298.69 100.626 298.242 99.6201 298.214 98.5601C298.184 97.5001 298.58 96.4701 299.31 95.7001L318.434 75.5261C319.952 73.9201 322.486 73.8561 324.088 75.3761L367.156 116.2L436.008 55.0201C437.66 53.5501 440.184 53.7041 441.652 55.3501L460.134 76.1141C460.84 76.9061 461.2 77.9481 461.14 79.0081C461.078 80.0661 460.598 81.0581 459.804 81.7641L369.134 162.362C368.376 163.036 367.426 163.372 366.476 163.372ZM307.868 98.3001L366.566 153.94L451.5 78.4421L438.336 63.6521L369.724 124.62C368.176 125.998 365.822 125.962 364.316 124.532L321.488 83.9321L307.868 98.3001Z" fill="#690589"/>
<path d="M228.53 141.906C204.298 141.906 184.582 122.192 184.582 97.9561C184.582 73.7241 204.296 54.0081 228.53 54.0081C252.764 54.0081 272.48 73.7221 272.48 97.9561C272.478 122.192 252.764 141.906 228.53 141.906ZM228.53 62.0101C208.708 62.0101 192.582 78.1361 192.582 97.9581C192.582 117.78 208.706 133.908 228.53 133.908C248.352 133.908 264.48 117.78 264.48 97.9581C264.48 78.1361 248.352 62.0101 228.53 62.0101Z" fill="#690589"/>
<path d="M196.72 466.458C116.288 466.458 50.852 401.022 50.852 320.59C50.852 282.144 65.74 245.844 92.774 218.374C119.774 190.94 155.768 175.46 194.126 174.786C195.152 174.784 196.234 175.18 197 175.932C197.766 176.684 198.198 177.714 198.198 178.786V215.408C198.198 217.58 196.464 219.356 194.294 219.406C139.806 220.7 95.476 266.092 95.476 320.592C95.476 376.42 140.894 421.838 196.722 421.838C247.67 421.838 290.846 383.732 297.156 333.202C297.406 331.2 299.108 329.698 301.124 329.698H337.962C339.086 329.698 340.16 330.17 340.916 331.002C341.674 331.832 342.046 332.944 341.944 334.064C338.63 370.078 322.04 403.46 295.234 428.062C268.254 452.82 233.27 466.458 196.72 466.458ZM190.198 182.916C117.406 186.358 58.854 247.28 58.854 320.59C58.854 396.61 120.702 458.458 196.722 458.458C231.262 458.458 264.326 445.57 289.826 422.168C314.078 399.908 329.482 370.052 333.508 337.696H304.6C296.274 390.47 250.512 429.836 196.724 429.836C136.486 429.836 87.478 380.828 87.478 320.59C87.478 291.914 98.55 264.806 118.656 244.262C137.808 224.69 163.086 213.17 190.2 211.568V182.916H190.198Z" fill="#690589"/>
<path d="M434.272 426.354C426.008 426.354 418.324 422.644 413.194 416.178L350.92 337.696H228.53C207.394 337.696 190.198 320.498 190.198 299.362V172.238C190.198 151.102 207.394 133.906 228.53 133.906C249.666 133.906 266.864 151.102 266.864 172.238V206.12H337.322C352.148 206.12 364.21 218.182 364.21 233.008C364.21 247.834 352.148 259.896 337.322 259.896H266.864V283.916H363.91C372.166 283.916 379.844 287.626 384.972 294.092L455.32 382.748C464.534 394.36 462.584 411.306 450.97 420.526C446.232 424.286 440.302 426.354 434.272 426.354ZM228.53 141.906C211.806 141.906 198.198 155.514 198.198 172.238V299.362C198.198 316.088 211.806 329.696 228.53 329.696H352.852C354.072 329.696 355.228 330.252 355.984 331.21L419.458 411.206C423.064 415.748 428.462 418.354 434.27 418.354C438.566 418.354 442.622 416.938 445.996 414.26C454.154 407.786 455.526 395.882 449.052 387.722L378.704 299.066C375.098 294.524 369.706 291.918 363.908 291.918H262.862C260.654 291.918 258.862 290.128 258.862 287.918V255.898C258.862 253.69 260.654 251.898 262.862 251.898H337.32C347.736 251.898 356.208 243.426 356.208 233.01C356.208 222.594 347.736 214.122 337.32 214.122H262.862C260.654 214.122 258.862 212.33 258.862 210.122V172.238C258.864 155.514 245.256 141.906 228.53 141.906Z" fill="#690589"/>
</svg>
