<svg width="512" height="512" viewBox="0 0 512 512" fill="none" xmlns="http://www.w3.org/2000/svg">
<path d="M366.04 86.18L350.286 70.426C344.898 65.038 336.16 65.038 330.772 70.426L302.852 98.346L338.122 133.616L366.042 105.696C371.428 100.306 371.428 91.57 366.04 86.18Z" fill="#FF4397"/>
<path d="M366.012 86.152L357.188 77.33C362.592 82.734 362.592 91.496 357.188 96.9L329.294 124.794L338.116 133.616L366.01 105.724C371.416 100.318 371.416 91.556 366.012 86.152Z" fill="#E12579"/>
<path d="M350.312 70.454L359.134 79.278C353.73 73.874 344.968 73.874 339.564 79.278L311.67 107.17L302.846 98.348L330.74 70.454C336.146 65.05 344.908 65.05 350.312 70.454Z" fill="#FF61B5"/>
<path d="M302.807 98.37L312.044 89.1323L347.308 124.396L338.071 133.634L302.807 98.37Z" fill="#FCC24C"/>
<path d="M154.828 246.368L190.098 281.638L141.918 294.548L154.828 246.368Z" fill="#FCC24C"/>
<path d="M149.242 267.218L169.248 287.224L141.918 294.548L149.242 267.218Z" fill="#690589"/>
<path d="M302.836 98.3126L338.1 133.576L190.101 281.575L154.837 246.312L302.836 98.3126Z" fill="#F4EFED"/>
<path d="M181.236 272.81L329.235 124.811L338.057 133.633L190.058 281.632L181.236 272.81Z" fill="#D6D1CF"/>
<path d="M154.798 246.364L302.797 98.3646L311.619 107.187L163.62 255.186L154.798 246.364Z" fill="white"/>
<path d="M329.247 124.812L338.485 115.575L347.307 124.397L338.069 133.634L329.247 124.812Z" fill="#DEA42E"/>
<path d="M302.806 98.3662L312.044 89.1285L320.866 97.9505L311.628 107.188L302.806 98.3662Z" fill="#FCE06A"/>
<path d="M190.098 285.638C189.074 285.638 188.05 285.248 187.27 284.466L152 249.196C150.438 247.634 150.438 245.102 152 243.54L300.022 95.5181C301.582 93.9561 304.118 93.9561 305.678 95.5181L340.948 130.788C342.51 132.35 342.51 134.882 340.948 136.444L192.926 284.466C192.146 285.248 191.122 285.638 190.098 285.638ZM160.486 246.368L190.098 275.98L332.462 133.616L302.85 104.004L160.486 246.368Z" fill="#690589"/>
<path d="M338.12 137.616C337.06 137.616 336.042 137.194 335.292 136.444L300.022 101.174C298.46 99.6121 298.46 97.0801 300.022 95.5181L309.26 86.2781C310.76 84.7781 313.416 84.7781 314.916 86.2781L350.186 121.548C351.748 123.11 351.748 125.642 350.186 127.204L340.948 136.444C340.198 137.194 339.18 137.616 338.12 137.616ZM308.506 98.3461L338.12 127.958L341.702 124.376L312.088 94.7641L308.506 98.3461Z" fill="#690589"/>
<path d="M338.12 137.616C337.096 137.616 336.072 137.226 335.292 136.444L300.022 101.174C298.46 99.6121 298.46 97.08 300.022 95.518L327.942 67.598C334.882 60.658 346.174 60.66 353.112 67.598L368.866 83.352C375.806 90.292 375.806 101.584 368.866 108.522L340.946 136.442C340.166 137.226 339.142 137.616 338.12 137.616ZM308.506 98.3461L338.118 127.958L363.21 102.866C367.03 99.044 367.03 92.8281 363.21 89.0081L347.456 73.254C343.638 69.436 337.42 69.434 333.598 73.254L308.506 98.3461Z" fill="#690589"/>
<path d="M141.918 298.546C140.872 298.546 139.85 298.134 139.09 297.374C138.08 296.364 137.684 294.89 138.054 293.51L150.964 245.332C151.334 243.952 152.412 242.874 153.792 242.504C155.17 242.134 156.644 242.528 157.656 243.54L192.926 278.81C193.936 279.82 194.332 281.294 193.962 282.674C193.592 284.054 192.514 285.132 191.134 285.502L142.954 298.412C142.612 298.502 142.262 298.546 141.918 298.546ZM156.898 254.096L147.574 288.89L182.368 279.568L156.898 254.096Z" fill="#690589"/>
<path d="M452.932 66.384L154.088 365.23L205.156 416.298L504 117.45L452.932 66.384ZM456.51 113.874C453.068 110.432 453.068 104.85 456.51 101.408C459.952 97.966 465.534 97.966 468.976 101.408C472.418 104.85 472.418 110.432 468.976 113.874C465.532 117.316 459.952 117.316 456.51 113.874Z" fill="#FCC24C"/>
<path d="M195.531 406.702L494.332 107.902L503.913 117.483L205.112 416.284L195.531 406.702Z" fill="#DEA42E"/>
<path d="M154.055 365.217L452.856 66.4162L462.437 75.9975L163.637 374.798L154.055 365.217Z" fill="#FCE06A"/>
<path d="M205.154 420.296C204.094 420.296 203.076 419.874 202.326 419.124L151.26 368.058C149.698 366.496 149.698 363.964 151.26 362.402L450.104 63.556C451.604 62.056 454.26 62.056 455.76 63.556L506.828 114.624C508.39 116.186 508.39 118.718 506.828 120.28L207.982 419.124C207.232 419.876 206.214 420.296 205.154 420.296ZM159.746 365.23L205.156 410.64L498.342 117.452L452.932 72.042L159.746 365.23ZM462.742 120.456C459.32 120.456 456.102 119.122 453.682 116.704C451.262 114.284 449.93 111.066 449.93 107.644C449.93 104.222 451.264 101.004 453.684 98.584C456.102 96.164 459.32 94.83 462.744 94.83C466.166 94.83 469.384 96.164 471.804 98.584C474.224 101.004 475.558 104.222 475.558 107.644C475.558 111.068 474.224 114.286 471.804 116.706C469.382 119.124 466.166 120.456 462.742 120.456ZM462.742 102.828C461.456 102.828 460.246 103.328 459.338 104.238C458.428 105.148 457.926 106.358 457.926 107.642C457.926 108.928 458.426 110.138 459.336 111.046C461.152 112.864 464.324 112.866 466.144 111.046C467.054 110.136 467.554 108.928 467.554 107.642C467.554 106.356 467.054 105.148 466.144 104.238C465.236 103.328 464.028 102.828 462.742 102.828Z" fill="#690589"/>
<path d="M205.154 420.296C204.094 420.296 203.076 419.874 202.326 419.124L190.646 407.444C189.084 405.882 189.084 403.35 190.646 401.788L489.492 102.942C490.992 101.442 493.648 101.442 495.148 102.942L506.828 114.622C508.39 116.184 508.39 118.716 506.828 120.278L207.982 419.124C207.232 419.876 206.214 420.296 205.154 420.296ZM199.13 404.616L205.154 410.64L498.342 117.452L492.318 111.428L199.13 404.616Z" fill="#690589"/>
<path d="M455.562 445.616H56.438C29.686 445.616 8 423.93 8 397.178V231.588C8 204.836 29.686 183.15 56.438 183.15H455.564C482.316 183.15 504.002 204.836 504.002 231.588V397.178C504 423.93 482.314 445.616 455.562 445.616Z" fill="#F4EFED"/>
<path d="M455.562 183.152H436.186C462.938 183.152 484.624 204.838 484.624 231.59V397.18C484.624 423.932 462.938 445.618 436.186 445.618H455.562C482.314 445.618 504 423.932 504 397.18V231.59C504 204.838 482.314 183.152 455.562 183.152Z" fill="#D6D1CF"/>
<path d="M56.438 445.616H75.814C49.062 445.616 27.376 423.93 27.376 397.178V231.588C27.376 204.836 49.062 183.15 75.814 183.15H56.438C29.686 183.152 8 204.838 8 231.59V397.18C8 423.93 29.686 445.616 56.438 445.616Z" fill="white"/>
<path d="M455.562 449.616H56.438C27.524 449.616 4 426.092 4 397.178V231.59C4 202.674 27.524 179.152 56.438 179.152H455.562C484.476 179.152 508 202.676 508 231.59V397.178C508 426.092 484.476 449.616 455.562 449.616ZM56.438 187.152C31.934 187.152 12 207.086 12 231.59V397.178C12 421.68 31.934 441.616 56.438 441.616H455.562C480.064 441.616 500 421.682 500 397.178V231.59C500 207.086 480.066 187.152 455.562 187.152H56.438Z" fill="#690589"/>
<path d="M463.342 259.6H48.658C46.45 259.6 44.658 257.808 44.658 255.6C44.658 253.392 46.45 251.6 48.658 251.6H463.344C465.552 251.6 467.344 253.392 467.344 255.6C467.344 257.808 465.552 259.6 463.342 259.6Z" fill="#690589"/>
<path d="M27.376 304.338C25.168 304.338 23.376 302.546 23.376 300.338V276.338C23.376 274.13 25.168 272.338 27.376 272.338C29.584 272.338 31.376 274.13 31.376 276.338V300.338C31.376 302.548 29.584 304.338 27.376 304.338Z" fill="#690589"/>
<path d="M420.538 255.6H443.966V299.252H420.538V255.6Z" fill="#FCC24C"/>
<path d="M443.968 303.252H420.54C418.332 303.252 416.54 301.46 416.54 299.252V255.6C416.54 253.392 418.332 251.6 420.54 251.6H443.968C446.176 251.6 447.968 253.392 447.968 255.6V299.252C447.968 301.46 446.176 303.252 443.968 303.252ZM424.54 295.252H439.968V259.6H424.54V295.252Z" fill="#690589"/>
<path d="M425.148 341.436H86.852C76.152 341.436 67.476 350.11 67.476 360.812V445.616H444.524V360.812C444.524 350.112 435.85 341.436 425.148 341.436Z" fill="#526FAA"/>
<path d="M425.148 341.436H405.772C416.472 341.436 425.148 350.11 425.148 360.812V445.616H444.524V360.812C444.524 350.112 435.85 341.436 425.148 341.436Z" fill="#34518C"/>
<path d="M86.852 341.436H106.228C95.528 341.436 86.852 350.11 86.852 360.812V445.616H67.476V360.812C67.476 350.112 76.15 341.436 86.852 341.436Z" fill="#708DC8"/>
<path d="M444.524 449.616H67.476C65.268 449.616 63.476 447.824 63.476 445.616V360.812C63.476 347.924 73.962 337.436 86.852 337.436H425.148C438.036 337.436 448.524 347.922 448.524 360.812V445.616C448.524 447.826 446.732 449.616 444.524 449.616ZM71.476 441.616H440.522V360.812C440.522 352.334 433.624 345.436 425.146 345.436H86.852C78.374 345.436 71.476 352.334 71.476 360.812V441.616Z" fill="#690589"/>
</svg>
