<?xml version="1.0"?><svg xmlns="http://www.w3.org/2000/svg" width="1000" height="1000" viewBox="0 0 1000 1000"><path d="m729.2 83.3a20.8 20.8 0 0 1 20.8 20.9v791.6a20.8 20.8 0 0 1-20.8 20.9h-458.4a20.8 20.8 0 0 1-20.8-20.9v-791.6a20.8 20.8 0 0 1 20.8-20.9h458.4z m104.1 0a83.3 83.3 0 0 0-83.3-83.3h-500a83.3 83.3 0 0 0-83.3 83.3v833.4a83.3 83.3 0 0 0 83.3 83.3h500a83.3 83.3 0 0 0 83.3-83.3v-833.4z m-395.8 41.7h125a20.8 20.8 0 0 1 0 41.7h-125a20.8 20.8 0 0 1 0-41.7z m62.5 750a41.7 41.7 0 1 1 0-83.3 41.7 41.7 0 0 1 0 83.3z m208.3-125h-416.6v-541.7h416.6v541.7z"></path></svg>