<?xml version="1.0"?><svg xmlns="http://www.w3.org/2000/svg" width="1000" height="1000" viewBox="0 0 1000 1000"><path d="m458.2 794.2c0 53.2-124.8 52.8-124.8 0.1-0.1-54.7 124.9-56 124.9-0.1z m458.5-335.9v541.7h-833.4v-1000h350.4c202.4 0 139 333.3 139 333.3 125.4-31 344-17.5 344 125z m-583.4-166.6h125v-41.7h-125v41.7z m0-83.4h125v-41.6h-125v41.6z m0-83.3h125v-41.7h-125v41.7z m0 250h125v-41.7h-125v41.7z m0 83.3h125v-41.6h-125v41.6z m0 83.4h125v-41.7h-125v41.7z m163.6 229.1l-38.6-187.5h-125l-38.5 187.5c-16.4 65.8 33.3 104.2 101 104.2 67.8 0 117.4-38.5 101.1-104.2z m166-530.1c85.3-19.9 200.2 11.7 253.8 49.2-62.3-83.4-217.9-237.9-309.7-286.8 48.2 48.7 65.1 176.4 55.8 237.6z"></path></svg>