<?xml version="1.0"?><svg xmlns="http://www.w3.org/2000/svg" width="1000" height="1000" viewBox="0 0 1000 1000"><path d="m312.3 833.3h109.7l-142.5 166.7h-109.5l142.3-166.7z m396-583.3h-333.3v41.7h333.3v-41.7z m-250 750h83.4v-166.7h-83.4v166.7z m119-166.7l142.5 166.7h109.5l-142.3-166.7h-109.7z m6-333.3h-208.3v41.7h208.3v-41.7z m125-83.3h-333.3v41.6h333.3v-41.6z m0-83.4h-333.3v41.7h333.3v-41.7z m250-208.3h-41.6v333.3c0 67.7-208.4 291.7-291.7 291.7h-541.7v-625h-41.6v-125h916.6v125z m-125 0h-666.6v541.7h445.1c86.5 0 54.9-166.7 54.9-166.7s166.6 34.4 166.6-51.2v-323.8z m-500 125h-41.6v41.7h41.6v-41.7z m0 83.3h-41.6v41.7h41.6v-41.7z m0 83.4h-41.6v41.6h41.6v-41.6z m0 83.3h-41.6v41.7h41.6v-41.7z"></path></svg>