<?xml version="1.0"?><svg xmlns="http://www.w3.org/2000/svg" width="1000" height="1000" viewBox="0 0 1000 1000"><path d="m500 0c-276.1 0-500 223.9-500 500 0 220.9 143.3 408.3 342 474.5 25 4.5 33-10.9 33-24.1v-93.1c-139.1 30.3-168-59-168-59-22.8-57.8-55.6-73.1-55.6-73.1-45.4-31.1 3.5-30.4 3.5-30.4 50.2 3.5 76.6 51.5 76.6 51.5 44.6 76.5 117 54.4 145.5 41.6 4.5-32.4 17.5-54.5 31.8-66.9-111.1-12.7-227.8-55.6-227.8-247.1 0-54.7 19.5-99.3 51.5-134.3-5.3-12.6-22.4-63.5 4.8-132.3 0 0 42-13.4 137.5 51.2a479.6 479.6 0 0 1 125.2-16.7c42.5 0.2 85.3 5.7 125.3 16.8 95.4-64.6 137.3-51.2 137.3-51.2 27.2 68.9 10.1 119.7 4.9 132.3 32.1 35 51.6 79.6 51.6 134.2 0 192.1-117 234.4-228.4 246.7 18 15.5 34.4 45.9 34.4 92.6v137.2c0 13.4 8 28.9 33.3 24 198.6-66.2 341.6-253.6 341.6-474.4 0-276.1-223.9-500-500-500z"></path></svg>