<?xml version="1.0"?><svg xmlns="http://www.w3.org/2000/svg" width="1000" height="1000" viewBox="0 0 1000 1000"><path d="m500 83.3c229.8 0 416.7 187 416.7 416.7s-186.9 416.7-416.7 416.7-416.7-187-416.7-416.7 187-416.7 416.7-416.7z m0-83.3c-276.1 0-500 223.9-500 500s223.9 500 500 500 500-223.9 500-500-223.9-500-500-500z m250 250l-234.2 124.4a125 125 0 0 0-139 136.9l-126.8 238.7 238.5-126.7a124.6 124.6 0 0 0 101.3-36.1 124.3 124.3 0 0 0 35.9-103l124.3-234.2z m-248.7 300.8a52.1 52.1 0 1 1 0-104.1 52.1 52.1 0 0 1 0 104.1z m32.9-392.1v87.9h-19.1l-0.1-0.3-33.5-56.4v56.7h-18.1v-87.8h18.9l33.7 56.8v-56.8h18.1z m259.8 364v-20h39.8v-16h-39.8v-17.4h43.4v-17.2h-62.8v87.8h63.7v-17.2h-44.3z m-541.6-70.6l-13.1 58.1-13.8-58.1h-17.9l-13.9 57.4-12.7-57.4h-19.3l21.9 87.4 0.2 0.4h19.2l13.4-57.4 13.6 57.5h18.9l22.4-87.9h-19z m216.1 383.7c5 2.7 15 5.4 25 5.4 24.3 0 35.6-12.5 35.6-27.3 0-12.6-7.2-20.7-22.8-26.5-11.5-4.4-16.4-6.9-16.4-12.6 0-4.4 4.1-8.5 12.9-8.5a41.3 41.3 0 0 1 18.3 4.2l4.4-16a51.6 51.6 0 0 0-22.5-4.5c-20.7 0-33.5 11.5-33.5 26.5 0 13 9.7 21.2 24.4 26.4 10.6 3.7 14.8 6.9 14.8 12.3 0 5.9-4.8 9.7-14 9.7-8.5 0-16.9-2.8-22.1-5.6l-4.1 16.4z"></path></svg>