<?xml version="1.0"?><svg xmlns="http://www.w3.org/2000/svg" width="1000" height="1000" viewBox="0 0 1000 1000"><path d="m500 0c-276.1 0-500 223.9-500 500s223.9 500 500 500 500-223.9 500-500-223.9-500-500-500z m0 760.4a52.1 52.1 0 1 1 0-104.1 52.1 52.1 0 0 1 0 104.1z m81.7-247c-37.7 40.6-39.4 63.1-38.9 90.8h-83.6c-0.3-61.5 0.8-88.6 59.6-144.5 23.9-22.7 42.7-40.7 40.1-75.9-2.4-33.5-30.4-51.1-56.9-51.1-29.5 0-64.1 22-64.1 83.9h-83.7c0-100 58.7-164.6 149.5-164.6 43.3 0 81 14.2 106.3 39.8 23.7 24.1 36.1 57.2 35.6 95.7-0.6 57.7-35.7 95.5-63.9 126z"></path></svg>