<?xml version="1.0"?><svg xmlns="http://www.w3.org/2000/svg" width="1000" height="1000" viewBox="0 0 1000 1000"><path d="m791.7 0h-583.4a208.3 208.3 0 0 0-208.3 208.3v583.4a208.3 208.3 0 0 0 208.3 208.3h583.4a208.3 208.3 0 0 0 208.3-208.3v-583.4a208.3 208.3 0 0 0-208.3-208.3z m-458.4 791.7h-125v-458.4h125v458.4z m-62.5-511.2c-40.2 0-72.9-32.9-72.9-73.5s32.7-73.5 72.9-73.5 73 32.9 73 73.5-32.7 73.5-73 73.5z m562.5 511.2h-125v-233.5c0-140.4-166.6-129.7-166.6 0v233.5h-125v-458.4h125v73.6c58.1-107.8 291.6-115.7 291.6 103.1v281.7z"></path></svg>