<?xml version="1.0"?><svg width="1000" height="1000" viewBox="0 0 1000 1000" xmlns="http://www.w3.org/2000/svg"><title></title><path d="m965.9 835l-207.1-207.2a406.6 406.6 0 0 0 63.4-218.6c0-225.6-183.5-409.2-409.1-409.2s-409.1 183.6-409.1 409.2 183.5 409.2 409.2 409.2a406.4 406.4 0 0 0 209-57.7l209 209c89.2 89.2 224-45.5 134.8-134.8l-0.1 0.1z m-835-425.8c0-155.8 126.6-282.3 282.3-282.3s282.2 126.6 282.2 282.3-126.7 282.3-282.2 282.3-282.4-126.7-282.4-282.3h0.1z" fill-rule="evenodd"></path></svg>