<?xml version="1.0"?><svg xmlns="http://www.w3.org/2000/svg" width="1000" height="1000" viewBox="0 0 1000 1000"><path d="m547.7 340.4c-1.5-2.7 14.2-4.2 17.1-4.2 3 0.4-8.3 18.8-17.1 4.2z m-89.7-127.9l4.5-1.3c2.7 2.3-3 3.9-2.1 5.6 3.6 6.5 0.9 10.4 0.3 13.9-0.6 3.5-4.3 2-6.2 3.8-2.2 2.7 10.8 3.1 10.9 3.5 0.4 1.4-15.6 3.8-12.6 7.1 4 5.7 34.3-8.1 29.5-7.3 9.3-4.7 1.2-5.2-4.1-7.9-1.8-9-3.3-22.8-8.9-28.3l3.7-4.3c-8.6-12.5-15 15.1-15 15.1z m542 287.5c0 276.1-223.9 500-500 500-276.2 0-500-223.9-500-500s223.8-500 500-500c276.1 0 500 223.9 500 500z m-346.2-223.7c-0.3-6.2-8-11.9-16-1.4-5.6 7.3-4.5 18.4-7.6 23.2-4.4 7.3 23.6 14.2 23.6 7.3 1.1-11.6 30.5-2.7 36.2-1.1 10.5 2.9 26.9-9.4 8.9-15.8-14.8-5.5-22.6-11.3-23.9-21.9 0 0 7.8-7.3 4.4-6.9-9.1 1.1-25.6 32.8-25.6 16.5z m262.3 223.7c0-43.1-7.4-86.7-14.9-109.7a25.4 25.4 0 0 0-15-15.7c-10.7-4.2-55.7 24.9-62.5 10.6-4.5-9.6-13.5 6-23.8 0.3-5-2.8-18.9-21.5-25.2-19.2-13 4.6 19.7 40.2 28.6 44.9 8.4-6.4 35.6-19.4 41.4-1.6 11.2 33.5-30.7 70.2-52.1 89.6-32.1 28.8-26-18.8-47.8-35.6-11.5-8.7-11.3-27.5-22.9-33.9-5.2-3-28.9-30.2-28.7-33.9l-0.7 6.9c-3.9 2.9-12.3-11.2-13.1-13.4 0 12.3 20 31.9 26.6 41.7 11.3 16.9 17.3 41.5 31.2 55.2 7.4 7.5 35.7 38.2 43.1 37.6 8-0.8 33.4-19.2 37.9-18.1 26.9 6.3-63.1 133.5-71.7 149.3-7 13.1 5.8 45.8 4.7 61.4-1.2 18.1-15.4 23.9-28.8 33.8-14.4 10.5-11.1 31-23.2 38.5-21.5 13.2-37 56.3-67.6 56.1-9 0-47.5 15-52.5 0.3-3.9-10.7-9.1-18.8-14.7-29.3-5.4-10.3-0.7-21-7.2-30.1-4.5-6.4-19.8-20.7-21.2-28.2 0-6.5 4.9-26.1 11.7-29.5 9.6-4.9 1.8-19.1 0.7-27.4-2.1-14.7-11.2-26.9-22.1-35.4-16.3-12.5-7.9-22.4-4.1-40.2 0-8.5-5.2-19.6-16.6-16.2-23.5 6.7-16.4-18.4-33.5-17.3-12.3 0.8-22.4 8.8-33.9 12.2-14.4 4.3-29.1-3.4-43.4-5.2-58.6-7.5-77.7-74.5-62.5-122.8 1.6-7.9-4.7-22.6-1.9-28.7 6.6-14.6 20-31.1 31.7-42.3 6.6-6.2 15-4.6 22.8-9.5 12-7.5 12.1-23 23.8-32.5 16.7-13.6 39.4-13.3 61.2-16.2 11.6-1.5 55.6-11.1 62.6-2.5 0 1.6 7.9 25.2-0.8 23.8 18 1 43.7 31.3 60.9 24.2 8.7-3.8 5.6-30.7 23.6-17.7 10.8 7.9 59.8 11.4 70 2.9 6.3-5.2 9.7-38.7 2.1-42.5 4.9 4.8-25.4 5.1-28.3 4-5-1.8-9.6 4.8-17.7 1.1 4.9 2.3-26.9-14.8-9.1-27.8-7.5 5.4-14.4-1.5-22.5 4.5-5.5 4.5 2.6 7.5-5.3 11.4-12.6 6.3-22.1-21.9-26.8-25.2-4.9-3.1-42.3-29.4-32.1-12.2l32.9 32.7c-1.7 1-8.7-12-8.7-2.5 2.3-5.6 0.9 24.1-4.3 14.5-2.3-3.8 3.8-5.9 0.3-11.2 0-3.5-9.5-7-11.4-9.4-5.2-6.4-19-20.7-26.5-24.1-2.1-1-31.8 3.6-34.3 4.6a74.2 74.2 0 0 0-7.5 12.9 84.2 84.2 0 0 0-17.5 9l-6.5 14.7c-2.9 2.5-31.9 12-32.1 12.5 1.2-3.2-20.3-7.1-18.9-13.4 1.6-6.9 8.9-28.3 7-36.2-2-8.2 44.8 11.9 47.8-9.8 1.2-9.3 1.9-20.3-13.1-21.8 2.9 0.4 29-10.3 33.4-15 6-7 20-18.4 30.1-18.4 11.8 0 9.3-17.2 14.8-25.6 5.4 2.2-3 15.6 3.6 21.1-0.4-4.3 18.5 2.4 20.4 1.4 4.3-2.3 28.5-0.9 24.7-12.3-4.2-11.5 2.1-8.1 7.5-10.5-0.8 0.4 14.2-25.8 16.8-17.2-1.8-8.8-17.5 3.1-23 2.6-12.8-1-7.4-21.6-2.5-27.7 3.6-4.8-10.2-10.7-10.4-1.5-0.2 13.8-13 26.1-10 44.3 4.5 27.5-30.6-6.6-33.7-4.7-11.7 7.1-21.3-8.9-15.2-18.5 6.2-9.8 21-9.3 27.2-19.8 4.3-7.5 9.3-16.1 16-21.7 22.3-18.8 28.5-3.8 50.7-1.7 21.7 2 7.4 5.2 4.4 13.5-3 7.9 11.9 10.7 17 4.1a110.4 110.4 0 0 0 12.4-20.6c3.8-9.3 37.5-8.2 13.9-22.3-15.6-9.3-83.5-28-129-28-9.8 0-16.6 10.9-24.1 17.1-14.9 12.3-53 36.4-74 29.1-21.7-7.5-68 27.5-75.4 27.8-2.7 0.1 0.2-26.5 14.9-28.4-6.3 0.9 52-29.5 50.5-35.8-2-7.5-116.7 34.2-111.6 42.6 2.5 3.8 12.5 3.8-0.6 12.3-7.5 4.5-15.5 33.3-22.5 33.3-21.1 9.2-22.4-18.1-45.9 17.1l-37.2 15a415 415 0 0 0-107.5 215.9c-0.5 3.3 13.9 9.4 15.8 11.7 4.6 5.5 4.6 29.6 7 37.5 5.7 20 20 31 30.8 49.1 6.4 10.9 17.1 38.1 13.7 49.4 4.5-7.4 44.6 34 51.9 42.6 17.3 20.3 30.6 44.9 2.5 65-9 6.5 13.8 47 2.1 57l-15.1 3.9c-14.8 9.1-8.1 31.5 0.9 40.9a415 415 0 0 0 300.8 128.6c229.9 0 416.2-186.4 416.2-416.2z m-479.4-264.9c5.1-2.3 12.1-2.2 12.9-9.1 0.6-6.2 1.8-2 3.3-4.2 1.5-2.2-2.8-5.8-4.6-6.1-2.6-0.6-4.5 2.9-6.2 4.3l-2.9 0.9-2.9 3.6 0.4 2-3.7 4.4c-3.5 3.6 0.1 5.9 3.6 4.3z"></path></svg>