<?xml version="1.0"?><svg xmlns="http://www.w3.org/2000/svg" width="1000" height="1000" viewBox="0 0 1000 1000"><path d="m812.5 416.7c-103.5 0-187.5 83.9-187.5 187.5s84 187.5 187.5 187.5 187.5-84 187.5-187.5-84-187.5-187.5-187.5z m104.2 208.3h-83.4v83.3h-41.6v-83.3h-83.4v-41.7h83.4v-83.3h41.6v83.3h83.4v41.7z m-272 191.4c-46.2 45.3-94.8 92.5-144.7 141.9-267.9-265.8-500-464.4-500-658.6 0-282.1 368.8-347.8 500-122.7 130.2-223.4 500-160.3 500 122.7 0 31-6.5 62.3-17.6 93.8a269.4 269.4 0 0 0-169.9-60.2 271.2 271.2 0 0 0-270.8 270.9 270.4 270.4 0 0 0 103 212.2z"></path></svg>