<?xml version="1.0"?><svg xmlns="http://www.w3.org/2000/svg" width="1000" height="1000" viewBox="0 0 1000 1000"><path d="m500 0c-276.1 0-500 223.9-500 500s223.9 500 500 500 500-223.9 500-500-223.9-500-500-500z m0 83.3c153.8 0 288.1 84 360.3 208.4h-720.6c72.2-124.4 206.6-208.4 360.3-208.4z m0 833.4c-229.7 0-416.7-187-416.7-416.7 0-43.5 6.8-85.5 19.2-125h77.5c25.3 63.3 80.4 125 166.1 125 103.2 0 89.7-96.3 153.9-96.3s50.8 96.3 154 96.3c85.6 0 140.8-61.7 166-125h77.5c12.3 39.5 19.1 81.5 19.1 125 0 229.8-186.9 416.7-416.6 416.7z m229.5-335.9l20.5 20.6c-47 71.7-133.3 148.6-250 148.6s-203-76.9-250-148.6l20.5-20.5c63 49.8 132.3 80.5 229.6 80.5 97.2 0 166.4-30.7 229.4-80.4z"></path></svg>