<?xml version="1.0"?><svg xmlns="http://www.w3.org/2000/svg" width="1000" height="1000" viewBox="0 0 1000 1000"><path d="m500 83.3c229.8 0 416.7 187 416.7 416.7s-186.9 416.7-416.7 416.7-416.7-187-416.7-416.7 187-416.7 416.7-416.7z m0-83.3c-276.1 0-500 223.9-500 500s223.9 500 500 500 500-223.9 500-500-223.9-500-500-500z m250 583.3h-500c13.8 61.1 117.8 166.7 250 166.7 130.6 0 236.1-105 250-166.7z m0-166.6l-31.5 21.1s-20.9-39.5-72.7-39.5c-50.3 0-72.8 39.5-72.8 39.5l-31.3-21c11.6-31.2 50.2-83.5 104.1-83.5 53.9 0 92.4 52.3 104.2 83.5z m-291.7 0l-31.4 21.1s-21-39.5-72.7-39.5c-50.4 0-72.8 39.5-72.8 39.5l-31.4-21c11.7-31.2 50.2-83.5 104.2-83.5 53.9 0 92.3 52.3 104.1 83.5z"></path></svg>