<?xml version="1.0"?><svg xmlns="http://www.w3.org/2000/svg" width="1000" height="1000" viewBox="0 0 1000 1000"><path d="m742.9 319.7c45.7-45.7 119.8-77.7 153.8-129.5a123.1 123.1 0 0 0-35.6-170.2 122.9 122.9 0 0 0-170 35.6c-35.1 53.6-33.4 138.4-59.7 199.2-34.1 78.3-148.1 88.1-279.1 19.7-71.9 139.7-169.8 289.6-269 411.4l94.3 61.9c42.4-7.3 95-44.2 116.4-84.6-1.7 48.6-20 91.6-55.7 124.3l178.1 116.5c22.7-22.7 43.9-40.7 67.3-56.1a279.7 279.7 0 0 0-26.2 82.9l105.4 69.2c62.5-120.2 184.1-306 269-411.4-117.5-94.7-152.4-205.7-88.9-268.9z m73.5-231.1a40.8 40.8 0 0 1 11.6 56.7 40.8 40.8 0 1 1-68.3-44.8 40.8 40.8 0 0 1 56.7-11.9z m-165 626.6l-342.6-224.4 67.2-103 342.5 224.5-67 102.9z"></path></svg>