<?xml version="1.0"?><svg xmlns="http://www.w3.org/2000/svg" width="1000" height="1000" viewBox="0 0 1000 1000"><path d="m500 166.7c183.8 0 333.3 149.6 333.3 333.3s-149.5 333.3-333.3 333.3-333.3-149.5-333.3-333.3 149.5-333.3 333.3-333.3z m0-83.4c-230.1 0-416.7 186.6-416.7 416.7s186.6 416.7 416.7 416.7 416.7-186.6 416.7-416.7-186.6-416.7-416.7-416.7z m0 250c91.9 0 166.7 74.8 166.7 166.7s-74.8 166.7-166.7 166.7-166.7-74.8-166.7-166.7 74.8-166.7 166.7-166.7z m0-83.3a250 250 0 1 0 0 500 250 250 0 0 0 0-500z m0 166.7a83.3 83.3 0 1 0 0 166.6 83.3 83.3 0 0 0 0-166.6z"></path></svg>