<?xml version="1.0"?><svg xmlns="http://www.w3.org/2000/svg" width="1000" height="1000" viewBox="0 0 1000 1000"><path d="m500 83.3c229.8 0 416.7 187 416.7 416.7s-186.9 416.7-416.7 416.7-416.7-187-416.7-416.7 187-416.7 416.7-416.7z m0-83.3c-276.1 0-500 223.9-500 500s223.9 500 500 500 500-223.9 500-500-223.9-500-500-500z m-145.8 333.3a62.5 62.5 0 1 0 0 125 62.5 62.5 0 0 0 0-125z m291.6 0a62.5 62.5 0 1 0 0 125 62.5 62.5 0 0 0 0-125z m-145.8 166.7c-69 0-125 65.3-125 145.8s56 145.9 125 145.9 125-65.3 125-145.9-56-145.8-125-145.8z"></path></svg>