<?xml version="1.0"?><svg xmlns="http://www.w3.org/2000/svg" width="1000" height="1000" viewBox="0 0 1000 1000"><path d="m500 83.3c229.8 0 416.7 187 416.7 416.7s-186.9 416.7-416.7 416.7-416.7-187-416.7-416.7 187-416.7 416.7-416.7z m0-83.3c-276.1 0-500 223.9-500 500s223.9 500 500 500 500-223.9 500-500-223.9-500-500-500z m229.5 580.8c-63 49.9-132.3 80.5-229.5 80.5-97.2 0-166.4-30.6-229.4-80.4l-20.6 20.5c47 71.7 133.3 148.6 250 148.6s203-76.9 250-148.6l-20.5-20.5z m-375.3-247.5a62.5 62.5 0 1 0 0 125 62.5 62.5 0 0 0 0-125z m291.6 0a62.5 62.5 0 1 0 0 125 62.5 62.5 0 0 0 0-125z"></path></svg>