<?xml version="1.0"?><svg xmlns="http://www.w3.org/2000/svg" width="1000" height="1000" viewBox="0 0 1000 1000"><path d="m500 83.3c229.8 0 416.7 187 416.7 416.7s-186.9 416.7-416.7 416.7-416.7-187-416.7-416.7 187-416.7 416.7-416.7z m0-83.3c-276.1 0-500 223.9-500 500s223.9 500 500 500 500-223.9 500-500-223.9-500-500-500z m229.5 580.8c-63 49.9-132.2 80.5-229.5 80.5-97.2 0-166.4-30.6-229.5-80.4l-20.5 20.5c47 71.7 133.3 148.6 250 148.6s203-76.9 250-148.6l-20.5-20.5z m-375.3-247.5a62.5 62.5 0 1 0 0 125 62.5 62.5 0 0 0 0-125z m395.8 83.5l-31.5 21s-20.9-39.5-72.7-39.5c-50.3 0-72.8 39.5-72.8 39.5l-31.3-21c11.6-31.2 50.2-83.5 104.1-83.5 53.9 0 92.4 52.3 104.2 83.5z"></path></svg>