<?xml version="1.0"?><svg width="1000" height="1000" viewBox="0 0 1000 1000" xmlns="http://www.w3.org/2000/svg"><title></title><path d="m499.5 842.8c-188.9 0-342.6-153.9-342.6-342.9s153.7-342.9 342.6-342.9c188.9 0 342.6 153.8 342.6 342.9s-153.7 342.9-342.6 342.9z m385.8-342.9l111.2-124.8a9.8 9.8 0 0 0 2.2-9.1 9.8 9.8 0 0 0-6.4-6.7l-158.7-52.4 34-163.8a9.8 9.8 0 0 0-2.7-8.9c-2.3-2.4-5.8-3.4-8.9-2.7l-163.6 34.1-52.4-158.9a9.8 9.8 0 0 0-6.7-6.4 9.7 9.7 0 0 0-9.1 2.2l-124.7 111.4-124.7-111.4a9.8 9.8 0 0 0-9-2.2 9.8 9.8 0 0 0-6.8 6.4l-52.4 158.9-163.6-34.1a9.8 9.8 0 0 0-8.9 2.7 9.8 9.8 0 0 0-2.7 8.9l34.1 163.8-158.8 52.4a9.8 9.8 0 0 0-6.4 6.7 9.8 9.8 0 0 0 2.2 9.1l111.3 124.8-111.3 124.8a9.8 9.8 0 0 0-2.2 9 9.8 9.8 0 0 0 6.4 6.8l158.8 52.4-34.1 163.8a9.8 9.8 0 0 0 2.7 8.9c2.3 2.3 5.8 3.3 8.9 2.6l163.6-34 52.4 158.8a9.8 9.8 0 0 0 15.8 4.2l124.7-111.3 124.7 111.3a9.7 9.7 0 0 0 9.1 2.2 9.8 9.8 0 0 0 6.7-6.4l52.4-158.8 163.6 34a10 10 0 0 0 8.9-2.6 9.7 9.7 0 0 0 2.7-9l-34-163.7 158.7-52.4a9.8 9.8 0 0 0 6.4-6.8 9.8 9.8 0 0 0-2.2-9l-111.2-124.8z m-385.8-306.5c-168.9 0-306.3 137.5-306.3 306.5s137.4 306.5 306.3 306.5 306.3-137.5 306.3-306.5-137.4-306.5-306.3-306.5" fill="#010202" fill-rule="evenodd"></path></svg>