<?xml version="1.0"?><svg width="1000" height="1000" viewBox="0 0 1000 1000" xmlns="http://www.w3.org/2000/svg"><title></title><path d="m966 613.2h-3.9v-116.6h-23.2c-8.5 0-15.8-7.1-15.8-15.6v-15.7c0-8.5 7.3-15.5 15.8-15.5h23.2v-54.5h0.1c-0.4-46.6-3.2-81.7-8.7-128.7-4.8-40.1-36.4-71-76.6-75-149.6-14.9-299.7-5.5-448.6 11.2-19.4 2.2-35.7 14-43.6 31.9-25.5 56.6-49.7 106.9-72.3 162.6-76.9 8.2-170.3 22.3-222.5 34.5-53.3 12.4-54.2 33.5-54.1 64.8h50.8v15.6c0 17.1-14.2 31-31.4 31h-19.2v70h-3.9c-42.8 0-42.8 62.3 0 62.3h4.6c3.5 11.6 15.7 23.3 30.2 23.3h3.9c0-85.6 69.7-155.6 155.7-155.6 86 0 155.8 70 155.8 155.6h233.5c0-85.6 69.7-155.6 155.7-155.6 86 0 155.7 70 155.7 155.6h4c14.4 0 26.6-11.7 30.1-23.3h4.7c42.8 0 42.8-62.3 0-62.3z m-334.7-217.9h-253.3c18-46.6 37.2-89.5 56.7-132.3h196.6v132.3z m46.8 0v-132.3h176.2c3 0 7.1 4.6 7.2 8.2l3.1 124.1h-186.5z m-334.8 303.5c0-64.4-52.3-116.7-116.8-116.7s-116.8 52.3-116.8 116.7c0 64.5 52.3 116.8 116.8 116.8s116.8-52.3 116.8-116.8m-163.5 0c0-25.7 20.9-46.6 46.7-46.6 25.8 0 46.7 20.9 46.7 46.6 0 25.8-20.9 46.7-46.7 46.7-25.8 0-46.7-20.9-46.7-46.7m591.8 116.8c64.4 0 116.7-52.4 116.7-116.8s-52.3-116.7-116.7-116.7c-64.5 0-116.8 52.3-116.8 116.7s52.3 116.8 116.8 116.8m0-163.4c25.8 0 46.7 20.9 46.7 46.6 0 25.8-20.9 46.7-46.7 46.7-25.9 0-46.8-20.9-46.8-46.7 0-25.7 20.9-46.6 46.8-46.6" fill="#010202" fill-rule="evenodd"></path></svg>