<?xml version="1.0"?><svg xmlns="http://www.w3.org/2000/svg" width="1000" height="1000" viewBox="0 0 1000 1000"><path d="m539.2 886.2c-67.7-79.2-101.6-126.2-178.3-174.3-47.5-29.9-85-70.9-110.9-110.4l21.3-21.4c103.5 81.7 198.3 94 393.2 94 0 0 51 50.6 100.8 109.3 114.2 134.6-93 259-226.2 102.9z m-85.8 27.7c-207.8-23.3-370.1-199.9-370.1-413.9 0-229.7 187-416.7 416.7-416.7s416.7 187 416.7 416.7a413.7 413.7 0 0 1-78.4 242.2c20 26.8 33.5 55.4 39.6 84.5a497.3 497.3 0 0 0 122.1-326.7c0-276.1-223.9-500-500-500s-500 223.9-500 500 223.9 500 500 500c13.3 0 26.4-1 39.4-2-39.3-27.2-56.6-49.2-86-84.1z m192.4-580.6a62.5 62.5 0 1 0 0 125 62.5 62.5 0 0 0 0-125z m-291.6 0a62.5 62.5 0 1 0 0 125 62.5 62.5 0 0 0 0-125z"></path></svg>