<?xml version="1.0"?><svg width="1000" height="1000" viewBox="0 0 1000 1000" xmlns="http://www.w3.org/2000/svg"><title></title><path d="m804.2 762.1c-77.4 0-141.3-58.4-150.1-133.4h155.1c12.2 0 22.1-9.9 22.1-22.1 0-5.9-2.3-11.2-6.1-15.2l-80.8-119.5a149.9 149.9 0 0 1 59.8-12.3c83.4 0 151.2 67.8 151.2 151.2 0 83.4-67.8 151.3-151.2 151.3z m-448.7-399.5h235.1l-72.6 221.9h-10.6l-151.9-221.9z m351.4 132.6l60.4 89.3h-111.9c6.2-35.6 24.9-66.9 51.5-89.3z m-24.9-36.7c-38.1 30.7-64.4 75.3-71.3 126h-46.2l66-202.1 51.5 76.1z m-335.3 152.3c0 83.4-67.9 151.3-151.3 151.3s-151.2-67.9-151.2-151.3 67.8-151.2 151.2-151.2c8.3 0 16.4 0.8 24.3 2.1l-47 141c-3.8 11.6 2.4 24.1 14 28a22.1 22.1 0 0 0 27.9-14l47.2-141.6c50.2 24.7 84.9 76.2 84.9 135.7z m457.5-195.4c-30.4 0-59.1 7.2-84.7 19.6l-71.6-105.8 16-48.8h19.5c12.2 0 22.1-9.9 22.1-22.1 0-12.2-9.9-22.1-22.1-22.1h-122.6c-12.2 0-22.1 9.9-22.1 22.1 0 12.2 9.9 22.1 22.1 22.1h56.6l-12.4 38h-290.9l27-81.1h49.8c12.2 0 22.1-9.9 22.1-22.1 0-12.2-9.9-22-22.1-22h-65.7a22.1 22.1 0 0 0-21 15.1l-70.3 210.9a196.4 196.4 0 0 0-38.5-3.8c-107.7 0-195.4 87.7-195.4 195.4 0 107.8 87.7 195.5 195.4 195.5 107.8 0 195.5-87.7 195.5-195.5 0-79-47.3-147.1-115-177.9l24.3-72.9 177.4 259.1a22.1 22.1 0 0 0 18.2 9.6h113.9c9 99.4 92.7 177.6 194.5 177.6 107.7 0 195.4-87.7 195.4-195.5 0-107.7-87.7-195.4-195.4-195.4z" fill="#010202" fill-rule="evenodd"></path></svg>