<?xml version="1.0"?><svg width="1000" height="1000" viewBox="0 0 1000 1000" xmlns="http://www.w3.org/2000/svg"><title></title><path d="m704 474.2c-18.5-19.5-37.2-38.8-56.3-57.7-18.4-18.2-37.4-35.9-56.1-53.8-7.5-7.2-14.5-14.8-22.3-21.6-6.5-5.7-13.9-6.2-20.8-0.1-8.6 7.8-16.3 17.5-25.9 26.4-11.9 11.2-22.2 13.7-37.3 13.7-80.9-0.1-161.9-0.1-242.8-0.1-32.8 0-65.6 0.1-98.4 0a52 52 0 0 1-17.2-2.9l-92.7-50.5c-8.7-4.7-21.3 1.8-28.2 14.5l-1.6 2.9c-6.9 12.7-5.5 26.8 3.2 31.5l78.5 42.7c1.6 3.3 1.6 3.3 1 17.8-1.6 40.5 0.1 81-0.3 121.4l-1.2 60.7v291.2c0 17.5 21.3 31.7 47.5 31.7h5.9c26.2 0 47.4-14.2 47.4-31.7v-213.3c1.4-16.1 10-23.8 14-28.1 12.6-13.3 31.7-14.3 49.2-14.3 116.8 0.3 233.5-0.2 350.3 0.1 16.1 0.1 16 10.2 16 10.2v245.4c0 17.5 20.8 31.7 46.4 31.7h5.8c25.6 0 46.4-14.2 46.4-31.7v-284.3h-0.1c-0.1-40.7-0.1-81.6 0.1-122.4 0-11.3-2.8-21.4-10.5-29.4m291.3-130.4c-2.3-5.6-5.2-10.9-9.6-15.2l-135.5-133.5c-6.9-10.2-11.1-21.5-10.8-35.5 0.7-28.8-0.4-57.6-0.9-86.4 0-3.7-0.1-7.5-1.2-10.9-1.5-5.2-5.1-5.8-9-2.1-6.7 6.2-13.4 12.4-19.8 18.9-18.1 18.5-35.9 37.4-54.2 55.8-15.5 15.5-31.7 30.3-47.4 45.7-24.9 24.6-49.6 49.5-74.3 74.4-7.1 7.2-13.4 15.2-20.9 21.8-8.7 7.8-10.1 17.6-2.1 26.2 5.7 6 11.7 11.7 17.6 17.5a55463.1 55463.1 0 0 1 68.1 68c14.7 14.7 29.2 29.6 43.9 44.1 8.6 8.5 16.3 8.3 24.7 0 4.4-4.3 8.5-8.8 12.8-13.2 6.4-6.3 14.8-9.2 20.7-4.7l35.9 35.4c1.1 1.1 19.2 18.2 20.5 19.2 0.8 0.9 5.2 7 21 9.3 25.3 4.5 57.7-7.5 83.3-33.5l8-8.1c25.4-25.8 36.8-58.1 32.2-83.3 0.4-0.8-1.7-7.6-3-9.9" fill="#010202" fill-rule="evenodd"></path></svg>