<?xml version="1.0"?><svg width="1000" height="1000" viewBox="0 0 1000 1000" xmlns="http://www.w3.org/2000/svg" xmlns:xlink="http://www.w3.org/1999/xlink"><title></title><defs><path id="a" d="m5.3 291.7h114.3v-111h-114.3z"></path></defs><g fill="none"><path d="m258.5 590.9c-17-22.1-44.1-59.3-61.5-81.1-14.1-17.7-41.3-45.3-37.4-70.1 3.6-22.6 18-43.7 27.6-64.2 12.7-27 28.4-51.8 43.4-77.5 5.1-8.9 10-21.9 21.7-23 11.6-1 24.3 5.3 34.8 9.4 21.7 8.4 44.2 3.8 65.5-3.8 22.1-7.8 40.5-21.4 61.4-31.5 20.5-10 61.3-8 80.3 8.6 9.9 8.5 24.3-5.8 14.4-14.4-19.3-16.9-55.8-27.7-79.8-21.5-25.6 6.7-46.1 23.1-69.6 34.2-13.1 6.2-27.7 11-42.2 12.6-12.6 1.3-22.7-3.2-34.2-7.6-11.2-4.1-24.5-8.2-36.5-5.7-13.2 2.8-21.4 12.2-28.2 23.3-16.6 26.9-32.8 54-46.6 82.5-11.4 23.5-26.2 47.4-31.6 73.2-5.6 26.5 12.8 51.1 27.9 71.1 20.4 27.2 52.3 68.8 73 95.8 7.9 10.2 25.6 0.1 17.6-10.3m509.3-315.5s52.9 99.5 120.8 225.1c0 0-38.3 77.3-96.8 116.7 0 0-230.1-250.2-244.1-271.8 0 0-54.7 21.6-72.5 36.8-17.8 15.3-83.9 80.2-133.5 61.1-49.6-19.1 5.1-45.8 20.3-66.2 15.3-20.3 165.4-187 259.5-148.8 70 20.4 34.3 66.2 146.3 47.1m22.6 338.6c3.2 5.2 5.4 10.9 6.9 16.9 1.9 8.1-9.8 29.9-14.6 35.5-16.1 18.6-34.3 23.1-53.9 5.8-21.3-18.8-39.7-42.4-58-64-12.7-15-26-30.2-36.7-46.7-7.1-10.9-24.8-0.7-17.6 10.3 13.9 21.3 31.3 40.8 47.8 60.1a1216.7 1216.7 0 0 0 37.7 42c12.1 12.9 24.6 25.5 42.4 29.6 23.2 5.3 43.2-10.8 56.8-27.6 7.1-8.7 17.6-33.2 16.5-44.9-0.9-9.5-4.8-19.2-9.7-27.3-6.9-11.2-24.5-1-17.6 10.3m-73.5 72.4c0.2 0.7 0.5 2.6 0.2-0.1 0.3 2.4-0.1 4.4-0.6 6.7-2.9 11.9-9.7 21.3-17.9 29.8-18.7 19.2-52.6-9-66.2-21.5-26.8-24.5-49.7-53.4-73.7-80.8-8.6-9.9-23 4.6-14.4 14.4 30.8 35.2 60.1 74.3 98.9 101.1 11.3 7.8 24.4 13.5 38.3 14 14.7 0.5 28.6-9.5 37.9-19.7 10.3-11.2 23.6-32.4 17.1-49.3-4.6-12.1-24.3-6.8-19.6 5.4m-90 32.4c1.4 13.2 0.3 26.8-3.7 39.4-9.1 29.1-38.5 21.6-60.2 11-11.7-5.7-22 11.8-10.2 17.6 29.5 14.5 68.3 21.8 86-13.2 8.2-16.2 10.3-36.8 8.5-54.8-1.4-12.9-21.7-13-20.4 0" fill="#010202"></path><g transform="translate(225 266.553)"><mask id="b"><use xlink:href="#a"></use></mask><path d="m110.1 192.5c14.9 16.1 12 42.9-6.4 59.8l-28.7 26.3c-18.4 16.9-45.3 17.5-60.2 1.3-14.8-16.2-11.9-42.9 6.4-59.8l28.8-26.4c18.3-16.8 45.3-17.4 60.1-1.2" fill="#010202" mask="url(#b)"></path></g><path d="m506.3 650.7c14.8 16.2 6.2 48.3-19.2 71.6l-39.8 36.5c-25.4 23.4-58.1 29.2-72.9 13-14.9-16.1-6.3-48.2 19.2-71.5l39.7-36.5c25.5-23.4 58.2-29.2 73-13.1m-89.4-40.7c14.9 16.1 9.3 45.4-12.3 65.3l-33.9 31c-21.6 19.9-51.2 22.9-66.1 6.8-14.8-16.2-9.3-45.4 12.4-65.3l33.8-31.1c21.7-19.9 51.3-22.9 66.1-6.7m-118.3-10.7c14.8 16.2 16 39.2 2.7 51.5l-20.8 19c-13.3 12.3-36.1 9.1-51-7.1-14.8-16.2-16-39.2-2.7-51.4l20.8-19.1c13.3-12.2 36.1-9 51 7.1m633.7-138.8c-12.1-0.1-21.9-10-21.8-22.2 0.1-12.1 10-21.9 22.2-21.8 12.1 0.2 21.9 10.1 21.8 22.2-0.1 12.2-10.1 21.9-22.2 21.8m66.2-17.3l-126.8-233.4a8.8 8.8 0 0 0-11.9-3.5l-70 38a8.8 8.8 0 0 0-4.3 5.2 8.7 8.7 0 0 0 0.7 6.7l126.8 233.5a8.8 8.8 0 0 0 5.2 4.2c0.8 0.3 1.7 0.4 2.5 0.4 1.5 0 2.9-0.4 4.2-1.1l70.1-38a8.8 8.8 0 0 0 3.5-12m-931.2-12.2c-12.2 0.1-22.1-9.7-22.2-21.8-0.1-12.2 9.6-22.1 21.8-22.2 12.1-0.1 22 9.7 22.1 21.8 0.2 12.1-9.6 22.1-21.7 22.2m142.5-216.2l-70.1-38.1a8.7 8.7 0 0 0-6.7-0.7 8.8 8.8 0 0 0-5.2 4.3l-126.7 233.4a8.8 8.8 0 0 0 3.5 11.9l70 38.1c1.3 0.7 2.8 1 4.2 1 0.9 0 1.7-0.1 2.5-0.3a8.8 8.8 0 0 0 5.2-4.2l126.8-233.5a8.8 8.8 0 0 0-3.5-11.9" fill="#010202"></path></g></svg>