<?xml version="1.0"?><svg width="1000" height="1000" viewBox="0 0 1000 1000" xmlns="http://www.w3.org/2000/svg"><title></title><path d="m481.4 602.2c47.3 28.1 108 62.6 155.6 90.4 7.2 4.2 9.4 8.9 9.5 17 0.6 77.3 1.8 154.6 2.7 231.9 0.2 22.3 8.7 40 28.4 51 37.7 21.2 82.8-6.7 82.1-51.1-1.9-103.1-8.8-189.8-10.6-292.9-0.4-23.7-10.4-42.9-31.8-55.7-42.3-25.4-84.1-51.5-126-77.3-8-4.9-3.2-15.5-3.2-15.5 27.2-52.3 57.3-114.5 84.5-166.9 0 0 6.5-13.8 20.5-3.3 11.9 7.3 16 9.8 27.4 16.9 17.9 11.1 35.8 22.2 53.7 33.2 23.5 14.2 46 10.7 64-10.1 4.1-4.7 7.6-10.1 10.9-15.6 27.2-44.3 54.4-88.8 81.3-133.3 23-34.3 17.5-50.3 17.2-51-4.9-19.8-17.2-32.2-37.5-34.9-20.4-2.7-35 6.5-45.5 23.8-24 39.5-48.5 78.8-72.7 118.1-4.8 7.8-11.4 3.9-11.4 3.9-0.7-0.5-1.5-0.9-2.1-1.4-48.9-30-97.8-59.9-146.5-90.1-15.9-9.9-32.5-12.9-50.8-8.5-64.8 15.6-129.7 31-194.5 46.5-14.8 3.6-26.1 11.5-33.3 25.2-34.6 66.5-69.6 132.9-104.1 199.5-13.7 26.5 5.4 59.2 35.1 61 21.2 1.2 34.8-9.2 44.2-27.5 29.3-56.8 58.8-113.5 88.4-170.1 1.5-3 4-6.7 6.8-7.4 20.7-5.2 41.6-9.9 62.5-14.6 0 0 9.7-2.9 3 10-65.8 127.3-131.7 254.5-197.7 381.6-1.8 3.4-6.1 6.4-9.8 7.3-61.3 14.8-122.8 29.2-184.2 43.6-12.1 2.8-27.1 7.3-34.6 17.3-17.9 24.6-10.7 45.8-10.5 46.9 7 32 34.3 51.1 66.2 43.7 80.2-18.7 146.9-44.1 226.9-64.1 21.8-5.4 39.4-17.7 50.4-38.7 23.9-45.3 48.7-90.1 73.2-135.1l1.5-2.7s2.7-5.8 10.8-1m225.2-602.2c-53.5 0-97 43.5-97 97s43.5 97 97 97c53.4 0 97-43.5 97-97s-43.6-97-97-97" fill="#1D1C1B" fill-rule="evenodd"></path></svg>