<?xml version="1.0"?><svg width="1000" height="1000" viewBox="0 0 1000 1000" xmlns="http://www.w3.org/2000/svg"><title></title><path d="m495.6 225.8c-4.4-42.7-20.8-199.3 212.8-223.8 0 0 23.8-4.5 26.8 0.7 1.5 2.5 0.2 9.9-1.4 18-12.6 64.4-31.1 170.9-206.6 220.5 0 0-16.7 5.2-25.2 3.7-5-0.8-5.7-12.3-6.4-19.1m377.8 120.5c-69.6-111-195.6-103.8-262.5-66-38.4 21.7-77.4 28.1-111.3 27.8-33.9 0.3-72.9-6.1-111.3-27.8-66.9-37.8-192.9-45-262.5 66-104.5 166.5-35.5 474.4 182.8 615.7 45.6 29.5 88.5 47.6 128.6 29 26-12.2 52.4-33.3 112.8-2.2 37.8 19.5 97.8 0.9 140.6-26.8 218.3-141.3 287.3-449.2 182.8-615.7" fill="#010202" fill-rule="evenodd"></path></svg>