<?xml version="1.0"?><svg width="1000" height="1000" viewBox="0 0 1000 1000" xmlns="http://www.w3.org/2000/svg"><title></title><path d="m611 505.3h-223.4c-37.4 0-67.7-30.3-67.7-67.7 0-37.4 30.3-67.8 67.7-67.8h223.4c37.4 0 67.7 30.4 67.7 67.8s-30.3 67.7-67.7 67.7m314.5-239.5h-852.5c-7.1 0-12.9 5.8-12.9 13v688.8c0 7.2 5.8 13 12.9 13h852.5a12.9 12.9 0 0 0 13-13v-688.8a12.9 12.9 0 0 0-13-13m60.1-246.4h-972.6a13 13 0 0 0-13 13v173.1a13 13 0 0 0 13 12.9h972.6a13 13 0 0 0 13-12.9v-173.1a13 13 0 0 0-13-13" fill="#010202" fill-rule="evenodd"></path></svg>