<?xml version="1.0"?><svg width="1000" height="1000" viewBox="0 0 1000 1000" xmlns="http://www.w3.org/2000/svg"><title></title><path d="m313.4 289.5c0 7-4.7 11.7-11.6 11.7-7 0-11.7-4.7-11.7-11.7 0-124.4 94.2-225.5 209.3-225.5 7 0 11.7 4.6 11.7 11.6s-4.7 11.6-11.7 11.6c-102.3 0-186 90.7-186 202.3z m186 384.9s267.5-181.4 267.5-384.9c0-160.4-119.8-289.5-267.5-289.5s-267.4 129.1-267.4 289.5c0 203.5 267.4 384.9 267.4 384.9z m0 11.6s-34.8 32.6-34.8 69.8h69.7c0-37.2-34.9-69.8-34.9-69.8m-5.8 314h11.7v-232.6h-11.7z" fill-rule="evenodd"></path></svg>