<?xml version="1.0"?><svg width="1000" height="1000" viewBox="0 0 1000 1000" xmlns="http://www.w3.org/2000/svg"><title></title><path d="m206.8 577.7c60.2-56.7 128.1-101.8 204.8-135.2-7.2-3.6-13.8-6.9-20.5-10.1-33.1-16.2-66.2-32.3-99.3-48.3-1.7-0.8-4.4-0.9-5.9 0-18.2 9.7-36.3 19.6-54.4 29.4-29.9 16.3-59.8 32.4-89.7 48.7-6.7 3.7-13.4 7.6-20.2 11.2-17.8 9.7-36.2 11.1-55 3.4-22.7-9.2-33-36.5-23.6-60.4 5.6-14.2 15.4-24.4 28.5-31.6 44.3-24.4 88.6-48.5 133-72.8 25-13.6 49.8-27.6 75.1-40.7 19.7-10.2 40.5-11.4 61.2-3 30.5 12.3 61.3 24 91.1 37.6 43.9 20.1 87.3 41.6 130.7 62.7 25.4 12.4 50.8 25.1 75.9 38.2 28.1 14.7 54 32.5 76.1 55.3 26.8 27.5 49.2 57.9 59.2 95.7 0.6 2.3 1.2 4.6 1.6 6.9 1.5 8.6 3.1 7-6 10.6-33.8 13.1-68.6 15.3-104.1 10.3-25.8-3.7-48.8-14.4-71.3-26.6-23.5-12.7-48-22.1-74.6-25.6-46.2-5.9-91-2.1-133.5 19.2-18.4 9.2-36.9 18.5-56.2 25.6-30.3 11.1-62 11.6-93.7 7.1-9.8-1.3-19.3-3.8-29-5.8-0.1-0.6-0.1-1.2-0.2-1.8m781.7-260.1c0.2 78-63.9 140.9-141.9 139.8-75.7-1-138.3-62.1-138.1-140 0.2-80 64.5-141.4 142.7-140.1 76.1 1.2 137.7 63.5 137.3 140.3m-726.9 505.7c-28 0.1-55.8-2.8-82.1-12.6-17.8-6.7-35.1-14.8-51.8-23.8-32.2-17.4-66.1-26.7-102.7-26.1-14.5 0.2-25.1-10.6-25-24.6 0.2-13.6 10.8-23.5 25.3-23.7 45.8-0.7 88.3 11 128.2 33.4 21.4 12.1 43.7 22.3 68.4 26 51.5 7.7 100.8 2.1 146.5-24.8 48.3-28.5 100.7-38.1 156.2-33.8 37.6 2.9 72.2 14.8 104.9 33 24.7 13.8 50.4 24.1 78.9 27.2 48.6 5.2 94.3-2.2 137-27.1 29.9-17.5 62.1-29 96.8-32.3 10.8-1 21.7-1.4 32.6-1.5 13.9-0.2 24.6 10.5 24.5 23.9 0 13.6-10.5 24.3-24.3 24.3-20.5 0-40.5 2.1-60.2 7.7-18.4 5.2-35.2 13.9-51.6 23.1-41.3 23.2-85.5 32.7-132.5 31.8-43.7-0.8-84.4-12.1-122.5-33.5-19.2-10.8-39.1-20.2-61-24.6-22-4.5-44.1-5-66.4-4-34.3 1.6-64.7 14.6-94.2 30.7-42 22.9-77 31.3-125 31.3m475.7-113.6c-43.9 0.7-85.1-9.4-123.7-30.6-18-10-36.3-19.5-56.4-25-25.6-7-51.6-7.8-77.8-6.3-29.3 1.8-56.3 11.1-81.9 25.1-23.8 12.9-48.2 24.7-74.9 30.6-24.1 5.4-48.4 6.7-72.8 6-32.5-0.9-63.8-7.5-93.3-21.3-11.2-5.3-22.3-11-33.2-17-27.4-14.7-56.4-23.1-87.5-23.9-5.6-0.1-11.1 0-16.5-0.8-11.8-1.9-20-12.8-19.2-24.9 0.7-12.3 10.3-22.4 22.5-22.4 11.6-0.1 23.2 1 34.9 1.7 21.6 1.2 42.3 6.9 62 15.3 15.7 6.7 31.1 14.6 46.1 22.7 34.9 18.7 72.1 24.2 111.1 22.3 34.3-1.7 65.4-12.6 95.1-29.5 41.4-23.7 86.1-33.9 133.9-32.9 41.3 1 80 10.3 116.4 30 18.7 10.2 37.7 20.2 58.5 25.9 23.4 6.4 47.2 7.3 71.2 6.5 33.8-1.2 64.3-12.2 93.5-28.5 25.7-14.3 52.6-26 82-30 16.3-2.2 32.9-3.1 49.4-3.5 12.3-0.2 21.8 10 22.6 22.3 0.8 12.5-7.7 23.5-20.2 25-9 1.2-18.2 1.1-27.3 1.7-27.4 1.8-52.6 10.6-76.6 23.5-24.7 13.3-49.7 25.7-77.4 31.9-19.9 4.5-40.2 5.7-60.5 6.1" fill="#010202" fill-rule="evenodd"></path></svg>