<?xml version="1.0"?><svg width="1000" height="1000" viewBox="0 0 1000 1000" xmlns="http://www.w3.org/2000/svg"><title></title><path d="m501.8 240.8h-76.9v-76.8c0-11.2-9-20.2-20.1-20.2h-40.2c-11.1 0-20.1 9-20.1 20.2v76.8h-76.9c-11.2 0-20.2 9.1-20.2 20.2v40.1c0 11.2 9 20.2 20.2 20.2h76.9v76.9c0 11.1 9 20.1 20.1 20.1h40.2c11.1 0 20.1-9 20.1-20.1v-76.9h76.9c11.1 0 20.1-9 20.1-20.2v-40.1c0-11.1-9-20.2-20.1-20.2m309.8 697.1c-14.1 0-25.4-11.5-25.4-25.5 0-14.1 11.3-25.4 25.4-25.4 14 0 25.4 11.3 25.4 25.4 0 14-11.4 25.5-25.4 25.5m25.4-97.3v-66.9c0-68.3-46.5-124-103.6-124h-58.1c-55.3 0-100.7 52.3-103.4 117.8 0 2-0.2 4.1-0.2 6.2l-0.3 102.1c0 39.8-24.2 73.3-52.7 73.3h-58.1c-28.5 0-52.7-33.5-52.7-73.3v-183.8h19.2v-16.9h48.3c66.4 0 120.4-53.5 121.5-119.6l61.5-420.5 0.2-3.7c0-67.1-54.4-121.5-121.5-121.5h-52.6v-0.1c-6.1-5.2-13.9-8.4-22.4-8.4-8.6 0-16.4 3.2-22.4 8.4-5.3 4.7-9.1 11-10.7 18.1a34.7 34.7 0 0 0-0.8 7.4 33.6 33.6 0 0 0 11.5 25.4c6 5.3 13.8 8.5 22.4 8.5 8.5 0 16.3-3.2 22.4-8.5h52.6c38.4 0 69.7 30.8 70.7 68.9l-61.5 420.4-0.2 3.7c0 39-31.8 70.6-70.7 70.6h-48.3v-16.9h-84.8v16.9h-42.4c-38.9 0-70.6-31.6-70.6-70.6v-2.1l-67.6-422.1c1-38.1 32.3-68.8 70.6-68.8h58.5a33.4 33.4 0 0 0 16.6 8c1.9 0.3 3.8 0.5 5.8 0.5 8.6 0 16.4-3.2 22.4-8.5 4-3.5 7.1-8 9.1-13.1 1.5-3.8 2.5-7.9 2.5-12.3 0-4.8-1.1-9.4-2.9-13.5-2.1-4.6-5-8.7-8.7-12-6-5.2-13.8-8.4-22.4-8.4-2 0-3.9 0.2-5.8 0.5-6.3 1.1-12 3.9-16.6 7.9v0.1h-58.5c-66.9 0-121.5 54.4-121.5 121.5v2.1l67.7 422.3c1.1 66 55.2 119.4 121.4 119.4h42.4v16.9h14.8v183.8c0 68.5 46.4 124.2 103.5 124.2h58.1c57.1 0 103.6-55.7 103.6-124.1l0.2-84.9 0.1-17.3c0-39.6 24.2-73.2 52.7-73.2h58.1c28.6 0 52.8 33.6 52.8 73.2v66.9a73.6 73.6 0 0 0-25 14.6c-15.9 14-25.9 34.4-25.9 57.2 0 42.1 34.2 76.3 76.3 76.3 42 0 76.3-34.2 76.3-76.3 0-33.1-21.3-61.4-50.9-71.8" fill="#010202" fill-rule="evenodd"></path></svg>