<?xml version="1.0"?><svg width="1000" height="1000" viewBox="0 0 1000 1000" xmlns="http://www.w3.org/2000/svg"><title></title><path d="m817.9 587c-49.9-23.3-136.1-31.6-200.2-31.6a9.6 9.6 0 0 0-9.6 8.4c-8.2 61.5-43.9 110.8-109 150.7-44.7 27-91.7 40.1-143.9 40.1-15 0-31.6-1-49.2-3-27.1-3.1-28.1-3.1-28.7-3.1a9.7 9.7 0 0 0-8.1 4.2 9.7 9.7 0 0 0-0.8 9.1c14.6 35.3 47.7 65.6 98.3 89.9 47.2 22.7 102.6 36.3 164.9 40.6-2.9 41-26.2 69.9-70.8 88.4a9.6 9.6 0 0 0 3.7 18.5c50.4 0 90.5-7.7 119-22.8 33.1-17 57.9-46.7 73.5-88.3 59.7-8.5 142.8-28.8 189.1-59.7 45.8-30.6 69-66.6 69-107 0-59.3-32.7-104.6-97.2-134.4m-333.1 42.3c53.2-40.4 80.2-90 80.2-147.5 0-57.4-27.1-105.9-80.4-144.2-52.3-37.6-116.4-56.7-190.4-56.7-74.3 0-138.1 18.9-189.4 56.3-53.2 38.6-80.1 87.2-80.1 144.6 0 52.2 30.8 109.9 80.6 151.6-0.9 14.9-9.8 68.6-84.9 87.8a9.7 9.7 0 0 0-7.2 8.4 9.6 9.6 0 0 0 5.4 9.6c13.5 6.6 30.8 10.1 49.9 10.1 54.8 0 118-27.4 133.4-72.6 29.4 8.4 60.5 12.6 92.7 12.6 73.8 0 137.8-20.2 190.2-60m426.2-165.7c-13.7-15.5-32.4-36.6-20.6-82.7 63.2-41 95.2-94.3 95.2-158.4 0-50.9-24.9-125.8-94.6-169-51.3-35.5-115.1-53.5-189.7-53.5s-138.4 18-189.6 53.5c-53.3 37.1-80.4 84.9-80.4 142.1 0 6.5 1.1 35 4.1 47.9a9.6 9.6 0 0 0 8.6 7.5c37.2 2.7 88 27.6 123.4 60.4 32.2 30.2 53.5 64 63.3 100.4a9.6 9.6 0 0 0 6.6 6.7c48.2 14.1 92.7 14.5 136.3 7 13.6 29.8 31.4 52.4 53 67 28.9 19.7 68.8 29.7 118.6 29.7 2.9 0 5.8-0.1 8.8-0.1a9.7 9.7 0 0 0 8.9-6.5 9.7 9.7 0 0 0-2.9-10.6c-39.6-32.9-47.7-40.1-49-41.4" fill="#010202" fill-rule="evenodd"></path></svg>