<?xml version="1.0"?><svg width="1000" height="1000" viewBox="0 0 1000 1000" xmlns="http://www.w3.org/2000/svg"><title></title><path d="m499.5 0c-52.3 0-94.9 42.6-94.9 94.9 0 52.3 42.6 94.8 94.9 94.8 52.3 0 94.8-42.5 94.8-94.8s-42.5-94.9-94.8-94.9m256.7 554.6l-41.7-206.2c-9.7-58.4-41-112.4-102.5-141.6-23.9-11.4-59.2-9.4-77.8-5.1a154.3 154.3 0 0 1-34.7 3.9 154.7 154.7 0 0 1-34.7-3.9c-18.6-4.3-53.9-6.3-77.8 5.1-61.5 29.2-92.8 83.2-102.6 141.6l-41.6 206.2c-5 19.6 1.2 49 33.8 51.9 28.7 2.5 41.7-10.1 47.9-39.1l44.1-209.2c3.2-17.3 7.5-22.3 11.7-22.3 4.2 0 7.1 5 3.5 22.3l-74.6 358.4c-5.1 24.2 10.9 43.9 35.7 43.9h38.9v199.3c0 21.7 22.8 39.3 50.9 39.3h6.3c28.1 0 50.8-17.6 50.8-39.3v-199.3h15.3v199.3c0 21.7 22.8 39.3 50.8 39.3h6.4c28.1 0 50.9-17.6 50.9-39.3v-199.3h38.9c24.8 0 40.8-19.7 35.7-43.9l-74.6-358.4c-3.6-17.3-0.8-22.3 3.4-22.3 4.3 0 8.6 5 11.8 22.3l44.1 209.2c6.1 29 19.2 41.6 47.9 39.1 32.6-2.9 38.8-32.3 33.8-51.9" fill="#010202" fill-rule="evenodd"></path></svg>