<?xml version="1.0"?><svg width="1000" height="1000" viewBox="0 0 1000 1000" xmlns="http://www.w3.org/2000/svg"><title></title><path d="m618.5 734.2c-10.1 1.1-20.4 2.2-30.7 3.3-146.8 15.6-214.8-85.8-214.8-85.8l-335.9-432.2-37.1 126.5 323.8 423.9s100.9 121.1 232.3 142.5c37.4 6 79 9.6 121.2 11.3l-58.8-189.5z m95.5 190.4c21.3 0.4 42.6 0.2 63.2-0.3l-61.8-200c-19.5 1.9-40.1 4-61.5 6.2l60.1 194.1z m106.1-210.5c-18.8 1.8-42.4 4-69.3 6.7l62.5 202.3a1483.6 1483.6 0 0 0 69.2-4.7l-62.4-204.3z m159.8 40.1c-15.9-63.6-112.4-44.6-112.4-44.6s-4.5 0.4-12.7 1.2l62.3 203.9c11.2-1.5 21.3-3 30.1-4.5 77.3-14 50.4-85.4 32.7-156m-133.3-503.6c-148.3 31.7-238.8 122.1-271.2 270.2-80.3-10.5-162.9-93.4-168-169.3 146.7-31.8 236.6-121.3 268.7-268.3 72 1.3 153.5 81.1 170.5 167.4m-215.1 276c19.2-115.5 106.1-202.2 218-219.4 14.6 90.5-84.6 225-218 219.4m-229.3-233.6c-13.8-105.4 104.1-224.3 214.2-216.1 6.5 89.3-113.3 216.3-214.1 216.1" fill="#1D1C1B" fill-rule="evenodd"></path></svg>