<?xml version="1.0"?><svg width="1000" height="1000" viewBox="0 0 1000 1000" xmlns="http://www.w3.org/2000/svg"><title></title><g fill="#010202" fill-rule="evenodd"><path d="m414.3 670s-251.8-2.1-307.2-2.1c-63.9 0-88.1-39-89.1-40.6-2.7-4.6-8.6-6.1-13.2-3.4a9.7 9.7 0 0 0-3.5 13.1l116 201.7c32.4 73 114.8 77.1 118.7 77.2h178.2a9.7 9.7 0 0 0 9.7-9.7v-226.6a9.6 9.6 0 0 0-9.6-9.6m-392.1-71.7c29.8 43.7 82.1 47.3 137.6 47.3l39.9-0.2a9.7 9.7 0 0 0 8.3-4.7l74.6-124.8 52.3 26.1c1.5 0.7 2.4 0.9 4.6 1.1 5.3-0.1 9.8-4.3 9.8-9.7a9.7 9.7 0 0 0-2.7-6.8l-104.6-188.2a9.7 9.7 0 0 0-8.4-5h-219.6a9.6 9.6 0 0 0-9.2 6.7 9.6 9.6 0 0 0 3.5 10.8l54.9 40.5-49.6 103.3c-1.1 2.1-26.5 52.1 8.6 103.6m143.5-362.9l193.2 118.3a9.7 9.7 0 0 0 13.3-3.2s133.2-213.6 162.1-260.9c33.2-54 79.3-54.7 81.2-54.7 4.8 0 9.7-4.1 9.9-9.4a9.7 9.7 0 0 0-9.4-9.9l-232.6-6.3c-79.3-10.8-125.8 57.7-127.8 60.8l-93.1 152a9.6 9.6 0 0 0-1.1 7.3 9.7 9.7 0 0 0 4.3 6m353.1-79.4l-10.7 17.5a9.7 9.7 0 0 0-0.3 9.6l67.6 128.9-49.8 30.9a9.7 9.7 0 0 0-4.2 10.7 9.6 9.6 0 0 0 8.9 7.2l217.6 9.2c0.1 0.1 0.3 0.1 0.4 0.1a9.7 9.7 0 0 0 8.2-4.7l114.7-187.1a9.7 9.7 0 0 0-0.8-11.3c-2.8-3.2-7.2-4.3-11.1-2.7l-63.3 25.6-62.1-96.4c-1.1-1.9-30.8-49.9-92.8-46.6-58.3 2.8-87.9 52-122.3 109.1m462.5 341.5l-93-152a9.7 9.7 0 0 0-6-4.4 9.8 9.8 0 0 0-7.3 1.2l-193.3 118.2a9.7 9.7 0 0 0-3.3 13.2s129.7 215.9 158.6 263.1c33.3 54.5 12.7 95.5 11.8 97.2-2.5 4.7-0.7 10.6 4 13.1a9.5 9.5 0 0 0 4.5 1.1 9.7 9.7 0 0 0 8.5-5l111.4-204.1c45.6-65.7 6-138.2 4.1-141.6"></path><path d="m768.5 665.6a9.7 9.7 0 0 0-8.2-4.7h-0.1l-145.6 1.6-4.9-58.4a9.6 9.6 0 0 0-7.6-8.6c-4-1-8.4 0.9-10.5 4.6l-107.2 189.5a9.7 9.7 0 0 0 0.2 9.9l114.5 187.3a9.7 9.7 0 0 0 10.5 4.3c4-0.9 7-4.4 7.4-8.5l5.9-68.1 114.1-11.4c2.4-0.2 58.3-4.8 83.8-61.4 24-53.2-6.3-102-41.5-158.6l-10.8-17.5z"></path></g></svg>