<?xml version="1.0"?><svg width="1000" height="1000" viewBox="0 0 1000 1000" xmlns="http://www.w3.org/2000/svg"><title></title><path d="m499.9 0c-52.3 0-94.8 42.5-94.8 94.8 0 52.2 42.5 94.8 94.8 94.8s94.7-42.6 94.7-94.8c0-52.3-42.5-94.8-94.7-94.8m34.6 201.5a155 155 0 0 1-34.6 3.9c-12.1 0-23.7-1.4-34.7-3.9-18.5-4.3-53.9-6.3-77.7 5-61.5 29.3-102.5 81.7-102.5 141.6v218.7c0 21.7 18.8 39.2 42.1 39.2 23.2 0 42-17.5 42-39.2v-209c0-21.7 3.4-24 7.6-24 4.2 0 7.6 2.3 7.6 24v601c0 21.7 22.7 39.2 50.8 39.2h6.4c28 0 50.7-17.5 50.7-39.2v-321c0-21.7 3.5-24 7.7-24s7.6 2.3 7.6 24v321c0 21.7 22.7 39.2 50.8 39.2h6.3c28.1 0 50.8-17.5 50.8-39.2v-601c0-21.7 3.4-24 7.6-24 4.2 0 7.6 2.3 7.6 24v209c0 21.7 18.9 39.2 42.1 39.2 23.2 0 42-17.5 42-39.2v-218.7c0-59.9-41-112.3-102.4-141.6-23.9-11.3-59.2-9.3-77.8-5" fill="#010202" fill-rule="evenodd"></path></svg>