<?xml version="1.0"?><svg viewBox="0 0 1000 1000" width="1000" height="1000" xmlns="http://www.w3.org/2000/svg"><path d="m984.5 448.7l-361.3-361.4c-10.3-10.3-24-16-38.7-16-14.7 0-28.4 5.7-38.7 16l-32.8 32.8c-10.3 10.3-16 24.1-16 38.8 0 14.6 5.7 28.8 16 39.1l210.8 211.3h-669.7c-30.2 0-54.1 23.6-54.1 53.8v46.4c0 30.2 23.9 56.2 54.1 56.2h672l-213.1 212.5c-10.3 10.3-16 23.7-16 38.3 0 14.7 5.7 28.3 16 38.6l32.8 32.7c10.3 10.3 24 15.9 38.7 15.9 14.7 0 28.4-5.7 38.7-16l361.4-361.3c10.3-10.4 16-24.2 15.9-38.9 0.1-14.7-5.6-28.5-16-38.8z"></path></svg>