<?xml version="1.0"?><svg viewBox="0 0 1000 1000" width="1000" height="1000" xmlns="http://www.w3.org/2000/svg"><path d="m942.8 409.2l1.6 0.3h-668.5l210.2-210.6c10.3-10.2 15.9-24.2 15.9-38.8 0-14.6-5.6-28.4-15.9-38.7l-32.7-32.8c-10.3-10.2-24-15.9-38.6-15.9-14.6 0-28.3 5.6-38.6 15.9l-360.3 360.2c-10.3 10.3-15.9 24.1-15.9 38.7 0 14.7 5.6 28.5 15.9 38.8l360.3 360.2c10.3 10.3 24 15.9 38.6 15.9 14.6 0 28.3-5.6 38.6-15.9l32.7-32.7c10.3-10.3 15.9-24 15.9-38.6 0-14.6-5.6-27.6-15.9-37.9l-212.5-211.8h670c30.1 0 55.4-25.9 55.4-56v-46.3c0-30.1-26-54-56.2-54z"></path></svg>