<?xml version="1.0"?><svg width="1000" height="1000" viewBox="0 0 1000 1000" xmlns="http://www.w3.org/2000/svg"><path d="m441.2 939.8c-6.6-6.6-9.9-14.2-9.9-22.8s3.3-16.2 9.9-22.8l390.1-390.1-390.1-390.1c-6.6-6.6-9.9-14.3-9.9-22.8 0-8.7 3.3-16.3 9.9-22.9l49.6-49.6c6.6-6.6 14.2-9.9 22.8-9.9s16.2 3.3 22.9 9.9l462.5 462.6c6.6 6.6 9.9 14.2 9.9 22.8 0 8.6-3.3 16.2-9.9 22.8l-462.5 462.5c-6.6 6.7-14.3 10-22.9 10-8.6 0-16.2-3.4-22.8-10l-49.6-49.6z m176.6-458.5c6.7 6.6 10 14.2 10 22.8 0 8.6-3.3 16.2-10 22.8l-462.5 462.5c-6.6 6.7-14.2 10-22.8 10-8.6 0-16.2-3.4-22.8-10l-49.7-49.6c-6.6-6.6-9.9-14.2-9.9-22.8s3.3-16.2 9.9-22.8l390.1-390.1-390.1-390.1c-6.6-6.6-9.9-14.2-9.9-22.8 0-8.7 3.3-16.3 9.9-22.9l49.7-49.6c6.6-6.6 14.2-9.9 22.8-9.9 8.6 0 16.2 3.3 22.8 9.9l462.5 462.6z"></path></svg>