<?xml version="1.0"?><svg viewBox="0 0 1000 1000" width="1000" height="1000" xmlns="http://www.w3.org/2000/svg"><path d="m616 386.9c-8-8-21-8-29 0s-8 21.1 0 29.1c23.2 23.2 36.1 54.1 36.1 87 0 67.8-55.2 123-123.1 123-32.9 0-63.8-12.7-87-36-8-8-21-8-29 0-8 7.9-8 21 0 29 30.9 31 72.1 48.1 116 48.1 90.5 0 164.1-73.6 164.1-164.1 0-43.9-17.1-85.1-48.1-116.1z m-87.4-45.2c-9.3-1.6-18.8-2.8-28.6-2.8-90.5 0-164.1 73.6-164.1 164.1 0 9.7 1.2 19.3 2.9 28.6 1.7 9.9 10.4 16.9 20.1 16.9 1.2 0 2.4-0.1 3.6-0.3 11.1-2 18.6-12.7 16.6-23.8-1.2-7-2.2-14-2.2-21.4 0-67.9 55.2-123.1 123.1-123.1 7.4 0 14.5 0.9 21.5 2.2 10.9 2.2 21.7-5.5 23.7-16.7 2-11.1-5.5-21.7-16.6-23.7z m458.8 148c-4.6-5.5-115.6-135-268.6-214.3-10-5.2-22.5-1.3-27.7 8.8-5.2 10.1-1.3 22.5 8.8 27.7 117.9 61 212.1 156.3 244.3 191.1-48.9 52.9-241.3 246.1-444.2 246.1-68.8 0-138.2-16.6-206.3-49.4-10.1-5-22.4-0.7-27.3 9.6-5 10.1-0.7 22.4 9.5 27.3 73.7 35.6 149.1 53.6 224.1 53.6 252.8 0 478-262.8 487.5-274 6.5-7.6 6.4-18.8-0.1-26.5z m-352.8-250.3c-46.7-15.7-92-23.6-134.6-23.6-252.8 0-478 262.7-487.5 273.9-6 7.1-6.5 17.3-1.1 25 2.8 4.1 70.6 100.4 188.2 178.4a20.2 20.2 0 0 0 11.3 3.5c6.6 0 13.1-3.2 17.1-9.3 6.2-9.4 3.6-22.1-5.8-28.3-86.3-57.4-145.4-126.7-167.5-154.9 47.2-51.3 240.9-247.3 445.3-247.3 38.2 0 79.1 7.2 121.5 21.5 10.8 3.8 22.4-2.1 26-12.9 3.6-10.8-2.1-22.4-12.9-26z m228.6-99.6c-8-8-21-8-29 0l-697.4 697.4c-8 8-8 21 0 29a20.6 20.6 0 0 0 14.5 6c5.2 0 10.5-2 14.5-6l697.4-697.4c8-8 8-21 0-29z"></path></svg>