<?xml version="1.0"?><svg width="1000" height="1000" viewBox="0 0 1000 1000" xmlns="http://www.w3.org/2000/svg"><path d="m609.1 925.5c6.5-6.5 9.8-14 9.8-22.5 0-8.4-3.3-16-9.8-22.5l-384.1-384.1 384.1-384c6.5-6.5 9.8-14.1 9.8-22.5 0-8.5-3.3-16-9.8-22.5l-48.9-48.9c-6.5-6.5-14-9.7-22.4-9.7-8.5 0-16 3.3-22.5 9.7l-455.4 455.5c-6.6 6.5-9.8 14-9.8 22.4 0 8.5 3.2 16 9.8 22.5l455.4 455.5c6.5 6.5 14 9.7 22.5 9.7 8.4 0 15.9-3.2 22.4-9.7l48.9-48.9z m-173.9-451.5c-6.6 6.5-9.8 14-9.8 22.4 0 8.5 3.3 16 9.8 22.5l455.4 455.5c6.5 6.5 14 9.7 22.5 9.7 8.4 0 15.9-3.2 22.4-9.7l48.9-48.9c6.5-6.5 9.8-14 9.8-22.5 0-8.4-3.3-16-9.8-22.5l-384.1-384.1 384.1-384c6.5-6.5 9.8-14.1 9.8-22.5 0-8.5-3.3-16-9.8-22.5l-48.9-48.9c-6.5-6.5-14-9.7-22.4-9.7-8.5 0-16 3.3-22.5 9.7l-455.4 455.5z"></path></svg>