<?xml version="1.0"?><svg viewBox="0 0 1000 1000" width="1000" height="1000" xmlns="http://www.w3.org/2000/svg"><path d="m630.4 165.2c-26.8-15.6-43.3-44.5-43.3-75.7v-0.1c0.1-48.8-39-88.2-87.1-88.2-48.1 0-87.2 39.4-87.2 88.2v0.1c0.1 31.2-16.4 60.1-43.2 75.7-194.1 112.7-82.6 486.9-285.3 553.1v72.7h831.4v-72.7c-202.7-66.2-91.2-440.4-285.3-553.2z m-130.4-122.5c23 0 41.6 18.7 41.6 41.6 0 22.9-18.6 41.6-41.6 41.6s-41.6-18.7-41.6-41.6c0-22.9 18.7-41.6 41.6-41.6z m124.7 831.4c0 66.5-57.9 124.7-123.5 124.7s-125.9-58.2-125.9-124.7h249.4z"></path></svg>