<?xml version="1.0"?><svg xmlns="http://www.w3.org/2000/svg" width="1000" height="1000" viewBox="0 0 1000 1000"><path d="m500 0c-276.1 0-500 223.9-500 500s223.9 500 500 500 500-223.9 500-500-223.9-500-500-500z m323 762.7c-10.8-24.4-32.9-41.2-77.9-51.7-95.6-22-184.6-41.4-141.4-122.7 131-247.6 34.6-380-103.7-380-141.2 0-235.2 137.5-103.7 380 44.4 81.8-47.8 101.1-141.4 122.7-45.1 10.4-67 27.4-77.8 51.9a414.8 414.8 0 0 1-93.8-262.9c0-229.7 187-416.7 416.7-416.7s416.7 187 416.7 416.7a414.8 414.8 0 0 1-93.7 262.7z"></path></svg>