<?xml version="1.0"?><svg xmlns="http://www.w3.org/2000/svg" width="1000" height="1000" viewBox="0 0 1000 1000"><path d="m572.7 333.3s63.4-333.3-139-333.3h-350.4v1000h833.4v-541.7c0-142.5-218.7-156-344-125z m94 368.9c-0.2 70.1-103.6 85.8-121.9 33.8-13.9-39.4 33.2-81.1 80.2-71.9v-121.4l-166.7 39.8v144.6c0 70-104.1 85.8-122.5 33.7-13.9-39.3 33.9-81.1 80.9-71.7v-181.1l250-49.7v243.9z m-59.7-699.1c91.7 49 247.5 203.5 309.7 286.7-53.6-37.5-168.5-69-253.8-49.1 9.2-61.2-7.7-188.9-55.9-237.6z"></path></svg>