<?xml version="1.0"?><svg xmlns="http://www.w3.org/2000/svg" width="1000" height="1000" viewBox="0 0 1000 1000"><path d="m368.6 744.8c7.9-8.8 22.9-17.9 33.4-23.3-6.3 12.5-15.3 25.8-22.7 33-15 14.7-23.1 4-10.7-9.7z m294.3-504.1c85.3-19.9 200.2 11.7 253.8 49.2-62.3-83.3-217.9-237.9-309.7-286.8 48.2 48.7 65.1 176.4 55.8 237.6z m-198.7 425.4c13.6-4.6 43.1-11.4 50.5-13.1-0.8-0.8-22-22.7-29-34.7-5.5 14-21.2 47-21.5 47.8z m26.6-167c-2.3-11.6-10.9-12.5-13.5 0.9-2.4 12.3 1.2 32 5.4 44.1 4.6-9.8 10.6-33.4 8.1-45.1z m425.9-40.8v541.7h-833.4v-1000h350.4c202.4 0 139 333.3 139 333.3 125.4-31 344-17.5 344 125z m-290.9 183.9c-21.9-3.2-53 0.4-74.8 3.9a226.7 226.7 0 0 1-51.4-61.4c10.5-27.1 17.3-48.6 20.1-64 14.8-80-82.5-86.3-72.1-0.5 2.8 23 9.3 45.1 19.4 66.2-11.9 29.6-27.1 62.8-42.4 93-33.8 12.8-58.2 26.1-72.6 39.8-50.5 47.6 12.3 110.8 59.9 42.2 11.4-16.4 24.2-39.8 33.8-58.2a661.2 661.2 0 0 1 97.1-25.7c21.2 16.2 55.1 37.3 82.2 37.3 51.5 0 58.9-64.1 0.8-72.6z m-4.3 29.3c-8.3-1.2-20.3-1.2-34.6 0 9.8 6.5 23.3 13.4 38 13.7 17.2 0.3 15.7-10.8-3.4-13.7z"></path></svg>