<?xml version="1.0"?><svg xmlns="http://www.w3.org/2000/svg" width="1000" height="1000" viewBox="0 0 1000 1000"><path d="m500 83.3c229.8 0 416.7 187 416.7 416.7s-186.9 416.7-416.7 416.7-416.7-187-416.7-416.7 187-416.7 416.7-416.7z m0-83.3c-276.1 0-500 223.9-500 500s223.9 500 500 500 500-223.9 500-500-223.9-500-500-500z m0 239.6c28.8 0 52.1 23.3 52.1 52.1s-23.3 52.1-52.1 52.1-52.1-23.4-52.1-52.1 23.3-52.1 52.1-52.1z m83.3 510.4h-166.6v-41.7c20.1-7.5 41.6-8.3 41.6-30.6v-186.1c0-22.3-21.5-25.8-41.6-33.2v-41.7h125v261.1c0 22.3 21.5 23.2 41.6 30.6v41.7z"></path></svg>