<?xml version="1.0"?><svg xmlns="http://www.w3.org/2000/svg" width="1000" height="1000" viewBox="0 0 1000 1000"><path d="m812.5 500c-103.5 0-187.5 84-187.5 187.5s84 187.5 187.5 187.5 187.5-84 187.5-187.5-84-187.5-187.5-187.5z m104.2 208.3h-83.4v83.4h-41.6v-83.4h-83.4v-41.6h83.4v-83.4h41.6v83.4h83.4v41.6z m-750 0l166.6-248.3 103.4 81.7 105-166.7 77.2 123.5c-52.9 54.3-82.4 128.8-76.1 209.8h-376.1z m450.8 166.7h-617.5v-750h916.7v312.5c-26-10.8-54.1-17.5-83.4-19.8v-209.4h-750v583.4h479.3c13 31.2 31.9 59.3 54.9 83.3z m-388.3-458.3c-34.5 0-62.5-27.9-62.5-62.5 0-34.5 28-62.5 62.5-62.5s62.5 28 62.5 62.5-28 62.5-62.5 62.5z"></path></svg>