<?xml version="1.0"?><svg width="1000" height="1000" viewBox="0 0 1000 1000" xmlns="http://www.w3.org/2000/svg"><title></title><path d="m758 452.5c-17.2-75.5-60.1-135.1-135-135.1h-7.2c-31.8 27.9-72.5 45.3-117.6 45.3-45.5 0-86.4-17.4-117.7-45.3h-7.5c-74.4 0-117.5 51.5-135.2 135.1l-94.9 411.9c0 75.1 59.9 135.5 135.2 135.5h440.2c74.7 0 149.4-63.6 135.4-135.5l-95.7-411.9z m-110.6-302.1c0 82.3-67 149.2-149.2 149.2-82.2 0-149.2-66.9-149.2-149.2 0-82.2 67-149.3 149.2-149.3s149.2 67.1 149.2 149.3" fill="#010202" fill-rule="evenodd"></path></svg>