<?xml version="1.0"?><svg xmlns="http://www.w3.org/2000/svg" width="1000" height="1000" viewBox="0 0 1000 1000"><path d="m969.6 822.6l-497.8-497.7a112.7 112.7 0 0 1-32.6-88.1 219.9 219.9 0 0 0-63.7-172.8 218.7 218.7 0 0 0-155.1-64c-21.2 0-42.4 3-62.8 9l132.1 132.1c14.3 66.2-81.7 163.2-148.6 148.6l-132.1-132.1c-6 20.5-9 41.7-9 62.9a219.3 219.3 0 0 0 236.8 218.8 112.4 112.4 0 0 1 88 32.6l497.8 497.7a103.9 103.9 0 0 0 147-147z m-73.8 114.9a41.7 41.7 0 1 1 0-83.3 41.7 41.7 0 0 1 0 83.3z m-330.6-637.1l222-221.5a124.2 124.2 0 0 1 88-36.6c31.8 0 63.8 12.2 88 36.6a124.6 124.6 0 0 1 0.5 176.4l-222 221.6-43.3-43.3 211.2-210.7a17.9 17.9 0 0 0-0.1-25.4 17.9 17.9 0 0 0-25.4 0l-211.2 210.7-37.1-37.1 211.2-210.8a18 18 0 0 0-25.5-25.5l-211.1 210.8-45.2-45.1z m-147.1 382.5l-217.8 216.1a136.5 136.5 0 0 0-23.9 32.2l-12.5 24.2-87.5 44.6-34.7-34.7 42.7-89.5 24.1-12.5a134.2 134.2 0 0 0 33-23.3l217.8-216 58.8 59z"></path></svg>