<?xml version="1.0"?><svg xmlns="http://www.w3.org/2000/svg" width="1000" height="1000" viewBox="0 0 1000 1000"><path d="m500 90.1c133.5 0 149.3 0.5 202.1 2.9 135.5 6.2 198.7 70.5 205 205 2.4 52.7 2.8 68.5 2.8 202 0 133.6-0.5 149.4-2.9 202.1-6.2 134.4-69.3 198.8-204.9 205-52.8 2.4-68.5 2.9-202.1 2.9-133.5 0-149.3-0.5-202.1-2.9-135.8-6.2-198.7-70.8-204.9-205-2.4-52.7-2.9-68.5-2.9-202.1 0-133.5 0.5-149.2 2.9-202 6.3-134.5 69.3-198.8 205-205 52.7-2.3 68.5-2.9 202-2.9z m0-90.1c-135.8 0-152.8 0.6-206.1 3-181.6 8.3-282.5 109.1-290.9 290.8-2.5 53.4-3 70.5-3 206.2 0 135.8 0.6 152.8 3 206.2 8.3 181.6 109.1 282.5 290.8 290.8 53.4 2.4 70.5 3 206.2 3 135.8 0 152.8-0.6 206.2-3 181.4-8.3 282.6-109.1 290.8-290.8 2.4-53.4 3-70.4 3-206.2 0-135.8-0.6-152.8-3-206.1-8.2-181.4-109-282.5-290.8-290.9-53.3-2.5-70.4-3-206.2-3z m0 243.3a256.8 256.8 0 1 0 0 513.5 256.8 256.8 0 0 0 0-513.5z m0 423.4a166.7 166.7 0 1 1 0-333.4 166.7 166.7 0 0 1 0 333.4z m266.9-493.6a60 60 0 1 0 0 120 60 60 0 0 0 0-120z"></path></svg>