<?xml version="1.0"?><svg xmlns="http://www.w3.org/2000/svg" width="1000" height="1000" viewBox="0 0 1000 1000"><path d="m208.3 708.3h-208.3v-416.6h208.3v416.6z m83.4-416.6v416.6l375 208.4v-833.4l-375 208.4z m458.6 87.2c30.9 30.9 50 73.7 49.9 120.9a170.6 170.6 0 0 1-50.2 120.9l50.9 50.9a242.3 242.3 0 0 0 71.4-171.7 242.1 242.1 0 0 0-70.9-171.9l-51 50.8z m89.3-89c53.6 53.8 86.7 128.1 86.6 210s-33.5 156.3-87.3 210l52.1 52.3a369.9 369.9 0 0 0 109-262.1 368.7 368.7 0 0 0-108.2-262.3l-52.2 52.1z"></path></svg>