<?xml version="1.0"?><svg width="1000" height="1000" viewBox="0 0 1000 1000" xmlns="http://www.w3.org/2000/svg"><title></title><path d="m500 601.8c-141.3 0-255.8-114.5-255.8-255.8 0-141.2 114.5-255.8 255.8-255.8s255.8 114.6 255.8 255.8c0 141.3-114.5 255.8-255.8 255.8m345.3-255.8c0-190.7-154.6-345.3-345.3-345.3-190.7 0-345.3 154.6-345.3 345.3 0 28.4 3.5 56 9.9 82.4 8.5 34.7 22.4 67.1 40.5 96.8h-0.5l264 446.6s31.2 60.6 62.4 2.1l264.1-448.7h-0.3c31.8-52.3 50.5-113.5 50.5-179.2m-345.3-153.1c-84.6 0-153.2 68.5-153.2 153.1s68.6 153.2 153.2 153.2 153.2-68.6 153.2-153.2-68.6-153.1-153.2-153.1" fill="#010202" fill-rule="evenodd"></path></svg>