<?xml version="1.0"?><svg xmlns="http://www.w3.org/2000/svg" width="1000" height="1000" viewBox="0 0 1000 1000"><path d="m1000 189.9a409.6 409.6 0 0 1-117.8 32.3 205.5 205.5 0 0 0 90.2-113.5 411 411 0 0 1-130.3 49.8 204.8 204.8 0 0 0-149.8-64.8c-132.5 0-229.8 123.6-199.8 251.8a582.4 582.4 0 0 1-422.9-214.2 205.4 205.4 0 0 0 63.5 273.8 204.3 204.3 0 0 1-92.9-25.6c-2.2 95 65.9 183.9 164.6 203.7a205.6 205.6 0 0 1-92.7 3.5 205.3 205.3 0 0 0 191.6 142.5 412.5 412.5 0 0 1-303.7 85 580.8 580.8 0 0 0 314.5 92.1c380.9 0 596.1-321.6 583.1-610.2a417.7 417.7 0 0 0 102.4-106.3z"></path></svg>