<?xml version="1.0"?><svg xmlns="http://www.w3.org/2000/svg" width="1000" height="1000" viewBox="0 0 1000 1000"><path d="m320.6 875c-81.9 0-128.8-64.5-153.7-144.2-9.1-29.3-17.7-60.8-59-103-69.1-70.4-107.9-164.5-107.9-250.6 0-143.4 113-252.2 237.2-252.2 147.2 0 258.6 128.9 185.4 330.3l-78.2-28.1c51.6-145.6-17.4-219.5-106.1-219.5-71.3 0-142.4 59.2-153.7 144-9.4 71.3 21.4 155.5 82.6 217.9 57.4 58.5 69.9 104.4 80.8 141.6 12.1 40.5 33 79.6 75 79.6 45.2 0 80-51 29.3-117.8l73-41c84.3 129.1-0.8 243-104.7 243z m-9.9-301.3c-42.3 22.3-80.5-9.9-97.5-49.2-16.3-37.6-6.4-80.6 26.1-115.1 22.4-23.7 33-50.8 28.4-72.5a32.9 32.9 0 0 0-20-24.7c-13.2-5.4-25.2-5.1-36.3 1.1-17.7 9.8-31.8 33.9-36.7 62.7l-50.5-8.6c7.5-44.4 31-81.4 62.5-98.9 24.9-13.7 52.7-15 80.5-3.5a84.1 84.1 0 0 1 50.5 61.2c8.3 38.7-6.7 81.8-41.2 118.3 70.2 17.5 78.8 101.9 34.2 129.1z m329.3 158.7l45-290.1 46 197.5a21.2 21.2 0 0 0 40.3 3.1l41.7-106.6 38.9 90.7a21.2 21.2 0 0 0 36.5 4.1l35.4-48.1h55.7a20.4 20.4 0 0 0 0-41h-66.6a21.3 21.3 0 0 0-17.1 8.7l-19.6 25.5-44.7-104a21.1 21.1 0 0 0-39.1 0.7l-35.3 90.3-54.5-254.2c-5.1-22.9-37.8-21.6-41.5 1.2l-45.1 291.7-46.2-171.6c-5.2-20.5-34-21.7-40.6-1.3l-34.4 112.7h-69.4a20.4 20.4 0 0 0-20.4 20.4v0.5c0 11.2 9.2 20.4 20.4 20.4h86a20.3 20.3 0 0 0 18.1-13.5l17.1-57.8 52 222.5c5.6 22.3 37.7 20.8 41.4-1.7z"></path></svg>