<?xml version="1.0"?><svg xmlns="http://www.w3.org/2000/svg" width="1000" height="1000" viewBox="0 0 1000 1000"><path d="m462 336c2.6-10.2 4.2-17.8 5.6-25.2l-45.8-9-4.6 20.9a198.5 198.5 0 0 0-48.5-0.9c0.4-11.2 1-22.1 2-32.7h51.2v-43.4h-45.1c2.3-11.1 4.2-17.7 6-24l-44.7-13.4a311.9 311.9 0 0 0-8.8 37.4h-51.1v43.5h45.5c-1.2 13.9-1.9 28.5-2 43.2-50.4 18.4-71.7 53.6-71.7 85.5 0 37.7 29.8 70.8 76.8 66.6 58.3-5.3 97.3-49.4 120.2-103.6 23.6 13.6 33.5 36.5 24.5 57.7-8.1 19.6-32.5 38.4-78.7 37.4v46.6c51.4 0.9 101.9-18.7 121.8-65.9 19.4-46.1-2.7-96.5-52.6-120.7z m-60.3 31.9c-7.2 16.1-16.8 32.1-29 44.7a461.3 461.3 0 0 1-3.9-43.9c11.2-1.4 22.4-1.7 33-0.8z m-78.9 15c1.3 19.7 3.5 37.9 6.6 54.1-41.6 7.6-43.2-33.4-6.6-54.1z m-239.5 6.8c0 78.1 35.5 122.6 70.2 164.3 1.2 41.7 3.5 69.5-13.9 132.6 72.8-23.2 84.9-32.4 125.3-57.2 41.7 10.1 61.4 15.8 108.8 20.4a250.3 250.3 0 0 0 2.3 84.3 612.8 612.8 0 0 1-97.1-15.6c-58.2 35.8-186.7 71.9-277.1 88.2 33.9-66.5 71.3-157.8 69.3-221.4a306.9 306.9 0 0 1-71.1-195.6c0-201.1 196.7-348 416.7-348 218.2 0 415.7 145.1 416.5 346.6a402.3 402.3 0 0 0-84.1-13.1c-9.6-139.2-154.8-250.2-332.4-250.2-183.8 0-333.4 118.7-333.4 264.7z m652.4 226.3l30.2 86.3h-60.2l30-86.4z m264.3 69.3c0-131.6-128.7-227.8-272.7-227.8-143.2 0-272.8 95.5-272.8 227.8 0 116.6 109.7 226.7 270.8 226.7 29.1 0 60-3.7 92.2-11.5 38 23.4 122.1 47 181.2 57.8-22.1-43.6-46.5-103.4-45.3-145a200.8 200.8 0 0 0 46.6-128z m-202.1 106.4l-19-52.9h-86l-18.7 52.9h-49.2l87.5-229.2h45.8l87.1 229.2h-47.5z"></path></svg>