<?xml version="1.0"?><svg width="1000" height="1000" viewBox="0 0 1000 1000" xmlns="http://www.w3.org/2000/svg"><title></title><path d="m507 236.5a11.2 11.2 0 0 0-14 0l-358.9 284a11.3 11.3 0 0 0-4.2 8.8v391.1a11.2 11.2 0 0 0 11.2 11.2h257.8a11.2 11.2 0 0 0 11.3-11.2v-320.2h179.7v320.2a11.2 11.2 0 0 0 11.2 11.2h257.7a11.2 11.2 0 0 0 11.2-11.2v-391.1a11.2 11.2 0 0 0-4.3-8.7l-358.7-284.1z m487.8 216.4l-194.3-152.2v-180.2a11.2 11.2 0 0 0-11.3-11.3h-133.8a11.2 11.2 0 0 0-11.3 11.3v57.7l-137.6-107.8a11.2 11.2 0 0 0-13.9 0l-488.3 382.5a11.3 11.3 0 0 0-4.2 7.6 11.3 11.3 0 0 0 2.3 8.2l46.2 58.8a11.2 11.2 0 0 0 15.8 1.9l435.2-340.9 435.2 340.9c4.8 3.8 11.9 3.1 15.7-1.9l46.2-58.8a11.1 11.1 0 0 0 2.3-8.2 11.2 11.2 0 0 0-4.2-7.6" fill="#010202" fill-rule="evenodd"></path></svg>