<?xml version="1.0"?><svg xmlns="http://www.w3.org/2000/svg" width="1000" height="1000" viewBox="0 0 1000 1000"><path d="m1000 833.3v41.7h-166.7v-41.7h34.8c10.8 0 16.9-7.4 13.4-17.6l-19.7-57h-92.9l-24-66.3h95.6l-56.8-169.9-48 143.7-36.7-104 38.5-103.9h92.6l126.4 354.9c4.5 13.1 10.1 20.1 24 20.1h19.5z m-250-41.6h41.7v83.3h-291.7v-83.3h22.2a27.9 27.9 0 0 0 26.3-37l-33.9-88h-259.8l-33.9 88a27.9 27.9 0 0 0 26.4 37h44.4v83.3h-291.7v-83.3h17.9a58.3 58.3 0 0 0 55-39l229.5-627.7h164.6l229.5 627.7c8.2 23.3 28.7 39 53.5 39z m-453.6-250h176.6l-94.2-258.4-82.3 258.4z"></path></svg>