<?xml version="1.0"?><svg xmlns="http://www.w3.org/2000/svg" width="1000" height="1000" viewBox="0 0 1000 1000"><path d="m208.3 291.7a208.3 208.3 0 1 1 0 416.6 208.3 208.3 0 0 1 0-416.6z m463.5 502.7a164.4 164.4 0 0 0-5.1 38.9 166.7 166.7 0 1 0 166.6-166.6 165.6 165.6 0 0 0-122.3 54.1l-228.6-121.9a290.5 290.5 0 0 1-39.3 73.5l228.7 122z m328.2-627.7a166.7 166.7 0 0 0-333.3 0c0 13.5 2.1 26.4 5.1 38.9l-228.7 122c16.4 22.3 29.7 46.9 39.3 73.5l228.6-121.9a165.6 165.6 0 0 0 122.3 54.1 166.7 166.7 0 0 0 166.7-166.6z"></path></svg>