<?xml version="1.0"?><svg xmlns="http://www.w3.org/2000/svg" width="1000" height="1000" viewBox="0 0 1000 1000"><title></title><path d="m417.6 581.2h-133.3c-13.5 4.4-44.9 20.9-44.9 50.9 0 10.5 4.5 18 9 20.9h97.3z m298.1 0h-133.3l73.4 71.8h97.3a30.3 30.3 0 0 0 9-20.9c0-31.5-32.9-46.5-46.4-50.9z m29.9 179.7v36h-76.3v-36h-60v36h-77.8v-33h-63v32.9h-77.8v-36h-60v36h-76.3v-36h-62.9v86.9c0 25.4 10.4 52.4 50.9 61.4 40.4 10.4 188.7 44.9 215.7 50.9 36 9 43.4 37.4 43.4 37.4s7.5-28.4 43.4-37.4c27-5.9 175.3-41.9 215.7-50.8 40.4-10.5 50.9-37.5 50.9-61.4v-86.9h-65.9z m-302.5-377.4v19.4h13.5v-22.5h34.4v22.5h18v-22.5h34.4v22.5h13.6v-19.5h7.5l-64.5-50.9-64.4 50.9z m56.9-52.5a6 6 0 1 0-6-6 6.4 6.4 0 0 0 6 6m10.5-32.9s-3 1.5-4.5 1.5h-1.5v-3c0-1.5 1.5-4.5 1.5-4.5l1.5-3-3 1.5s-3 1.5-4.5 1.5-4.5-1.5-4.5-1.5l-3-1.5 1.5 3s1.5 3 1.5 4.5v3h-1.5c-1.5 0-4.5-1.5-4.5-1.5h-1.4v14.9l1.5-1.5a5.2 5.2 0 0 1 3-1.5h1.5v1.5a33.9 33.9 0 0 1-1.5 6v1.5a10.9 10.9 0 0 1 14.9 0v-1.5a33.9 33.9 0 0 1-1.5-6v-1.5h1.5a5.2 5.2 0 0 1 3 1.5l1.5 1.5v-14.9h-1.5z m-197.7 106.3a7.5 7.5 0 1 1-7.5 7.5 7.1 7.1 0 0 1 7.5-7.5m3 18h-7.5v23.9h7.5z m371.4-18a7.5 7.5 0 1 1-7.5 7.5 7.1 7.1 0 0 1 7.5-7.5m3 18h-6v23.9h6z m113.9-422.4v10.5h-15v-10.5h-21v10.5h-15v-10.5h-22.4v25.5h10.5v40.4h-16.5v24h-31.5v-24h-16.4v-40.4h10.5v-25.5h-22.5v10.5h-15v-10.5h-21v10.5h-15v-10.5h-22.4v25.5h10.5v40.4h-16.5v24h-31.5v-24h-16.5v-40.4h10.5v-25.5h-22.4v10.5h-15v-10.5h-21v10.5h-15v-10.5h-22.4v25.5h10.5v40.4h-16.5v24h-31.5v-24h-16.4v-40.4h10.5v-25.5h-22.5v10.5h-15v-10.5h-20.9v10.5h-15.1v-10.5h-22.4v25.5h10.5v40.4h-16.5v24h-31.5v-24h-16.4v-40.4h10.5v-25.5h-22.5v10.5h-15v-10.5h-21v10.5h-14.9v-10.5h-22.5v25.5h10.5v65.9l37.4 40.4v64.4h-19.5v65.9h594.7v-65.9h-18v-64.4l37.4-40.4v-65.9h10.5v-25.5h-22.4z m-224.7 452.3v60h158.8l-45-60z m-158.8 0h-113.8l-45 60h158.8z m190.3 206.8c-3 1.5-10.5 5.9-21 5.9s-16.4-2.9-21-4.4a48.1 48.1 0 0 1-20.9 4.4c-10.5 0-18-2.9-22.5-5.9-3 2.9-10.5 5.9-25.5 4.4-14.9 0-22.4-2.9-25.4-4.4-4.5 1.5-12 5.9-22.5 5.9a48.1 48.1 0 0 1-21-4.4 48.1 48.1 0 0 1-20.9 4.4c-10.5 0-18-4.4-21-5.9-3 1.5-10.5 2.9-18 4.4v85.4h31.5v36h55.4v-32.9h83.9v32.9h55.4v-36h31.5v-85.4c-7.5 0-15-2.9-18-4.4z m-191.7 68.8h-24v-34.4c3-12 19.5-12 24 0z m46.4 0h-30v-37.4c4.5-13.5 24-13.5 30 0z m49.4 0h-30v-37.4c4.5-13.5 23.9-13.5 29.9 0z m48 0h-30v-37.4c4.4-13.5 23.9-13.5 29.9 0z m41.9 0h-24v-34.4c3-12 19.5-12 24 0z m-254.6-67.4h-98.9v89.9h11.9v36h55.5v-36h43.4v-85.4a103.3 103.3 0 0 1-11.9-4.5z m-65.9 48h-16.5v-19.5a8.9 8.9 0 0 1 16.5 0z m31.4 0h-16.4v-19.5a8.9 8.9 0 0 1 16.4 0z m32.9 0h-16.4v-19.5a8.9 8.9 0 0 1 16.4 0z m299.6-48a28.2 28.2 0 0 1-12 3v85.4h43.4v36h55.5v-36h13.5v-89.9h-100.4z m18 48h-16.5v-19.5a8.9 8.9 0 0 1 16.5 0z m32.9 0h-16.5v-19.5a8.9 8.9 0 0 1 16.5 0z m32.9 0h-16.5v-19.5a8.9 8.9 0 0 1 16.5 0z m-441.8-187.3v52.5h130.3v-52.5z m40.4 36h-16.4v-19.5a8.9 8.9 0 0 1 16.4 0z m32.9 0h-16.4v-19.5a8.9 8.9 0 0 1 16.4 0z m32.9 0h-16.4v-19.5a8.9 8.9 0 0 1 16.4 0z m182.8-36v52.4h130.4v-52.4z m40.4 36h-16.4v-19.5a8.9 8.9 0 0 1 16.4 0z m32.9 0h-16.4v-19.5a8.9 8.9 0 0 1 16.4 0z m32.9 0h-16.4v-19.5a8.9 8.9 0 0 1 16.4 0z m-288.8 97.3a29.9 29.9 0 0 0 13.4 3c12 0 18-4.5 18-4.5h1.5l58.5-125.8-91.4 127.3z m40.4 0c3 1.6 7.5 1.6 15 1.6 10.5 0 17.9-4.5 19.4-6l22.5-128.9z m43.4 0c3 1.6 9 3 19.5 3 12 0 18-1.5 21-3l-21-133.3-19.5 133.3z m-125.8-1.5c3 1.5 6 3 10.5 3 7.5 0 16.5-3 21-4.5h1.5l88.4-119.8-121.4 121.4z m248.7 1.5l-91.4-127.3 58.4 125.8h1.5s6 4.5 18 4.5a29.9 29.9 0 0 0 13.5-3z m-40.5 0l-56.9-131.8 22.5 128.8c1.5 1.5 9 6 19.4 6 6 0 12-1.4 15-3z m82.4-1.5l-122.8-121.3 88.3 119.8h1.5c4.5 1.5 13.5 4.5 21 4.5a23.2 23.2 0 0 0 12-3z m-217.2-218.6v136.3l67.4-65.9-10.5-10.5 15-15 14.9 15-10.4 10.5 67.4 65.9v-136.3h-143.8z m47.9 34.4h-16.4v-19.4a8.9 8.9 0 0 1 16.4 0z m31.5 0h-16.5v-19.4a8.9 8.9 0 0 1 16.5 0z m32.9 0h-16.4v-19.4a8.9 8.9 0 0 1 16.4 0z m-125.8-43.4h170.7v-34.5h-20.9v19.5h-28.5v-21h-19.4v21h-32.9v-21h-19.5v21h-30v-19.5h-19.5v34.5z m86.9 574.6l-0.2-0.9c-0.1-0.3-7.9-28.4-43.3-37.3-28.5-6.3-175.8-40.6-215.7-50.9-18.5-4.1-32.3-12.4-40.7-24.7-6.9-9.8-10.4-22.3-10.4-37v-587.3h617.6v0.2c0 560.2 0 560.2 3 587.1 0 22.1-8.9 50.8-51.1 61.7-22.3 5-77.7 18.2-126.6 29.9-39.6 9.4-77 18.3-89.1 21-35.4 8.9-43.2 37.1-43.3 37.3z m-309.8-737.6v586.8c0 14.6 3.4 27 10.3 36.8 8.4 12.1 22 20.3 40.5 24.4 39.8 10.3 187.2 44.6 215.6 50.9 32.4 8.1 41.9 32.3 43.4 36.9 1.6-4.6 11-28.8 43.4-36.9 12.1-2.7 49.5-11.6 89.1-21 48.9-11.7 104.3-24.9 126.6-29.9 41.9-10.8 50.7-39.2 50.7-61.2-3-26.9-3-26.9-3-586.9z"></path></svg>