<?xml version="1.0"?><svg xmlns="http://www.w3.org/2000/svg" width="1000" height="1000" viewBox="0 0 1000 1000"><path d="m661.5 255.2l-161.5 161.5-161.5-161.5 46.8-46.9 114.7 114.7 114.8-114.7 46.7 46.9z m-161.5-171.9c229.8 0 416.7 187 416.7 416.7s-186.9 416.7-416.7 416.7-416.7-187-416.7-416.7 187-416.7 416.7-416.7z m0-83.3c-276.1 0-500 223.9-500 500s223.9 500 500 500 500-223.9 500-500-223.9-500-500-500z m0 583.3c-97.1 0-172.7 68.2-212.2 116.6l19.6 24.1c53.6-34.1 113.9-54.5 192.6-54.5s139.1 20.4 192.7 54.5l19.6-24.2c-39.5-48.3-115-116.5-212.2-116.5z m-145.8-208.3a62.5 62.5 0 1 0 0 125 62.5 62.5 0 0 0 0-125z m291.6 0a62.5 62.5 0 1 0 0 125 62.5 62.5 0 0 0 0-125z"></path></svg>