<?xml version="1.0"?><svg xmlns="http://www.w3.org/2000/svg" width="1000" height="1000" viewBox="0 0 1000 1000"><path d="m767.3 447c7 54.3-67.7 102.5-93.2 163.8-41.1 103.2 100.2 156.1 146.3 58.3 38.8-82.3-18.9-176.1-53.1-222.2z m4.5 142.1c-17 17.8-39.8 2.6-23.8-17.1 9.4-11.6 19.6-26.8 27.8-43.1 5.3 14.1 9.8 45.7-4 60.2z m-21.8-172.4l-31.5 21s-20.9-39.5-72.7-39.5c-50.3 0-72.8 39.5-72.8 39.5l-31.3-20.9c11.6-31.2 50.2-83.5 104.1-83.5 53.9 0 92.4 52.3 104.2 83.5z m-291.7 0l-31.4 21s-21-39.4-72.7-39.4c-50.4 0-72.8 39.5-72.8 39.5l-31.4-21c11.7-31.2 50.2-83.5 104.2-83.5 53.9 0 92.3 52.3 104.1 83.5z m41.7-416.7c-276.1 0-500 223.9-500 500s223.9 500 500 500 500-223.9 500-500-223.9-500-500-500z m0 916.7c-229.7 0-416.7-187-416.7-416.7s187-416.7 416.7-416.7 416.7 187 416.7 416.7-186.9 416.7-416.7 416.7z m149.3-169.1a99.9 99.9 0 0 1-42.7-0.1 513.9 513.9 0 0 0-106.8-11.7c-34.1 0-69 3.8-106.7 11.7-46.3 9.7-81-10-94-42.3-35.6-88.7 59.4-165.3 200.7-165.3 50.3 0 93.5 9.2 127.6 24.5-12.1 21.8-18.4 38-21.5 66.2-74.9-36.4-265-22.6-239.6 46.6 5.8 15.7 67.2-11.7 133.5-11.7 44.2 0 85 11.9 109.7 15.6 6.7 26.4 17.3 46.5 39.7 66.5z"></path></svg>