<?xml version="1.0"?><svg width="1000" height="1000" viewBox="0 0 1000 1000" xmlns="http://www.w3.org/2000/svg"><title></title><path d="m268.3 327.3h472.6v47.3h-472.6z m0 189h472.6v47.3h-472.6z m0 189.1h472.6v47.3h-472.6z m0-283.6h472.6v47.3h-472.6z m0 189.1h472.6v47.2h-472.6z m0 189h472.6v47.3h-472.6z m425.4-704.2h-94.6v-37.8a47.3 47.3 0 0 0-47.2-47.3h-94.5a47.3 47.3 0 0 0-47.3 47.3v37.8h-94.5a47.3 47.3 0 0 0-47.3 47.3v81.9h472.6v-81.9a47.3 47.3 0 0 0-47.2-47.3z m70.9 53.6v47.2h70.9v756.2h-661.7v-756.2h70.9v-47.2h-118.2v850.7h756.2v-850.7z" fill-rule="evenodd"></path></svg>