<?xml version="1.0"?><svg xmlns="http://www.w3.org/2000/svg" width="1000" height="1000" viewBox="0 0 1000 1000"><path d="m791.7 280.6c0 173.5-156.3 290.8-156.3 427.7h-270.8c0-136.9-156.3-254.3-156.3-427.7 0-181 145.8-280.6 291.5-280.6 145.9 0 291.9 99.8 291.9 280.6z m-187.5 469.4h-208.4a20.8 20.8 0 0 0 0 41.7h208.4a20.8 20.8 0 0 0 0-41.7z m0 83.3h-208.4a20.8 20.8 0 0 0 0 41.7h208.4a20.8 20.8 0 0 0 0-41.7z m10.4 83.4h-229.2l60.4 69.1c8 9 19.5 14.2 31.5 14.2h45.5c12 0 23.4-5.2 31.3-14.2l60.5-69.1z"></path></svg>