<?xml version="1.0"?><svg width="1000" height="1000" viewBox="0 0 1000 1000" xmlns="http://www.w3.org/2000/svg"><title></title><path d="m453.8 998c-94.8-9.4-180-42.4-254.8-98.6-113.2-85.2-183.6-211.7-197.3-354.8-3.2-33.5-1.8-82.9 3.4-118.1 24.7-169.1 136.1-315.2 293.1-384.4 39.5-17.4 86.1-30.9 128.3-37.1 45.9-6.7 100.8-6.7 146.7 0 169.2 24.8 315.2 136.2 384.5 293.2 17.4 39.5 30.8 86.1 37 128.3 6.7 45.9 6.7 100.8 0 146.7-19 130.1-90.2 249-196.1 327.8-74.4 55.4-159.7 88-254 97-20.7 2-70.7 2-90.8 0z m92.7-203.2c64.2-11 119.3-39.1 163.7-83.5 44.5-44.6 72.4-99.2 83.7-164.3 2.2-12.5 2.4-17.7 2.4-46 0-34.6-1-44.6-7.6-71.4-26.2-106.5-110.9-191.3-217.4-217.4-26.8-6.6-36.9-7.7-71.4-7.7-34.5 0-44.6 1.1-71.4 7.7-106.5 26.1-191.3 110.9-217.4 217.4-6.6 26.8-7.7 36.8-7.7 71.4s1.1 44.5 7.7 71.3c28.4 115.6 124.1 203.5 242.2 222.4 19.5 3.1 19.5 3.1 50.9 2.8 23.5-0.3 31.2-0.7 42.3-2.7z m-77.2-88.4c-78.7-12.8-142.3-66.6-166.6-140.9-7.9-24.4-9.3-34.3-9.3-64.5 0-23.8 0.2-27.9 2.5-39.1 4.5-21.8 13.9-47.1 23.7-63.8l2.7-4.8 142.5 142.5c129.2 129.2 142.3 142.5 140.5 143.9-4.2 3.2-28.6 14.4-39.6 18-22.8 7.7-34.1 9.4-62 9.9-18 0.2-27.6-0.1-34.4-1.2z m70.9-245.8l-141.2-141.2 11.7-5.7c13.4-6.5 33.6-13.3 50.2-16.8 10-2.1 14.2-3.7 38-3.7 24.4-0.1 28.8 1.5 40 3.8 75.3 15.5 134.8 68 158.1 139.4 8 24.5 9.8 34.7 11.5 64.2 0 23.9-1.6 28.9-3.7 38.9-3.5 16.6-11.2 37.3-17.7 50.7l-5.6 11.7-141.3-141.3z" fill-rule="evenodd"></path></svg>