<?xml version="1.0"?><svg width="1000" height="1000" viewBox="0 0 1000 1000" xmlns="http://www.w3.org/2000/svg"><title></title><path d="m553.9 49.1c0-25.8-28.4-48.3-60.4-48.3-32.2 0-60.4 22.5-60.4 48.3v193.2h120.8v-193.2z m-144.9 241.6h-141.5c-35.2 0-75.9 16.5-75.9 51.8v253.7l283.9-127.8 19.8-8.9 19.5 9.1 256.4 112.7v-238.8c0-35.3-16.6-51.8-51.9-51.8h-310.3z m-24.7 644.4s110.2 142.7 231.4 0c0 0 71.5 111.2 159.7 37l212.7-237.3-172.1-77.6-21.7-9.9-23.8-10.7-275.1-124.1-297.7 137.6-26.3 12.1-17.5 8.2-142.1 65.7 212.9 235.8c36 29.8 96.5 53.6 159.6-36.8" fill="#010202" fill-rule="evenodd"></path></svg>