<?xml version="1.0"?><svg width="1000" height="1000" viewBox="0 0 1000 1000" xmlns="http://www.w3.org/2000/svg"><title></title><path d="m904.3 939.7h-757.1c-5.4 0-9.9 4.4-9.9 9.9v40.1c0 5.4 4.5 9.9 9.9 9.9h757.1c5.4 0 9.9-4.5 9.9-9.9v-40.1c0-5.5-4.5-9.9-9.9-9.9m-524.4-638c-17.3-29.7-27.3-64.2-27.3-101 0-110.8 89.9-200.7 200.7-200.7 70.8 0 133.1 36.7 168.8 92.1 18.3-6.2 38-9.7 58.4-9.7 99.7 0 180.6 80.9 180.6 180.6 0 19.2-3 37.6-8.5 55 24.7 30.9 39.5 70.1 39.5 112.7 0 99.7-80.8 180.6-180.6 180.6-37.7 0-72.7-11.6-101.6-31.4l35 409.8h-172l35-409.8c-29 19.8-64 31.4-101.7 31.4-99.7 0-180.6-80.9-180.6-180.6 0-50.5 20.8-96.2 54.3-129m-281 249.3c-5.8-22-6.4-42.2 8.5-59.9 9.3-11.1 21.4-17.2 35.9-18.4 12.5-1 24.1 2.2 34.3 9.4 10.6 7.5 18.4 17.5 20.2 30.2 1.6 11.8 0.3 24 0.3 36.2 6.3-2.9 12.8-6.4 19.6-9 35.4-13.5 72.4 12.9 71.3 50.7-0.8 24.5-18.4 44.7-43.6 49.8-5.3 1.1-10.6 1.9-16.6 2.9 5.8 6.2 11.3 11.5 16 17.4 24 30.6 8.3 74.7-29.5 83.5-21 4.9-43.5-4.1-55.3-22.5-3.8-6-7-12.4-10.7-19-3.2 5.9-6 11.6-9.2 17.1-16 27.4-50.7 35.2-76.1 17.2-25.4-18-29.4-53.2-8.8-77.4 4-4.7 8.4-9 13-13.8-9.4-2.4-18.8-3.7-27.4-7-27.7-10.7-40.8-40.3-30.2-67.2 10.8-27.5 41.1-40.5 69-29.4 6.1 2.5 11.9 5.7 19.3 9.2m93.2 67c0-24.4-19.6-44-44-44.1-24.1-0.1-44.2 19.8-44.3 43.9-0.2 24.1 19.7 44.3 43.8 44.4 24.6 0.2 44.5-19.5 44.5-44.2m141.6 123.1c-10.6-14.7-16.9-29.7-10.8-47.2 3.8-10.9 11-19 21.5-24 9.1-4.3 18.6-5.3 28.4-2.8 10 2.6 18.7 7.8 23.7 16.7 4.5 8.4 7.1 17.9 10.6 27 3.9-4 7.8-8.4 12.1-12.3 22.6-20.2 57.7-11.1 67.7 17.5 6.5 18.4-0.9 38.6-18.2 49.6-3.7 2.3-7.4 4.4-11.6 6.9 6.1 3 11.7 5.3 16.9 8.4 26.7 16 27.6 53.4 1.9 70.8-14.3 9.7-33.6 9.4-47.7-1-4.6-3.3-8.8-7.2-13.5-11.1-0.6 5.4-1.1 10.5-1.9 15.5-4.1 25-27.8 40.8-51.9 34.6-24.1-6.2-37.3-31.3-28.8-55.2 1.6-4.7 3.7-9.2 5.7-14-7.7 0.9-15.1 2.5-22.4 2.5-23.8 0-42-18.4-41.9-41.5 0.2-23.6 19.2-42.1 43.1-41.7 5.3 0.1 10.6 0.8 17.1 1.3m88.8 23.3c-7-18.2-27.2-27.2-45.5-20.3-18 6.9-27.3 27.5-20.5 45.5 6.9 18.1 27.4 27.4 45.5 20.6a35.3 35.3 0 0 0 20.5-45.8" fill="#010202" fill-rule="evenodd"></path></svg>