<?xml version="1.0"?><svg xmlns="http://www.w3.org/2000/svg" width="1000" height="1000" viewBox="0 0 1000 1000"><path d="m500 83.3c229.8 0 416.7 187 416.7 416.7s-186.9 416.7-416.7 416.7-416.7-187-416.7-416.7 187-416.7 416.7-416.7z m0-83.3c-276.1 0-500 223.9-500 500s223.9 500 500 500 500-223.9 500-500-223.9-500-500-500z m243.7 519.2c8.4 1.5 8.4 13.8 0 15.4-79.4 15.1-251.9 46.3-272.8 46.3a54.2 54.2 0 0 1-54.2-54.1c0-21.4 32.1-227 46.9-310.3 1.4-8 13-7.5 14.3 0.6l41 259.9 224.7 42.1z"></path></svg>