<?xml version="1.0"?><svg width="1000" height="1000" viewBox="0 0 1000 1000" xmlns="http://www.w3.org/2000/svg"><title></title><path d="m295.8 308.4c0 15.1-31.3 27.4-70 27.4s-70.1-12.3-70.1-27.4 31.4-27.3 70.1-27.3 70 12.2 70 27.3m274.2 0c0 15.1-31.4 27.4-70 27.4-38.7 0-70.1-12.3-70.1-27.4s31.4-27.3 70.1-27.3c38.6 0 70 12.2 70 27.3m226.6 182.2v-137.5h141.1l20.7 137.5h-161.8z m-197.3-1.2h174.4v-136.3h-174.4v136.3z m-192.6 0h174.5v-136.3h-174.5v136.3z m-192.6 0h174.4v-136.3h-174.4v136.3z m-192.7 0h174.5v-136.3h-174.5v136.3z m967.3-27.4l-34.6-115.7c-6.2-20.5-28.9-37.4-50.5-37.4h-864.4c-21.5 0-39.2 17.6-39.2 39v285.3c0 21.4 17.7 39 39.2 39h45.3c-1.1-5.1-1.8-10.4-1.8-15.8 0-40.6 33.1-73.5 73.9-73.5 40.7 0 73.9 32.9 73.9 73.5 0 5.4-0.7 10.7-1.8 15.8h30.1c-1.1-5.1-1.8-10.4-1.8-15.8 0-40.6 33.1-73.5 73.9-73.5 40.7 0 73.9 32.9 73.9 73.5 0 5.4-0.7 10.7-1.8 15.8h379.4c-1.2-5.1-1.9-10.4-1.9-15.8 0-40.6 33.2-73.5 73.9-73.5 40.8 0 74 32.9 74 73.5 0 5.4-0.7 10.7-1.9 15.8h34.2c21.6 0 39.2-17.6 39.2-39v-94.9c0-21.4-5-55.8-11.2-76.3z m-772.1 195c0-33.4-27.2-60.4-60.8-60.4-33.5 0-60.7 27-60.7 60.4 0 33.3 27.2 60.3 60.7 60.3 33.6 0 60.8-27 60.8-60.3m-85.1 0c0-13.4 10.9-24.2 24.3-24.2s24.3 10.8 24.3 24.2c0 13.3-10.9 24.1-24.3 24.1s-24.3-10.8-24.3-24.1m200.7 60.3c33.5 0 60.7-27 60.7-60.4 0-33.3-27.2-60.3-60.7-60.3s-60.7 27-60.7 60.3c0 33.4 27.2 60.4 60.7 60.4m0-84.5c13.4 0 24.3 10.8 24.3 24.1 0 13.4-10.9 24.2-24.3 24.2s-24.3-10.8-24.3-24.2c0-13.3 10.9-24.1 24.3-24.1m523.1 84.5c33.6 0 60.8-27 60.8-60.4 0-33.3-27.2-60.3-60.8-60.3-33.5 0-60.7 27-60.7 60.3 0 33.4 27.2 60.4 60.7 60.4m0-84.5c13.5 0 24.3 10.8 24.3 24.1 0 13.4-10.8 24.2-24.3 24.2-13.4 0-24.2-10.8-24.2-24.2 0-13.3 10.8-24.1 24.2-24.1" fill="#010202" fill-rule="evenodd"></path></svg>