<?xml version="1.0"?><svg width="1000" height="1000" viewBox="0 0 1000 1000" xmlns="http://www.w3.org/2000/svg"><title></title><path d="m896.4 311.5c0.1-57 0.2-114.1 0.2-171.1l0.2-129.5a10.9 10.9 0 0 0-3.2-7.7 10.9 10.9 0 0 0-7.7-3.2l-8.2 0.2-14.6 2.7c-11.6 2.2-23.2 4.4-34.9 6.3a40052.3 40052.3 0 0 1-102.3 16.7l-260.7 42.4c-22.2 3.6-39.2 7.2-56.1 10.8-18 3.9-35 7.5-57.9 11.1-16.8 2.6-16.8 16-16.8 20.4 0.1 137.8 0.1 275.6 0.1 413.4v211.7c-12-0.7-28-1.4-39.2-2l-8.5-0.3c-29-1.5-57.3 3.8-84.5 15.2-31.5 13.3-57.7 33.8-77.9 60.9-30.3 40.6-30.7 99.5-0.9 136.8 17.8 22.3 43 37.3 76.9 45.9 7 1.8 14.2 3.2 21.3 4.4l11.9 2.1h31.2c0.9 0 3.6-0.6 4.5-0.8 1-0.3 2.1-0.6 3.1-0.8 51-8 90.2-28.2 119.7-61.8 22.7-25.8 33.8-53.3 33.9-83.9 0.4-132.5 1-264.9 1.6-397.3l0.6-134.4c60.3-11 124.9-21.9 189.6-32.7 63.5-10.8 127-21.4 186.2-32.1v391.3c-5.4 0.2-11.3 0.3-12.4 0.3-1.4-0.1-2.7-0.2-4.1-0.5-40.3-8-80.6-3.4-119.3 13.4-43.1 18.8-73.1 47.2-89.2 84.5-16.6 38.2-13.4 75.4 9 107.7 22.9 33 57.3 51.9 105 57.7 29.5 3.5 57.9 0.2 89.2-10 72.8-23.8 115.8-82.1 115.1-155.9-1.4-143.9-1.2-290.3-0.9-431.9" fill="#010202" fill-rule="evenodd"></path></svg>