<?xml version="1.0"?><svg width="1000" height="1000" viewBox="0 0 1000 1000" xmlns="http://www.w3.org/2000/svg"><title></title><path d="m102.1 113.1l64.4-34.8-5.6 34.8h-58.8z m244.8 0h-118.5l-5.1-42.4 123.6 42.4z m43.6 686h100.7v-100.8h-100.7v100.8z m190.1 0h100.5v-100.8h-100.5v100.8z m0-140.8h100.5v-100.5h-100.5v100.5z m186.9 140.8h100.7v-100.8h-100.7v100.8z m0-140.8h100.7v-100.5h-100.7v100.5z m0-140.6h100.7v-100.5h-100.7v100.5z m0-140.5h100.7v-100.7h-100.7v100.7z m224.6 492.6h-47.6v-658.6a7.9 7.9 0 0 0-7.9-7.9h-315.4a7.9 7.9 0 0 0-7.9 7.9v57.4a7.9 7.9 0 0 0 7.9 7.9h59.9v100.7h-59.9a7.9 7.9 0 0 0-7.9 7.9v24.2a7.9 7.9 0 0 0 7.9 7.9h59.9v100.5h-100.5v-49a7.9 7.9 0 0 0-7.9-7.9h-73.6a7.9 7.9 0 0 0-7.9 7.9v49h-27.9a7.9 7.9 0 0 0-7.9 7.9v24.3a7.9 7.9 0 0 0 7.9 7.9h27.9v100.5h-100.7v-47.8a7.9 7.9 0 0 0-7.9-7.9h-57.7a7.9 7.9 0 0 0-7.9 7.9v259.3h-37.1v-43.5c0-15.2-12.3-27.4-27.4-27.4h-15.5v-538.7c0.2-0.1 0.3 0 0.4 0a7.9 7.9 0 0 0 8-8c0-1.1-0.3-2.3-0.8-3.3l-3.5-29.8h208.5v86.3h-58a7.9 7.9 0 0 0-7.9 7.9v69.3a7.9 7.9 0 0 0 7.9 7.9h128.8a7.9 7.9 0 0 0 8-7.9v-69.3a7.9 7.9 0 0 0-8-7.9h-57.9v-86.3h62.8a7.9 7.9 0 0 0 7.9-7.9v-90.2a7.9 7.9 0 0 0-7.9-7.9h-148.6l-154.6-53.1-1.4-11.5a7.9 7.9 0 0 0-7.9-7h-33.8a7.9 7.9 0 0 0-7.8 6.7l-2.8 18.2-86.6 46.7h-73.9a7.9 7.9 0 0 0-7.9 7.9v90.2a7.9 7.9 0 0 0 7.9 7.9h136.2l-5 31.9a8 8 0 0 0 1.8 6.4 7.9 7.9 0 0 0 6 2.8v538.7h-11.3c-15.1 0-27.3 12.2-27.3 27.4v43.5h-73.4a7.9 7.9 0 0 0-8 7.9v70.9a7.9 7.9 0 0 0 7.9 7.9h957.3a7.9 7.9 0 0 0 7.9-7.9v-70.9a7.9 7.9 0 0 0-7.9-7.9z" fill="#010202" fill-rule="evenodd"></path></svg>