<?xml version="1.0"?><svg width="1000" height="1000" viewBox="0 0 1000 1000" xmlns="http://www.w3.org/2000/svg"><title></title><path d="m189.9 582.2h752.1v-344.6h-752.1v344.6z m-132.4-110.9v-344.7h752.2v53.5h-648.6c-15.9 0-28.8 12.8-28.8 28.7v262.5h-74.8z m913.3-291.2h-103.6v-82.2c0-15.9-12.9-28.8-28.7-28.8h-809.7c-15.9 0-28.8 12.9-28.8 28.8v402.1c0 15.9 12.9 28.8 28.8 28.8h103.5v82.1c0 15.9 12.9 28.8 28.8 28.8h809.7c15.8 0 28.7-12.9 28.7-28.8v-402.1c0-15.9-12.9-28.7-28.7-28.7z m-373.2 632c0 65.2-52.8 118-118 118-65.1 0-118-52.8-118-118 0-65.1 52.9-118 118-118 65.2 0 118 52.9 118 118m86.3-413.9c0 65.1-52.8 118-118 118s-118-52.9-118-118 52.8-118 118-118 118 52.8 118 118m244.1 260.9c0 73-59.1 132.1-132 132.1-73 0-132.1-59.1-132.1-132.1 0-72.9 59.1-132.1 132.1-132.1 72.9 0 132 59.2 132 132.1" fill="#010202" fill-rule="evenodd"></path></svg>