<?xml version="1.0"?><svg width="1000" height="1000" viewBox="0 0 1000 1000" xmlns="http://www.w3.org/2000/svg"><title></title><path d="m606.1 480.2h67.7v-67.7h-67.7v67.7z m0 149.2h67.7v-67.7h-67.7v67.7z m0 149h67.7v-67.7h-67.7v67.7z m0 149.2h67.7v-67.7h-67.7v67.7z m-141.2-447.4h67.7v-67.7h-67.7v67.7z m0 149.2h67.7v-67.7h-67.7v67.7z m0 149h67.7v-67.7h-67.7v67.7z m-141-298.2h67.7v-67.7h-67.7v67.7z m0 149.2h67.7v-67.7h-67.7v67.7z m0 149h67.7v-67.7h-67.7v67.7z m0 149.2h67.7v-67.7h-67.7v67.7z m412.9-630.8l-232.6-184.2a4.6 4.6 0 0 0-5.7 0l-232.8 184.2a4.7 4.7 0 0 0-1.7 3.6v694.1a4.6 4.6 0 0 0 4.6 4.6h191.7c2.5 0 4.6-2 4.6-4.6v-134.6h67.7v134.6c0 2.6 2.1 4.7 4.6 4.7h196.7c2.6 0 4.6-2.1 4.6-4.7v-694.1c0-1.4-0.6-2.7-1.7-3.6z m82-47.9l-126.9-99.4v-118.2c0-2.5-2.1-4.6-4.7-4.6h-86.7a4.6 4.6 0 0 0-4.6 4.6v43l-93.6-73.3c-1.7-1.3-4-1.3-5.7 0l-316.5 247.9a4.7 4.7 0 0 0-1.8 3.1c-0.1 1.2 0.2 2.5 1 3.4l29.9 38.1c1.6 2 4.5 2.3 6.5 0.8l283.7-222.3 283.8 222.3c0.9 0.7 1.9 1 2.9 1 1.3 0 2.7-0.6 3.6-1.8l29.9-38.1c0.8-0.9 1.1-2.2 1-3.4-0.2-1.2-0.8-2.3-1.8-3.1" fill="#010202" fill-rule="evenodd"></path></svg>