<?xml version="1.0"?><svg width="1000" height="1000" viewBox="0 0 1000 1000" xmlns="http://www.w3.org/2000/svg"><title></title><path d="m133.5 998.8c73.2 0 132.5-59.3 132.5-132.5 0-73.1-59.3-132.5-132.5-132.5s-132.5 59.4-132.5 132.5 59.3 132.5 132.5 132.5m324.7-5.3c-35.8 0-64.7-29-64.7-64.8 0-177.7-144.7-322.4-322.4-322.4-35.8 0-64.8-28.9-64.8-64.7 0-35.8 29-64.8 64.8-64.8 249.1 0 451.9 202.8 451.9 451.9 0 35.8-29 64.8-64.8 64.8m237.7 0c-35.8 0-64.8-29-64.8-64.8 0-308.8-251.2-560-560-560-35.8 0-64.8-29-64.8-64.7s29-64.8 64.8-64.8c380.2 0 689.5 309.3 689.5 689.5 0 35.8-29 64.8-64.7 64.8m237.5 0c-35.7 0-64.7-29-64.7-64.8 0-439.7-357.8-797.5-797.6-797.5-35.8 0-64.8-29-64.8-64.8s29-64.7 64.8-64.7c511.2 0 927.1 415.9 927.1 927 0 35.8-29 64.8-64.8 64.8" fill="#010202" fill-rule="evenodd"></path></svg>