<?xml version="1.0"?><svg width="1000" height="1000" viewBox="0 0 1000 1000" xmlns="http://www.w3.org/2000/svg"><title></title><g fill="#010202" fill-rule="evenodd"><path d="m346 349.6l-0.4 2.7c-3.2 27.7 4.9 54.1 20.8 74.7a102.4 102.4 0 0 0 66.9 39l2.8 0.3c27.7 3.2 54.1-4.9 74.6-20.7a102.5 102.5 0 0 0 39.2-68.4c3.7-28.1-4.5-55.1-20.5-76a102.8 102.8 0 0 0-68.4-39.2c-28.1-3.6-55.1 4.5-76 20.6-20.5 15.8-35.1 39.4-39 67z m42.1 23.3c0-2.7 3.8-4.7 6.5-4.7h5.9v-8.2h-5.9c-2.7 0-6.5-3.1-6.5-5.7v-4c0-2.6 3.8-6.8 6.5-6.8h8c2.3-8.2 7.1-18.1 13.2-25 10.7-12.5 26-18.7 44.2-18.7 9.4 0 18 1.7 24.7 4.1a4.8 4.8 0 0 1 3 5.6l-3.1 12.5-2.3 3-3.8 0.2c-4.7-1.4-10.5-3-16.6-3-9 0-17.4 2.8-23.3 9.9-2.9 3-4.8 7.3-6.2 11.4h42.9c2.7 0 3.5 4.2 3.5 6.8v4c0 2.6-0.8 5.7-3.5 5.7h-45.7c-0.2 0-0.2 2.9-0.2 5v3.2h45.9c2.7 0 3.5 2.1 3.5 4.7v4c0 2.6-0.8 3.6-3.5 3.6h-43.2c1.3 8.3 3.4 10.8 6.3 14 6.1 6.9 15.1 10.4 24.7 10.4 6.1 0 12.2-1.4 16.8-2.9l3.9 0.3 2.3 3.1 2.6 12c0.5 2.3-0.6 4.4-2.7 5.3-6.7 3-16.1 5.4-26.4 5.4-18.9 0-35.9-7.9-46.7-22.1-5.2-6.5-9-13.1-10.7-25.5h-7.6c-2.7 0-6.5-1-6.5-3.6v-4z m371.8-103.8c6.7-51.8-29.9-99.3-81.7-106-51.9-6.7-99.4 30-106 81.8-6.7 51.9 29.9 99.3 81.7 106 51.9 6.7 99.3-29.9 106-81.8z m-58.9 31.3c0 2.2-0.8 6-3 6h-64c-2.1 0-2.9-3.8-2.9-6v-6.3l1.6-3.7c7.7-4 14.9-12.6 14.9-22.4 0-2.2 0-2.7-0.3-6.8h-11.5c-2.2 0-4.7-0.8-4.7-3v-8.5c0-2.1 2.6-5 4.7-5h8.7c-0.9-4.1-1.3-7.8-1.3-12.2 0-19.7 14.3-32.3 35.6-32.3 6.4 0 11.6 1.1 15.3 2.4a4 4 0 0 1 2.5 4.5l-2.2 10.3-1.8 2.6-3.1 0.4a33 33 0 0 0-9.4-1.4c-11.2 0-14.7 6.8-14.7 14.6 0 4.1 0.7 7 1.6 11.1h17.6c2.2 0 4.1 2.8 4.1 5v8.5c0 2.2-1.9 3-4.1 3h-15.6c0.2 4.1-0.2 7.9-1.4 11.6v0.7c-1.4 3.9-3.6 7.8-7.7 11v1.4h38.1c2.2 0 3 0.7 3 2.9v11.6z m-41.8 381.9c63.7 0 115.3-51.7 115.3-115.3 0-63.7-51.6-115.3-115.3-115.3-63.6 0-115.2 51.6-115.2 115.3s51.6 115.2 115.2 115.2m-50.7-95.1h22.8c7.4 0.1 4.1 9.2 8.9 15.4 6.3 7.6 31.4 6.2 37.8 1.8 5.7-3.9 6-13.1 0.7-17.5-12.6-10.3-44.5-8.3-63-24.4-21.2-18.3-12.6-60.5 30.6-63.8 8.4-0.7 1.7-11.9 10.6-11.9 7 0 13.5-1.3 13.4 6.4 0 9.7 13.9 1.2 30.9 16.2 9.5 8.4 17.6 29 6.4 29l-21-0.1c-6.7 0-4.3-6.9-8.8-12.2-5.3-6.3-29.8-6.6-36-1.9-5.2 3.8-5.6 12.5-0.4 16.5 14.4 11.3 74.2 6.9 74.1 50.8-0.1 25.7-17.6 38-42.7 40.4-9.5 0.9-0.4 15.6-10.5 15.5-11.8-0.1-12.9 0.6-12.8-10.3 0-10-15.4-0.8-34-17.6-7.2-6.6-11.3-15.6-12.5-26.3a5.5 5.5 0 0 1 5.5-6"></path><path d="m939 703.4c-9.4 3.9-18.8 7.6-28.2 11.4 5.2-17.6-20.3-29.7-45.7-20.3-5.6 2.1-11.8 4.9-18.6 8.2 2.1-19.1-23.7-30.9-59.8-16.2-8.7 3.6-62.2 33.3-80.5 41.4 31 8.9 60.9 29.6 54.5 66.7-4.2 24.6-22 44.4-48.1 45-100.8 2.5-143 7.8-206.5-21.3-28.2-12.9-44.7-39.2-56.4-67.3 110.1 69.4 134.6 61.5 261.3 58.4 8.5-0.2 19-7.2 19.1-20.1 0.1-30.4-22.9-35.8-65.7-43.6-36.9-6.8-68-9.4-95.5-34.2-53.4-48.2-103.9-77.4-157.7-80.6-53.8-3.1-109.4 11.6-177.9 51.5v197.5c24.2-6.2 60.6-19.2 85.3-25.3 18-4.5 34.2 0.5 50.6 9.2 108.4 57.6 113.8 49.1 236.1 69.6 16.2 2.7 30.3 2.3 46-2.6 153.6-47.4 166.6-60.7 322-158 50.6-31.8 19.7-91.4-34.3-69.4m-741.1 211.8v-276.9a14.1 14.1 0 0 0-16.8-13.9l-181.1 35.6v335.9l188.6-67.4c5.7-2.1 9.3-7.2 9.3-13.3m-113.1-18.3c-15.6 0-28.2-12.7-28.2-28.3 0-15.6 12.6-28.3 28.2-28.3 15.7 0 28.3 12.7 28.3 28.3 0 15.6-12.6 28.3-28.3 28.3m390.7-891.6c-50.7 0-91.8 41.1-91.8 91.7 0 50.7 41.1 91.7 91.8 91.7s91.7-41 91.7-91.7c0-50.6-41.1-91.7-91.7-91.7z m-10.8 144.4l-27.1-37.6v37.6h-23.8v-102h23.8v27.9l24.6-27.9h31.1l-40.4 45.3 40.9 56.7h-29.1z m71.2-55.5h-0.1c-5.3 0-7.7 4.7-8.4 9.3-0.3 1.3-0.4 2.6-0.4 4.2v42h-23.8v-50.8c0-5.8-0.2-11.8-0.5-17.4l-0.6-9.5 23.7 0.2c4-1.5 9-1.8 12.8-1.2l7.5 1.2v23.4l-10.2-1.4z"></path></g></svg>