<?xml version="1.0"?><svg width="1000" height="1000" viewBox="0 0 1000 1000" xmlns="http://www.w3.org/2000/svg"><title></title><path d="m328 390.3c0-19.3-13.3-38.4-30.4-44.5-7.3-3-15.4-4.4-23.6-4.4h-155.8c-27.4 0-50.6 18.5-58.2 48.9l-19.5 86.7c0 1-40.5 9.6-40.5 48.3v16l0.2 60.3c0 6.1 2.4 7.2 8.2 7.2h32.1v32.8c0 17.7 12.5 25.2 30.2 25.2s30.2-7.5 30.2-25.2v-32.8h181.4v32.8c0 17.7 12.5 25.2 30.2 25.2 12.5 0 22.6-3.9 27.2-12.3 2-3.4 3-7.7 3-12.9v-32.8l-14.7-218.5z m-237.6 151c0 13.9-11.2 25.1-25 25.1-13.9 0-25.1-11.2-25.1-25.1 0-13.8 11.2-25.1 25.1-25.1s25 11.3 25 25.1z m226.1-53.4h-240.3l9.2-79.2c4.3-26.1 19.4-41.8 43.1-41.8h135.7c13.6 0 32 0.7 39.8 10.4 6.1 7.1 9 21.6 9 31.7l3.5 78.9z m21.6 50.1c0 12.6-10.2 22.8-22.8 22.8-12.6 0-22.8-10.2-22.8-22.8 0-12.6 10.2-22.8 22.8-22.8 12.6 0 22.8 10.2 22.8 22.8m397.1 105.3v-298c0.2-34.5-35.7-62.5-80-62.5h-293.6c-44.1 0-79.9 28-79.9 62.5v298c0 23.6 16.8 44 41.7 54.7 10.6 4.6 22.8 7.2 35.6 7.6l-77.3 159.9h60.1l77.1-159.9h179l77.1 159.5h60.2l-77.2-159.5c42.9-1.2 77.2-28.9 77.2-62.3z m-139.1-23.3c0-19 15.2-34.4 34.2-34.4 19.1 0 34.3 15.4 34.3 34.4 0 18.9-15.2 34.3-34.3 34.3-19 0-34.2-15.4-34.2-34.3z m-238.9 0c0-9 3.4-17.2 9.2-23.4 6.2-6.8 15.3-11 25.3-11 18.8 0 34.1 15.4 34.1 34.4 0 18.9-15.3 34.3-34.1 34.3-10 0-19.1-4.2-25.3-11-5.8-6-9.2-14.3-9.2-23.3z m71.1-283.9h160v-31.7h-160v31.7z m252.5 120.6c0 34.5-35.8 62.3-80.1 62.3h-184.8c-44.1 0-79.9-27.8-79.9-62.3v-31.3c0-34.4 35.8-62.5 79.9-62.5h184.8c44.3 0 80.1 28.1 80.1 62.5v31.3z m47.3-271.7c-240.4-114.8-441.4-0.4-443.4 0.8-8 4.8-9.7 13.4-3.4 19.8 5.8 6.2 17.2 7.4 25.2 2.8 1.8-1 183-104.2 402.8 0.6a21.1 21.1 0 0 0 9.4 2.2c6 0 12.2-2.4 15.6-6.6 5.1-6.8 2.5-15.6-6.2-19.6m169.4 458.7c-43.5 0-78.9-35.4-78.9-78.9 0-31.1 18.2-57.8 44.3-70.6l24.6 73.6a11.6 11.6 0 0 0 10.9 7.9c1.2 0 2.5-0.2 3.7-0.6a11.5 11.5 0 0 0 7.3-14.5l-24.5-73.5c4.1-0.6 8.3-1.3 12.6-1.3 43.5 0 79 35.5 79 79s-35.5 78.9-79 78.9m0-180.9c-6.9 0-13.6 0.7-20.1 2l-36.7-110.1a11.5 11.5 0 0 0-10.9-7.9h-34.3a11.5 11.5 0 1 0 0 23h26l14.1 42.4h-99.5a11.5 11.5 0 0 0-11.5 11.5 11.5 11.5 0 0 0 11.5 11.5h77.9l-73.4 107.3a11.5 11.5 0 0 0-9.7 0.2c-5.7 2.9-8 9.8-5.2 15.5l4.8 9.5a11.5 11.5 0 0 0 9.5 6.4h0.8a11.5 11.5 0 0 0 9.5-5l92.6-135.2 12.6 38.1c-35.3 16-60 51.5-60 92.8 0 56.2 45.8 102 102 102 56.3 0 102-45.8 102-102s-45.7-102-102-102m-313.5-198.9h-151.9c-7 0-12.7-5.7-12.7-12.8v-55.2a12.7 12.7 0 1 1 25.4 0v42.5h126.5v-42.1a12.7 12.7 0 0 1 12.7-12.7 12.7 12.7 0 0 1 12.7 12.7v54.8a12.7 12.7 0 0 1-12.7 12.8" fill="#1D1C1B" fill-rule="evenodd"></path></svg>