<?xml version="1.0"?><svg width="1000" height="1000" viewBox="0 0 1000 1000" xmlns="http://www.w3.org/2000/svg"><title></title><path d="m317.6 264c-13.9 0-25.2-11.2-25.3-25.1-0.6-62.2 20-121.1 57.9-165.7 38.8-45.7 91-71.1 147-71.5 55.7-0.2 108.6 24 148.1 69.1 38.6 44 60.2 102.5 60.7 164.7 0.1 13.9-11.1 25.4-25.1 25.5h-0.2c-13.9 0-25.2-11.2-25.3-25.1-0.5-50.1-17.5-96.9-48.1-131.7-29.5-33.5-68-51.9-108.6-51.9h-1.1c-41 0.3-79.7 19.4-108.8 53.7-30 35.3-46.3 82.4-45.9 132.5 0.1 14-11.1 25.4-25.1 25.5h-0.2z m366.1 159.3c-21.4 0.2-38.9-17-39-38.3-0.2-21.4 17-38.9 38.4-39 21.3-0.2 38.8 17 38.9 38.3 0.2 21.4-17 38.9-38.3 39m-365.8 0c-21.4 0.2-38.8-17-39-38.3-0.2-21.4 17-38.9 38.4-39 21.3-0.2 38.8 17 39 38.3 0.2 21.4-17 38.9-38.4 39m538.2-133.2h-713.9a20.2 20.2 0 0 0-20.3 20.3v668.2a20.2 20.2 0 0 0 20.3 20.3h713.9a20.2 20.2 0 0 0 20.3-20.3v-668.2a20.2 20.2 0 0 0-20.3-20.3" fill="#010202" fill-rule="evenodd"></path></svg>