<?xml version="1.0"?><svg width="1000" height="1000" viewBox="0 0 1000 1000" xmlns="http://www.w3.org/2000/svg"><title></title><path d="m418 4.1c21.1 18.4 38 40 48.8 66 14.1 33.7 7.6 64.9-12.8 93.8-9.6 13.6-20.8 26.1-31.1 39.3-6.8 8.7-13.3 17.6-19.4 26.7-14.6 21.9-13.4 44.4-1 66.4 6.7 11.8 15.5 22.5 23.2 33.8 4.9 7.1 6.6 14.6 1.8 22.5-4.3 6.9-10.7 10.3-18.7 8.7-4-0.9-8.6-2.9-11.2-5.9-20.1-22.3-36.6-46.9-41.8-77.4-5.3-30.1 4.8-56.1 22.3-79.7 12.5-16.9 26.8-32.5 39.4-49.4 24.6-32.9 24.4-55.1 0.1-88.4-4.5-6.2-9.4-12.1-14.6-17.8-14.7-16.6-14.1-25.4 2.9-38.6h12.1z m-164.8 0c30.3 25.5 52.9 55.6 56.9 96.5 2.4 24.3-6.8 45.4-20.6 64.5-10.6 14.6-22.4 28.3-33.9 42.3-34.6 41.9-35 70.3-1.4 112.8 3.2 4 6.5 7.8 9.1 12.1 5.4 9.1 3.8 19.4-3.5 25.3-7.3 5.9-17.7 6.3-24.7-1.2-45-48.3-62.4-102.8-20.3-158.6 12.4-16.5 26.3-32 38.7-48.6 24.7-32.9 24.5-56 0-89.3-4.5-6.2-9.6-12-14.6-17.8-14.6-16.6-13.6-26.2 4.3-38h10z m327.5 0c30 25.7 52.9 55.6 56.8 96.6 2.2 23.9-6.5 44.9-20.2 63.6-13 17.8-27.7 34.4-41 52-25.8 33.9-26.2 58.2-2.2 93.4 5.1 7.5 11.2 14.2 16.1 21.7 6 9.1 4.3 20.3-3.2 26.3-7.6 6-18.1 6-25.4-2-24.7-27.4-44.1-57.4-43.3-96.3 0.7-30.3 17-53.5 34.7-76.1 13.2-16.9 26.6-33.5 38.6-51.1 11.1-16.4 10.5-34.8 1.2-51.6-7.5-13.6-16.9-26.4-26.9-38.4-13.9-17-13.2-26.4 4.8-38.1h10z m338.9 638.1c-18.9 63.9-91.9 65.4-125.6 62.5 12.7-46.3 21.6-93.8 27.6-141.9 0.3-2.6 0.6-4.8 1-7.3 54 0.1 118.4 14.2 97 86.7m76.5-54.9c-11.1-79.2-116.7-96.6-166.2-100.4 1.6-52.7-22.8-47-131.4-47.4h-567c-145.3 0.6-139.9-10-123.2 123.3 17.6 139.3 57.3 273.1 153.5 387.3 18.8 22.3 54.4 43.5 90.4 45.1h325.6c36-1.6 71.6-22.8 90.4-45.1 44.6-52.9 76.9-110.1 100.6-170 39.2 0 111.4-8.8 149.4-29.6 26.8-14.6 93.6-51.3 77.9-163.2" fill="#010202" fill-rule="evenodd"></path></svg>