<?xml version="1.0"?><svg width="1000" height="1000" viewBox="0 0 1000 1000" xmlns="http://www.w3.org/2000/svg"><title></title><path d="m989.6 981.1l-474.3-772.1 94.3-148.9c5.9-9.3 3.1-21.5-6.1-27.4-9.3-5.8-21.5-3.1-27.3 6.2l-67.8 107v-126.1c0-10.9-8.9-19.8-19.8-19.8s-19.8 8.9-19.8 19.8v139.6l-43.7-68.9c-5.8-9.3-18-12-27.3-6.2-9.2 5.9-12 18.1-6.1 27.4l57.8 91.2-441.3 780.5c-1.7 3.1-1.7 6.8 0.1 9.9 1.8 3 5 4.9 8.5 4.9h311c3.6 0 6.9-1.9 8.7-5.1l155.9-275.7 169.6 276.1a10 10 0 0 0 8.4 4.7h312.4c5.5 0 9.9-4.4 9.9-9.9 0-2.8-1.2-5.4-3.1-7.2" fill="#010202" fill-rule="evenodd"></path></svg>