<?xml version="1.0"?><svg width="1000" height="1000" viewBox="0 0 1000 1000" xmlns="http://www.w3.org/2000/svg" xmlns:xlink="http://www.w3.org/1999/xlink"><title></title><defs><path id="a" d="m948.3 146.4h-897.1v-129.7h897.1v129.7z"></path></defs><g fill="none"><g transform="translate(0 424.5)"><mask id="b"><use xlink:href="#a"></use></mask><path d="m937.9 16.7h-876.2a10.5 10.5 0 0 0-10.5 10.5v108.8a10.5 10.5 0 0 0 10.5 10.4h876.2a10.5 10.5 0 0 0 10.4-10.4v-108.8a10.5 10.5 0 0 0-10.4-10.5" fill="#010202" mask="url(#b)"></path></g><path d="m61.7 834.3h127.3a10.5 10.5 0 0 0 10.4-10.5v-149a10.5 10.5 0 0 0-10.4-10.5h-127.3a10.5 10.5 0 0 0-10.5 10.5v149a10.5 10.5 0 0 0 10.5 10.5m187.1-248.6a10.5 10.5 0 0 0-10.4 10.5v227.6a10.4 10.4 0 0 0 10.4 10.5h127.4a10.4 10.4 0 0 0 10.4-10.5v-227.6a10.5 10.5 0 0 0-10.4-10.5h-127.4z m186.9-198.5a10.5 10.5 0 0 0-10.5 10.5v426.1a10.5 10.5 0 0 0 10.5 10.5h127.3a10.5 10.5 0 0 0 10.5-10.5v-426.1a10.5 10.5 0 0 0-10.5-10.5h-127.3z m186.7 41.2a10.5 10.5 0 0 0-10.4 10.5v384.9a10.5 10.5 0 0 0 10.4 10.5h127.4a10.5 10.5 0 0 0 10.4-10.5v-384.9a10.5 10.5 0 0 0-10.4-10.5h-127.4z m315.5-152.3h-127.4a10.5 10.5 0 0 0-10.4 10.4v537.3a10.5 10.5 0 0 0 10.4 10.5h127.3a10.5 10.5 0 0 0 10.5-10.5v-537.3a10.5 10.5 0 0 0-10.5-10.4m-865.9 282.1h46.7a10.4 10.4 0 0 0 8.1-3.8l234.3-286.9 84 48.9c3.6 2 8 1.8 11.3-0.6l234.4-165.7 42.8 58.4c2.2 3.1 6.1 4.7 10 4.1a10.5 10.5 0 0 0 8.3-6.9l65.9-191.8a10.5 10.5 0 0 0-1.4-9.5 10.5 10.5 0 0 0-8.5-4.4l-206 0.5a10.4 10.4 0 0 0-9.3 5.7 10.4 10.4 0 0 0 0.9 10.9l42.5 58-192.7 136.1-101.5-49.1a10.4 10.4 0 0 0-13 3.4l-265.3 376.2a10.5 10.5 0 0 0-0.8 10.9 10.5 10.5 0 0 0 9.3 5.6" fill="#010202"></path></g></svg>