<?xml version="1.0"?><svg width="1000" height="1000" viewBox="0 0 1000 1000" xmlns="http://www.w3.org/2000/svg"><title></title><path d="m283 1.5c-52.2 0-94.6 42.5-94.6 94.7s42.4 94.6 94.6 94.6c52.2 0 94.6-42.4 94.6-94.6 0-52.2-42.4-94.7-94.6-94.7m34.6 201.3c-10.9 2.5-22.6 3.8-34.6 3.8s-23.6-1.3-34.6-3.8c-18.5-4.3-53.8-6.4-77.6 5-61.4 29.2-102.4 81.5-102.4 141.3v218.5c0 21.6 18.8 39.2 42 39.2s42-17.6 42-39.2v-208.8c0-21.6 3.4-23.9 7.6-23.9 4.2 0 7.6 2.4 7.6 23.9v600.3c0 21.6 22.7 39.2 50.7 39.2h6.4c28 0 50.7-17.6 50.7-39.2v-320.6c0-21.6 3.4-24 7.6-24 4.2 0 7.6 2.4 7.6 24v320.6c0 21.6 22.7 39.2 50.7 39.2h6.4c28 0 50.7-17.6 50.7-39.2v-600.3c0-10.2 0.7-16.1 2-19.5 1.4-3.8 7.8-5.4 13.2 19.5l46.2 200.8c2.7 22.1 18.8 39.2 41.9 39.2 23.2 0 42-17.5 42-39.2l-46.2-210.5c-12.7-63-40.9-112.1-102.3-141.3-23.8-11.4-59-9.3-77.6-5m386.3 147.2c-34 0-61.6 27.7-61.6 61.6 0 34 27.6 61.6 61.6 61.6 33.9 0 61.5-27.6 61.5-61.6 0-33.9-27.6-61.6-61.5-61.6m0 398.7c2.7 0 9.6 1.5 9.6 15.6v208.5c0 14.1 14.7 25.5 32.9 25.5h4.2c18.2 0 32.9-11.4 32.9-25.5v-390.3c0-14.1 2.3-15.6 5-15.6 2.8 0 16.4 5.5 32.9 10.2l70.5 27.1c13.9 2.7 37.3-9.7 40.2-24.6 2.9-14.7-6-28.9-19.8-31.6l-122.3-58.4c-11.5-5.4-20.8-8.4-25-9.3-13.7-2.9-29.4-1.5-38.6 0.6m0 0c-7.1 1.7-23.9 4.4-41.2 0-9.2-2.1-24.8-3.5-38.6-0.6-4.2 0.9-13.5 3.9-25 9.3l-131.7 51.5c-13.8 2.7-22.7 16.8-19.8 31.6 2.9 14.8 23.1 28.5 36.9 25.8l83.2-21.4c16.5-4.7 30.2-10.2 32.9-10.2 2.8 0 5 1.5 5 15.6v390.3c0 14.1 14.7 25.5 33 25.5h4.1c18.2 0 33-11.4 33-25.5v-208.5c0-14.1 6.8-15.6 9.6-15.6" fill="#010202" fill-rule="evenodd"></path></svg>