<?xml version="1.0"?><svg width="1000" height="1000" viewBox="0 0 1000 1000" xmlns="http://www.w3.org/2000/svg"><title></title><path d="m357 20.9l198.9 220.1 5.1 6.1c5 4 10.1 6 17.2 6 7 0 12.1-4 17.1-12.1 11.1-19.2 14.2-54.5 9.1-105l1-13.1c2-10.1 7.1-20.2 14.1-31.3 8.1-11.1 18.2-18.2 31.3-20.2l6.1-2c5.1 0 10.1 2 14.1 4 5.1 3.1 8.1 8.1 9.1 14.2 2 14.1 16.2 132.2 43.4 352.3l98 118.2-12.1 11.1-34.4-3.1a58267 58267 0 0 1-269.5-211c-16.2-12.1-34.4-16.1-53.6-12.1-19.1 3-35.3 14.1-48.4 33.3-9.1 14.2-14.2 30.3-16.2 47.5-2 33.3 9.1 63.6 34.4 90.8l5 6.1c7.1 5.1 15.1 12.1 23.2 20.2l-140.3-8.1c-77.8-61.6-136.3-108-174.7-140.3l-16.1-12.1a85.7 85.7 0 0 1-24.3-29.3c-5-11.1-5-22.2 1-33.3 6.1-9.1 15.2-13.2 27.3-12.2 12.1 0 20.2 2.1 25.2 4.1 5.1 3 9.1 6 11.1 8.1l125.2 84.8 5.1 4c5 3 9.1 5.1 14.1 7.1 4.1 1 7.1 1 9.1 0 7.1-6.1-1-18.2-25.2-37.4-12.1-9.1-59.6-49.5-141.4-123.2l-10.1-9c-6-7.1-10.1-15.2-13.1-25.3-3-10.1-1-20.2 5-32.3 5.1-7.1 10.1-12.1 17.2-13.1 6.1-2 11.1-2 16.2-1 5 1 11.1 4 16.1 7 6.1 4.1 10.1 7.1 12.1 8.1 2.1 2 3.1 4.1 5.1 4.1l157.5 136.3 6 4c4.1 3 8.1 6.1 12.2 8.1 4 2 8 2 12.1 0 2-2 3-4.1 3-5.1 0-2-1-4-2-6l-5.1-5.1-6-6a22 22 0 0 1-5.1-4.1c-4-4-60.5-64.6-172.6-179.7l-9.1-10.1c-5.1-7.1-9.1-15.1-10.1-24.2s2-18.2 10.1-27.3l7.1-7.1c4-3 11.1-5 21.2-4 10.1 0 20.2 6.1 31.3 16.2 23.2 23.2 84.8 86.8 185.7 191.8l3.1 3c1 1 4 3.1 6 3.1 3.1 0 6.1 0 8.1-2.1 4-3 5.1-6 4-9.1a15.6 15.6 0 0 0-2-8c0-1-1-2-2-3.1l-149.4-181.7-8.1-8.1c-4-7-6.1-15.1-6.1-25.2s5.1-18.2 14.2-27.3c9.1-7 17.1-10.1 25.2-10.1 13.1 1 24.3 7.1 33.3 20.2z m118.2 373.6c12.1 9.1 106 81.8 281.7 218.1l152.4 13.1-20.2 278.7-137.3-1c0 1-6 5-20.2 13.1-13.1 7.1-38.3 17.2-74.7 28.3-37.4 11.1-77.7 19.1-122.2 25.2-100.9 11.1-177.7 20.2-229.2 25.2l-19.1 3.1c-12.2 2-25.3 1-38.4-3.1-13.1-4-20.2-12.1-22.2-24.2s1-21.2 10.1-29.3c8.1-7 15.1-12.1 21.2-13.1 5-2 10.1-3 13.1-4l148.4-27.3 6.1-2c5-1 10.1-3 14.1-5.1 5.1-2 8.1-4 8.1-6 1-9.1-14.1-12.1-45.4-8.1-14.2 2-76.8 6.1-186.8 12.1l-12.1 1a50.5 50.5 0 0 1-28.3-8.1c-10.1-5-16.2-14.1-19.2-27.2a29.9 29.9 0 0 1 2-21.2c3.1-5.1 7.1-10.1 12.1-12.1 5.1-2 10.1-4.1 17.2-6.1 6.1-2 11.1-2 13.1-2h7.1l208-17.2 6-1c5.1 0 9.1-1 14.2-3 5-2 8.1-5.1 8.1-8.1 1-3 0-6-4.1-7.1-3-1-11.1-2-23.2-1-5-1-88.9-2-249.4-5h-14.1c-9.1-1-17.2-5.1-25.3-11.1-8-6.1-12.1-15.2-11.1-25.3v-10.1c0-6 4.1-12.1 11.1-19.1 8.1-6.1 19.2-9.1 33.4-9.1l271.6 4a9.2 9.2 0 0 0 7-3c3-2 4.1-4.1 4.1-8.1 1-3 0-6.1-3.1-9.1-3-2-5-3-7-4h-4.1l-245.3-24.3c-7.1-1-14.2-5-21.2-12.1-8.1-7-11.1-16.1-10.1-29.2 1-12.2 6-21.2 14.1-27.3 9.1-6.1 16.2-9.1 22.2-8.1 6.1 1 11.1 1 13.2 0l293.8 16.2h10.1c5 0 10.1-2 15.1-7.1 5.1-5 6.1-12.1 4-21.2-6-20.2-28.2-47.5-68.6-79.8l-8.1-12.1c-6.1-8.1-10.1-18.2-12.1-30.3-2-12.1 1-24.2 8.1-37.3l3-3.1c1-2 3-4 6.1-6 3-2 7-4.1 10.1-4.1 5 1.1 9 2.1 12.1 5.1z" fill-rule="evenodd"></path></svg>