<?xml version="1.0"?><svg width="1000" height="1000" viewBox="0 0 1000 1000" xmlns="http://www.w3.org/2000/svg"><title></title><path d="m790 223.7h-129.5a9.2 9.2 0 0 0-9.3 9.2v129.5a9.2 9.2 0 0 0 9.3 9.2h30c-0.3 19.7-5.4 36.1-15.7 50.1-11.1 15.2-25.1 29.1-41.6 41.3-17.1 12.8-35.6 24.9-55.1 36.1-14.4 8.3-28.2 17.3-41.1 26.9v-343.8h51.8a9.3 9.3 0 0 0 7.9-4.5 9.3 9.3 0 0 0 0.3-9.1l-87.1-164.1c-3.2-6-13.1-6-16.3 0l-87.1 164.1a9.3 9.3 0 0 0 0.2 9.1 9.3 9.3 0 0 0 8 4.5h51.8v473.5c-12.6-10.8-26-21.4-40-31.6-19.3-14.1-37.8-29.3-54.9-45-16.7-15.3-30.7-32-41.7-49.6-10.6-16.8-15.9-36.2-15.9-57.7v-24.5c11.2-6 20.7-14.6 28.1-25.5 8.9-12.8 13.3-27.8 13.3-44.5 0-10.7-2-20.9-6-30.5-4.1-9.4-9.6-17.7-16.6-24.7-7-7-15.3-12.5-24.7-16.5-18.9-8-41.9-8-60.8 0-9.4 4-17.7 9.6-24.7 16.6-7 7-12.6 15.3-16.6 24.7-4 9.4-6 19.6-6 30.4 0 16.7 4.6 31.7 13.6 44.6 7.7 10.9 17.4 19.4 28.9 25.5v20.1c0 23.4 3.4 44.9 10 63.8 6.7 19.1 15.7 36.6 26.7 52.3 10.9 15.4 23.4 29.8 37.1 42.5a583.3 583.3 0 0 0 41.8 35.6c14.2 11 27.9 21.5 41.2 31.4 12.9 9.6 24.6 19.5 35 29.3 10 9.5 18.1 19.4 23.9 29.3 5.5 9.3 8.3 19.4 8.3 30.1v14.1c-8.7 3.3-16.8 7.5-24.2 12.5-9.2 6.4-17.2 14-23.8 22.8-6.7 8.8-11.9 18.6-15.7 29.2-3.9 10.8-5.9 22.4-5.9 34.5 0 14.6 2.8 28.4 8.2 41.1 5.4 12.5 13 23.6 22.4 33 9.4 9.5 20.6 17.1 33.1 22.5 12.6 5.4 26.5 8.2 41.1 8.2 14.3 0 28.1-2.8 41.1-8.2 12.9-5.4 24.3-13 33.7-22.4 9.5-9.6 17.1-20.7 22.6-33 5.7-12.8 8.5-26.6 8.5-41.2 0-11.9-2-23.5-5.8-34.5-4-10.9-9.5-20.8-16.4-29.5a112.4 112.4 0 0 0-24.6-22.5 119.1 119.1 0 0 0-23.8-12.4v-148c0-11.6 2.7-21.9 8.1-30.7 5.9-9.4 13.6-18.2 23.6-26.7 10.7-9 22.3-17.2 34.7-24.6a2272.6 2272.6 0 0 0 41.3-25.3c14-8.8 28-18.5 41.8-28.9 13.7-10.4 26.3-22.5 37.4-36 11.2-13.7 20.3-29.3 26.9-46.6 6.5-16.7 9.9-36 10.2-57.5h29a9.2 9.2 0 0 0 9.3-9.3v-129.5a9.2 9.2 0 0 0-9.3-9.2" fill="#010202" fill-rule="evenodd"></path></svg>