<?xml version="1.0"?><svg width="1000" height="1000" viewBox="0 0 1000 1000" xmlns="http://www.w3.org/2000/svg"><title></title><path d="m527.8 0l-319.2 207.2 221.6 343.6 149.4 2.3 211.6-125.2-263.4-427.9z m-192.2 272.2l203.4-131.2 19.6 30.2-203.4 131.3-19.6-30.3z m62.9 89.5l203.1-131.6 19.6 30.5-203.1 131.3-19.6-30.2z m62.6 86.8l203.1-131.3 19.6 30.2-203.1 131.5-19.6-30.4z m41.2 23.1l2.6 1.8-1 0.7-1.6-2.5z m-316.2 465.4h627.7v-367.1h-627.7v367.1z m658.6 61.9h-689.5c-17.1 0-31-13.9-31-31v-428.9c0-17 13.9-30.9 31-30.9h689.5c17.1 0 30.9 13.9 30.9 30.9v428.9c0 17.1-13.8 31-30.9 31z" fill="#010202" fill-rule="evenodd"></path></svg>