<?xml version="1.0"?><svg width="1000" height="1000" viewBox="0 0 1000 1000" xmlns="http://www.w3.org/2000/svg"><title></title><path d="m112.1 805.5h304.7v-186.2l-304.7 186.2z m471.4 0h304.8l-304.8-186.2v186.2z m-583.2-203.6v135.3l221.5-135.3h-221.5z m333.2 0l-333.2 203.6h74.5l333.3-203.6h-74.6z m333.3 0l333.2 203.6v-45.5l-258.7-158.1h-74.5z m111.8 0l221.4 135.3v-135.3h-221.5z m-778.3-203.7h221.5l-221.5-135.3v135.3z m778.2 0h221.5v-135.3l-221.5 135.3z m-778.2-203.6v45.5l258.7 158.1h74.5l-333.2-203.6z m111.8 0l304.7 186.2v-186.2h-304.7z m338.1 0v244.4h-449.9v122.2h449.9v244.3h99.9v-244.4h449.9v-122.1h-449.9v-244.4h-99.9z m133.3 0v186.2l304.8-186.2h-304.8z m342 0l-333.2 203.6h74.5l333.2-203.6h-74.5z" fill-rule="evenodd"></path></svg>