<?xml version="1.0"?><svg viewBox="0 0 1000 1000" width="1000" height="1000" xmlns="http://www.w3.org/2000/svg"><path d="m997.4 460.4c-7.8-11.4-196.8-279.3-495.4-279.3-256.3 0-484.7 266.4-494.3 277.7-6.6 7.8-6.6 19.1 0 26.9 9.6 11.4 238 277.8 494.3 277.8s484.6-266.4 494.2-277.8c6.1-7.2 6.6-17.5 1.2-25.3z m-495.4 261.5c-205.5 0-400.9-196-450.5-249.6 49.6-53.7 244.7-249.6 450.5-249.6 240.4 0 410 195.6 451.5 248.4-47.9 52-244.3 250.8-451.5 250.8z m0-416c-91.8 0-166.4 74.6-166.4 166.4s74.6 166.4 166.4 166.4 166.4-74.7 166.4-166.4-74.7-166.4-166.4-166.4z m0 291.2c-68.8 0-124.8-56-124.8-124.8s56-124.8 124.8-124.8 124.8 56 124.8 124.8-56 124.8-124.8 124.8z"></path></svg>