<?xml version="1.0"?><svg width="1000" height="1000" viewBox="0 0 1000 1000" xmlns="http://www.w3.org/2000/svg"><path d="m969.5 457.1c-60.2-149.6-222.6-224.4-487.3-224.4h-124.8v-142.6c0-9.7-3.5-18-10.6-25.1-7.1-7.1-15.4-10.6-25.1-10.6-9.7 0-18 3.5-25.1 10.6l-285 285.2c-7.1 7.1-10.6 15.4-10.6 25.1 0 9.7 3.5 18 10.6 25.1l285.1 285.1c7.1 7 15.4 10.6 25.1 10.6 9.6 0 18-3.5 25.1-10.6 7.1-7 10.6-15.4 10.6-25.1v-142.6h124.7c36.4 0 68.9 1.1 97.7 3.3 28.8 2.2 57.4 6.2 85.8 12s53.1 13.6 74.1 23.7c21 10 40.6 22.9 58.8 38.7 18.2 15.8 33 34.5 44.6 56.3 11.5 21.7 20.5 47.4 27 77.1 6.5 29.7 9.7 63.3 9.7 100.8 0 20.4-0.9 43.3-2.8 68.5 0 2.2-0.5 6.6-1.4 13.1-0.9 6.5-1.4 11.4-1.4 14.8 0 5.6 1.6 10.2 4.7 13.9 3.2 3.7 7.5 5.6 13.1 5.6 5.9 0 11.1-3.2 15.6-9.5 2.6-3.3 5-7.4 7.2-12.3 2.2-4.8 4.7-10.4 7.5-16.7 2.8-6.3 4.7-10.8 5.8-13.4 47.2-105.8 70.8-189.5 70.8-251.1 0-73.9-9.9-135.7-29.5-185.5z"></path></svg>