<?xml version="1.0"?><svg xmlns="http://www.w3.org/2000/svg" width="1000" height="1000" viewBox="0 0 1000 1000"><g transform="translate(0 -.254) scale(1.949)"><path d="m448 283.9v-177.2c0-23.6-19.1-42.7-42.7-42.7h-44.5a10.7 10.7 0 0 1-7.5-3.1l-30.2-30.2c-6-6-14.1-9.4-22.6-9.4h-89c-8.5 0-16.6 3.4-22.6 9.4l-30.2 30.2a10.7 10.7 0 0 1-7.5 3.1h-44.5c-23.6 0-42.7 19.1-42.7 42.7v177.2c-52.3 22-64 47.6-64 65.5 0 49.4 86.2 87.8 205.9 94.8l-13.1 13.1c-4.2 4.2-4.2 11 0 15.1l15.1 15.1c4.1 4.2 10.9 4.2 15.1 0l48.3-48.3c8.3-8.3 8.3-21.8 0-30.2l-43.6-43.6c-4.2-4.1-10.9-4.1-15.1 0l-15.1 15.1c-4.2 4.2-4.2 10.9 0 15.1l5.7 5.7c-106.6-7.4-159.2-40.9-160.5-51.8 0.3-2.3 6.7-12.2 31.4-23.6 7.8 9.4 19.4 15.4 32.6 15.4h298.6c13.2 0 24.8-6.1 32.6-15.4 24.6 11.3 31.2 21.4 31.4 23.2-1.5 8.1-39.2 40-141.7 50.6l-10.6 1.1c-5.8 0.6-10.1 5.8-9.5 11.7l2.2 21.2c0.6 5.9 5.9 10.1 11.7 9.5l10.6-1.1c107.7-11.1 180-48.4 180-92.7 0-18-11.7-43.6-64-65.5z m-192-6.6c-47.1 0-85.3-38.2-85.3-85.3s38.2-85.3 85.3-85.3 85.3 38.2 85.3 85.3-38.2 85.3-85.3 85.3z m128-128c-11.8 0-21.3-9.5-21.3-21.3s9.5-21.3 21.3-21.3 21.3 9.5 21.3 21.3-9.5 21.3-21.3 21.3z"></path><circle cx="256" cy="192" r="64"></circle></g></svg>