<?xml version="1.0"?><svg width="1000" height="1000" viewBox="0 0 1000 1000" xmlns="http://www.w3.org/2000/svg"><path d="m590.1 640.3c60.4-25.5 108.2-60.2 143.1-104.1 35-43.9 52.4-91.7 52.4-143.4s-17.5-99.5-52.5-143.4c-35-43.9-82.7-78.6-143.1-104.1-60.5-25.5-126.2-38.2-197.3-38.2-71.1 0-136.8 12.7-197.3 38.2-60.5 25.5-108.2 60.2-143.1 104.1-34.8 43.9-52.3 91.7-52.3 143.4 0 44.3 13.2 86 39.6 125 26.4 39.1 62.7 72 108.8 98.8-3.7 8.9-7.5 17.1-11.4 24.6-3.9 7.4-8.6 14.6-14 21.5s-9.6 12.3-12.6 16.2c-3 3.9-7.8 9.4-14.5 16.5s-11 11.7-12.8 13.9c0-0.4-0.7 0.5-2.2 2.5-1.5 2-2.3 3-2.5 2.8-0.2-0.2-0.9 0.7-2.2 2.8-1.3 2-2 3.1-2 3.1l-1.4 2.8c-0.6 1.1-0.9 2.2-1.1 3.3-0.2 1.1-0.3 2.3-0.3 3.6 0 1.3 0.2 2.5 0.6 3.6 0.7 4.8 2.9 8.7 6.4 11.7 3.5 3 7.3 4.5 11.4 4.5h1.7c18.6-2.6 34.6-5.6 48-8.9 57.3-14.9 109-38.7 155.1-71.4 33.5 6 66.2 8.9 98.2 8.9 71.1-0.1 136.9-12.8 197.3-38.3z m370.3 20.7c26.4-38.9 39.6-80.6 39.6-125.3 0-45.8-14-88.6-41.9-128.4-27.9-39.8-65.9-72.9-113.8-99.3 8.5 27.9 12.8 56.2 12.8 84.8 0 49.8-12.4 97.1-37.4 141.7-24.9 44.6-60.6 84.1-107.1 118.3-43.2 31.2-92.3 55.2-147.3 72-55 16.7-112.5 25.1-172.4 25.1-11.2 0-27.5-0.7-49.1-2.2 74.8 49.1 162.6 73.7 263.4 73.7 32 0 64.7-3 98.2-8.9 46.1 32.7 97.8 56.5 155.1 71.4 13.4 3.4 29.4 6.3 48 8.9 4.5 0.4 8.6-0.9 12.3-3.9 3.7-3 6.1-7.1 7.3-12.3-0.2-2.2 0-3.5 0.6-3.6 0.5-0.2 0.5-1.4-0.3-3.6-0.7-2.2-1.1-3.4-1.1-3.4l-1.4-2.8c-0.4-0.7-1-1.8-2-3.1-0.9-1.3-1.7-2.2-2.2-2.8-0.5-0.6-1.4-1.5-2.5-2.8-1.1-1.3-1.9-2.1-2.2-2.5-1.9-2.2-6.1-6.9-12.8-14-6.7-7.1-11.5-12.5-14.5-16.5-3-3.9-7.2-9.3-12.6-16.2-5.4-6.9-10-14-14-21.5-3.9-7.4-7.7-15.6-11.4-24.5 46-26.6 82.3-59.4 108.7-98.3z"></path></svg>