<?xml version="1.0"?><svg xmlns="http://www.w3.org/2000/svg" width="1000" height="1000" viewBox="0 0 1000 1000"><path d="m932.1 558.9c19.6-29.7 29.4-62.3 29.4-98 0-41.3-15.2-77.1-45.6-107.6-30.5-30.4-66.5-45.7-108.2-45.7h-105.8c19.2-39.7 28.9-78.1 28.9-115.4 0-46.9-7-84.1-21-111.8-14-27.7-34.5-48-61.3-61-26.9-12.9-57.2-19.4-90.8-19.4-20.4 0-38.5 7.4-54.1 22.2-17.2 16.8-29.6 38.5-37.3 64.9-7.6 26.4-13.7 51.8-18.3 76-4.6 24.2-11.7 41.4-21.3 51.4-19.6 21.2-41.1 46.9-64.3 76.9-40.5 52.5-67.9 83.5-82.3 93.1h-164.7c-21.2 0-39.4 7.5-54.4 22.5s-22.5 33.2-22.5 54.4v384.6c0 21.2 7.5 39.4 22.5 54.4s33.2 22.5 54.4 22.5h173.1c8.8 0 36.5 8 82.9 24 49.3 17.2 92.6 30.3 130.1 39.4 37.5 9 75.4 13.5 113.9 13.5h77.5c56.5 0 102-16.1 136.4-48.4 34.4-32.3 51.5-76.2 51.1-131.9 24-30.9 36.1-66.5 36.1-107 0-8.8-0.6-17.4-1.8-25.8 15.2-26.8 22.8-55.7 22.8-86.5 0-14.3-1.8-28.1-5.4-41.3z m-751.2 275.8c-7.6 7.6-16.6 11.4-27 11.4-10.4 0-19.4-3.8-27-11.4-7.6-7.6-11.4-16.6-11.4-27 0-10.4 3.8-19.4 11.4-27 7.6-7.6 16.6-11.4 27-11.4 10.4 0 19.4 3.8 27 11.4 7.6 7.6 11.4 16.6 11.4 27 0 10.4-3.8 19.4-11.4 27z m690.8-324.5c-8.6 18.4-19.3 27.8-32.2 28.2 6 6.8 11 16.3 15 28.5s6 23.3 6 33.4c0 27.6-10.6 51.5-31.8 71.5 7.2 12.8 10.8 26.6 10.8 41.5 0 14.8-3.5 29.5-10.5 44.2-7 14.6-16.5 25.1-28.5 31.5 2 12 3 23.2 3 33.7 0 66.9-38.5 100.4-115.4 100.4h-72.7c-52.5 0-121-14.6-205.5-43.9-2-0.8-7.8-2.9-17.4-6.3-9.6-3.4-16.7-5.9-21.3-7.5-4.6-1.6-11.6-3.9-21-6.9-9.4-3-17-5.2-22.8-6.6-5.8-1.4-12.4-2.7-19.8-3.9-7.4-1.2-13.7-1.8-18.9-1.8h-19.2v-384.6h19.2c6.4 0 13.5-1.8 21.3-5.4 7.8-3.6 15.8-9 24-16.2 8.2-7.2 15.9-14.3 23.1-21.3 7.2-7 15.2-15.8 24-26.4 8.8-10.6 15.7-19.1 20.7-25.5 5-6.4 11.3-14.6 18.9-24.6 7.6-10 12.2-16 13.8-18 22-27.2 37.5-45.5 46.3-54.7 16.4-17.2 28.3-39.2 35.8-65.8 7.4-26.6 13.5-51.8 18.3-75.4 4.8-23.6 12.4-40.7 22.9-51.1 38.5 0 64.1 9.4 76.9 28.2 12.8 18.8 19.2 47.9 19.2 87.1 0 23.6-9.6 55.8-28.9 96.4-19.2 40.7-28.8 72.6-28.8 95.9h211.5c20.1 0 37.9 7.7 53.5 23.1 15.6 15.4 23.5 33.3 23.5 53.8-0.1 13.9-4.4 30.1-13 48.5z"></path></svg>