<?xml version="1.0"?><svg xmlns="http://www.w3.org/2000/svg" width="1000" height="1000" viewBox="0 0 1000 1000"><path d="m965.6 553.1c22.9-26.2 34.4-57.3 34.4-93.1 0-32.5-11.9-60.6-35.6-84.4-23.7-23.7-51.9-35.6-84.4-35.6h-173.1c1.7-5.8 3.3-10.8 5-15 1.6-4.2 4-8.8 6.9-13.8 2.9-5 5-8.8 6.2-11.2 7.5-14.2 13.2-25.8 17.2-35s7.9-21.7 11.9-37.5 5.9-31.7 5.9-47.5c0-10-0.1-18.1-0.3-24.4-0.2-6.2-1.3-15.6-3.1-28.1-1.9-12.5-4.4-22.9-7.5-31.2-3.1-8.3-8.1-17.7-15-28.1-6.9-10.4-15.2-18.9-25-25.3-9.8-6.5-22.3-11.9-37.5-16.2-15.2-4.5-32.4-6.7-51.6-6.7-10.8 0-20.2 4-28.1 11.9-8.3 8.3-15.4 18.7-21.3 31.2-5.8 12.5-9.9 23.3-12.2 32.5-2.3 9.2-4.9 21.9-7.8 38.1-3.8 17.5-6.6 30.1-8.4 37.8-1.9 7.7-5.5 17.8-10.9 30.3s-11.9 22.5-19.4 30c-13.7 13.7-34.8 38.7-63.1 75-20.4 26.7-41.5 51.9-63.1 75.6-21.7 23.8-37.5 36-47.5 36.9-10.4 0.8-19.4 5.1-26.9 12.8-7.5 7.7-11.3 16.8-11.3 27.2v400.7c0 10.8 4 20.1 11.9 27.8 7.9 7.7 17.3 11.8 28.1 12.2 14.6 0.4 47.5 9.6 98.8 27.5 32.1 10.8 57.2 19.1 75.3 24.7 18.1 5.6 43.5 11.7 75.9 18.1 32.5 6.5 62.5 9.7 90 9.7h80.6c55.4-0.8 96.5-17.1 123.1-48.7 24.2-28.8 34.4-66.5 30.6-113.1 16.2-15.4 27.5-35 33.7-58.7 7.1-25.4 7.1-49.8 0-73.1 19.2-25.4 28.1-54 26.9-85.6 0.1-13.5-3-29.3-9.3-47.7z m-745.6-133.1h-180c-10.8 0-20.2 4-28.1 11.9-7.9 7.9-11.9 17.3-11.9 28.1v400c0 10.8 4 20.2 11.9 28.1 7.9 7.9 17.3 11.9 28.1 11.9h180c10.8 0 20.2-4 28.1-11.9 7.9-7.9 11.9-17.3 11.9-28.1v-400c0-10.8-4-20.2-11.9-28.1-7.9-7.9-17.3-11.9-28.1-11.9z m-71.9 388.4c-7.9 7.7-17.3 11.6-28.1 11.6-11.3 0-20.7-3.9-28.4-11.6-7.7-7.7-11.6-17.1-11.6-28.4 0-10.8 3.9-20.2 11.6-28.1 7.7-7.9 17.1-11.9 28.4-11.9 10.8 0 20.2 4 28.1 11.9 7.9 7.9 11.9 17.3 11.9 28.1 0 11.3-3.9 20.7-11.9 28.4z"></path></svg>