<?xml version="1.0"?><svg viewBox="0 0 1000 1000" width="1000" height="1000" xmlns="http://www.w3.org/2000/svg"><path d="m852.9 146.4c-94.4-94.5-219.7-146.4-353.2-146.4s-258.9 51.9-353.3 146.4-146.4 219.7-146.4 353.3 51.9 258.8 146.4 353.2 219.7 146.4 353.3 146.4 258.8-51.9 353.2-146.4 146.4-219.7 146.4-353.2-51.9-258.9-146.4-353.3z m-40.1 666.4c-83.7 83.7-195 129.7-313.1 129.7s-229.5-46-313.2-129.7c-172.6-172.7-172.6-453.6 0-626.3 83.7-83.7 195-129.7 313.2-129.7s229.4 46 313.1 129.7c172.6 172.7 172.6 453.6 0 626.3z m-93-533.3a28.3 28.3 0 0 0-40.1 0l-180 180-180.1-180a28.3 28.3 0 0 0-40.1 0 28.3 28.3 0 0 0 0 40.1l180 180.1-180 180a28.3 28.3 0 0 0 0 40.1c5.4 5.5 12.8 8.4 20 8.4s14.5-2.7 19.9-8.4l180-180 180.1 180c5.4 5.5 12.8 8.4 19.9 8.4 7.4 0 14.5-2.7 20-8.4a28.3 28.3 0 0 0 0-40.1l-179.6-180 180-180.1a28.3 28.3 0 0 0 0-40.1z"></path></svg>