<?xml version="1.0"?><svg width="1000" height="1000" viewBox="0 0 1000 1000" xmlns="http://www.w3.org/2000/svg"><path d="m59.8 421.1c6.6-6.7 14.3-10 22.9-10 8.7 0 16.3 3.3 23 10l391.8 391.8 391.8-391.8c6.6-6.7 14.3-10 22.9-10 8.6 0 16.3 3.3 22.9 10l49.9 49.8c6.6 6.7 9.9 14.3 9.9 22.9 0 8.7-3.3 16.3-9.9 23l-464.6 464.6c-6.7 6.6-14.3 9.9-22.9 9.9-8.7 0-16.3-3.3-23-9.9l-464.5-464.6c-6.7-6.7-10-14.3-10-22.9 0-8.7 3.3-16.3 10-23l49.8-49.8z m460.6 177.4c-6.7 6.7-14.3 10-22.9 10-8.7 0-16.3-3.3-23-10l-464.5-464.5c-6.7-6.7-10-14.3-10-23 0-8.6 3.3-16.3 10-22.9l49.8-49.8c6.6-6.7 14.3-10 22.9-10 8.7 0 16.3 3.3 23 10l391.8 391.8 391.8-391.8c6.6-6.7 14.3-10 22.9-10 8.6 0 16.3 3.3 22.9 10l49.9 49.8c6.6 6.6 9.9 14.3 9.9 22.9 0 8.7-3.3 16.3-9.9 23l-464.6 464.5z"></path></svg>