<?xml version="1.0"?><svg viewBox="0 0 1000 1000" width="1000" height="1000" xmlns="http://www.w3.org/2000/svg"><path d="m948.4 297.4l-144.1 61.7h-90c0-53.2-43.3-96.5-96.6-96.5h-308.6l119.4-119.4c5.9-6 14.2-9.4 22.7-9.4h75.9c13.3 37.4 48.7 64.4 90.6 64.4h257.6c53.2 0 96.6-43.4 96.6-96.6s-43.4-96.6-96.6-96.6h-257.6c-41.9 0-77.3 27-90.6 64.4h-75.9c-25.4 0-50.3 10.3-68.3 28.3l-153.6 153.6-14.7-44.3a106.9 106.9 0 0 0-101.6-73.2c-59 0-107 48-107 107v279.3h225.4c17.7 0 32.2 14.4 32.2 32.2 0 17.8-14.5 32.2-32.2 32.2h-225.4v32.2c0 53.3 43.3 96.6 96.6 96.6h196.1l-158.2 228.5c-10.1 14.6-6.5 34.7 8.2 44.8 14.5 10.1 34.6 6.5 44.7-8.1l134.5-194.3v175.9c0 17.8 14.5 32.2 32.2 32.2s32.2-14.4 32.2-32.2v-175.9l134.5 194.3c10.2 14.6 30.3 18.2 44.8 8.1 14.7-10.1 18.3-30.2 8.2-44.8l-158.2-228.5h196.1c53.3 0 96.6-43.3 96.6-96.6h90c9.9 4.3 146.1 64.4 156.8 64.4 17.8 0 32.2-14.4 32.2-32.2v-321.9c0-23.1-23.5-38.7-44.9-29.6z m-523.9 158.3c-17.7 0-32.2-14.4-32.2-32.2 0-17.7 14.5-32.2 32.2-32.2 17.8 0 32.2 14.5 32.2 32.2 0 17.8-14.4 32.2-32.2 32.2z m128.8 0c-17.8 0-32.2-14.4-32.2-32.2 0-17.7 14.4-32.2 32.2-32.2 17.8 0 32.2 14.5 32.2 32.2 0 17.8-14.4 32.2-32.2 32.2z m225.4 96.6h-64.4v-128.8h64.4v128.8z"></path></svg>