<?xml version="1.0"?><svg viewBox="0 0 1000 1000" width="1000" height="1000" xmlns="http://www.w3.org/2000/svg"><path d="m451.7 680.8c102-23.5 161.6-44.2 115.6-131-140-264.4-37.1-405.7 110.7-405.7 150.7 0 251.1 146.8 110.7 405.7-47.4 87.3 15.5 107.9 115.4 131 88.4 20.4 94.2 63.6 94.2 138.4v36.7h-640.7c0-97.7-7.8-151.5 94.1-175.1z m-450 175.1h277.9c-1.2-291 122.3-189.1 122.3-396 0-89.4-58.3-137.9-133.4-137.9-110.8 0-188 106.1-83 304.3 34.5 65.2-36.7 80.6-113.2 98.3-66.3 15.3-70.6 47.7-70.6 103.8v27.5z"></path></svg>